<svg xmlns="http://www.w3.org/2000/svg" width="1440" height="108" viewBox="0 0 1440 108">
    <defs>
        <filter id="a" width="101%" height="103.6%" x="-.5%" y="-1.3%" filterUnits="objectBoundingBox">
            <feOffset dy="2" in="SourceAlpha" result="shadowOffsetOuter1"/>
            <feGaussianBlur in="shadowOffsetOuter1" result="shadowBlurOuter1" stdDeviation="2"/>
            <feColorMatrix in="shadowBlurOuter1" result="shadowMatrixOuter1" values="0 0 0 0 0 0 0 0 0 0 0 0 0 0 0 0 0 0 0.5 0"/>
            <feMerge>
                <feMergeNode in="shadowMatrixOuter1"/>
                <feMergeNode in="SourceGraphic"/>
            </feMerge>
        </filter>
    </defs>
    <path fill="#2C211B" fill-rule="evenodd" d="M0 5.343v258.673c3.927.632 6.1 3.26 10.491 4.22.12-.647.231-1.274-.364-1.41.595-1.182 1.145 1.066 1.402 1.494.53-.442 1.925.02 1.697-1.228.567.568.794 1.377 2.49 1.13-.634-2.089 1.052.21 1.793-2.146.864 1.417 2.587.601 3.527 1.216.206-.979-.261-1.478-1.404-1.495.945-1.43 1.161 1.053 2.535.677-.282-.49-1.131-.57-.882-1.449 3.002 2.062 9.706 3.788 12.676 3.364-.117-.536-.778-1.225-.976-.543.065-2.248 5.303 2.37 7.14 1.521.364 2.938 8.518.545 12.463.6.749.006 1.461 1.037 1.451 1.043.04-.013 5.755-2.69 7.339-.303-.254-1.527 6.977.097 6.155.98 1.606.353 1.323-1.295 3.203-.645-.367-.707-1.597-.799-2.49-1.123 4.857-1.45 8.118 1.02 11.181 2.777.656-.15 1.132-.487 1.182-1.276 1.132.023.058 1.626.268 2.315 1.569-1.21 2.803-.473 3.824-1.51 3.432 2.876 9.04 1.182 10.711 2.283-.382-.695 1.928-.799 1.186-1.275 2.501-.882 2.024 1.36 5.07 1.34 1.16-.205-.817-1.585-1.353-1.946-.05-1.136 2.832 2.262 4.97 2.255 1.297-.31-1.028-1.437-.217-2.767 2.65 1.73.904 1.866 2.752 3.443.72-.08.554-1.1.72-1.777 2.23 1.94 4.506 3.044 6.678 1.03.275 2.726 2.35-3.517 1.857-.92 1.717-1.325 2.654 2.977 3.824 1.4 1.518.432-.598-1.987-.201-1.098 2.2-1.617 5.465 2.578 6.14-.69-.29 1.805.713 1.122 2.709.98 1.347.007-.633 2.068.197 1.095 1.131.439.94-1.081 2.388-.873 2.63-1.38 5.425.351 8.007 1.295 1.326-.202-.826-1.285-.268-2.309.195.87 2.443 1.914 2.116-.278 1.207-.038.433 1.357 1.402 1.494.927.037 2.822-2.792 3.152-.192.967.01.493-1.508 1.235-1.734 1.747.343-1.055 2.43.268 2.32 2.097.315.385-.92.72-1.772.36 1.824 4.404-.219 2.952 1.627 1.687-.421 2.938-1.6 4.75-.514-1.149-1.013-.434-.764-.786-2.356 1.788.63 2.575-.77 4.606.841.962-.822.026-.58.206-1.81 2.369-.764 9.374 2.85 9.874.376 2.434-.464 5.681 1.817 7.808.203 1.62 2.02 4.5.007 7.141 1.524.193-.77-.753-1.25.15-1.366 1.81.216.07.677.833 1.907 3.847-.412.738.699 4.607.844-.023-.539-.907-.464-1.507-.58 4.316-.586 4.508.42 7.192 1.066 1.113.17.412-1.594.772-2.228 1.099-.559 7.075 1.247 5.26-.469 1.242-1.326 5.135 2.91 5.797-.424 1.057 1.694 3.59.644 2.38-.696-.317-.187-.57-.37-.677-.542.305.187.518.369.677.542 1.682 1.005 5.964 2.09 9.565 1.247-.28-.494-1.144-.564-.879-1.447 1.209-.886 2.913.007 3.563.758.801-1.408-1.635-.487-.83-1.898 1.968.062 4.613.853 4.805-.966 1.435.983.602 2.019 2.386 2.029 1.275-.163-1.642-1.021.196-1.81.987 3.057 8.184 1.028 11.53-.402-2.186-2.48 3.64-4.972 6.504-5.114-.185-.42-.368 2.07-.936 1.923 1.296.232 3.328-2.98 4.044-1.659 1.818.037-.716.831.712 1.148 1.175 1.566 4.433.071 3.784.611 1.549.297 1.237 1.52 1.804.78 3.144 2.513 9.366-4.684 10.39-2.497.812-.319.918 1.518 1.289.736 2.197-.055 2.8 1.033 4.554 1.298 2.928-2.874 8.162-.033 10.645-1.844-1.013-1.023-2.483-1.712-2.339-2.486.97-1.205 1.828 1.149 3.007 1.166-.172-.574-.561-.983-1.458-1.038 1.206-.586 3.001-.521 4.757-.512-.088 1.169 2.34.854.838 1.901.911-.129 4.845.216 2.684-.693.525-1.005 2.407.452 2.484 1.128.73-.238 1.076-.883 1.234-1.727 1.598 1.156 3.291-.589 4.658.4.606.192 1.93-1.16.664-1.315.835-.979 1.628 1.566 2.388 2.029 1.628.05 1.598-1.678 3.772-1.053.03-.447-.598-.405-.988-.54 1.74.195 4.019-1.796 5.123.888 1.654-.57-.465-1.82 1.9-3.044-1.84.065-1.756.387-3.105-.261 4.776-1.014 7.88 3.34 11.087 3.688.822-.04.21-.931-.591-1.32 2.967.728 8.595 3.228 8.03.119 3.812 1.662 6.544-.28 11.22 2.319-.21-1.35 2.864.062 4.238-.557-2.082-1.043-.584-1.21.302-2.722-.092 1.604 3.405.226 5.168.438 4.245.507 8.834 2.51 12.319 1.962.753-.4-.144-.773 1.183-1.275 4.566 2.812 7.898-.552 11.06-.896-.339.038.797 1.634 3.052.716 4.085-1.67 11.5-.214 17.635 1.036 1.767.164 4.128-1.652 5.74.027-.466-1.46 2.398.108 1.65-.778 1.524-.33 4.599 2.272 5.227-.018.969 2.825 3.915 1.188 6.05 1.89-2.289-.74 2.096-1.662-1.345-1.952 3.581.326 9.351 2.063 13.19 3.414 1.62-1.133 3.798-1.47 3.974-2.873 1.058.213-.08 2.007.785 2.358 1.29.644 2.377-1.21 2.015.626.605-.58 2.901-1.37.153-1.36 1.65-1.212 4.445.76 5.737.033.276-.754-.304-.896-.933-1 4.724 1.225 7.64-1.972 15.71-.495.813.14-.55.818.42.946 1.986.76 1.22-1.403 3.206-.638-.308-1.363-.72-.582-2.02-.631 1.854-2.674 6.243.883 9.256 1.237 2.332-.647 1.638-1.375 2.931-2.953 4.28-.101 9.473 1.259 15.371 2.669.593.143 1.807-.367 2.12-.273 1.44.416 3.126 1.891 1.033.083 2.321 1.163 6.647 2.343 9.942 4.508 1.95-.291 3.112-1.427 5.371-1.377-1.815.539 1.436-2.7 1.336-2.635.348-.219 1.54.14 1.547.13.275-.145.467-.277.605-.387-.319-.603.776-.621 0 0 .074.132.188.287.435.477.837.654 5.196-.616 3.301-1.553 6.55 1.598 10.616.867 17.334 3.753.345-.628-1.889-1.272-.364-1.402 3.409 4.035 9.172-1.335 12.827 2.004.62-.025.528-.789.668-1.317.863 1.965 2.219.975 4.51 1.753 1.105-.052-.587-1.47-.837-1.901 1.797-.136 2.894 1.766 4.97 2.255 3.706-1.462 7.507-.644 12.047-.358.224-.67.779-.754 1.748-1.682 2.547 1.46 2.506-.373 3.718-.602 6.773 1.25 22.671 3.795 29.73.23.648.144 2.389 1.532 2.537.672.726.261-.089.393-.105.902 7.15-.566 14.707 4.446 20.497 3.57-.478-.613-3.254-.995-3.571-.763-.182-.423-.374-.848-.94-.99.971-.93 2.792.322 1.75-1.685 4.333 2.368 7.462-.973 11.334 1.415 1.117.29 2.997-1.115 1.75-1.682 2.364-.451 5.11 2.416 7.455 3.374.969-.327.866-1.782 2.733-1.142-.324-.45-.869-.764-1.448-1.034.382-.244 5.158 1.617 3.879 2.616.764-.587 3.01-.4 3.63.309.955-1.662-2.3-.29-1.353-1.952.53.584 3.827 1.508 3.204-.638 2.225 1.714 8.33 2.056 10.144 2.687 3.688 1.465 6.883.347 11.16-1.798.036-.447-.588-.405-.987-.547 4.835-.954 5.364 2.062 10.764 1.83-.273-.638-1.015-.935-1.968-1.085-.78-1.139 3.135.524 3.518 1.213 1.015-.876 1.88-.631 1.285-2.176 1.036.218.875 1.31 1.925 1.532.787-.132-.154-.593.147-1.36 4.35.252 15.289 3.609 14.72-1.04 5.174.605 8.163-1.188 12.16-1.267-.14.491-.515.723-1.045.788 2.882.45 5.313 3.414 9.381 4.042 4.38.68 11.248-3.002 13.342 2.043.507-.313 1.228-.386 2.122-.274.295.889 1.515.444.368 1.405 1.86.257 4.96-1.018 7.287.155 1.853-3.146 8.911.34 10.183-2.34.837.953 4.826 3.798 5.638.935.41 2.109 8.495 1.22 3.773-1.058.866-.192 3.341 2.027 4.349 3.116 1.784-.254.169-1.005 1.234-1.724.667 1.997 1.248-.805 4.032 1.258-.11-1.016 2.549-1.065 2.94-2.959 2.327 1.988 2.665.813 6.055 1.888.876-1.498 7.079-3.897 9.515-1.025 6.455-3.092 14.671-2.57 21.453-.473 3.04.184 6.803-2.332 11.013-.442.654-.058.615-.862.091-.908 3.795-.038 11.135.616 13.33-2.534 3.159 2.882 15.383.108 19.555 2.573 8.72-1.043 15.027-4.336 25.794-1.939 1.54-1.057.709-1.489.297-2.725 6.057 2.944 14.56 2.074 18.453-1.644-.321.345-.622.69-.67 1.318 5.067-.834 11.655-1.775 16.637-4.088 1.905 3.544 8.162 1.817 11.021 4.143 2.774-3.118 13.985-2.803 19.957-1.063.412-2.268 6.472.102 8.991-1.066-.366.853 7.96 1.968 10.345.879.103.783-.5.818-1.139.818 5.472 2.02 8.94 1.939 14.34 2.584-.365-.438-.45-1.07-.324-1.861.442 1.642 4.97 2.718 4.605.849 1.03.097.522 1.295 1.967 1.083 1.01-1.288 3.087-1.443 3.973-2.867 1.268.374 1.692.509 3.522 1.21 1.338.007-.622-.836.199-1.812 4.812.419 10.182 3.26 11.38.969 1.01.132 1.683.611 3.202-.651-.05.457-.103.908-.155 1.366 3.005-3.428 7.597-1.482 12.666-1.224.611-.02.53-.786.662-1.315 6.582 1.205 8.488-.876 13.45 1.137.671.158.47-.878-.133-1.304-.25-.051-.498-.078-.756-.141.29-.082.552 0 .756.14 4.628.936 8.985-.402 13.357-.321.287-1.32-1.015-1.495-.729-2.808 1.007-.765 1.485.322 2.535.676-.184-.429-.368-.858-.932-.993.332-1.746 4.052 1.198 4.332-1.47 3.875 1.438 8.55.617 13.252 2.958 3.874-1.643 9.38-.328 13.444 1.135 2.447-1.889 6.391-2.39 7.538-2.114 1.066-2.622 3.512-1.499 5.2-4.594.581 3.132 4.359.497 4.978 2.252.613-.023.527-.79.674-1.314 5.16 2.354 9.96.937 14.735 3.54 2.652-2.609 4.87-.767 8.478-1.121.206-.976-.263-1.475-1.399-1.492 1.449-1.26 6.742.9 1.549.13.38.563.547 1.275.268 2.315.965.017.486-1.507 1.234-1.727 1.41 2.785 5.532 2.024 8.648 2.104-.721-.592-1.133-1.415-2.44-1.575 5.634.374 11.82 1.644 17.781-.335.72.463 1.569.817 1.356 1.955.719-.93 2.026-2.757 3.299-1.555-1.072-.751.774-1.05-.368-1.405 3.026 1.095 4.323-1.985 8.945-.616.822-.17.087-.472-.467-.496 7.158-4.275 19.349 6.322 29.061 1.544 3.827 1.47 8.124.005 11.848 1.46-1.708-2.508 5.814 1.886 8.471-1.113-.543 1.457.948.78 1.037.084.714.223-.045.802-.618.864.334.461.859.766 1.45 1.043.233-.564.85-1.604 3.258-1.105-.543-.582-.412-1.652-.22-2.76.868-1.385.334 1.646.264 2.313 6.664 2.39 9.655-2.468 13.745-1.585.492-1.192-.97-.967-1.402-1.489.485-.986 2.597-1.31 3.206-.651-.26.696-.863-.47-1.083.367.07.503.995.394.932 1 2.74-1.173 3.704-1.077 6.825-.345.896-.565 1.491-1.447 1.852-2.59 2.313.132-.59 1.128-.25 2.274 2.505-2.645 4.336-.325 6.19-4.06.63.643.881 1.47 1.548.127.746.27-.266.567-.15 1.365 1.702.294.809-2.183 3.25-1.095.02-.847-1.715-.425-1.963-1.083-.984-1.527 2.945 1.744 3.628.304.675.202.293 1.173.311 1.862.503-.22.92-1.196 1.077-.374.798-.123-.132-.59.152-1.36.979.274.214 1.798 1.92 1.541 1.242-.027-.438-1.277-.886-1.451.879-.054 3.471 2.217 3.745 3.982.719-.921 2.53-.683 2.83-2.051.754.756-.686 2.232 1.82 2.445.4-1.257.529.215 1.188-1.277.441 1.424 2.036.062.881 1.457 1.023.232 1.628.038 1.65-.78.893.607 1.621 1.33 2.392 2.03 2.144-.387 2.806-1.58 5.267-.467.595-1.956-1.069.28-.934-.989 2.22-2.12 5.56-.316 6.601-3.108 5.778 2.263 15.102 1.245 17.14 5.57.715-.085.549-1.096.715-1.773 1.212 1.076 2.307 2.23 4.408 2.66-2.733-1.751 3.835-.321 4.088.806.716-.077.551-1.095.716-1.771 1.2.334 2.497 2.188 5.635.936.595.127.344.865.367 1.402.993-1.272 6.767 1.692 8.94-.612 1.228.864 1.349 1.244 2.85 2.533.53-.294.881-.758 1.19-1.277-3.894-.29 1.082-2.174-1.147-3.761 1.008-.571 2.507 2.067 2.75 3.44 1.042-1.084 2.313-1.927 2.985-3.41 3.597-.115 8.013 1.77 9.944 4.497 2.316.346 3.669-1.296 6.258.082.827-1.846.923-3.483.031-5.035-.273-1.22 1.512 2.612 2.24 3.388.765-1.237 2.886-.669 3.247-1.09.598.124.347.858.367 1.4 1.16.225 1.959.057 2.173-.734.683.205.302 1.173.314 1.859.768-.192 1.34-.604 1.705-1.228.657.966 3.238 2.384 2.632-.239 1.918-.128.396 2.22 1.823 2.448 1.74-.592-1.634-1.852.3-2.725.507.377-.092 1.373.78 2.358.698-.1.904-.731 1.648-.779.327-1.066-2.376.055-1.396-1.489.96 1.086 1.712-.25 2.532.674-1.271-1.755-.096-1.273.352-3.173.082 2.596 5.943 2.04 4.607.844.815-.748 1.536 2.087 2.43 1.582.797-.132-.138-.603.151-1.364 1.142-.122 2.024 2.946 2.539.674.594.126.345.864.367 1.402.616-.02.528-.787.668-1.315.698.748 1.402 1.489 2.381 2.03.72-.077.553-1.097.72-1.766.602.122.35.863.37 1.405 1.55-.267.65-.631.715-1.775 1.813.225.993 2.346 3.418 2.122-1.33-2.46-.031-.2 2.217-1.178-1.46 1.682.831-.444.373 1.398 1.232-1.288 2.942.187 5.74.029 6.832 3.438 14.192 5.093 17.823 8.83 7.178.732 10.944 1.056 17.992 2.441-.109-1.03-2.53-.399-3.566-.759 8.925.29 16.937 2.249 28.026 1.455 1.351.007-.62-.836.203-1.81 1.078.608 1.549 1.663 2.898 2.072.29-1.18-1.967-.526-1.352-1.943 2.218.004 3.683.516 5.251.838V13.728c-5.471.208-7.566-3.22-12.722-4.345-.119.643-.227 1.278.364 1.407-.6 1.183-1.143-1.065-1.401-1.493-.532.442-1.924-.02-1.704 1.23-.563-.569-.793-1.379-2.485-1.131.635 2.09-1.052-.211-1.797 2.145-.86-1.414-2.578-.601-3.52-1.216-.208.976.259 1.478 1.396 1.493-.941 1.429-1.157-1.054-2.535-.675.288.491 1.14.57.89 1.449-3.004-2.059-9.71-3.787-12.683-3.365.126.536.786 1.226.98.543-.063 2.247-5.307-2.364-7.14-1.52.612 4.85-9.497-.56-12.46-.6-.755-.004-1.463-1.036-1.453-1.036-.041.005-5.752 2.683-7.34.296.262 1.53-6.978-.099-6.157-.982-1.598-.351-1.32 1.294-3.2.646.366.708 1.593.798 2.488 1.126-4.858 1.448-8.11-1.022-11.18-2.779-.657.148-1.124.493-1.186 1.276-1.128-.021-.052-1.627-.265-2.319-1.567 1.212-2.798.477-3.824 1.513-3.43-2.877-9.035-1.178-10.701-2.28.372.694-1.934.798-1.192 1.275-2.506.883-2.024-1.359-5.072-1.345-1.165.209.815 1.588 1.354 1.95.052 1.137-2.835-2.263-4.972-2.258-1.3.308 1.024 1.439.219 2.768-2.648-1.73-.907-1.865-2.753-3.442-.721.078-.56 1.1-.721 1.774-2.23-1.933-4.51-3.039-6.677-1.025-.277-2.73-2.347.605-1.862-1.994-1.714 1.32-2.65-.065-3.818 1.512-1.52-.432.595-.928.2-1.816-2.202 1.617-5.465.338-6.142 3.603.289-1.801-.71-4.034-2.704-3.89-1.347-.005.624.843-.198 1.814-1.138-.435-.94-1.83-2.388-2.037-2.63 1.384-5.42 2.56-8.007 1.617-1.33.204.824 1.285.265 2.312-.197-.875-2.447-1.915-2.117.274-1.21.04-.431-1.356-1.402-1.496-.925-.033-2.82 2.794-3.148.195-.97-.011-.492 1.506-1.237 1.733-1.742-.344 1.054-2.427-.268-2.316-2.097-.315-.382.925-.725 1.769-.355-1.821-4.4.223-2.945-1.626-1.69.42-2.938 1.6-4.756.513 1.156 1.014.436.765.788 2.364-1.79-.641-2.57.764-4.605-.848-.962.827-.022.578-.206 1.808-2.365.765-9.372-2.84-9.873-.374-2.436.466-5.683-1.818-7.808-.204-1.617-2.02-4.498-.007-7.143-1.524-.189.77.759 1.256-.147 1.363-1.816-.213-.069-.668-.836-1.904-3.845.41-.74-.7-4.605-.844.021.537.903.463 1.506.587-4.317.577-4.512-.428-7.193-1.073-1.116-.169-.412 1.593-.772 2.227-1.097.561-7.073-1.244-5.258.471-1.242 1.327-5.137-2.912-5.795.429-1.06-1.701-3.594-.651-2.387.683.32.194.573.379.681.547a2.932 2.932 0 0 1-.68-.547c-1.675-.991-5.959-2.077-9.557-1.239.275.491 1.134.564.882 1.447-1.22.885-2.914-.007-3.574-.758-.802 1.415 1.637.486.836 1.899-1.969-.062-4.612-.852-4.804.963-1.439-.982-.604-2.018-2.388-2.03-1.278.165 1.64 1.026-.197 1.813-.992-3.058-8.184-1.027-11.53.401 2.185 2.478-3.641 2.06-6.502 2.2.18.421.361.847.934.99-1.296-.233-3.332.065-4.044-1.254-1.822-.035.712 2.088-.71 1.765-1.178-1.562-4.438-.065-3.788-.607-1.549-.301-1.241-1.525-1.798-.78-3.146-2.516-9.367 1.77-10.402-.418-.807.319-.911 1.394-1.278 2.179-2.202.053-2.807-1.038-4.556-1.3-2.927 2.872-8.16.032-10.645 1.846 1.007 1.02 2.484 1.71 2.333 2.484-.966 1.207-1.825-1.15-3-1.165.165.57.557.982 1.453 1.036-1.196.586-2.996.522-4.756.512.089-1.172-2.339-.854-.834-1.9-.91.128-4.848-.218-2.684.689-.526 1.007-2.406-.446-2.487-1.128-.729.24-1.077.885-1.235 1.728-1.594-1.157-3.29.59-4.656-.398-.61-.187-1.925 1.162-.662 1.315-.833.98-1.639-1.566-2.392-2.029-1.633-.049-1.596 1.676-3.771 1.053-.03.446.595.407.984.542-1.742-.2-4.01 1.795-5.12-.89-1.653.57.47 1.822-1.9 3.042 1.841-.063 1.76-.382 3.103.266-4.773 1.01-7.881-3.34-11.084-3.69-.821.041-.205.929.595 1.32-2.975-.729-8.601-3.225-8.029-.12-3.818-1.662-6.546.277-11.226-2.32.208 1.348-2.86-.06-4.237.56 2.078 1.043.58 1.212-.303 2.719.098-1.604-3.407-.224-5.17-.436-4.242-.508-8.823-2.507-12.314-1.96-.759.398.14.77-1.182 1.275-4.568-2.813-7.896.55-11.062.893.333-.035-.806-1.632-3.054-.716-4.087 1.67-11.5.214-17.632-1.036-1.763-.164-4.13 1.65-5.74-.025.463 1.465-2.404-.103-1.654.775-1.519.331-4.596-2.268-5.214.02-.985-2.824-3.93-1.192-6.06-1.888 2.291.734-2.09 1.658 1.343 1.946-3.577-.322-9.351-2.058-13.192-3.412-1.616 1.134-3.8 1.473-3.969 2.872-1.06-.208.083-2.003-.781-2.356-1.296-.646-2.384 1.21-2.017-.626-.61.58-2.91 1.37-.147 1.36-1.66 1.21-4.456-.76-5.745-.031-.279.755.31.893.933.998-4.73-1.227-7.646 1.97-15.712.497-.813-.144.553-.82-.418-.948-1.984-.758-1.218 1.403-3.204.638.304 1.361.72.582 2.02.632-1.857 2.674-6.252-.884-9.26-1.24-2.335.65-1.638 1.377-2.936 2.956-4.275.106-9.467-1.26-15.367-2.67-.595-.143-1.807.367-2.116.273-1.44-.416-3.13-1.89-1.04-.083-2.317-1.161-6.64-2.343-9.942-4.505-1.946.294-3.1 1.421-5.37 1.374 1.819-.538-1.432 2.7-1.334 2.633-.348.221-1.538-.132-1.552-.128a3.734 3.734 0 0 0-.6.387c.324.606-.766.619 0 0-.07-.135-.188-.285-.429-.477-.838-.648-5.201.616-3.307 1.553-6.546-1.598-10.614-.868-17.333-3.755-.349.63 1.892 1.276.37 1.404-3.414-4.033-9.177 1.335-12.832-2.004-.616.024-.53.794-.67 1.319-.856-1.964-2.217-.977-4.502-1.755-1.116.052.581 1.467.83 1.898-1.796.145-2.895-1.76-4.974-2.25-3.701 1.466-7.504.644-12.041.356-.223.67-.776.754-1.752 1.682-2.537-1.458-2.5.377-3.718.599-6.767-1.249-22.672-3.794-29.731-.222-.645-.15-2.388-1.539-2.532-.675-.73-.263.093-.397.1-.904-7.15.568-14.708-4.444-20.49-3.572.472.615 3.247.999 3.573.765.184.422.366.848.928.991-.967.934-2.777-.322-1.744 1.685-4.335-2.368-7.453.976-11.333-1.415-1.112-.288-3 1.114-1.747 1.682-2.37.45-5.117-2.417-7.461-3.375-.963.328-.859 1.782-2.736 1.142.33.452.867.764 1.451 1.037-.382.241-5.148-1.618-3.883-2.62-.76.59-3.001.4-3.625-.308-.948 1.663 2.302.288 1.353 1.95-.53-.58-3.828-1.508-3.205.639-2.217-1.71-8.333-2.052-10.144-2.687-3.687-1.464-6.877-.348-11.158 1.8-.034.447.591.407.985.545-4.836.958-5.366-2.059-10.764-1.83.272.639 1.014.937 1.972 1.086.79 1.138-3.14-.526-3.516-1.215-1.02.88-1.886.636-1.285 2.178-1.042-.219-.882-1.312-1.924-1.532-.786.135.14.593-.15 1.358-4.352-.248-15.283-3.607-14.733 1.043-5.168-.604-8.15 1.19-12.143 1.264.133-.492.514-.718 1.04-.788-2.876-.446-5.323-3.414-9.384-4.04-4.381-.674-11.249 3.002-13.342-2.042-.508.31-1.218.387-2.115.27-.302-.886-1.514-.439-.376-1.398-1.859-.264-4.957 1.017-7.286-.158-1.852 3.145-8.904-.342-10.184 2.336-.835-.951-4.82-3.796-5.633-.932-.42-2.109-8.5-1.222-3.769 1.056-.874.194-3.343-2.025-4.355-3.117-1.786.26-.17 1.01-1.227 1.728-.676-1.998-1.249.81-4.041-1.261.103 1.02-2.542 1.067-2.94 2.962-2.327-1.99-2.658-.812-6.06-1.89-.865 1.504-7.066 3.901-9.504 1.027-6.459 3.09-14.679 2.572-21.459.472-3.041-.184-6.803 2.33-11.006.443-.66.058-.622.862-.101.906-3.79.04-11.13-.616-13.326 2.537-3.151-2.884-15.383-.104-19.555-2.576-8.714 1.041-15.031 4.337-25.792 1.941-1.539 1.056-.708 1.488-.297 2.724-6.061-2.943-14.56-2.074-18.454 1.642.316-.344.624-.69.669-1.316-5.06.833-11.655 1.782-16.635 4.09-1.911-3.543-8.167-1.823-11.023-4.145-2.774 3.116-13.98 2.806-19.956 1.063-.415 2.267-6.476-.1-8.99 1.068.366-.857-7.961-1.97-10.342-.88-.106-.784.496-.819 1.135-.819-5.472-2.02-8.944-1.939-14.34-2.584.36.441.444 1.07.323 1.861-.436-1.643-4.969-2.72-4.605-.85-1.026-.093-.522-1.295-1.973-1.082-1.003 1.291-3.09 1.444-3.97 2.869-1.267-.378-1.69-.512-3.516-1.215-1.34-.006.62.842-.201 1.817-4.812-.42-10.183-3.261-11.376-.968-1.014-.13-1.69-.616-3.199.648.044-.45.095-.908.147-1.358-3.004 3.418-7.593 1.474-12.662 1.215-.616.024-.532.79-.664 1.32-6.583-1.21-8.49.872-13.452-1.143-.671-.157-.47.88.13 1.306.25.048.502.08.756.144a.868.868 0 0 1-.756-.144c-4.622-.933-8.982.401-13.353.322-.282 1.322 1.014 1.494.728 2.808-1.007.765-1.484-.322-2.535-.673.184.426.369.852.934.993-.336 1.743-4.052-1.203-4.338 1.466-3.872-1.438-8.544 5.211-13.246 2.874-3.875 1.637-9.377.322-13.443-1.14-2.453 1.894-6.387 2.396-7.538 2.118-1.067 2.623-3.515-4.333-5.204-1.236-.58-3.13-4.356-.495-4.974-2.253-.612.025-.524.789-.671 1.315-5.16-2.357-9.97 4.893-14.744 2.292-2.648 2.601-4.867-5.064-8.478-4.714-.197.98.27 1.48 1.404 1.494-1.452 1.261-6.748-.897-1.553-.127-.376-.568-.542-1.277-.27-2.319-.957-.014-.48 1.508-1.23 1.727-1.414-2.785-5.532 3.81-8.643 3.726.71.59 1.124-4.415 2.436-4.253-5.638-.374-11.82-1.635-17.786.335-.711-.462-1.569 5.005-1.351 3.875-.724.93-2.031-3.073-3.302-4.273 1.076.75-.772 1.05.374 1.403-3.03-1.095-4.324 1.985-8.947.616-.827.17-.092.472.463.496-7.156 4.272-19.35-6.32-29.057-1.542-3.828-1.466-8.126-.006-11.847-1.46 1.701 2.506-5.818-1.89-8.47 1.112.54-1.458-.952-.779-1.036-.084-.715-.218.04-.804.617-.865-.338-.457-.863-.768-1.454-1.035-.224.56-.849 1.596-3.258 1.096.543.586.415 1.652.22 2.763-.87 1.385-.333-1.647-.264-2.312-6.66-2.39-9.653 2.466-13.749 1.583-.488 1.19.973.968 1.406 1.488-.476.983-2.6 1.31-3.206.651.261-.693.86.472 1.084-.367-.07-.502-.999-.39-.937-1-2.736 1.172-3.691 1.079-6.82.346-.897.563-1.496 1.447-1.851 2.589-2.315-.13.59-1.126.25-2.267-2.506 2.638-4.342.315-6.19 4.053-.632-.642-.881-1.468-1.55-.128-.749-.27.264-.567.147-1.366-1.694-.292-.804 2.183-3.247 1.101-.023.844 1.718.424 1.962 1.077.984 1.529-2.942-1.736-3.62-.303-.682-.204-.297-1.169-.318-1.86-.5.219-.918 1.197-1.08.372-.79.124.135.59-.147 1.36-.976-.273-.22-1.796-1.926-1.539-1.237.026.446 1.276.895 1.45-.886.054-3.476-2.219-3.745-3.98-.722.918-2.53.68-2.838 2.05-.75-.756.698-2.233-1.818-2.447-.398 1.256-.529-.214-1.183 1.275-.445-1.423-2.043-.06-.886-1.454-1.02-.232-1.624-.04-1.65.78-.888-.605-1.618-1.33-2.39-2.031-2.14.388-2.807 1.579-5.268.467-.598 1.956 1.07-.277.938.992-2.219 2.124-5.566.314-6.6 3.108-5.778-2.268-15.108-1.247-17.147-5.568-.712.078-.547 1.09-.712 1.771-1.216-1.078-2.307-2.232-4.407-2.664 2.732 1.75-3.836.329-4.088-.804-.714.085-.556 1.096-.714 1.771-1.204-.33-2.5-2.188-5.637-.938-.596-.123-.35-.863-.373-1.4-.987 1.272-6.761-1.692-8.935.613-1.224-.863-1.348-1.247-2.85-2.531-.527.292-.886.752-1.187 1.274 3.897.288-1.084 2.174 1.143 3.761-1.007.573-2.502-2.07-2.748-3.44-1.048 1.088-2.314 1.926-2.986 3.41-3.6.113-8.015-1.771-9.944-4.5-2.318-.336-3.672 1.3-6.26-.08-.824 1.85-.92 3.484-.025 5.036.268 1.222-1.52-2.614-2.24-3.388-.764 1.237-2.89.67-3.25 1.095-.6-.127-.349-.862-.363-1.402-1.166-.23-1.963-.06-2.175.73-.687-.198-.305-1.17-.316-1.856-.771.188-1.341.6-1.705 1.23-.664-.973-3.239-2.382-2.63.233-1.917.13-.4-2.217-1.829-2.44-1.733.584 1.638 1.846-.297 2.717-.51-.376.091-1.37-.779-2.356-.698.105-.904.728-1.649.779-.331 1.067 2.376-.055 1.395 1.487-.959-1.085-1.71.26-2.534-.667 1.278 1.752.098 1.275-.349 3.173-.081-2.593-5.946-2.043-4.606-.848-.811.744-1.539-2.09-2.432-1.582-.797.134.144.6-.15 1.364-1.139.12-2.028-2.947-2.538-.675-.598-.123-.35-.863-.364-1.403-.62.02-.532.789-.669 1.313-.7-.742-1.403-1.482-2.388-2.03-.719.083-.55 1.098-.719 1.767-.598-.123-.345-.863-.368-1.401-1.542.265-.649.628-.72 1.774-1.806-.228-.987-2.345-3.407-2.123 1.329 2.46.025.204-2.223 1.181 1.461-1.687-.834.443-.37-1.4-1.235 1.286-2.943-.189-5.734-.029-6.844-3.439-14.205-5.097-17.83-8.83-7.184-.731-10.945-1.059-17.993-2.442.11 1.03 2.526.4 3.568.759-8.924-.287-16.942-2.248-28.033-1.455-1.344-.005.625.839-.193 1.81C3.487 5.2 3.016 4.148 1.664 3.736c-.286 1.18 1.968.527 1.352 1.944C1.84 5.68.886 5.526 0 5.343" filter="url(#a)" transform="translate(-7 -174)"/>
</svg>
