<svg xmlns="http://www.w3.org/2000/svg" xmlns:xlink="http://www.w3.org/1999/xlink" width="397" height="112" viewBox="0 0 397 112">
    <defs>
        <path id="a" d="M0 .917H396.73V112H0z"/>
    </defs>
    <g fill="none" fill-rule="evenodd">
        <path fill="#503F33" d="M358.017 92.609c-10.342-13.43-31.987-17.994-59.143-17.787 18.14 2.486 53.305 23.867 59.143 17.787M62.222 13.159c-5.472 7.549-8.819 22.342 8.616 27.977 4.357-2.515-1.724-11.272-1.724-11.272s-1.926-13.283-4.562-14.995c-2.635-1.71-2.33-1.71-2.33-1.71M28.772 45.881c-.435.112-.924.341-1.51.557-.594.21-1.206.559-1.907.88-.658.395-1.415.77-2.13 1.29-.745.483-1.483 1.054-2.234 1.669-.728.633-1.5 1.283-2.193 2.024-.73.713-1.405 1.496-2.078 2.281-.642.808-1.31 1.607-1.88 2.448a39.278 39.278 0 0 0-1.664 2.485 52.303 52.303 0 0 0-1.946 3.392c.095.464.16.938.184 1.42.091 2.042-.321 4.062-.674 6.076l-.03.422c.341-.192.62-.497.749-.897l.425-1.323c.263-.864.674-2 1.183-3.384.546-1.38 1.203-2.984 2.037-4.642.407-.835.852-1.685 1.347-2.526.464-.86 1.021-1.676 1.556-2.512.57-.81 1.141-1.624 1.768-2.373.596-.78 1.268-1.469 1.908-2.149.662-.658 1.318-1.282 1.99-1.818.64-.572 1.334-1.003 1.94-1.452.647-.378 1.218-.784 1.774-1.045.55-.264 1.018-.543 1.434-.693l1.297-.522-1.346.392"/>
        <g>
            <mask id="b" fill="#fff">
                <use xlink:href="#a"/>
            </mask>
            <path fill="#503F33" d="M388.915 75.612a1.566 1.566 0 0 0-.091-.48c.185.246.369.494.55.738-.05-.032-.1-.061-.15-.095-.096-.062-.207-.107-.309-.163zm-6.914-1.666l-1.858.14c-.615.072-1.215.219-1.822.324-.616.09-1.188.31-1.779.476-.59.17-1.176.345-1.732.593l-1.694.685a.784.784 0 0 0 .07 1.478l.133.039c.708.4 1.42.552 2.044 1.06l.952.63.881.769c.6.475 1.13 1.072 1.663 1.646.558.541 1.015 1.215 1.52 1.823.514.598.92 1.304 1.392 1.945.485.639.833 1.375 1.28 2.045.44.675.805 1.399 1.21 2.103.413.7.799 1.417 1.153 2.155.388.723.764 1.456 1.065 2.222.313.759.683 1.509.914 2.301.013.056.035.112.051.168-.005-.01-.01-.018-.013-.027-.428-.741-.817-1.512-1.311-2.224a24.647 24.647 0 0 0-1.499-2.093 23.965 23.965 0 0 0-1.645-1.864 18.244 18.244 0 0 0-1.716-1.562c-.546-.492-1.165-.841-1.677-1.219-.568-.305-1.062-.62-1.542-.824-.485-.19-.888-.392-1.246-.491-.714-.197-1.123-.307-1.123-.307l1.071.435c.337.138.714.386 1.157.624.44.25.887.616 1.39.971.455.427.998.821 1.466 1.359.5.497.98 1.068 1.45 1.678.47.606.918 1.264 1.34 1.946.421.688.822 1.395 1.17 2.132.382.719.66 1.49.972 2.22.253.756.548 1.481.727 2.217.222.738.388 1.458.52 2.146-.026-.037-.04-.075-.068-.112l-.731-1.069c-.284-.334-.575-.675-.873-1.022-.563-.717-1.3-1.304-1.971-1.964-.751-.57-1.468-1.201-2.28-1.692-3.149-2.127-6.713-3.368-9.396-4.042a32.257 32.257 0 0 0-3.292-.605c-.8-.078-1.26-.121-1.26-.121s.451.092 1.236.257c.778.186 1.882.493 3.17.947.63.263 1.334.488 2.036.832.716.308 1.45.67 2.192 1.079.75.389 1.484.865 2.225 1.337.722.506 1.457 1.01 2.122 1.596.395.3.753.636 1.1.979l-.181-.096c-1.607-.8-3.296-1.346-4.99-1.771a47.305 47.305 0 0 0-5.11-.938 71.152 71.152 0 0 0-5.108-.498c-3.294-.222-6.57-.308-9.826-.347.048-.006.108-.006.153-.014.556-.152.975-.223 1.444-.442.441-.224.884-.443 1.05-.624l.534-.553a.033.033 0 0 0 .006-.01c.011-.01.026-.014.035-.026l.004-.003a12.125 12.125 0 0 0 2.836-4.045c.362-.734.567-1.507.854-2.262.198-.768.415-1.538.588-2.312.314-1.549.538-3.106.7-4.66.149-1.558.246-3.113.304-4.665.191-6.208-.128-12.37-.434-18.488-.101-2.029-.203-4.053-.298-6.073.498.09.996.17 1.49.238 1.137.091 2.223.453 3.342.608 1.132.146 2.198.522 3.275.867l1.616.51 1.537.711 1.542.707c.511.239.969.576 1.457.86.962.593 1.953 1.147 2.812 1.89.88.711 1.82 1.353 2.595 2.186.798.805 1.671 1.54 2.366 2.442.717.878 1.53 1.688 2.138 2.651.633.944 1.36 1.832 1.882 2.846.551.997 1.186 1.954 1.62 3.012.304.672.613 1.342.9 2.022-.97-1.456-2.05-2.902-3.276-4.238-.726-.807-1.508-1.565-2.278-2.298-.796-.71-1.57-1.413-2.38-2.024-.777-.646-1.597-1.184-2.348-1.722-.784-.492-1.506-.984-2.222-1.361a22.087 22.087 0 0 0-3.522-1.642c-.433-.179-.804-.235-1.043-.313l-.369-.101.36.136c.23.099.586.187.999.406.84.397 2.012 1.016 3.308 1.938.662.432 1.326.982 2.043 1.533.685.595 1.428 1.19 2.125 1.89.727.663 1.412 1.417 2.113 2.17.675.776 1.352 1.572 1.97 2.407a33.167 33.167 0 0 1 3.193 5.149c.31.592.552 1.185.792 1.766-.536-.669-1.152-1.298-1.746-1.96-.695-.685-1.386-1.39-2.132-2.037-2.942-2.632-6.281-4.773-9.004-5.896a15.887 15.887 0 0 0-3.382-1.043 27.728 27.728 0 0 0-1.333-.117s.483.079 1.304.251c.807.247 1.941.647 3.192 1.36 2.528 1.362 5.541 3.775 8.088 6.58.523.558.998 1.153 1.475 1.736-.03-.02-.05-.05-.08-.07 0 0-.225-.124-.613-.343-.37-.218-.965-.535-1.713-.907-1.45-.719-3.472-1.51-5.58-1.893-2.106-.407-4.209-.37-5.741-.275l-2.554.177s1.013.13 2.535.322c1.513.205 3.503.573 5.314 1.313.918.364 1.79.812 2.575 1.28l-.347-.016zm-29.165 17.71c-1.18-.258-2.538-.65-4.007-1.118-1.48-.45-3.072-1.024-4.775-1.6l-5.356-1.899c-1.869-.645-3.798-1.345-5.79-1.985-1.986-.66-4.005-1.328-6.026-1.999a978.122 978.122 0 0 1-11.887-3.92 173.27 173.27 0 0 0-8.57-2.686c5.871.027 11.742.3 17.55 1.025 6.362.797 12.69 2.106 18.602 4.482 2.99 1.112 5.775 2.658 8.427 4.37 2.35 1.596 4.449 3.507 6.33 5.614-.175.056-.333.032-.507.093-.201.053-.631.019-.981.059a16.595 16.595 0 0 1-3.01-.435zm-7.243 2.625c-1.65-.066-3.303-.125-4.93-.245-1.63-.122-3.256-.262-4.823-.538-.8-.104-1.57-.265-2.327-.454-.778-.149-1.502-.389-2.22-.634-1.459-.459-2.704-1.177-3.803-1.964-.45-.47-1.054-.828-1.383-1.388-.182-.267-.436-.492-.586-.788l-.46-.903c-.352-.605-.409-1.256-.715-1.934-.073-.432-.14-.879-.213-1.33.648.309 1.299.62 1.95.925l5.74 2.714c1.893.902 3.79 1.72 5.64 2.488 1.856.755 3.672 1.456 5.43 2.041a55.876 55.876 0 0 0 5.038 1.482c1.238.273 2.385.486 3.489.625-1.95-.016-3.895-.04-5.827-.097zm13.738-8.723l-.008.06c-.001-.019-.003-.024-.005-.044.028-.148.023-.066.013-.016zm-74.14-10.845c-12.988.904-25.901 2.496-38.748 4.424-12.85 1.918-25.638 4.171-38.395 6.531l-38.216 7.253c-12.727 2.414-25.46 4.773-38.22 6.798-12.753 1.995-25.57 3.728-38.332 4.208-6.358.181-12.752.064-18.794-1.046-3.15-.565-6.24-1.547-8.77-3.016.533.118 1.077.224 1.638.321.959.186 1.966.256 2.976.364 1.019.043 2.048.124 3.075.086 4.118-.008 8.145-.78 11.061-1.614a36.083 36.083 0 0 0 3.453-1.212l1.26-.572-1.306.441c-.843.255-2.053.576-3.526.858-2.945.534-6.95.888-10.878.5-.983-.06-1.951-.236-2.904-.37-.939-.199-1.874-.356-2.742-.618-.875-.243-1.715-.488-2.477-.803-.781-.266-1.476-.607-2.112-.919-.666-.285-1.165-.637-1.639-.912l-.625-.374c.111-1.2.232-2.399.234-3.587-.002-.176 0-.352 0-.53.203.062.398.122.61.192 1.468.442 3.194.811 5.047 1.07 1.853.261 3.837.402 5.812.434 1.977.006 3.95-.062 5.782-.298 1.836-.188 3.523-.564 4.945-.93.7-.234 1.352-.406 1.904-.634.548-.242 1.035-.418 1.412-.62l1.162-.662-1.219.536c-.39.16-.892.286-1.448.466-.56.168-1.222.27-1.922.428-1.43.212-3.1.407-4.902.407-1.797.045-3.714-.088-5.612-.29a45.56 45.56 0 0 1-5.495-.984c-1.721-.425-3.282-.934-4.559-1.467-.581-.262-1.145-.482-1.57-.725-.017-.384-.014-.773-.05-1.155l-.163-2.354-.218-1.844c.612.267 1.29.456 1.992.704.79.177 1.611.433 2.476.547 1.718.323 3.558.427 5.377.462 3.645.035 7.222-.397 9.875-.827 2.652-.426 4.397-.803 4.397-.803s-1.779.18-4.45.307c-2.666.13-6.235.155-9.715-.274-1.734-.228-3.455-.523-4.987-.996-.782-.192-1.481-.508-2.164-.738-.642-.32-1.283-.554-1.799-.883-.522-.314-1.026-.586-1.353-.877-.039-.03-.07-.051-.106-.078-.084-.538-.166-1.076-.252-1.61-.166-1.037-.35-2.06-.53-3.085.703.368 1.499.639 2.341.906.866.307 1.818.44 2.775.648.972.102 1.97.273 2.984.273 1.014.064 2.037.021 3.057-.022 4.075-.237 8.005-1.187 10.855-2.114a47.764 47.764 0 0 0 3.394-1.256l1.254-.552-1.3.423c-.834.253-2.03.582-3.48.904-1.453.302-3.156.616-4.995.795-1.832.216-3.8.264-5.741.2-.972-.058-1.937-.114-2.871-.269-.945-.093-1.836-.347-2.706-.523-.836-.278-1.672-.474-2.388-.82-.73-.318-1.41-.618-1.967-1.006l-.819-.505-.619-.515c-.16-.132-.31-.25-.456-.367-.128-.704-.259-1.413-.388-2.115a335.624 335.624 0 0 1-.756-4.246c.548.252 1.117.496 1.736.697.9.362 1.88.613 2.889.877 1.005.278 2.069.427 3.132.634 1.078.116 2.161.305 3.257.344 4.367.326 8.714-.068 11.892-.71 1.593-.303 2.885-.7 3.778-1 .877-.345 1.367-.56 1.367-.56s-.511.17-1.409.428c-.91.214-2.219.486-3.812.638-3.178.34-7.47.32-11.628-.385-1.045-.135-2.06-.415-3.07-.618-.984-.29-1.971-.52-2.877-.867-.91-.333-1.79-.646-2.569-1.05a15.51 15.51 0 0 1-2.155-1.161 8.134 8.134 0 0 1-1.093-.72c-.063-.4-.134-.8-.193-1.2l-.582-4.45a74.076 74.076 0 0 1-.23-2.384l1.405.999 2.47 1.424c.921.414 1.863.91 2.886 1.304 1.03.372 2.075.801 3.187 1.078 1.092.342 2.23.571 3.363.797 4.552.838 9.18.734 12.547.192 1.692-.237 3.067-.603 4.02-.866.946-.299 1.477-.49 1.477-.49s-.548.145-1.509.356c-.97.177-2.359.419-4.04.502-.84.074-1.752.063-2.714.074-.96-.04-1.973-.043-3.014-.167a33.882 33.882 0 0 1-3.185-.43 37.205 37.205 0 0 1-3.22-.73c-1.062-.312-2.115-.622-3.114-1.036-1.024-.352-1.966-.845-2.891-1.274-.915-.448-1.744-.989-2.556-1.438l-2.136-1.501c-.598-.509-1.144-.975-1.63-1.387-.486-.381-.897-.888-1.243-1.216l-.397-.407c-.027-.774-.048-1.55-.085-2.326-.092-1.493.029-2.978.03-4.472 0-.03.004-.06.004-.091.332.29.681.587 1.047.902.775.557 1.565 1.234 2.493 1.795.897.61 1.879 1.189 2.912 1.747 1.024.576 2.126 1.082 3.24 1.596 1.131.476 2.274.968 3.458 1.355 1.158.443 2.365.75 3.532 1.097 1.189.276 2.348.59 3.495.768 1.142.2 2.244.381 3.305.461 1.052.135 2.053.165 2.976.186.922.056 1.767-.008 2.515-.037.748-.014 1.396-.07 1.927-.154l1.668-.21-1.677.073c-.534.04-1.178.043-1.921-.003-.741-.034-1.576-.037-2.48-.168-.905-.096-1.882-.205-2.904-.421-1.028-.162-2.091-.429-3.185-.714-1.1-.265-2.204-.665-3.33-1.022-1.105-.434-2.24-.823-3.325-1.343-1.107-.465-2.166-1.027-3.208-1.57-1.022-.578-2.03-1.145-2.952-1.769a31.553 31.553 0 0 1-2.593-1.86c-.825-.593-1.487-1.276-2.154-1.837-.601-.618-1.181-1.184-1.62-1.695-.37-.478-.696-.848-.973-1.224l.026-.328.189-2.233.335-2.2c.254-1.47.375-2.938.765-4.418.229 1.693.72 3.357 1.57 4.886 1.9 3.327 5.033 5.674 8.312 7.288 3.304 1.655 6.845 2.628 10.392 3.324 7.114 1.395 14.34 1.683 21.506 1.545 7.176-.131 14.317-.766 21.417-1.613 7.102-.844 14.168-1.948 21.19-3.246 7.035-1.251 14.014-2.762 20.983-4.304a706.817 706.817 0 0 0 20.794-5.107l20.624-5.496c6.874-1.8 13.76-3.555 20.667-5.21 6.9-1.681 13.827-3.246 20.762-4.758 6.942-1.463 13.893-2.898 20.873-4.128 6.977-1.234 13.97-2.387 20.985-3.267 7.014-.893 14.043-1.597 21.07-1.96 7.025-.359 14.055-.381 20.98.224 3.47.252 6.881.806 10.25 1.446 3.333.754 6.634 1.624 9.72 2.914 5.311 2.187 10.047 5.481 13.211 9.93-.046.047-.08.1-.127.148-.18-.186-.348-.37-.553-.56a20.242 20.242 0 0 0-2.428-1.864c-3.69-2.442-9.04-4.45-14.5-5.8-5.463-1.358-11.05-2.067-15.255-2.109-2.1-.032-3.85.117-5.056.325-1.207.214-1.864.451-1.864.451s.673-.189 1.882-.315c1.206-.12 2.943-.14 5.014.038 4.14.338 9.599 1.437 14.834 3.148 5.229 1.69 10.253 4.044 13.364 6.459.782.595 1.428 1.19 1.957 1.737.336.362.599.695.828 1.007-.825 1.576-1.168 3.105-1.487 4.608-.068-.042-.128-.077-.195-.12-.66-.43-1.415-.792-2.234-1.235a44.27 44.27 0 0 0-5.783-2.439c-1.076-.389-2.207-.721-3.36-1.043a57.844 57.844 0 0 0-3.522-.84 49.844 49.844 0 0 0-3.56-.603c-1.172-.195-2.349-.253-3.469-.373-1.132-.037-2.218-.144-3.256-.112-1.034-.005-2.011.005-2.91.078-.9.037-1.723.119-2.446.218-.727.082-1.357.158-1.87.269l-1.615.299 1.633-.163c.516-.066 1.15-.09 1.874-.11.724-.039 1.54-.052 2.434-.012.887.002 1.851.072 2.865.162 1.016.053 2.077.251 3.175.376 1.09.213 2.223.361 3.352.65 1.136.241 2.274.545 3.403.875 1.128.328 2.245.7 3.326 1.094 1.083.403 2.14.811 3.134 1.269a41.782 41.782 0 0 1 5.256 2.755c.719.472 1.412.878 1.937 1.293.543.417 1.009.705 1.412 1.07a38.823 38.823 0 0 0-.126 1.915 58.564 58.564 0 0 0-.03 1.914c-.445-.234-.913-.46-1.407-.648l-1.317-.555c-.464-.154-.943-.31-1.434-.474-.98-.349-2.032-.603-3.118-.87-1.08-.298-2.217-.455-3.358-.695-1.15-.172-2.314-.361-3.482-.494a96.427 96.427 0 0 0-6.864-.547c-2.189-.103-4.23-.136-5.978-.146l-4.22-.008c-1.019-.016-1.599-.027-1.599-.027l1.592.165 4.202.37c1.737.158 3.76.366 5.912.654 2.155.281 4.44.656 6.696 1.118 1.127.227 2.243.509 3.337.773 1.076.325 2.162.57 3.158.94 1.007.343 1.982.666 2.855 1.07l1.29.55c.392.21.774.411 1.14.605.762.366 1.355.766 1.86 1.121.288.186.552.365.799.55.092 2.177.243 4.334.427 6.478-.598-.279-1.21-.488-1.902-.776-.823-.31-1.725-.541-2.671-.839-.954-.233-1.958-.49-2.999-.712-1.044-.19-2.114-.438-3.215-.593a79.37 79.37 0 0 0-3.322-.487c-4.459-.577-8.924-.878-12.274-1.001-3.351-.138-5.581-.068-5.581-.068s2.227.13 5.54.567c3.312.419 7.711 1.118 12.035 2.078 1.084.229 2.155.5 3.206.768 1.057.247 2.067.581 3.06.855.98.302 1.91.632 2.792.932.853.36 1.686.653 2.398.999.68.361 1.412.653 1.863.971.478.331.88.517 1.242.816l.161.142c.168 1.679.343 3.354.526 5.024-3.223-1.313-7.56-2.195-11.903-2.796-8.713-1.21-17.446-1.3-17.446-1.3s8.706.896 17.15 2.872c4.205.975 8.362 2.256 11.079 3.684.572.294 1.057.593 1.479.884.172 1.578.338 3.156.5 4.732-.249-.12-.486-.25-.748-.352-3.701-1.552-8.685-2.194-13.632-2.581-4.953-.362-9.89-.397-13.587-.427-1.85-.013-3.389-.026-4.463-.066-1.078-.029-1.687-.122-1.687-.122s.6.143 1.675.26c1.074.126 2.61.264 4.45.427 3.681.33 8.59.766 13.428 1.517 4.807.756 9.644 1.844 12.662 3.436a9.37 9.37 0 0 1 1.843 1.194c.17.142.292.278.416.413.252 2.84.438 5.677.53 8.507-.053-.034-.098-.07-.151-.104a19 19 0 0 0-2.248-1.168c-3.302-1.477-7.768-2.714-12.27-3.755a163.726 163.726 0 0 0-12.451-2.333 85.67 85.67 0 0 0-4.138-.517c-1-.097-1.574-.113-1.574-.113s.568.065 1.556.25c.986.18 2.388.474 4.06.871 3.344.792 7.774 1.976 12.116 3.384 4.332 1.403 8.621 3.024 11.478 4.626.72.389 1.325.79 1.82 1.155.492.366.839.707 1.032.96l.11.168c.016.02.024.032.032.045-.002-.008-.007-.016-.003-.026.008-.025.027-.048.032.055l.048.406.003.022c.007.045.013.09.025.136.072.35.27.63.52.842-.002.069.002.14-.002.208a47.219 47.219 0 0 1-.381 4.229c-.814-.767-1.873-1.44-3.164-2.155-2.75-1.514-6.487-3.119-10.286-4.56-3.797-1.44-7.646-2.712-10.577-3.519a46.594 46.594 0 0 0-3.57-.857 16.07 16.07 0 0 0-1.377-.204s.5.093 1.344.338c.846.248 2.038.654 3.445 1.198 2.815 1.084 6.495 2.72 10.087 4.508 3.587 1.784 7.101 3.737 9.5 5.39 1.193.811 2.12 1.594 2.477 2.064.034.029.044.054.066.082a1.26 1.26 0 0 0-.013.156c-.022.732.463 1.34 1.131 1.55-.051.16-.093.322-.158.473a10.41 10.41 0 0 1-1.656 2.945c-1.96-2.259-4.156-4.31-6.608-6.022-2.747-1.83-5.64-3.475-8.711-4.666-6.094-2.537-12.554-3.955-19.028-4.852-6.483-.895-13.017-1.25-19.536-1.31-6.521-.052-13.036.183-19.53.633zm-234.993-20.4c-1.128-.325-2.257-.44-3.368-.535a26.613 26.613 0 0 0-3.306-.07c-4.364.152-8.561 1.136-12.58 2.49-2.01.69-3.964 1.508-5.88 2.395-.958.438-1.888.942-2.827 1.42-.555.311-1.094.644-1.64.967.68-.989 1.43-2.002 2.254-2.971.903-1.055 1.874-2.055 2.868-2.906a22.223 22.223 0 0 1 2.921-2.08c.919-.52 1.724-.897 2.301-1.136l.912-.36-.955.229a22.14 22.14 0 0 0-2.482.82c-1 .418-2.145.985-3.305 1.714-1.153.736-2.315 1.634-3.413 2.6-2.191 1.946-4.096 4.167-5.45 5.876a84.752 84.752 0 0 0-1.596 2.088l-.583.787a1.67 1.67 0 0 0-.123.19c-.016.027-.02.058-.032.085a29.5 29.5 0 0 0-1.726 1.717l-.485.571c.139-.765.218-1.526.422-2.291.173-.771.357-1.54.598-2.3.211-.766.451-1.523.732-2.27.256-.753.528-1.499.849-2.23.306-.733.59-1.475.956-2.183.36-.707.667-1.441 1.07-2.124l1.174-2.06 1.315-1.96c.446-.644.968-1.227 1.437-1.848.451-.64 1.023-1.163 1.542-1.732l.795-.837c.296-.243.583-.493.865-.747.569-.506 1.121-1.037 1.77-1.418.637-.386 1.21-.917 1.902-1.189.67-.309 1.296-.745 1.97-1.072a12.092 12.092 0 0 0 2.07-1.107l.496-.334a.55.55 0 0 0 .045-.878c-.467-.732-1.147-1.21-1.812-1.532a9.364 9.364 0 0 0-2.04-.693c-1.368-.3-2.728-.389-4.076-.413a38.065 38.065 0 0 0-1.71.032 58.756 58.756 0 0 1 3.388-2.044c1.523-.845 3.1-1.604 4.325-2.093 1.22-.5 2.067-.759 2.067-.759s-.883.063-2.204.277c-1.323.207-3.075.6-4.805 1.096a61.73 61.73 0 0 0-4.699 1.571c-1.257.496-2.093.828-2.093.828a1.714 1.714 0 0 0-.326.172c-.483.333-.699.879-.663 1.421-.418.06-.837.115-1.252.183a72.795 72.795 0 0 0-3.661.713 115.952 115.952 0 0 1 7.157-5.112c3.055-2.01 6.24-3.833 8.732-5.005a42.844 42.844 0 0 1 3.058-1.316l1.191-.434-1.233.302c-.783.205-1.894.528-3.208.986-2.633.904-6.044 2.39-9.352 4.085a119.916 119.916 0 0 0-8.894 5.048 117.696 117.696 0 0 0-3.905 2.531l-.038.026a2.113 2.113 0 0 0-.137.107c-.23.197-.361.453-.448.721-.161.053-.323.114-.485.167.293-.495.626-1.119 1.042-1.771l1.499-2.13c.522-.8 1.276-1.571 1.975-2.443.687-.893 1.584-1.677 2.428-2.571.853-.89 1.866-1.67 2.827-2.543 1.03-.79 2.06-1.622 3.156-2.366 1.1-.736 2.2-1.488 3.347-2.123 1.115-.69 2.275-1.26 3.389-1.837 1.128-.538 2.223-1.06 3.29-1.493a49.949 49.949 0 0 1 3.033-1.16c1.9-.669 3.525-1.115 4.674-1.373a16.996 16.996 0 0 1 1.34-.273l.478-.084-.482.047a17.95 17.95 0 0 0-1.363.174c-1.17.175-2.833.501-4.794 1.032a48.8 48.8 0 0 0-3.149.943c-1.11.356-2.259.801-3.448 1.264-1.171.502-2.4.996-3.591 1.614-1.222.563-2.403 1.248-3.594 1.922-1.187.683-2.317 1.46-3.446 2.203-.883.688-1.783 1.325-2.619 2.01.517-.519 1.023-1.049 1.58-1.53 1.124-1.056 2.321-2.035 3.522-3.007 1.237-.93 2.449-1.888 3.735-2.755 1.274-.873 2.565-1.734 3.909-2.509 1.323-.808 2.692-1.536 4.065-2.254a74.404 74.404 0 0 1 4.203-1.984c1.424-.606 2.839-1.234 4.292-1.763.719-.288 1.452-.53 2.185-.776a35.617 35.617 0 0 1 2.192-.743 52.436 52.436 0 0 1 4.453-1.227 28.172 28.172 0 0 1 2.255-.467c.755-.15 1.511-.256 2.268-.336 1.52-.198 3.035-.226 4.543-.18 1.477.143 2.992.289 4.337.831.363.091.664.277.99.429.327.154.659.309.904.51.267.215.56.31.84.605l.458.451c-1.643 2.968-3.061 6.11-3.762 9.51-.045.204-.072.415-.11.623a.803.803 0 0 0-.688.575l-1.253 4.372c-.466 1.432-.696 2.984-1.041 4.485l-.474 2.27-.324 2.284c-.208 1.523-.464 3.045-.54 4.58-.09 1.535-.296 3.071-.288 4.609-.005.552-.02 1.105-.034 1.659-.02.02-.048.029-.067.051-.084.098-.126.211-.183.32.071.37.157.74.237 1.112-.006.491-.017.984-.003 1.474.056 1.536.071 3.078.163 4.61l.016.207a9.362 9.362 0 0 0-2.762-1.254zm12.325-40.315c.171.18.337.37.49.58.37.436.654.975.956 1.479a27.032 27.032 0 0 1 1.445 3.358c.429 1.157.785 2.357 1.115 3.565.322 1.211.628 2.432.933 3.658a180.166 180.166 0 0 1 1.621 7.435c.393 1.934.844 3.86 1.513 5.747a28.48 28.48 0 0 1-2.525-1.072c-3.076-1.467-5.883-3.557-7.562-6.408-1.634-2.875-1.9-6.36-1.249-9.677.579-3.006 1.803-5.896 3.263-8.665zm334.19 68.827c-.044-1.208-.062-2.423-.271-3.613l-.247-1.795-.406-1.763c-.233-1.188-.61-2.333-1.003-3.476-.34-1.161-.867-2.25-1.338-3.363-.438-1.13-1.078-2.161-1.639-3.233-.533-1.09-1.277-2.055-1.93-3.077-.632-1.04-1.47-1.931-2.219-2.891-.728-.98-1.664-1.776-2.515-2.65-.83-.9-1.835-1.61-2.783-2.382-.926-.807-1.993-1.423-3.03-2.074-.53-.312-1.027-.678-1.581-.944l-1.668-.786-1.671-.782-1.755-.576c-1.168-.386-2.332-.797-3.555-.971l-1.814-.333a7.832 7.832 0 0 0-1.832-.17c-.616.007-1.233.02-1.848.056-.134-3.32-.216-6.622-.144-9.883.044-1.488.116-2.966.253-4.416.134-1.451.355-2.857.64-4.208.351-1.281.717-2.606 1.317-3.491.581-.931 1.189-1.432 1.843-1.634h.002l.79-.555a2.747 2.747 0 0 0 .803-3.608c-1.946-3.403-4.6-6.41-7.652-8.801-3.054-2.405-6.462-4.223-9.957-5.639-3.507-1.41-7.123-2.317-10.737-3.081-3.628-.65-7.266-1.184-10.901-1.407-7.272-.544-14.517-.425-21.705.029-7.19.46-14.328 1.266-21.426 2.26-7.101.978-14.147 2.231-21.171 3.562-7.026 1.327-14.003 2.856-20.968 4.415-6.957 1.606-13.895 3.265-20.804 5.038-6.915 1.747-13.8 3.594-20.674 5.483l-20.565 5.752a703.648 703.648 0 0 1-20.61 5.333c-6.909 1.618-13.828 3.207-20.798 4.533-6.958 1.376-13.955 2.557-20.978 3.478-7.023.927-14.079 1.642-21.143 1.856-7.054.226-14.15.021-21.036-1.243a49.538 49.538 0 0 1-5.188-1.219c-.021-2.406-.392-4.746-.888-7.069a179.753 179.753 0 0 0-1.797-7.518A46.46 46.46 0 0 0 69 22.236c-.419-1.237-.865-2.469-1.398-3.682-.497-1.222-1.146-2.408-1.89-3.545-.407-.557-.787-1.128-1.296-1.629-.434-.498-.99-.9-1.553-1.286l-.701-.877c-.237-.309-.65-.615-.983-.912-.355-.327-.73-.541-1.104-.76-.375-.216-.744-.469-1.147-.615-1.57-.77-3.247-1.081-4.907-1.364-1.663-.186-3.338-.279-4.99-.194-.828.024-1.655.074-2.474.173-.823.067-1.638.177-2.449.312-.817.11-1.624.26-2.423.441-.807.159-1.603.35-2.395.564-1.593.38-3.151.884-4.68 1.45a62.816 62.816 0 0 0-4.536 1.831 78.055 78.055 0 0 0-4.362 2.19c-1.422.791-2.838 1.59-4.206 2.471-1.386.846-2.718 1.782-4.036 2.731a61.967 61.967 0 0 0-3.835 3.015c-1.212 1.088-2.416 2.182-3.545 3.358-.585.563-1.117 1.184-1.663 1.787-.556.595-1.08 1.22-1.58 1.864A35.963 35.963 0 0 0 4 33.534c-.868 1.382-1.624 2.832-2.312 4.308-.308.757-.64 1.503-.921 2.264l-.72 2.335-.012.037a.791.791 0 0 0 1.086.942l.003-.002a70.91 70.91 0 0 1 7.64-2.558c.06.026.12.05.182.07l.204-.166a73.93 73.93 0 0 1 6.923-1.517c2.554-.406 5.137-.686 7.69-.66 1.273.02 2.546.108 3.742.374.446.1.886.245 1.3.413-.193.022-.39.038-.583.067-.881.155-1.682.566-2.507.902a4.929 4.929 0 0 0-1.16.642l-1.1.734c-.761.46-1.396 1.053-2.047 1.63l-.97.874-.851.97c-.553.656-1.157 1.277-1.621 1.989-.482.7-.996 1.382-1.433 2.104l-1.268 2.187-1.121 2.246c-.384.744-.666 1.531-1 2.293-.34.762-.608 1.55-.89 2.333-.295.776-.545 1.57-.774 2.368-.254.79-.467 1.593-.652 2.406a29.507 29.507 0 0 0-.511 2.445c-.174.813-.229 1.667-.335 2.5l-.03 1.302c-.012.432.096.942.154 1.403a.765.765 0 0 0 .338.542.771.771 0 0 0 1.064-.216l.06-.093.003-.003.81-1.233.923-1.167c.67-.734 1.37-1.445 2.126-2.102.754-.658 1.56-1.26 2.394-1.818a27.904 27.904 0 0 1 2.573-1.577 36.53 36.53 0 0 1 5.534-2.436c1.901-.676 3.856-1.195 5.818-1.628a57.595 57.595 0 0 1 5.932-.935c.989-.12 1.98-.19 2.965-.238.986-.061 1.965-.088 2.94-.077 1.943.006 3.866.182 5.625.554.883.163 1.737.332 2.512.566a8.903 8.903 0 0 1 1.528.547l.035.498c.292 3.05.643 6.086 1.028 9.1.38 3.012.782 6.009 1.087 8.978.151 1.485.309 2.97.381 4.437l.136 2.206.026 2.186c.066 1.462-.08 2.886-.144 4.32-.079 1.432-.37 2.816-.535 4.22l-.02.2c-.044.457.025.934.23 1.382 1.646 3.64 4.777 6.36 8.006 8.003 3.26 1.667 6.668 2.627 10.028 3.182 6.737 1.14 13.396 1.144 19.977.879 13.155-.668 26.065-2.596 38.888-4.77 12.82-2.205 25.553-4.734 38.264-7.317l38.1-7.744c12.703-2.52 25.424-4.93 38.192-7.006 12.767-2.087 25.587-3.834 38.458-4.898 5.9-.485 11.811-.777 17.72-.851.414.085.814.16 1.247.26 3.087.713 6.62 1.854 10.329 3.274 1.85.727 3.753 1.496 5.656 2.357.625.274 1.25.568 1.874.858-.203.717-.389 1.424-.503 2.168-.018.481-.007.976.013 1.477.02.5.01 1.022.182 1.483l.416 1.441c.135.487.464.893.704 1.343.464.934 1.226 1.605 1.938 2.331 1.547 1.251 3.294 2.126 5.032 2.68.872.293 1.744.565 2.616.73.873.21 1.743.384 2.608.494 1.739.29 3.46.427 5.176.546 1.716.121 3.418.156 5.118.185 3.395.034 6.76-.029 10.104-.065 3.347-.053 6.676-.117 9.974-.01 1.654.035 3.292.14 4.918.291 1.63.144 3.236.38 4.81.695 1.566.344 3.105.76 4.542 1.355.696.33 1.446.595 2.052 1.046l.968.611.831.752c1.15.984 1.874 2.316 2.477 3.708.193.736.401 1.481.572 2.24l.197 2.363v.003l.032.253a.771.771 0 0 0 1.511.093c.223-.866.498-1.704.727-2.55l.429-2.583.074-1.199.01-.032c-.004-.012-.004-.041-.004-.07l.052-.83c.022-.272.04-.516.04-.576 0-.202.047-.392.06-.59-.026-.106-.068-.231-.095-.34l-.039-1.549c-.053-.862-.177-1.715-.243-2.58-.076-.865-.257-1.708-.377-2.57-.094-.872-.315-1.71-.492-2.568-.164-.864-.406-1.704-.667-2.543-.253-.841-.517-1.684-.893-2.484-.346-.812-.678-1.632-1.147-2.39-.44-.769-.85-1.554-1.399-2.265-.543-.712-.984-1.486-1.63-2.13-.627-.652-1.154-1.377-1.887-1.945-.701-.587-1.35-1.216-2.18-1.674l-1.178-.724-1.315-.536-.11-.044c.257-.083.516-.16.776-.235.549-.152 1.089-.365 1.653-.441.557-.098 1.113-.236 1.674-.301l1.687-.128 1.677.075 1.644.285c.525.176 1.063.317 1.58.513.49.253 1.019.436 1.485.736.456.312.957.557 1.365.94.43.348.863.696 1.229 1.118.401.387.757.814 1.084 1.27.36.428.637.919.933 1.394.318.464.52.997.782 1.493.474 1.022.828 2.097 1.126 3.189v.001l.016.061a.799.799 0 0 0 1.568-.166c.058-1.205.272-2.423.197-3.63z" mask="url(#b)"/>
        </g>
    </g>
</svg>
