<svg xmlns="http://www.w3.org/2000/svg" id="Group_517" width="28.905" height="28.905" data-name="Group 517" viewBox="0 0 28.905 28.905">
    <defs>
        <style>
            .cls-1{fill:#fff}
        </style>
    </defs>
    <g id="Group_514" data-name="Group 514">
        <path id="Path_144" d="M946.724 568.325a14.452 14.452 0 1 1 14.453-14.453 14.469 14.469 0 0 1-14.453 14.453zm0-27.352a12.9 12.9 0 1 0 12.9 12.9 12.914 12.914 0 0 0-12.9-12.9z" class="cls-1" data-name="Path 144" transform="translate(-932.272 -539.42)"/>
    </g>
    <g id="Group_516" data-name="Group 516" transform="translate(5.015 5.539)">
        <g id="Group_515" data-name="Group 515">
            <path id="Path_145" d="M941.742 563.787v-.3a.784.784 0 0 1 .447-.3 5.06 5.06 0 0 0 3.382-2.6c.66-1.1.554-1.346-.662-1.776-.069-.024-.141-.044-.209-.073a2.6 2.6 0 0 1-.74-.412c-.545-.473-.222-1.155.42-1.31.469-.113.878.189 1.334.246.3.038.426-.065.389-.389a15.571 15.571 0 0 1-.055-2.514 4.256 4.256 0 0 1 2.194-3.607 5.538 5.538 0 0 1 5.939-.018 4.234 4.234 0 0 1 2.184 3.259 14.512 14.512 0 0 1-.007 2.845c-.032.412.051.488.459.392.506-.118.929-.379 1.455-.148a.8.8 0 0 1 .519.7.772.772 0 0 1-.286.542 2.954 2.954 0 0 1-.854.448c-.228.093-.466.165-.688.269-.46.215-.591.5-.376.954a5.278 5.278 0 0 0 3.607 3.183.844.844 0 0 1 .52.313v.3a1.373 1.373 0 0 1-.808.664 3.734 3.734 0 0 1-1.065.3.812.812 0 0 0-.861.791c-.075.508-.227.58-.745.538a3.753 3.753 0 0 1-.366-.054 3.294 3.294 0 0 0-2.8.6 6.16 6.16 0 0 1-.519.355 3.884 3.884 0 0 1-4.36.162c-.4-.236-.788-.508-1.18-.765a2.6 2.6 0 0 0-1.064-.39 6.824 6.824 0 0 0-1.8.111c-.308.034-.6-.054-.622-.372-.042-.767-.512-.955-1.157-1.026a3.29 3.29 0 0 1-.88-.273 1.293 1.293 0 0 1-.745-.645z" class="cls-1" data-name="Path 145" transform="translate(-941.742 -549.881)"/>
        </g>
    </g>
</svg>
