<svg xmlns="http://www.w3.org/2000/svg" id="Group_526" width="28.855" height="28.856" data-name="Group 526" viewBox="0 0 28.855 28.856">
    <defs>
        <style>
            .cls-1{fill:#fff}
        </style>
    </defs>
    <g id="Group_523" data-name="Group 523">
        <path id="Path_149" d="M1437.283 568.322a14.428 14.428 0 1 1 14.428-14.428 14.444 14.444 0 0 1-14.428 14.428zm0-27.3a12.875 12.875 0 1 0 12.875 12.875 12.89 12.89 0 0 0-12.875-12.878z" class="cls-1" data-name="Path 149" transform="translate(-1422.855 -539.466)"/>
    </g>
    <g id="Group_525" data-name="Group 525" transform="translate(7.833 6.761)">
        <g id="Group_524" data-name="Group 524">
            <path id="Path_150" d="M1445.344 564.529a4.614 4.614 0 0 1-2.275-1.083 11.385 11.385 0 0 1-1.792 4.968.51.51 0 0 1-.908-.285c-.152-3.015.889-5.408 1.4-7.932-.972-1.636.117-4.927 2.166-4.116 2.522 1-2.183 6.081.975 6.716 3.3.663 4.644-5.722 2.6-7.8-2.955-3-8.6-.068-7.906 4.224.131.815.816 1.19.729 2a.717.717 0 0 1-1.027.576c-1.308-.612-1.714-1.951-1.651-3.655a6.363 6.363 0 0 1 5.741-5.849c3.562-.4 6.9 1.307 7.365 4.658.519 3.781-1.608 7.875-5.416 7.581z" class="cls-1" data-name="Path 150" transform="translate(-1437.648 -552.233)"/>
        </g>
    </g>
</svg>
