<svg xmlns="http://www.w3.org/2000/svg" id="Group_513" width="28.905" height="28.905" data-name="Group 513" viewBox="0 0 28.905 28.905">
    <defs>
        <style>
            .cls-1,.cls-2{fill:#fff}.cls-2{fill-rule:evenodd}
        </style>
    </defs>
    <g id="Group_509" data-name="Group 509">
        <path id="Path_141" d="M1028.261 568.325a14.452 14.452 0 1 1 14.453-14.453 14.469 14.469 0 0 1-14.453 14.453zm0-27.352a12.9 12.9 0 1 0 12.9 12.9 12.914 12.914 0 0 0-12.9-12.9z" class="cls-1" data-name="Path 141" transform="translate(-1013.808 -539.42)"/>
    </g>
    <g id="Group_512" data-name="Group 512" transform="translate(6.409 5.044)">
        <g id="Group_510" data-name="Group 510">
            <path id="Path_142" d="M1034.637 548.946a8.725 8.725 0 0 0-7.337 13.454l-1.325 2.92a.761.761 0 0 0 .694 1.076.751.751 0 0 0 .2-.027l3.652-1a8.726 8.726 0 1 0 4.11-16.423zm0 15.927a7.2 7.2 0 0 1-3.626-.98.762.762 0 0 0-.385-.1.75.75 0 0 0-.2.027l-2.385.655.831-1.831a.761.761 0 0 0-.076-.761 7.2 7.2 0 1 1 5.843 2.994z" class="cls-2" data-name="Path 142" transform="translate(-1025.911 -548.946)"/>
        </g>
        <g id="Group_511" data-name="Group 511" transform="translate(4.485 4.741)">
            <path id="Path_143" d="M1041.976 563.191a1.491 1.491 0 0 0-1.271-.286c-.33.135-.541.652-.755.916a.316.316 0 0 1-.409.089 5.76 5.76 0 0 1-2.874-2.462.352.352 0 0 1 .045-.481 1.948 1.948 0 0 0 .522-.848 1.855 1.855 0 0 0-.233-1 2.375 2.375 0 0 0-.741-1.116 1.014 1.014 0 0 0-1.1.164 2.238 2.238 0 0 0-.776 1.772 2.516 2.516 0 0 0 .07.563 4.66 4.66 0 0 0 .54 1.243 9.809 9.809 0 0 0 .563.857 8.7 8.7 0 0 0 2.443 2.268 7.382 7.382 0 0 0 1.523.724 3.38 3.38 0 0 0 1.774.28 2.148 2.148 0 0 0 1.608-1.2 1.041 1.041 0 0 0 .075-.611c-.094-.419-.664-.669-1.004-.872z" class="cls-2" data-name="Path 143" transform="translate(-1034.381 -557.9)"/>
        </g>
    </g>
</svg>
