<svg xmlns="http://www.w3.org/2000/svg" id="Group_505" width="28.905" height="28.905" data-name="Group 505" viewBox="0 0 28.905 28.905">
    <defs>
        <style>
            .cls-1,.cls-2{fill:#fff}.cls-2{fill-rule:evenodd}
        </style>
    </defs>
    <g id="Group_498" data-name="Group 498">
        <path id="Path_133" d="M1191.724 568.325a14.452 14.452 0 1 1 14.453-14.453 14.469 14.469 0 0 1-14.453 14.453zm0-27.352a12.9 12.9 0 1 0 12.9 12.9 12.914 12.914 0 0 0-12.9-12.9z" class="cls-1" data-name="Path 133" transform="translate(-1177.272 -539.42)"/>
    </g>
    <g id="Group_504" data-name="Group 504" transform="translate(5.977 7.515)">
        <g id="Group_499" data-name="Group 499">
            <path id="Path_134" d="M1205.34 555.274a6.921 6.921 0 0 1-1.7.486c.274-.046.678-.543.84-.743a3.135 3.135 0 0 0 .567-1.031c.015-.03.026-.067 0-.089a.1.1 0 0 0-.09.008 8.708 8.708 0 0 1-2.021.773.134.134 0 0 1-.139-.037 1.646 1.646 0 0 0-.177-.181 3.577 3.577 0 0 0-.979-.6 3.409 3.409 0 0 0-1.5-.241 3.588 3.588 0 0 0-1.424.4 3.657 3.657 0 0 0-1.149.939 3.531 3.531 0 0 0-.687 1.375 3.719 3.719 0 0 0-.036 1.451c.01.081 0 .092-.07.081a10.8 10.8 0 0 1-6.945-3.535c-.081-.093-.125-.093-.192.007a3.522 3.522 0 0 0 .6 4.161c.136.129.276.258.427.376a3.545 3.545 0 0 1-1.34-.376c-.081-.051-.122-.022-.129.07a2.089 2.089 0 0 0 .022.4 3.562 3.562 0 0 0 2.195 2.839 2.093 2.093 0 0 0 .445.136 3.982 3.982 0 0 1-1.314.041c-.1-.018-.132.029-.1.121a3.7 3.7 0 0 0 2.762 2.313c.125.022.25.022.376.051-.008.012-.015.012-.022.022a4.375 4.375 0 0 1-1.886 1 6.748 6.748 0 0 1-2.865.366c-.154-.022-.187-.021-.228 0s-.005.063.044.1c.2.129.394.243.6.354a9.511 9.511 0 0 0 1.915.766 10.2 10.2 0 0 0 9.9-2.315 10.391 10.391 0 0 0 2.74-7.58c0-.109.129-.169.206-.227a6.686 6.686 0 0 0 1.341-1.4.408.408 0 0 0 .083-.268v-.015c-.01-.042-.001-.029-.07.002z" class="cls-1" data-name="Path 134" transform="translate(-1188.559 -553.611)"/>
        </g>
        <g id="Group_501" data-name="Group 501" transform="translate(4.874 13.815)">
            <path id="Path_136" d="M1197.892 579.7c-.022 0-.278 0 0 0z" class="cls-2" data-name="Path 136" transform="translate(-1197.763 -579.701)"/>
        </g>
        <g id="Group_502" data-name="Group 502" transform="translate(5.57 13.818)">
            <path id="Path_137" d="M1199.077 579.718c0-.029.3 0 0 0 0-.018.037 0 0 0z" class="cls-2" data-name="Path 137" transform="translate(-1199.077 -579.705)"/>
        </g>
        <g id="Group_503" data-name="Group 503" transform="translate(11.458 .02)">
            <path id="Path_138" d="M1210.266 553.65a.06.06 0 0 1-.069 0z" class="cls-2" data-name="Path 138" transform="translate(-1210.197 -553.65)"/>
        </g>
    </g>
</svg>
