<svg xmlns="http://www.w3.org/2000/svg" id="Group_521" width="28.905" height="28.905" data-name="Group 521" viewBox="0 0 28.905 28.905">
    <defs>
        <style>
            .cls-1{fill:#fff}
        </style>
    </defs>
    <g id="Group_518" data-name="Group 518">
        <path id="Path_146" d="M1110.166 568.325a14.452 14.452 0 1 1 14.452-14.453 14.469 14.469 0 0 1-14.452 14.453zm0-27.352a12.9 12.9 0 1 0 12.9 12.9 12.914 12.914 0 0 0-12.9-12.9z" class="cls-1" data-name="Path 146" transform="translate(-1095.713 -539.42)"/>
    </g>
    <g id="Group_520" data-name="Group 520" transform="translate(6.057 8.549)">
        <g id="Group_519" data-name="Group 519">
            <path id="Path_147" d="M1124.2 559.276a3.711 3.711 0 0 0-3.712-3.711h-9.626a3.711 3.711 0 0 0-3.711 3.711v4.512a3.711 3.711 0 0 0 3.711 3.711h9.626a3.711 3.711 0 0 0 3.712-3.711zm-6.073 2.484l-3.839 2.105c-.167.09-.317-.031-.317-.22v-4.322c0-.192.155-.313.322-.218l3.866 2.216a.252.252 0 0 1-.032.438z" class="cls-1" data-name="Path 147" transform="translate(-1107.151 -555.564)"/>
        </g>
    </g>
</svg>
