<svg xmlns="http://www.w3.org/2000/svg" id="Group_522" width="28.716" height="28.716" data-name="Group 522" viewBox="0 0 28.716 28.716">
    <defs>
        <style>
            .cls-1{fill:#fff}
        </style>
    </defs>
    <path id="Path_148" d="M1355.249 568.314a14.358 14.358 0 1 1 14.358-14.358 14.375 14.375 0 0 1-14.358 14.358zm0-27.352a12.994 12.994 0 1 0 12.994 12.994 13.008 13.008 0 0 0-12.994-12.994zm4.841 7.168a1.063 1.063 0 1 0 1.063 1.063 1.063 1.063 0 0 0-1.063-1.063zm-4.723 1.362a4.463 4.463 0 1 0 4.463 4.463 4.468 4.468 0 0 0-4.463-4.462zm0 7.322a2.859 2.859 0 1 1 2.859-2.859 2.862 2.862 0 0 1-2.859 2.86zm9.006-6.568a5.444 5.444 0 0 0-5.444-5.444h-7.185a5.444 5.444 0 0 0-5.444 5.444v7.185a5.444 5.444 0 0 0 5.444 5.443h7.185a5.444 5.444 0 0 0 5.444-5.443zm-1.705 7.185a3.739 3.739 0 0 1-3.739 3.739h-7.185a3.739 3.739 0 0 1-3.739-3.739v-7.185a3.738 3.738 0 0 1 3.739-3.739h7.185a3.738 3.738 0 0 1 3.739 3.739z" class="cls-1" data-name="Path 148" transform="translate(-1340.891 -539.598)"/>
</svg>
