<svg xmlns="http://www.w3.org/2000/svg" width="32" height="27" viewBox="0 0 32 27">
    <path fill="#353DAE" fill-rule="nonzero" d="M32 3.196a12.733 12.733 0 0 1-3.77 1.073A6.788 6.788 0 0 0 31.115.5a12.862 12.862 0 0 1-4.17 1.654C25.752.828 24.044 0 22.156 0c-4.239 0-7.354 4.106-6.396 8.368-5.455-.284-10.292-2.997-13.531-7.12-1.72 3.063-.892 7.07 2.03 9.1a6.355 6.355 0 0 1-2.971-.853c-.072 3.158 2.108 6.112 5.265 6.77a6.345 6.345 0 0 1-2.965.116c.834 2.708 3.258 4.677 6.133 4.733-2.76 2.247-6.237 3.25-9.72 2.824C2.905 25.872 6.357 27 10.064 27c12.19 0 19.076-10.688 18.66-20.275A13.661 13.661 0 0 0 32 3.196z"/>
</svg>
