<?xml version="1.0" encoding="UTF-8"?>
<svg width="756px" height="891px" viewBox="0 0 756 891" version="1.1" xmlns="http://www.w3.org/2000/svg" xmlns:xlink="http://www.w3.org/1999/xlink">
    <!-- Generator: Sketch 52.5 (67469) - http://www.bohemiancoding.com/sketch -->
    <title>BOLT Ecosystem Graphic</title>
    <desc>Created with Sketch.</desc>
    <defs>
        <circle id="path-1" cx="57" cy="57" r="57"></circle>
        <filter x="-39.9%" y="-25.9%" width="179.8%" height="179.8%" filterUnits="objectBoundingBox" id="filter-2">
            <feMorphology radius="2.5" operator="dilate" in="SourceAlpha" result="shadowSpreadOuter1"></feMorphology>
            <feOffset dx="0" dy="16" in="shadowSpreadOuter1" result="shadowOffsetOuter1"></feOffset>
            <feGaussianBlur stdDeviation="10" in="shadowOffsetOuter1" result="shadowBlurOuter1"></feGaussianBlur>
            <feComposite in="shadowBlurOuter1" in2="SourceAlpha" operator="out" result="shadowBlurOuter1"></feComposite>
            <feColorMatrix values="0 0 0 0 0   0 0 0 0 0   0 0 0 0 0  0 0 0 0.573369565 0" type="matrix" in="shadowBlurOuter1"></feColorMatrix>
        </filter>
        <circle id="path-3" cx="57" cy="57" r="57"></circle>
        <filter x="-39.9%" y="-25.9%" width="179.8%" height="179.8%" filterUnits="objectBoundingBox" id="filter-4">
            <feMorphology radius="2.5" operator="dilate" in="SourceAlpha" result="shadowSpreadOuter1"></feMorphology>
            <feOffset dx="0" dy="16" in="shadowSpreadOuter1" result="shadowOffsetOuter1"></feOffset>
            <feGaussianBlur stdDeviation="10" in="shadowOffsetOuter1" result="shadowBlurOuter1"></feGaussianBlur>
            <feComposite in="shadowBlurOuter1" in2="SourceAlpha" operator="out" result="shadowBlurOuter1"></feComposite>
            <feColorMatrix values="0 0 0 0 0   0 0 0 0 0   0 0 0 0 0  0 0 0 0.573369565 0" type="matrix" in="shadowBlurOuter1"></feColorMatrix>
        </filter>
        <circle id="path-5" cx="57" cy="57" r="57"></circle>
        <filter x="-39.9%" y="-25.9%" width="179.8%" height="179.8%" filterUnits="objectBoundingBox" id="filter-6">
            <feMorphology radius="2.5" operator="dilate" in="SourceAlpha" result="shadowSpreadOuter1"></feMorphology>
            <feOffset dx="0" dy="16" in="shadowSpreadOuter1" result="shadowOffsetOuter1"></feOffset>
            <feGaussianBlur stdDeviation="10" in="shadowOffsetOuter1" result="shadowBlurOuter1"></feGaussianBlur>
            <feComposite in="shadowBlurOuter1" in2="SourceAlpha" operator="out" result="shadowBlurOuter1"></feComposite>
            <feColorMatrix values="0 0 0 0 0   0 0 0 0 0   0 0 0 0 0  0 0 0 0.573369565 0" type="matrix" in="shadowBlurOuter1"></feColorMatrix>
        </filter>
        <circle id="path-7" cx="57" cy="57" r="57"></circle>
        <filter x="-39.9%" y="-25.9%" width="179.8%" height="179.8%" filterUnits="objectBoundingBox" id="filter-8">
            <feMorphology radius="2.5" operator="dilate" in="SourceAlpha" result="shadowSpreadOuter1"></feMorphology>
            <feOffset dx="0" dy="16" in="shadowSpreadOuter1" result="shadowOffsetOuter1"></feOffset>
            <feGaussianBlur stdDeviation="10" in="shadowOffsetOuter1" result="shadowBlurOuter1"></feGaussianBlur>
            <feComposite in="shadowBlurOuter1" in2="SourceAlpha" operator="out" result="shadowBlurOuter1"></feComposite>
            <feColorMatrix values="0 0 0 0 0   0 0 0 0 0   0 0 0 0 0  0 0 0 0.573369565 0" type="matrix" in="shadowBlurOuter1"></feColorMatrix>
        </filter>
        <rect id="path-9" x="0" y="0" width="706" height="210" rx="6"></rect>
        <filter x="-6.4%" y="-14.0%" width="112.9%" height="143.3%" filterUnits="objectBoundingBox" id="filter-10">
            <feMorphology radius="2.5" operator="dilate" in="SourceAlpha" result="shadowSpreadOuter1"></feMorphology>
            <feOffset dx="0" dy="16" in="shadowSpreadOuter1" result="shadowOffsetOuter1"></feOffset>
            <feGaussianBlur stdDeviation="10" in="shadowOffsetOuter1" result="shadowBlurOuter1"></feGaussianBlur>
            <feComposite in="shadowBlurOuter1" in2="SourceAlpha" operator="out" result="shadowBlurOuter1"></feComposite>
            <feColorMatrix values="0 0 0 0 0   0 0 0 0 0   0 0 0 0 0  0 0 0 0.573369565 0" type="matrix" in="shadowBlurOuter1"></feColorMatrix>
        </filter>
        <circle id="path-11" cx="57" cy="57" r="57"></circle>
        <filter x="-31.1%" y="-29.4%" width="162.3%" height="162.3%" filterUnits="objectBoundingBox" id="filter-12">
            <feOffset dx="0" dy="2" in="SourceAlpha" result="shadowOffsetOuter1"></feOffset>
            <feGaussianBlur stdDeviation="11.5" in="shadowOffsetOuter1" result="shadowBlurOuter1"></feGaussianBlur>
            <feColorMatrix values="0 0 0 0 0   0 0 0 0 0   0 0 0 0 0  0 0 0 0.497056159 0" type="matrix" in="shadowBlurOuter1"></feColorMatrix>
        </filter>
        <linearGradient x1="50%" y1="26.0549483%" x2="50%" y2="100%" id="linearGradient-13">
            <stop stop-color="#140E2B" offset="0%"></stop>
            <stop stop-color="#130D2A" stop-opacity="0" offset="100%"></stop>
        </linearGradient>
        <linearGradient x1="50%" y1="26.0549483%" x2="50%" y2="100%" id="linearGradient-14">
            <stop stop-color="#3A2199" offset="0%"></stop>
            <stop stop-color="#3A2199" stop-opacity="0" offset="100%"></stop>
        </linearGradient>
        <circle id="path-15" cx="57" cy="57" r="57"></circle>
        <filter x="-31.1%" y="-29.4%" width="162.3%" height="162.3%" filterUnits="objectBoundingBox" id="filter-16">
            <feOffset dx="0" dy="2" in="SourceAlpha" result="shadowOffsetOuter1"></feOffset>
            <feGaussianBlur stdDeviation="11.5" in="shadowOffsetOuter1" result="shadowBlurOuter1"></feGaussianBlur>
            <feColorMatrix values="0 0 0 0 0   0 0 0 0 0   0 0 0 0 0  0 0 0 0.497056159 0" type="matrix" in="shadowBlurOuter1"></feColorMatrix>
        </filter>
    </defs>
    <g id="Bolt-Corporate-Site" stroke="none" stroke-width="1" fill="none" fill-rule="evenodd">
        <g id="BOLT-Ecosystem" transform="translate(-175.000000, -2078.000000)">
            <g id="Group-31" transform="translate(-817.000000, 1416.000000)">
                <g id="BOLT-Ecosystem-Graphic" transform="translate(1017.000000, 671.000000)">
                    <g id="Group-33">
                        <g id="Group-27">
                            <g id="Group-18" transform="translate(57.000000, 0.000000)">
                                <g id="Group-13">
                                    <g id="Oval">
                                        <use fill="black" fill-opacity="1" filter="url(#filter-2)" xlink:href="#path-1"></use>
                                        <circle stroke="#000B1D" stroke-width="1" stroke-linejoin="square" fill="#4A90E2" fill-rule="evenodd" cx="57" cy="57" r="56.5"></circle>
                                    </g>
                                    <g id="Group-5" transform="translate(27.000000, 27.000000)" fill="#FFFFFF">
                                        <polygon id="Path-2" points="14.6 19.3 14.6 46.920742 31.9905752 33.110371"></polygon>
                                        <polygon id="Path-3" points="14.6 17.5953563 59.921488 8.52651283e-14 26.1157764 26.9170316"></polygon>
                                        <polygon id="Path-4" points="26.1 26.930751 40.1511982 15.7 45.1776287 42.3551205"></polygon>
                                        <polygon id="Path-5" points="45.1913154 42.3622918 0 59.9497483 33.7242681 33.1"></polygon>
                                    </g>
                                </g>
                                <g id="Group-10" transform="translate(159.000000, 0.000000)">
                                    <g id="Oval">
                                        <use fill="black" fill-opacity="1" filter="url(#filter-4)" xlink:href="#path-3"></use>
                                        <circle stroke="#000B1D" stroke-width="1" stroke-linejoin="square" fill="#4A90E2" fill-rule="evenodd" cx="57" cy="57" r="56.5"></circle>
                                    </g>
                                    <g id="Group-5" transform="translate(27.000000, 27.000000)" fill="#FFFFFF">
                                        <polygon id="Path-2" points="14.6 19.3 14.6 46.920742 31.9905752 33.110371"></polygon>
                                        <polygon id="Path-3" points="14.6 17.5953563 59.921488 8.52651283e-14 26.1157764 26.9170316"></polygon>
                                        <polygon id="Path-4" points="26.1 26.930751 40.1511982 15.7 45.1776287 42.3551205"></polygon>
                                        <polygon id="Path-5" points="45.1913154 42.3622918 0 59.9497483 33.7242681 33.1"></polygon>
                                    </g>
                                </g>
                                <g id="Group-11" transform="translate(319.000000, 0.000000)">
                                    <g id="Oval">
                                        <use fill="black" fill-opacity="1" filter="url(#filter-6)" xlink:href="#path-5"></use>
                                        <circle stroke="#000B1D" stroke-width="1" stroke-linejoin="square" fill="#4A90E2" fill-rule="evenodd" cx="57" cy="57" r="56.5"></circle>
                                    </g>
                                    <g id="Group-5" transform="translate(27.000000, 27.000000)" fill="#FFFFFF">
                                        <polygon id="Path-2" points="14.6 19.3 14.6 46.920742 31.9905752 33.110371"></polygon>
                                        <polygon id="Path-3" points="14.6 17.5953563 59.921488 8.52651283e-14 26.1157764 26.9170316"></polygon>
                                        <polygon id="Path-4" points="26.1 26.930751 40.1511982 15.7 45.1776287 42.3551205"></polygon>
                                        <polygon id="Path-5" points="45.1913154 42.3622918 0 59.9497483 33.7242681 33.1"></polygon>
                                    </g>
                                </g>
                                <g id="Group-17" transform="translate(478.000000, 0.000000)">
                                    <g id="Oval">
                                        <use fill="black" fill-opacity="1" filter="url(#filter-8)" xlink:href="#path-7"></use>
                                        <circle stroke="#000B1D" stroke-width="1" stroke-linejoin="square" fill="#4A90E2" fill-rule="evenodd" cx="57" cy="57" r="56.5"></circle>
                                    </g>
                                    <g id="Group-5" transform="translate(27.000000, 27.000000)" fill="#FFFFFF">
                                        <polygon id="Path-2" points="14.6 19.3 14.6 46.920742 31.9905752 33.110371"></polygon>
                                        <polygon id="Path-3" points="14.6 17.5953563 59.921488 8.52651283e-14 26.1157764 26.9170316"></polygon>
                                        <polygon id="Path-4" points="26.1 26.930751 40.1511982 15.7 45.1776287 42.3551205"></polygon>
                                        <polygon id="Path-5" points="45.1913154 42.3622918 0 59.9497483 33.7242681 33.1"></polygon>
                                    </g>
                                </g>
                            </g>
                            <g id="Group-16" transform="translate(0.000000, 333.000000)">
                                <g id="Mask">
                                    <use fill="black" fill-opacity="1" filter="url(#filter-10)" xlink:href="#path-9"></use>
                                    <rect stroke="#000B1D" stroke-width="1" stroke-linejoin="square" fill="#3A2199" fill-rule="evenodd" x="0.5" y="0.5" width="705" height="209" rx="6"></rect>
                                </g>
                                <g id="Group-6" transform="translate(57.000000, 46.000000)">
                                    <g id="Group-15" transform="translate(0.000000, 2.000000)">
                                        <path d="M57,114 C88.4802307,114 114,88.4802307 114,57 C114,25.5197693 88.4802307,0 57,0 C25.5197693,0 0,25.5197693 0,57 C0,88.4802307 25.5197693,114 57,114 Z" id="Oval" stroke="#FFFFFF" stroke-width="3" opacity="0.776460193" stroke-dasharray="5,5"></path>
                                        <g id="noun_Bitcoin_346235_000000" transform="translate(40.000000, 30.000000)" fill="#D2CDE8" fill-rule="nonzero">
                                            <path d="M24.4524813,25.557168 C27.4773125,23.4993945 29.4662062,20.0073242 29.4662062,16.0444238 C29.4662062,10.5097266 25.5847875,5.89133789 20.423375,4.82055664 L20.423375,1.14554687 C20.4232687,0.512724609 19.9168812,0 19.2909625,0 C18.6650438,0 18.1570625,0.512724609 18.1570625,1.14554687 L18.1570625,4.58637695 C18.148775,4.58637695 18.1404875,4.58637695 18.1337937,4.58637695 L13.576625,4.58637695 L13.576625,1.14554687 C13.5767312,0.512724609 13.06875,0 12.4428313,0 C11.8169125,0 11.3089313,0.512724609 11.3089313,1.14554687 L11.3089313,4.58637695 L6.07611875,4.58637695 L6.07611875,4.58304687 L1.13379375,4.58304687 C0.50798125,4.58304687 0,5.09587891 0,5.72859375 C0,6.36130859 0.50798125,6.875 1.1339,6.875 L4.5339,6.875 L4.5339,48.125 L1.1339,48.125 C0.50798125,48.125 0,48.638584 0,49.2714063 C0,49.9042285 0.50798125,50.4178125 1.1339,50.4178125 L11.3090375,50.4178125 L11.3090375,53.8535938 C11.3090375,54.486416 11.8170188,55 12.4429375,55 C13.0688562,55 13.5768375,54.486416 13.5768375,53.8535937 L13.5768375,50.4178125 L18.1571687,50.4178125 L18.1571687,53.8535937 C18.1571687,54.486416 18.66515,55 19.2910687,55 C19.9169875,55 20.4232687,54.486416 20.4232687,53.8535937 L20.4232687,50.4178125 L21.5339,50.4178125 C28.4185812,50.4178125 34,44.7747266 34,37.8125 C34,31.8673437 29.92935,26.8856543 24.4524813,25.557168 Z M6.8,6.8774707 L18.1339,6.8774707 C20.5543812,6.8774707 22.8321687,7.83083984 24.54375,9.5621582 C26.2570312,11.2934766 27.2,13.5955273 27.2,16.0444238 C27.2,18.4933203 26.2570312,20.7945117 24.54375,22.5258301 C22.8720125,24.2168652 20.6623312,25.1651855 18.3032625,25.2089063 L6.8,25.2089063 L6.8,6.8774707 Z M28.7456187,45.1054785 C26.8198375,47.0541113 24.25815,48.125 21.5339,48.125 L6.8,48.125 L6.8,27.5024707 L18.1339,27.5024707 C18.188725,27.5024707 18.2434437,27.5016113 18.2965687,27.500752 L21.5339,27.500752 C24.2582563,27.500752 26.8198375,28.573252 28.7456187,30.5211328 C30.6731,32.4681543 31.7339,35.0579883 31.7339,37.8123926 C31.7339,40.5685156 30.6731,43.1567383 28.7456187,45.1054785 Z" id="Shape"></path>
                                        </g>
                                    </g>
                                    <g id="Group-13" transform="translate(319.000000, 2.000000)">
                                        <path d="M57,114 C88.4802307,114 114,88.4802307 114,57 C114,25.5197693 88.4802307,0 57,0 C25.5197693,0 0,25.5197693 0,57 C0,88.4802307 25.5197693,114 57,114 Z" id="Oval" stroke="#FFFFFF" stroke-width="3" opacity="0.776460193" stroke-dasharray="5,5"></path>
                                        <g id="Group-7" transform="translate(30.000000, 30.000000)" stroke="#D2CDE8" stroke-width="1.5">
                                            <polygon id="Path-8" points="30.7648076 30.2762379 14.1633185 15.8299369 54.3986166 0.302505993 37.2223619 14.0895382 41.6040627 38.2073908 0.858021851 54.0510074"></polygon>
                                            <polygon id="Path-11" stroke-linecap="round" points="11.3170784 17.7577623 11.3170784 41.4677044 25.690384 30.2128751"></polygon>
                                        </g>
                                    </g>
                                    <g id="Group-12" transform="translate(478.000000, 2.000000)">
                                        <path d="M57,114 C88.4802307,114 114,88.4802307 114,57 C114,25.5197693 88.4802307,0 57,0 C25.5197693,0 0,25.5197693 0,57 C0,88.4802307 25.5197693,114 57,114 Z" id="Oval" stroke="#FFFFFF" stroke-width="3" opacity="0.776460193" stroke-dasharray="5,5"></path>
                                        <g id="Group-8" transform="translate(38.000000, 30.000000)" stroke="#D2CDE8" stroke-width="1.5">
                                            <polygon id="Path-12" points="0.000717754265 4.11679447 7.65181861 0.746931656 37.6946847 14.9355076 37.6946847 22.8203666 10.1537418 36.2400136 10.1537418 36.8783305 29.9877601 46.8519463 29.9877601 30.390245 37.6946847 26.9146244 37.6946847 50.672911 29.9877601 54.3044598 0.000717754265 39.8918879 0.000717754265 32.0005991 20.4661466 21.9276074 0.000717754265 11.9980761"></polygon>
                                            <polyline id="Path-13" points="0.0806162187 4.11679447 29.973228 18.6877428 29.973228 26.3009934"></polyline>
                                            <path d="M29.9449129,18.8463209 L37.5518119,14.9861012" id="Path-14"></path>
                                            <path d="M29.9584217,46.7391561 L29.9584217,54.1418352" id="Path-15"></path>
                                        </g>
                                    </g>
                                    <g id="Group-14" transform="translate(159.000000, 0.000000)">
                                        <g id="noun_ethereum_1546765_000000" transform="translate(41.000000, 30.000000)" fill="#D2CDE8" fill-rule="nonzero">
                                            <path d="M15.9734308,0.0119575437 C15.6854379,0.0568759344 15.4340938,0.231723971 15.2918238,0.48611894 L0.118659096,27.0391571 C-0.039553032,27.3249514 -0.039553032,27.6720505 0.118659096,27.9578448 L15.2918238,54.510883 C15.4588828,54.8126955 15.7766432,55 16.1216062,55 C16.4665692,55 16.7843296,54.8126955 16.9513887,54.510883 L32.1245533,27.9578448 C32.2827655,27.6720505 32.2827655,27.3249514 32.1245533,27.0391571 L16.9513887,0.48611894 C16.7572689,0.138433683 16.3666333,-0.050965416 15.9734308,0.0119575437 Z M16.1216062,2.85692592 L29.961192,27.0984273 L16.1216062,34.0330377 L2.28202047,27.0984273 L16.1216062,2.85692592 Z M3.31924852,29.7359501 L15.706715,35.9296833 C15.968635,36.0571004 16.2745774,36.0571004 16.5364974,35.9296833 L28.9239639,29.7359501 L16.1216062,52.140076 L3.31924852,29.7359501 Z" id="Shape"></path>
                                        </g>
                                        <path d="M57,114 C88.4802307,114 114,88.4802307 114,57 C114,25.5197693 88.4802307,0 57,0 C25.5197693,0 0,25.5197693 0,57 C0,88.4802307 25.5197693,114 57,114 Z" id="Oval" stroke="#FFFFFF" stroke-width="3" opacity="0.776460193" stroke-dasharray="5,5"></path>
                                    </g>
                                </g>
                            </g>
                            <rect id="Rectangle" fill="#D8D8D8" x="425" y="119" width="18" height="240"></rect>
                            <rect id="Rectangle" fill="#D8D8D8" x="425" y="516" width="18" height="240"></rect>
                            <rect id="Rectangle" fill="#D8D8D8" transform="translate(253.000000, 722.500000) rotate(-90.000000) translate(-253.000000, -722.500000) " x="244" y="589" width="18" height="267"></rect>
                            <rect id="Rectangle" fill="#D8D8D8" transform="translate(453.000000, 722.500000) scale(-1, 1) rotate(-90.000000) translate(-453.000000, -722.500000) " x="444" y="589" width="18" height="267"></rect>
                            <g id="Group-20" transform="translate(376.000000, 381.000000)">
                                <g id="Oval">
                                    <use fill="black" fill-opacity="1" filter="url(#filter-12)" xlink:href="#path-11"></use>
                                    <use fill="#4A90E2" fill-rule="evenodd" xlink:href="#path-11"></use>
                                </g>
                                <g id="Group-5" transform="translate(27.000000, 27.000000)" fill="#FFFFFF">
                                    <polygon id="Path-2" points="14.6 19.3 14.6 46.920742 31.9905752 33.110371"></polygon>
                                    <polygon id="Path-3" points="14.6 17.5953563 59.921488 8.52651283e-14 26.1157764 26.9170316"></polygon>
                                    <polygon id="Path-4" points="26.1 26.930751 40.1511982 15.7 45.1776287 42.3551205"></polygon>
                                    <polygon id="Path-5" points="45.1913154 42.3622918 0 59.9497483 33.7242681 33.1"></polygon>
                                </g>
                            </g>
                        </g>
                        <rect id="Rectangle" fill="url(#linearGradient-13)" x="408" y="118" width="53" height="33"></rect>
                        <rect id="Rectangle" fill="url(#linearGradient-13)" transform="translate(130.500000, 726.500000) rotate(-90.000000) translate(-130.500000, -726.500000) " x="104" y="710" width="53" height="33"></rect>
                        <rect id="Rectangle" fill="url(#linearGradient-13)" transform="translate(368.500000, 726.500000) scale(-1, 1) rotate(-90.000000) translate(-368.500000, -726.500000) " x="342" y="710" width="53" height="33"></rect>
                        <rect id="Rectangle" fill="url(#linearGradient-13)" transform="translate(575.500000, 726.500000) scale(-1, 1) rotate(-90.000000) translate(-575.500000, -726.500000) " x="549" y="710" width="53" height="33"></rect>
                        <rect id="Rectangle" fill="url(#linearGradient-13)" transform="translate(434.500000, 665.500000) rotate(-180.000000) translate(-434.500000, -665.500000) " x="408" y="649" width="53" height="33"></rect>
                        <rect id="Rectangle" fill="url(#linearGradient-13)" transform="translate(496.500000, 721.500000) rotate(-90.000000) translate(-496.500000, -721.500000) " x="470" y="705" width="53" height="33"></rect>
                        <rect id="Rectangle" fill="url(#linearGradient-14)" transform="translate(434.500000, 513.500000) scale(1, -1) translate(-434.500000, -513.500000) " x="408" y="501" width="53" height="25"></rect>
                        <rect id="Rectangle" fill="url(#linearGradient-14)" transform="translate(434.500000, 351.500000) scale(1, -1) translate(-434.500000, -351.500000) " x="408" y="335" width="53" height="33"></rect>
                        <g id="Group-30" transform="translate(0.000000, 675.000000)">
                            <circle id="Oval" fill="#4A90E2" cx="60" cy="60" r="60"></circle>
                            <g id="noun_persona_410778_000000" transform="translate(29.000000, 21.000000)" fill="#000000">
                                <path d="M24.5342137,37.298434 C25.0010106,37.5904262 25.6196629,37.4478481 25.9116551,36.9781215 C26.203159,36.5093715 26.0600926,35.8931606 25.5908543,35.6011684 C21.9707371,33.3462856 16.4551121,33.4869106 12.4761082,35.9351528 C12.0058934,36.2242153 11.8589207,36.8404262 12.1484715,37.3111294 C12.3369481,37.61777 12.6650731,37.7867153 13.0010106,37.7867153 C13.1797215,37.7867153 13.3608739,37.7388637 13.5239598,37.6382778 C16.8374363,35.5992153 21.5708348,35.454684 24.5342137,37.298434 Z" id="Path"></path>
                                <circle id="Oval" cx="19.6885986" cy="40.6885986" r="1.6885986"></circle>
                                <circle id="Oval" cx="41.6885986" cy="40.6885986" r="1.6885986"></circle>
                                <path d="M48.9303714,35.8422592 C44.7291995,33.2572983 38.3952152,33.4106186 34.5114261,36.1889389 C31.7145511,38.190892 30.2433597,41.7924545 30.1378909,46.8949936 L30.0001956,53.5424545 C29.9938479,53.8637436 30.1422854,54.1694076 30.3991214,54.3617904 C30.5749026,54.4946029 30.7863284,54.5629623 31.0001956,54.5629623 C31.099805,54.5629623 31.2003909,54.5483139 31.2980472,54.5180404 L36.6417972,52.8520248 C37.1686527,52.6869857 37.4630863,52.1264389 37.2985355,51.5990951 C37.134473,51.0717513 36.5734378,50.7797592 36.0460941,50.9418685 L32.028516,52.1947982 L32.137891,46.9360091 C32.2291996,42.4985091 33.419141,39.4301497 35.6754887,37.8158919 C38.8991215,35.5092513 44.3751957,35.387181 47.8825199,37.5453841 C48.3512699,37.8344466 48.9679691,37.6869857 49.2580082,37.2182357 C49.5475589,36.7475326 49.4010745,36.1313217 48.9303714,35.8422592 Z" id="Path"></path>
                                <path d="M39.5157348,61.0708673 C32.6187621,63.0532892 24.3223754,61.0493829 24.2398559,61.0288751 C23.7086059,60.8980157 23.1622192,61.2241876 23.0294067,61.7593438 C22.8970825,62.2954766 23.2237426,62.8374688 23.7598755,62.9702813 C23.9976685,63.0288751 27.8155396,63.9546563 32.5230591,63.9546563 C34.9254029,63.9546563 37.5606568,63.7134454 40.0684693,62.9927422 C40.599231,62.8403984 40.9058716,62.2866875 40.7530396,61.7554375 C40.6006957,61.2251642 40.0484497,60.9204767 39.5157348,61.0708673 Z" id="Path"></path>
                                <path d="M61.5900302,38.4110023 C60.7291904,36.7547523 58.989017,36.4971839 57.5642734,36.6902992 C58.4406162,30.5727455 58.7178989,24.1387855 57.132999,18.0584633 C54.8781162,9.40807274 48.2179599,3.15123674 38.8600498,0.891471135 C25.6447178,-2.30091166 8.96503032,3.06139304 5.06219822,17.2899086 C3.30054052,23.7132484 3.87659032,30.259391 5.00287202,36.7127602 C3.55353122,36.4809487 1.72247652,36.6956704 0.829776321,38.4110024 C0.0099521209,39.9881508 -0.203915079,42.6531899 0.195010721,46.333854 C0.490909121,49.0643228 1.91864352,54.8602212 5.20575292,57.255729 C6.18280372,57.9676431 7.23895602,58.3250649 8.35760842,58.3250649 C8.61004982,58.3250649 8.86676372,58.2999184 9.12530862,58.2635415 C11.4882236,67.1148599 17.5412632,80.111686 32.6930576,80.1102212 C32.9269443,80.1102212 33.1647373,80.1072915 33.4030185,80.1014321 C46.1169467,79.7664712 50.8728671,69.0652993 53.4555698,58.2884438 C53.6596103,58.311393 53.8620639,58.3250649 54.0621982,58.3250649 C55.1808505,58.3250649 56.2374912,57.9666665 57.214542,57.2547524 C60.5021397,54.8592446 61.9293858,49.0633462 62.2247959,46.333854 C62.6237216,42.6531898 62.4098544,39.9881508 61.5900302,38.4110023 Z M6.38348722,55.6385414 C3.87713952,53.8123695 2.47723722,48.8299476 2.18329192,46.1190102 C1.83807712,42.9295571 1.98749112,40.5203774 2.60419032,39.3348305 C3.18463462,38.2173989 5.04223962,38.7482826 5.39795252,38.8627846 C5.66272302,40.2507241 5.94226402,41.6337807 6.22186612,43.0086586 L6.26868012,43.2403481 C5.86712982,43.3699868 5.20074802,43.6854165 4.66376072,44.4539711 C3.83368262,45.6414711 3.66034272,47.3953773 4.14911232,49.6658852 C4.25018652,50.1356118 4.66473732,50.4559243 5.12567482,50.4559243 C5.19549902,50.4559243 5.26629982,50.4490884 5.33710062,50.4334634 C5.87713972,50.3172525 6.22040142,49.7850259 6.10419042,49.2459634 C5.65838962,47.1736978 5.94842872,46.146354 6.27020602,45.6483072 C6.40295752,45.4428629 6.55108982,45.3178629 6.67285492,45.2413248 L6.69354582,45.3436197 C6.98212002,46.7918619 7.31463962,48.5018228 7.59100672,50.2088541 C7.69647552,50.856315 7.79608482,51.5047525 7.88592862,52.1551432 C8.03161952,53.2084879 8.26916832,54.6382975 8.64178802,56.2943034 C7.83728362,56.3585121 7.09222752,56.1544105 6.38348722,55.6385414 Z M33.3502841,78.101432 C14.9899325,78.6111976 10.7350497,58.1541664 9.86737392,51.8817054 C9.77557702,51.2156898 9.67303802,50.5516273 9.56561612,49.8885413 C9.29120202,48.1971351 8.96503022,46.5115882 8.67889732,45.0722571 C8.67944662,45.0604163 8.67999592,45.0489417 8.68054522,45.0364905 C8.68316972,44.9776526 8.68634352,44.9092932 8.68970052,44.8370276 C8.69147052,44.799552 8.69330162,44.7589026 8.69525472,44.717887 C8.69964922,44.6231604 8.70447102,44.5218421 8.70996422,44.4090491 C8.71063562,44.3946448 8.71136802,44.3799964 8.71210042,44.3655921 C8.71850912,44.2344886 8.72552812,44.0916663 8.73321862,43.9385901 C8.73419522,43.9182044 8.73535482,43.8973303 8.73639242,43.8765784 C8.74304522,43.7458411 8.75024742,43.6043616 8.75781572,43.4590979 C8.76135572,43.3909827 8.76513992,43.3199377 8.76886312,43.2486487 C8.77606522,43.1124182 8.78363362,42.9720374 8.79156822,42.8250647 C8.79492512,42.7637854 8.79846522,42.700553 8.80188312,42.6375647 C8.81048912,42.4813147 8.81946122,42.3198157 8.82892172,42.1529456 C8.83343832,42.0731116 8.83819902,41.9905921 8.84289882,41.9083167 C8.85217612,41.7471839 8.86169762,41.5821448 8.87170742,41.412345 C8.87720062,41.3199378 8.88287682,41.2250891 8.88855312,41.1302405 C8.89844082,40.9654456 8.90857262,40.7979651 8.91913172,40.6260901 C8.92578452,40.5179358 8.93274252,40.4067297 8.93970052,40.2957678 C8.95074792,40.1199866 8.96197832,39.942008 8.97369712,39.7600012 C8.98065512,39.6511145 8.98804042,39.5399084 8.99530352,39.4288244 C9.00757162,39.2421789 9.01996172,39.0538244 9.03296222,38.8616857 C9.04107992,38.7418127 9.04950272,38.6194982 9.05786452,38.497672 C9.07068192,38.3106603 9.08362132,38.122672 9.09717112,37.9312658 C9.10693672,37.7930822 9.11712962,37.6525793 9.12726142,37.5123205 C9.14007882,37.3338537 9.15307932,37.1547766 9.16650702,36.973258 C9.17846992,36.8113928 9.19098212,36.6470861 9.20343332,36.4830236 C9.21631172,36.3132238 9.22925122,36.143424 9.24261792,35.9714269 C9.25555742,35.8055333 9.26892412,35.6375646 9.28235182,35.46984 C9.29663402,35.2907629 9.31091632,35.1118078 9.32574782,34.9310216 C9.33899242,34.7698888 9.35272532,34.607047 9.36639722,34.4446935 C9.38220532,34.2562169 9.39801342,34.0679845 9.41449292,33.8780431 C9.42889722,33.711173 9.44397292,33.5430822 9.45892652,33.3753576 C9.47510082,33.1928625 9.49127512,33.0106115 9.50805982,32.827384 C9.52502762,32.6419592 9.54260572,32.4560461 9.56012282,32.270133 C9.57593092,32.1027746 9.59155592,31.9356603 9.60779132,31.7679357 C9.62659012,31.5734777 9.64618242,31.3790197 9.66565262,31.1844396 C9.68201002,31.0209875 9.69812332,30.8575353 9.71496902,30.6944494 C9.73480542,30.5020666 9.75525222,30.3106603 9.77569902,30.1187658 C9.79321612,29.954215 9.81055012,29.789298 9.82855542,29.6252355 C9.84924632,29.4362707 9.87085282,29.2486486 9.89215402,29.0607824 C9.91095282,28.895133 9.92956862,28.7288732 9.94885572,28.5643224 C9.97058422,28.3785314 9.99322832,28.1949376 10.0156282,28.0108556 C10.0353426,27.8486242 10.0547517,27.6856603 10.0749544,27.5250158 C10.098575,27.3369054 10.1231722,27.1518469 10.1474642,26.9660558 C10.1676668,26.811881 10.1874422,26.6566076 10.2080721,26.5041417 C10.2329134,26.3209142 10.2586092,26.1417149 10.2840609,25.961295 C10.3053622,25.8100499 10.3263583,25.6573399 10.3482088,25.50817 C10.3743318,25.3295811 10.4014925,25.155753 10.4282869,24.9805821 C10.4503816,24.8360509 10.4721101,24.6896885 10.4947542,24.5477208 C10.5225252,24.3735265 10.5512728,24.2050694 10.5797151,24.0347813 C10.6027254,23.8974522 10.6251863,23.7575596 10.6486238,23.6230381 C10.6780427,23.454459 10.7084383,23.2923496 10.7385896,23.1285313 C10.7621492,23.0004795 10.7851594,22.869254 10.8091462,22.744254 C10.839969,22.5833653 10.8719514,22.4305333 10.9036286,22.2750157 C10.9282258,22.1541661 10.9522736,22.0296544 10.9773591,21.9123448 C11.0089753,21.7640294 11.0418122,21.6243809 11.0742219,21.4818028 C11.1003449,21.3669346 11.1259187,21.2476719 11.15253,21.13671 C11.1863435,20.9958409 11.2212556,20.8651036 11.2558625,20.7309483 C11.2821687,20.6286534 11.3079865,20.5213536 11.334781,20.423209 C11.3720124,20.2867344 11.4104646,20.1619785 11.4486116,20.0338047 C11.4739412,19.9484776 11.4987215,19.857291 11.5245393,19.7757481 C11.569095,19.634879 11.6149324,19.5071934 11.6606477,19.378043 C11.6810334,19.3203037 11.7008699,19.2560948 11.7214998,19.2007969 C11.7885774,19.0215977 11.8568758,18.8552158 11.9264559,18.7029942 C13.9044832,14.3758458 17.2902254,12.5692051 18.1583895,12.1649083 L20.0319247,12.402213 C23.8483309,12.8914708 27.8078036,13.4090489 31.7003817,13.3690099 C35.6217684,13.3406896 39.5871005,12.8211583 43.4215731,12.3192052 L44.5997958,12.1658849 C45.4738192,12.5682287 48.8371005,14.3504552 50.8268466,18.7029943 C50.9318271,18.9327306 51.0346103,19.1978673 51.1351962,19.4954748 C51.1571078,19.5605383 51.1778598,19.6428137 51.1995883,19.7108068 C51.2773471,19.954215 51.3548617,20.2012853 51.4298739,20.482047 C51.4583163,20.5883702 51.4851718,20.7145909 51.5131869,20.8260411 C51.5800204,21.0919102 51.647037,21.3548497 51.7116732,21.6483067 C51.7334628,21.7471837 51.7539706,21.8611973 51.7754549,21.963126 C51.8443026,22.2891758 51.9130281,22.6169346 51.9791903,22.971793 C52.0051913,23.1114414 52.0296664,23.2668369 52.0553011,23.4106358 C52.1151766,23.7466954 52.1752962,24.0801915 52.2329134,24.4376133 C52.2578157,24.5922764 52.2811922,24.7607334 52.3057283,24.9191807 C52.3622469,25.2845371 52.4190095,25.6475743 52.4732088,26.0313633 C52.4920687,26.1650303 52.5095247,26.3084629 52.5281404,26.444083 C52.5861848,26.8673008 52.6439851,27.2916172 52.699283,27.7332676 C52.7138704,27.8498447 52.7272981,27.9732578 52.7417024,28.0909336 C52.7991365,28.5610264 52.8562654,29.0341709 52.9106477,29.5211094 C52.9257234,29.6556309 52.9393953,29.7960117 52.9542268,29.9316319 C53.0063508,30.4097813 53.0582307,30.8895176 53.107425,31.3799962 C53.1215241,31.5208653 53.1344025,31.6660069 53.1483186,31.8077306 C53.1967195,32.3018712 53.2448152,32.7971105 53.2902864,33.2999181 C53.3007844,33.4153966 53.3100618,33.5331945 53.3203157,33.6490392 C53.3673738,34.1800451 53.4138216,34.7127599 53.4575838,35.2495031 C53.4686922,35.3853674 53.4785189,35.5220861 53.4893831,35.6583166 C53.5307649,36.1768713 53.5717806,36.6962805 53.6099886,37.2166662 C53.6212191,37.369132 53.6309847,37.5209875 53.64191,37.6733312 C53.678287,38.1802892 53.7143587,38.6873693 53.7476839,39.1924962 C53.7570223,39.3340978 53.7650789,39.4737462 53.7742342,39.6151036 C53.8071932,40.1258458 53.839786,40.6363438 53.8695711,41.1415929 C53.879764,41.3138341 53.888492,41.4822911 53.8982576,41.6536779 C53.9252962,42.1262121 53.9522127,42.5988683 53.9765047,43.0633459 C53.9863314,43.2506018 53.994388,43.4317541 54.0037264,43.6175451 C54.0244784,44.0311193 54.0452913,44.4449377 54.063785,44.8494787 C53.8095125,46.1359777 53.562076,47.4976721 53.3063387,48.9080725 C50.9757724,61.742057 48.0753818,77.7147132 33.3502841,78.101432 Z M60.2365146,46.1190101 C59.9430576,48.8299476 58.5436435,53.8113929 56.0363193,55.6385413 C55.3651157,56.1270667 54.6622348,56.3404456 53.9065586,56.308097 C54.4317051,53.8939124 54.8670689,51.5069495 55.2741123,49.2654945 C55.5143467,47.9407875 55.747623,46.6663734 55.9858433,45.4498207 C56.0410191,45.5084145 56.0967442,45.5665199 56.1496006,45.648307 C56.4713779,46.1463539 56.761417,47.1736976 56.3156162,49.2459632 C56.1994053,49.7850257 56.542667,50.3172523 57.082706,50.4334632 C57.1535068,50.4490882 57.2243076,50.4559241 57.2941318,50.4559241 C57.7550693,50.4559241 58.1696201,50.1356116 58.2706943,49.665885 C58.7594638,47.3953772 58.586124,45.6414709 57.7560459,44.4539709 C57.3211094,43.8314123 56.8018223,43.5089025 56.4049717,43.33776 C56.6980625,41.8594885 56.9805332,40.3443518 57.2354771,38.8034582 C57.8499791,38.6409826 59.3154942,38.3699865 59.8156163,39.3348303 C60.4323154,40.5203773 60.5817294,42.929557 60.2365146,46.1190101 Z" id="Shape" fill-rule="nonzero"></path>
                            </g>
                        </g>
                        <g id="Group-24" transform="translate(376.000000, 675.000000)">
                            <g id="Oval">
                                <use fill="black" fill-opacity="1" filter="url(#filter-16)" xlink:href="#path-15"></use>
                                <use fill="#4A90E2" fill-rule="evenodd" xlink:href="#path-15"></use>
                            </g>
                            <g id="Group-5" transform="translate(27.000000, 27.000000)" fill="#FFFFFF">
                                <polygon id="Path-2" points="14.6 19.3 14.6 46.920742 31.9905752 33.110371"></polygon>
                                <polygon id="Path-3" points="14.6 17.5953563 59.921488 8.52651283e-14 26.1157764 26.9170316"></polygon>
                                <polygon id="Path-4" points="26.1 26.930751 40.1511982 15.7 45.1776287 42.3551205"></polygon>
                                <polygon id="Path-5" points="45.1913154 42.3622918 0 59.9497483 33.7242681 33.1"></polygon>
                            </g>
                        </g>
                        <g id="Group-26" transform="translate(586.000000, 675.000000)">
                            <g id="Group-25">
                                <circle id="Oval" fill="#9013FE" cx="60" cy="60" r="60"></circle>
                                <g id="noun_persona_410964_000000" transform="translate(26.000000, 26.000000)" fill="#000000">
                                    <path d="M40.0913775,35.4144167 C40.1021197,35.414905 40.1128619,35.414905 40.1236041,35.414905 C40.6612018,35.414905 41.1055377,34.9876589 41.1226275,34.4466433 C41.1734087,32.840198 40.989815,31.8538699 40.9820025,31.8128542 C40.8784869,31.2713503 40.3540728,30.9129519 39.8159869,31.0184206 C39.2739947,31.1199831 38.9170611,31.6419558 39.0166705,32.1839479 C39.0181353,32.1922487 39.1665728,33.0179323 39.1236041,34.3831667 C39.1060259,34.9354128 39.5396197,35.3968386 40.0913775,35.4144167 Z" id="Path"></path>
                                    <circle id="Oval" cx="13.6885681" cy="28.6885681" r="1.6885681"></circle>
                                    <g id="Group">
                                        <path d="M51.2516978,42.1853086 C52.1868556,40.7254888 52.9233134,39.1500799 53.5601771,37.5144788 C54.7557719,34.4439107 55.8551524,31.2956487 56.5536311,28.0705968 C56.6402552,27.6706182 56.7200663,27.2691632 56.7927134,26.8664113 C57.2303355,24.4402142 57.4132807,21.9554578 57.2038767,19.495287 C56.9770243,16.8301449 56.2694666,14.1989518 54.9602701,11.8565846 C54.7189142,11.4247551 54.4582865,11.0037098 54.1793024,10.5951787 C50.3111383,4.93062793 43.164654,0.927698231 35.5294001,0.148889631 C33.2666895,-0.0817164686 30.9762652,-0.0460070686 28.7231524,0.266929731 C26.5499957,0.568761931 24.4110186,1.12855353 22.3769724,1.95268263 C20.4067309,2.75095953 18.5350153,3.79818553 16.8441431,5.08827413 C14.8620359,6.60056703 13.1628,8.43167893 11.754656,10.486538 C11.436289,10.9511204 11.159588,11.4559212 10.8220369,11.9059888 C10.2176382,12.8563329 9.66719258,13.8435479 9.22806758,14.8817922 C8.44436468,16.7347356 7.95571728,18.6741201 7.65781798,20.6601201 C7.60459528,21.0414678 7.57285708,21.4858037 7.54063048,21.9565068 C7.46836488,23.0170537 7.37803278,24.3363896 6.90732968,25.0014287 C6.84336488,25.1015264 0.158794484,35.4999639 0.158794484,35.4999639 C-0.00331491604,35.751917 -0.043842216,36.0634405 0.048931184,36.3485967 C0.141216384,36.6337529 0.356548384,36.8622686 0.635845284,36.9716436 L5.70273978,38.9545538 L5.69932178,39.0072882 C5.60111618,40.4459479 5.51292038,41.7855475 5.49216848,43.177088 C5.47324758,44.4596197 5.51285938,45.7658331 5.67051318,47.2069952 C6.12803268,51.3832647 8.18320848,53.9106085 11.4576226,54.3241827 C12.6931573,54.4803717 14.9726372,54.6762335 17.6263238,54.526087 C19.890606,59.1199591 20.454754,63.3410894 19.2652398,67.0732061 C19.097271,67.5995733 19.3877984,68.1620733 19.9141656,68.3295538 C20.0152398,68.3617804 20.1172906,68.3774054 20.2183648,68.3774054 C20.6417046,68.3774054 21.0352593,68.105921 21.1705132,67.6806281 C22.4612847,63.6317389 21.9678154,59.1451667 19.7481499,54.3348029 C24.1851616,53.7654059 29.1542778,52.0578864 32.0845757,47.6230109 C32.3887749,47.1620734 32.2623101,46.5419562 31.8013726,46.2372687 C31.3399468,45.9335578 30.7198296,46.0595343 30.4156304,46.5204718 C26.7374077,52.0883429 18.3389702,53.1786749 11.7085992,52.3398077 C8.80527888,51.9735968 7.90391168,49.2279913 7.65879448,46.9892218 C7.55405818,46.0325568 7.51585018,45.1507819 7.50107968,44.2837164 C8.02988828,44.3075811 8.59745418,44.324671 9.20078668,44.324671 C10.6890679,44.324671 12.3619195,44.2255499 14.0088922,43.8959601 C14.5503961,43.7875617 14.9014703,43.2607062 14.7930719,42.7192023 C14.6851617,42.1781867 14.1583063,41.8266242 13.6163141,41.9350226 C11.473797,42.3631842 9.24827208,42.3630011 7.52054988,42.2820685 C7.55778128,41.2776129 7.61845028,40.2601569 7.69443908,39.1430304 L7.74766178,38.3568976 C7.77695868,37.921839 7.52061098,37.5180304 7.11436098,37.359339 L2.50156798,35.5541632 C8.01523988,26.9770148 8.54600158,26.1518194 8.56992738,26.112757 C9.09659978,25.3666022 9.30887998,24.3948615 9.42240538,23.4129889 C12.2692072,22.4856207 15.9504205,23.5561774 18.4683649,25.137171 C18.6334041,25.2411748 18.8174861,25.2904912 18.9991267,25.2904912 C19.3316462,25.2904912 19.6568415,25.1249639 19.8467829,24.8222295 C20.1407282,24.3544561 19.9996149,23.7372686 19.5318415,23.4438115 C17.0123103,21.8617803 13.0961726,20.4969121 9.60349678,21.2655278 C9.61448308,21.1541997 9.62406558,21.038477 9.63828678,20.9364873 C10.2485163,16.5691167 12.0050471,12.8899175 15.1551935,9.39693653 C15.2062799,9.40212453 15.2570001,9.40664113 15.3082697,9.41201223 C15.4433405,9.42623343 15.5790827,9.44179743 15.7151301,9.45778863 C15.8392756,9.47225393 15.9636042,9.48720753 16.0884822,9.50319883 C16.2447932,9.52327943 16.4017757,9.54482483 16.5591853,9.56728573 C16.6606868,9.58169003 16.7622493,9.59639953 16.8640559,9.61184143 C17.051678,9.64040593 17.2399714,9.67074033 17.4288142,9.70284483 C17.4965022,9.71431943 17.5642512,9.72585513 17.6321223,9.73775693 C17.8601496,9.77804013 18.0888484,9.82064263 18.3182185,9.86648003 C18.3438533,9.87160703 18.369488,9.87667293 18.3951228,9.88179983 C25.9993708,11.4204351 34.227032,16.0655767 36.855572,28.4565068 C36.8783991,28.5643559 36.9238093,28.6625005 36.9784968,28.7548466 L37.2017634,29.8017216 L38.1237605,29.1980839 C38.2344172,29.1643315 38.341717,29.1184941 38.4366267,29.0468388 C38.5685237,28.9471684 38.777386,28.8081303 39.0307429,28.661829 C39.8639338,28.2466679 41.1849177,27.7707157 42.0645564,28.1576786 C42.3610652,28.2875614 42.6075252,28.5270634 42.8057063,28.8670902 C43.0015681,29.2352543 43.1584895,29.6989383 43.2656062,30.2793216 C43.3420833,30.7388553 43.4120906,31.2162112 43.4743464,31.6950931 C43.7698786,34.2553958 43.4626276,36.147974 42.5792048,36.9745731 C42.4622614,37.0838871 42.3229792,37.1643314 42.1789362,37.2384281 C41.6010553,37.4287968 40.8342707,37.4617557 39.8467829,37.3031864 C39.8467829,37.3031864 38.7008211,37.1186199 38.7007868,37.1186161 C38.6683428,37.11339 38.8892786,41.4586239 38.9560015,41.9085789 C39.2081187,43.6087094 39.6567271,45.2926045 40.3917658,46.8502445 C40.4596369,46.9941654 40.5298273,47.135767 40.6031916,47.2762699 C40.6690485,47.4024906 40.7374079,47.5262699 40.8079035,47.6491947 C40.8862116,47.7858524 40.9676935,47.9193363 41.0519221,48.0512943 C41.1280329,48.170618 41.2061579,48.2874393 41.2872737,48.4024296 C41.3292659,48.4619999 41.365948,48.5261479 41.409283,48.5844364 C41.1695369,50.1845341 41.3873103,53.1718387 41.3921932,53.2060184 C42.2925838,59.1449832 43.4932674,63.0131473 45.9805721,67.9877567 C46.155865,68.3383428 46.5088924,68.5404912 46.8760799,68.5404912 C47.0259822,68.5404912 47.1788143,68.5067998 47.322369,68.4350224 C47.8165096,68.1879521 48.0167049,67.5873662 47.7696346,67.0932255 C45.3863338,62.3271122 44.2349666,58.6147099 43.3702205,52.9106083 C43.3162044,52.4947758 43.2706111,49.9883671 43.3555721,49.0064945 C45.7879299,47.9476566 47.9299968,46.2933101 49.6709179,44.3004818 C50.2569698,43.6296254 50.7796443,42.9221936 51.2516978,42.1853086 Z" id="Path"></path>
                                        <path d="M54.5264282,58.1581383 L67.5269165,53.8246422 L67.2852173,52.9164391 C65.3548584,45.6547814 60.0493164,38.5227623 57.1378784,35 C56.55513,36.7563438 55.9072265,38.494606 55.1544647,40.1855698 C54.8456344,40.8793068 54.5255585,41.5696183 54.164772,42.238102 C53.9845123,42.5720978 53.7937088,42.9005394 53.5882263,43.2196923 C53.5404358,43.2939263 53.0005951,44.0078431 53,44.0067712 C56.0534058,49.5466882 54.8509521,56.409115 54.8359985,56.4901696 L54.5264282,58.1581383 Z" id="Path"></path>
                                    </g>
                                </g>
                            </g>
                        </g>
                    </g>
                    <rect id="Rectangle" fill="url(#linearGradient-14)" x="408" y="514" width="53" height="33"></rect>
                </g>
            </g>
        </g>
    </g>
</svg>