<svg xmlns="http://www.w3.org/2000/svg" width="68" height="69" viewBox="0 0 68 69">
    <g fill="#000" fill-rule="evenodd">
        <path d="M40.091 35.414h.033a1 1 0 0 0 .999-.967c.05-1.607-.133-2.593-.141-2.634a.998.998 0 0 0-1.166-.795 1.001 1.001 0 0 0-.8 1.166c.002.008.15.834.108 2.2a1 1 0 0 0 .967 1.03z"/>
        <circle cx="13.689" cy="28.689" r="1.689"/>
        <path d="M51.252 42.185c.935-1.46 1.671-3.035 2.308-4.67 1.196-3.071 2.295-6.22 2.994-9.444.086-.4.166-.802.239-1.205.437-2.426.62-4.91.41-7.37-.226-2.666-.934-5.297-2.243-7.64a16.586 16.586 0 0 0-.78-1.26C50.31 4.93 43.164.927 35.53.148a28.515 28.515 0 0 0-6.807.118 26.691 26.691 0 0 0-6.346 1.686 23.94 23.94 0 0 0-5.533 3.135c-1.982 1.513-3.681 3.344-5.09 5.399-.318.464-.594.969-.932 1.419-.604.95-1.155 1.938-1.594 2.976-.784 1.853-1.272 3.792-1.57 5.778-.053.381-.085.826-.117 1.297-.073 1.06-.163 2.38-.634 3.044L.16 35.5a.998.998 0 0 0 .477 1.472l5.067 1.983-.004.052c-.098 1.439-.186 2.779-.207 4.17-.019 1.283.02 2.589.179 4.03.457 4.176 2.512 6.704 5.787 7.117 1.235.156 3.515.352 6.168.202 2.265 4.594 2.829 8.815 1.64 12.547a1 1 0 1 0 1.905.608c1.29-4.05.797-8.536-1.423-13.346 4.437-.57 9.406-2.277 12.337-6.712a1 1 0 0 0-1.67-1.103c-3.678 5.568-12.076 6.659-18.706 5.82-2.904-.366-3.805-3.112-4.05-5.35a28.935 28.935 0 0 1-.158-2.706c.529.024 1.096.04 1.7.04 1.488 0 3.16-.098 4.808-.428a1 1 0 1 0-.393-1.961c-2.142.428-4.368.428-6.095.347.037-1.004.097-2.022.173-3.139l.054-.786a.999.999 0 0 0-.634-.998l-4.612-1.805 6.068-9.441c.527-.746.739-1.718.852-2.7 2.847-.927 6.528.143 9.046 1.724a.998.998 0 0 0 1.063-1.693c-2.519-1.582-6.435-2.947-9.928-2.178.011-.112.021-.228.035-.33.61-4.367 2.367-8.046 5.517-11.54l.153.016a33.87 33.87 0 0 1 1.556.2 33.047 33.047 0 0 1 1.454.254l.077.016C26 11.42 34.227 16.066 36.855 28.457a.988.988 0 0 0 .123.298l.224 1.047.922-.604a.99.99 0 0 0 .313-.151c.132-.1.34-.239.594-.385.833-.415 2.154-.891 3.034-.504.296.13.543.37.74.71.197.367.353.83.46 1.411.077.46.147.937.21 1.416.295 2.56-.012 4.453-.896 5.28-.117.109-.256.19-.4.263-.578.19-1.345.224-2.332.065L38.7 37.12c-.033-.006.188 4.34.255 4.79.252 1.7.7 3.384 1.436 4.941a11.71 11.71 0 0 0 .416.8 9.834 9.834 0 0 0 .48.752c.041.06.078.124.121.182-.24 1.6-.022 4.588-.017 4.622.9 5.939 2.101 9.807 4.589 14.782a1 1 0 1 0 1.789-.895c-2.384-4.766-3.535-8.478-4.4-14.182-.054-.416-.1-2.923-.014-3.905 2.432-1.058 4.574-2.713 6.315-4.706a17.788 17.788 0 0 0 1.58-2.115z"/>
        <path d="M54.526 58.158l13-4.333-.24-.909C65.354 45.655 60.048 38.523 57.137 35a56.442 56.442 0 0 1-1.984 5.186 29.972 29.972 0 0 1-.99 2.052c-.18.334-.37.663-.576.982-.048.074-.587.788-.588.787 3.053 5.54 1.851 12.402 1.836 12.483l-.31 1.668z"/>
    </g>
</svg>
