<svg xmlns="http://www.w3.org/2000/svg" width="63" height="81" viewBox="0 0 63 81">
    <g fill="#000" fill-rule="evenodd">
        <path d="M24.534 37.298a1 1 0 1 0 1.057-1.697c-3.62-2.255-9.136-2.114-13.115.334a1 1 0 0 0 1.048 1.703c3.313-2.039 8.047-2.183 11.01-.34z"/>
        <circle cx="19.689" cy="40.689" r="1.689"/>
        <circle cx="41.689" cy="40.689" r="1.689"/>
        <path d="M48.93 35.842c-4.2-2.585-10.535-2.431-14.419.347-2.796 2.002-4.268 5.603-4.373 10.706L30 53.542a1 1 0 0 0 1.298.976l5.344-1.666a1 1 0 0 0-.596-1.91l-4.017 1.253.109-5.259c.091-4.437 1.281-7.506 3.537-9.12 3.224-2.307 8.7-2.429 12.208-.27a1 1 0 1 0 1.048-1.703zM39.516 61.07c-6.897 1.983-15.194-.02-15.276-.041a1 1 0 0 0-.48 1.941c.238.059 4.056.985 8.763.985 2.402 0 5.038-.242 7.545-.962a1 1 0 1 0-.552-1.922z"/>
        <path fill-rule="nonzero" d="M61.59 38.411c-.86-1.656-2.601-1.914-4.026-1.72.877-6.118 1.154-12.552-.431-18.633C54.878 9.408 48.218 3.151 38.86.891 25.645-2.3 8.965 3.061 5.062 17.29c-1.761 6.423-1.185 12.97-.06 19.423-1.448-.232-3.28-.017-4.172 1.698-.82 1.577-1.034 4.242-.635 7.923.296 2.73 1.724 8.526 5.01 10.922.978.712 2.034 1.07 3.153 1.07.252 0 .509-.026.767-.062 2.363 8.85 8.416 21.848 23.568 21.846.234 0 .472-.003.71-.009 12.714-.335 17.47-11.036 20.053-21.813.204.023.406.037.606.037 1.119 0 2.175-.358 3.153-1.07 3.287-2.396 4.714-8.192 5.01-10.921.399-3.68.185-6.346-.635-7.923zM6.383 55.639c-2.506-1.827-3.906-6.81-4.2-9.52-.345-3.19-.196-5.599.421-6.784.58-1.118 2.438-.587 2.794-.472.265 1.388.544 2.77.824 4.146l.047.231a3.133 3.133 0 0 0-1.605 1.214c-.83 1.187-1.004 2.941-.515 5.212a1 1 0 1 0 1.955-.42c-.446-2.072-.156-3.1.166-3.598.133-.205.281-.33.403-.407l.02.103c.29 1.448.622 3.158.898 4.865.105.647.205 1.296.295 1.946.146 1.053.383 2.483.756 4.14-.805.064-1.55-.14-2.259-.656zM33.35 78.1c-18.36.51-22.615-19.947-23.483-26.22a85.264 85.264 0 0 0-.301-1.992c-.275-1.692-.601-3.377-.887-4.817l.002-.036.009-.199.005-.12a133.658 133.658 0 0 1 .038-.778l.003-.062.022-.418.01-.21.024-.424.01-.187.027-.485.014-.245a359.694 359.694 0 0 1 .13-2.148l.022-.331.038-.567.025-.364.04-.567.03-.419.039-.539.036-.49a275.034 275.034 0 0 1 .123-1.552l.04-.486.048-.567.045-.503c.016-.182.032-.364.05-.548l.051-.557.048-.502.058-.584.049-.49.06-.575.054-.494c.02-.189.042-.376.063-.564l.057-.497.067-.553.059-.486.072-.559.061-.462.076-.543.064-.453c.026-.178.053-.352.08-.527.022-.145.044-.291.067-.433l.085-.513c.023-.138.045-.277.069-.412.029-.169.06-.33.09-.494.023-.129.046-.26.07-.385.031-.16.063-.313.095-.469.024-.12.048-.245.073-.363.032-.148.065-.288.097-.43.026-.115.052-.234.079-.345.033-.141.068-.272.103-.406.026-.102.052-.21.079-.308.037-.136.075-.261.114-.39.025-.085.05-.176.076-.257.044-.141.09-.269.136-.398.02-.058.04-.122.06-.177a7.67 7.67 0 0 1 .205-.498c1.978-4.327 5.364-6.134 6.232-6.538l1.874.237c3.816.49 7.776 1.007 11.668.967 3.922-.028 7.887-.548 11.722-1.05l1.178-.153c.874.402 4.237 2.184 6.227 6.537.105.23.208.495.308.792.022.066.043.148.065.216.077.243.155.49.23.771.028.106.055.233.083.344.067.266.134.529.199.822l.063.315c.07.326.138.654.204 1.009.026.14.05.295.076.439.06.336.12.67.178 1.027.025.154.048.323.073.481.056.366.113.729.167 1.112.02.134.037.277.055.413.058.423.116.848.171 1.29.015.116.028.24.043.357.057.47.114.943.169 1.43l.043.41c.052.479.104.959.153 1.449.015.14.027.286.041.428.049.494.097.99.142 1.492l.03.349c.047.531.094 1.064.138 1.6l.031.41c.042.518.083 1.037.121 1.558l.032.456c.036.507.072 1.014.106 1.52l.026.422c.033.51.066 1.021.096 1.527l.028.512c.027.472.054.945.079 1.41l.027.554.06 1.231a266.744 266.744 0 0 0-.758 4.06c-2.33 12.833-5.23 28.806-19.956 29.192zM60.237 46.12c-.294 2.71-1.693 7.692-4.2 9.52-.672.488-1.375.701-2.13.67.525-2.415.96-4.802 1.367-7.044.24-1.324.474-2.599.712-3.815.055.058.11.117.164.198.321.498.611 1.526.166 3.598a1 1 0 1 0 1.955.42c.488-2.27.315-4.025-.515-5.212a3.167 3.167 0 0 0-1.351-1.116c.293-1.479.576-2.994.83-4.535.615-.162 2.08-.433 2.58.532.617 1.185.767 3.595.422 6.784z"/>
    </g>
</svg>
