<svg xmlns="http://www.w3.org/2000/svg" width="92" height="92" viewBox="0 0 92 92">
    <g fill="#FFF" fill-rule="evenodd">
        <path fill-rule="nonzero" d="M46 .5C20.9.5.5 20.9.5 46S20.9 91.5 46 91.5 91.5 71.1 91.5 46 71.1.5 46 .5zm0 86C23.7 86.5 5.5 68.3 5.5 46S23.7 5.5 46 5.5 86.5 23.7 86.5 46 68.3 86.5 46 86.5z"/>
        <path d="M63.8 44.3L37.6 29.2c-.6-.4-1.4-.4-2 0-.6.4-1 1-1 1.7v30.2c0 .7.4 1.4 1 1.7.3.2.7.3 1 .3.3 0 .7-.1 1-.3l26.2-15.1c.6-.4 1-1 1-1.7s-.4-1.4-1-1.7z"/>
    </g>
</svg>
