<svg xmlns="http://www.w3.org/2000/svg" xmlns:xlink="http://www.w3.org/1999/xlink" width="1436" height="2831" viewBox="0 0 1436 2831">
    <defs>
        <linearGradient id="b" x1="50%" x2="50%" y1="0%" y2="100%">
            <stop offset="0%" stop-color="#09142F"/>
            <stop offset="100%" stop-color="#091637"/>
        </linearGradient>
        <path id="a" d="M0 334L1453 0l-29 2443L0 2833.064z"/>
    </defs>
    <g fill="none" fill-rule="evenodd" transform="translate(0 -3)">
        <mask id="c" fill="#fff">
            <use xlink:href="#a"/>
        </mask>
        <use fill="url(#b)" xlink:href="#a"/>
        <path fill="#000" fill-rule="nonzero" d="M1309.213 1963.052a2.439 2.439 0 0 0-2.162-1.328h-35.52a2.44 2.44 0 0 0-2.245 1.507l-12.596 29.956a2.516 2.516 0 0 0 .206 2.342 2.43 2.43 0 0 0 2.039 1.115h10.677l-10.911 26.252a2.517 2.517 0 0 0 .215 2.338 2.43 2.43 0 0 0 2.034 1.11h10.208l-11.263 34.108a2.5 2.5 0 0 0 1.12 2.956c.376.213.786.316 1.193.316.703 0 1.394-.308 1.873-.887l42.07-50.949c.609-.739.743-1.77.342-2.644a2.439 2.439 0 0 0-2.213-1.433h-11.966l16.684-22.392c.56-.751.652-1.76.239-2.603a2.436 2.436 0 0 0-2.186-1.377h-8.706l10.717-15.826c.515-.759.572-1.745.151-2.561zm-16.498 19.513a2.508 2.508 0 0 0-.152 2.564 2.454 2.454 0 0 0 2.174 1.328h8.487l-16.78 22.413a2.506 2.506 0 0 0-.24 2.606 2.453 2.453 0 0 0 2.198 1.38h11.71l-30.591 36.868 8.289-24.98a2.508 2.508 0 0 0-.334-2.242 2.45 2.45 0 0 0-1.994-1.033h-9.98l10.974-26.278c.32-.767.24-1.646-.216-2.34a2.447 2.447 0 0 0-2.046-1.11h-10.721l10.569-25.017h29.431l-10.778 15.84z" mask="url(#c)" opacity=".29" transform="rotate(4 1282.993 2012.724)"/>
        <path fill="#000" fill-rule="nonzero" d="M617.213 2359.052a2.439 2.439 0 0 0-2.162-1.328h-35.52a2.44 2.44 0 0 0-2.245 1.507l-12.596 29.956a2.516 2.516 0 0 0 .206 2.342 2.43 2.43 0 0 0 2.039 1.115h10.677l-10.911 26.252a2.517 2.517 0 0 0 .215 2.338 2.43 2.43 0 0 0 2.034 1.11h10.208l-11.263 34.108a2.5 2.5 0 0 0 1.12 2.956c.376.213.786.316 1.193.316.703 0 1.394-.308 1.873-.887l42.07-50.949c.609-.739.743-1.77.342-2.644a2.439 2.439 0 0 0-2.213-1.433h-11.966l16.684-22.392c.56-.751.652-1.76.239-2.603a2.436 2.436 0 0 0-2.186-1.377h-8.706l10.717-15.826c.515-.759.572-1.745.151-2.561zm-16.498 19.513a2.508 2.508 0 0 0-.152 2.564 2.454 2.454 0 0 0 2.174 1.328h8.487l-16.78 22.413a2.506 2.506 0 0 0-.24 2.606 2.453 2.453 0 0 0 2.198 1.38h11.71l-30.591 36.868 8.289-24.98a2.508 2.508 0 0 0-.334-2.242 2.45 2.45 0 0 0-1.994-1.033h-9.98l10.974-26.278c.32-.767.24-1.646-.216-2.34a2.447 2.447 0 0 0-2.046-1.11h-10.721l10.569-25.017h29.431l-10.778 15.84z" mask="url(#c)" opacity=".29" transform="rotate(4 590.993 2408.724)"/>
        <path fill="#000" fill-rule="nonzero" d="M831.213 1970.052a2.439 2.439 0 0 0-2.162-1.328h-35.52a2.44 2.44 0 0 0-2.245 1.507l-12.596 29.956a2.516 2.516 0 0 0 .206 2.342 2.43 2.43 0 0 0 2.039 1.115h10.677l-10.911 26.252a2.517 2.517 0 0 0 .215 2.338 2.43 2.43 0 0 0 2.034 1.11h10.208l-11.263 34.108a2.5 2.5 0 0 0 1.12 2.956c.376.213.786.316 1.193.316.703 0 1.394-.308 1.873-.887l42.07-50.949c.609-.739.743-1.77.342-2.644a2.439 2.439 0 0 0-2.213-1.433h-11.966l16.684-22.392c.56-.751.652-1.76.239-2.603a2.436 2.436 0 0 0-2.186-1.377h-8.706l10.717-15.826c.515-.759.572-1.745.151-2.561zm-16.498 19.513a2.508 2.508 0 0 0-.152 2.564 2.454 2.454 0 0 0 2.174 1.328h8.487l-16.78 22.413a2.506 2.506 0 0 0-.24 2.606 2.453 2.453 0 0 0 2.198 1.38h11.71l-30.591 36.868 8.289-24.98a2.508 2.508 0 0 0-.334-2.242 2.45 2.45 0 0 0-1.994-1.033h-9.98l10.974-26.278c.32-.767.24-1.646-.216-2.34a2.447 2.447 0 0 0-2.046-1.11h-10.721l10.569-25.017h29.431l-10.778 15.84z" mask="url(#c)" opacity=".29" transform="rotate(4 804.993 2019.724)"/>
        <path fill="#000" fill-rule="nonzero" d="M111.213 1871.052a2.439 2.439 0 0 0-2.162-1.328H73.53a2.44 2.44 0 0 0-2.245 1.507l-12.596 29.956a2.516 2.516 0 0 0 .206 2.342 2.43 2.43 0 0 0 2.039 1.115h10.677L60.7 1930.896a2.517 2.517 0 0 0 .215 2.338 2.43 2.43 0 0 0 2.034 1.11h10.208l-11.263 34.108a2.5 2.5 0 0 0 1.12 2.956c.376.213.786.316 1.193.316.703 0 1.394-.308 1.873-.887l42.07-50.949c.609-.739.743-1.77.342-2.644a2.439 2.439 0 0 0-2.213-1.433H94.314l16.684-22.392c.56-.751.652-1.76.239-2.603a2.436 2.436 0 0 0-2.186-1.377h-8.706l10.717-15.826c.515-.759.572-1.745.151-2.561zm-16.498 19.513a2.508 2.508 0 0 0-.152 2.564 2.454 2.454 0 0 0 2.174 1.328h8.487l-16.78 22.413a2.506 2.506 0 0 0-.24 2.606 2.453 2.453 0 0 0 2.198 1.38h11.71l-30.591 36.868 8.289-24.98a2.508 2.508 0 0 0-.334-2.242 2.45 2.45 0 0 0-1.994-1.033h-9.98l10.974-26.278c.32-.767.24-1.646-.216-2.34a2.447 2.447 0 0 0-2.046-1.11H65.493l10.569-25.017h29.431l-10.778 15.84z" mask="url(#c)" opacity=".29" transform="rotate(4 84.993 1920.724)"/>
        <path fill="#000" fill-rule="nonzero" d="M73.213 1130.052a2.439 2.439 0 0 0-2.162-1.328H35.53a2.44 2.44 0 0 0-2.245 1.507l-12.596 29.956a2.516 2.516 0 0 0 .206 2.342 2.43 2.43 0 0 0 2.039 1.115h10.677L22.7 1189.896a2.517 2.517 0 0 0 .215 2.338 2.43 2.43 0 0 0 2.034 1.11h10.208l-11.263 34.108a2.5 2.5 0 0 0 1.12 2.956c.376.213.786.316 1.193.316.703 0 1.394-.308 1.873-.887l42.07-50.949c.609-.739.743-1.77.342-2.644a2.439 2.439 0 0 0-2.213-1.433H56.314l16.684-22.392c.56-.751.652-1.76.239-2.603a2.436 2.436 0 0 0-2.186-1.377h-8.706l10.717-15.826c.515-.759.572-1.745.151-2.561zm-16.498 19.513a2.508 2.508 0 0 0-.152 2.564 2.454 2.454 0 0 0 2.174 1.328h8.487l-16.78 22.413a2.506 2.506 0 0 0-.24 2.606 2.453 2.453 0 0 0 2.198 1.38h11.71l-30.591 36.868 8.289-24.98a2.508 2.508 0 0 0-.334-2.242 2.45 2.45 0 0 0-1.994-1.033h-9.98l10.974-26.278c.32-.767.24-1.646-.216-2.34a2.447 2.447 0 0 0-2.046-1.11H27.493l10.569-25.017h29.431l-10.778 15.84z" mask="url(#c)" opacity=".29" transform="rotate(4 46.993 1179.724)"/>
        <path fill="#000" fill-rule="nonzero" d="M42.72 341.327A2.439 2.439 0 0 0 40.558 340H5.038a2.44 2.44 0 0 0-2.245 1.507l-12.596 29.955a2.516 2.516 0 0 0 .206 2.342 2.43 2.43 0 0 0 2.039 1.115H3.119l-10.911 26.253a2.517 2.517 0 0 0 .214 2.338 2.43 2.43 0 0 0 2.035 1.11H4.665l-11.263 34.108a2.5 2.5 0 0 0 1.12 2.955c.376.214.786.317 1.193.317.703 0 1.394-.309 1.873-.887l42.07-50.95c.609-.738.743-1.77.342-2.643a2.439 2.439 0 0 0-2.213-1.433H25.82l16.684-22.392c.56-.752.652-1.76.239-2.603a2.436 2.436 0 0 0-2.186-1.378h-8.706L42.57 343.89c.515-.76.572-1.746.151-2.562zM26.222 360.84a2.508 2.508 0 0 0-.152 2.565 2.454 2.454 0 0 0 2.174 1.328h8.487l-16.78 22.413a2.506 2.506 0 0 0-.24 2.606 2.453 2.453 0 0 0 2.198 1.38h11.71L3.027 428l8.289-24.98a2.508 2.508 0 0 0-.335-2.242 2.45 2.45 0 0 0-1.993-1.033h-9.98l10.974-26.279c.32-.766.24-1.645-.216-2.339a2.447 2.447 0 0 0-2.046-1.111H-3L7.569 345H37l-10.778 15.84z" mask="url(#c)" opacity=".29" transform="rotate(10 16.5 391)"/>
        <path fill="#000" fill-rule="nonzero" d="M929.173 155.154a2.439 2.439 0 0 0-2.162-1.327h-35.52a2.44 2.44 0 0 0-2.245 1.507l-12.596 29.955a2.516 2.516 0 0 0 .207 2.342 2.43 2.43 0 0 0 2.038 1.115h10.677L878.662 215a2.517 2.517 0 0 0 .214 2.338 2.43 2.43 0 0 0 2.035 1.11h10.208l-11.264 34.108a2.5 2.5 0 0 0 1.121 2.955c.375.213.785.317 1.192.317.703 0 1.395-.309 1.873-.887l42.07-50.95c.61-.738.743-1.77.342-2.643a2.439 2.439 0 0 0-2.213-1.434h-11.966l16.685-22.391c.56-.752.652-1.76.238-2.603a2.436 2.436 0 0 0-2.186-1.378h-8.705l10.716-15.825c.516-.76.573-1.746.151-2.562zm-16.498 19.513a2.508 2.508 0 0 0-.152 2.564 2.454 2.454 0 0 0 2.175 1.329h8.487l-16.78 22.413a2.506 2.506 0 0 0-.24 2.605 2.453 2.453 0 0 0 2.198 1.38h11.709l-30.59 36.869 8.288-24.98a2.508 2.508 0 0 0-.334-2.242 2.45 2.45 0 0 0-1.994-1.033h-9.979l10.974-26.279c.32-.766.24-1.645-.216-2.34a2.447 2.447 0 0 0-2.047-1.11h-10.72l10.568-25.016h29.431l-10.778 15.84z" mask="url(#c)" opacity=".29" transform="rotate(10 902.953 204.827)"/>
        <path fill="#000" fill-rule="nonzero" d="M288.964 710.447a2.439 2.439 0 0 0-2.162-1.328h-35.52a2.44 2.44 0 0 0-2.245 1.507l-12.596 29.956a2.516 2.516 0 0 0 .207 2.342 2.43 2.43 0 0 0 2.038 1.115h10.677l-10.91 26.252a2.517 2.517 0 0 0 .214 2.338 2.43 2.43 0 0 0 2.035 1.11h10.208l-11.264 34.109a2.5 2.5 0 0 0 1.121 2.955c.375.213.785.316 1.192.316.703 0 1.395-.308 1.873-.887l42.07-50.949c.61-.739.743-1.77.342-2.644a2.439 2.439 0 0 0-2.213-1.433h-11.966l16.685-22.392c.56-.751.652-1.76.238-2.603a2.436 2.436 0 0 0-2.186-1.377h-8.705l10.716-15.825c.515-.76.573-1.746.151-2.562zm-16.498 19.513a2.508 2.508 0 0 0-.152 2.564 2.454 2.454 0 0 0 2.175 1.329h8.487l-16.78 22.413a2.506 2.506 0 0 0-.24 2.605 2.453 2.453 0 0 0 2.198 1.38h11.709l-30.59 36.868 8.288-24.98a2.508 2.508 0 0 0-.334-2.241 2.45 2.45 0 0 0-1.994-1.034h-9.979l10.974-26.278c.32-.767.24-1.646-.216-2.34a2.447 2.447 0 0 0-2.047-1.11h-10.72l10.568-25.017h29.431l-10.778 15.84z" mask="url(#c)" opacity=".29" transform="rotate(-11 262.744 760.12)"/>
        <path fill="#000" fill-rule="nonzero" d="M1213.213 732.052a2.439 2.439 0 0 0-2.162-1.328h-35.52a2.44 2.44 0 0 0-2.245 1.507l-12.596 29.956a2.516 2.516 0 0 0 .206 2.342 2.43 2.43 0 0 0 2.039 1.115h10.677l-10.911 26.252a2.517 2.517 0 0 0 .215 2.338 2.43 2.43 0 0 0 2.034 1.11h10.208l-11.263 34.108a2.5 2.5 0 0 0 1.12 2.956c.376.213.786.316 1.193.316.703 0 1.394-.308 1.873-.887l42.07-50.949c.609-.739.743-1.77.342-2.644a2.439 2.439 0 0 0-2.213-1.433h-11.966l16.684-22.392c.56-.751.652-1.76.239-2.603a2.436 2.436 0 0 0-2.186-1.377h-8.706l10.717-15.826c.515-.759.572-1.745.151-2.561zm-16.498 19.513a2.508 2.508 0 0 0-.152 2.564 2.454 2.454 0 0 0 2.174 1.328h8.487l-16.78 22.413a2.506 2.506 0 0 0-.24 2.606 2.453 2.453 0 0 0 2.198 1.38h11.71l-30.591 36.868 8.289-24.98a2.508 2.508 0 0 0-.334-2.242 2.45 2.45 0 0 0-1.994-1.033h-9.98l10.974-26.278c.32-.767.24-1.646-.216-2.34a2.447 2.447 0 0 0-2.046-1.11h-10.721l10.569-25.017h29.431l-10.778 15.84z" mask="url(#c)" opacity=".29" transform="rotate(4 1186.993 781.724)"/>
        <path fill="#000" fill-rule="nonzero" d="M1419.213 343.052a2.439 2.439 0 0 0-2.162-1.328h-35.52a2.44 2.44 0 0 0-2.245 1.507l-12.596 29.956a2.516 2.516 0 0 0 .206 2.342 2.43 2.43 0 0 0 2.039 1.115h10.677l-10.911 26.252a2.517 2.517 0 0 0 .215 2.338 2.43 2.43 0 0 0 2.034 1.11h10.208l-11.263 34.108a2.5 2.5 0 0 0 1.12 2.956c.376.213.786.316 1.193.316.703 0 1.394-.308 1.873-.887l42.07-50.949c.609-.739.743-1.77.342-2.644a2.439 2.439 0 0 0-2.213-1.433h-11.966l16.684-22.392c.56-.751.652-1.76.239-2.603a2.436 2.436 0 0 0-2.186-1.377h-8.706l10.717-15.826c.515-.759.572-1.745.151-2.561zm-16.498 19.513a2.508 2.508 0 0 0-.152 2.564 2.454 2.454 0 0 0 2.174 1.328h8.487l-16.78 22.413a2.506 2.506 0 0 0-.24 2.606 2.453 2.453 0 0 0 2.198 1.38h11.71l-30.591 36.868 8.289-24.98a2.508 2.508 0 0 0-.334-2.242 2.45 2.45 0 0 0-1.994-1.033h-9.98l10.974-26.278c.32-.767.24-1.646-.216-2.34a2.447 2.447 0 0 0-2.046-1.11h-10.721l10.569-25.017h29.431l-10.778 15.84z" mask="url(#c)" opacity=".29" transform="rotate(4 1392.993 392.724)"/>
        <path fill="#000" fill-rule="nonzero" d="M1449.213 1146.052a2.439 2.439 0 0 0-2.162-1.328h-35.52a2.44 2.44 0 0 0-2.245 1.507l-12.596 29.956a2.516 2.516 0 0 0 .206 2.342 2.43 2.43 0 0 0 2.039 1.115h10.677l-10.911 26.252a2.517 2.517 0 0 0 .215 2.338 2.43 2.43 0 0 0 2.034 1.11h10.208l-11.263 34.108a2.5 2.5 0 0 0 1.12 2.956c.376.213.786.316 1.193.316.703 0 1.394-.308 1.873-.887l42.07-50.949c.609-.739.743-1.77.342-2.644a2.439 2.439 0 0 0-2.213-1.433h-11.966l16.684-22.392c.56-.751.652-1.76.239-2.603a2.436 2.436 0 0 0-2.186-1.377h-8.706l10.717-15.826c.515-.759.572-1.745.151-2.561zm-16.498 19.513a2.508 2.508 0 0 0-.152 2.564 2.454 2.454 0 0 0 2.174 1.328h8.487l-16.78 22.413a2.506 2.506 0 0 0-.24 2.606 2.453 2.453 0 0 0 2.198 1.38h11.71l-30.591 36.868 8.289-24.98a2.508 2.508 0 0 0-.334-2.242 2.45 2.45 0 0 0-1.994-1.033h-9.98l10.974-26.278c.32-.767.24-1.646-.216-2.34a2.447 2.447 0 0 0-2.046-1.11h-10.721l10.569-25.017h29.431l-10.778 15.84z" mask="url(#c)" opacity=".29" transform="rotate(-15 1422.993 1195.724)"/>
        <path fill="#000" fill-rule="nonzero" d="M938.213 1111.052a2.439 2.439 0 0 0-2.162-1.328h-35.52a2.44 2.44 0 0 0-2.245 1.507l-12.596 29.956a2.516 2.516 0 0 0 .206 2.342 2.43 2.43 0 0 0 2.039 1.115h10.677l-10.911 26.252a2.517 2.517 0 0 0 .215 2.338 2.43 2.43 0 0 0 2.034 1.11h10.208l-11.263 34.108a2.5 2.5 0 0 0 1.12 2.956c.376.213.786.316 1.193.316.703 0 1.394-.308 1.873-.887l42.07-50.949c.609-.739.743-1.77.342-2.644a2.439 2.439 0 0 0-2.213-1.433h-11.966l16.684-22.392c.56-.751.652-1.76.239-2.603a2.436 2.436 0 0 0-2.186-1.377h-8.706l10.717-15.826c.515-.759.572-1.745.151-2.561zm-16.498 19.513a2.508 2.508 0 0 0-.152 2.564 2.454 2.454 0 0 0 2.174 1.328h8.487l-16.78 22.413a2.506 2.506 0 0 0-.24 2.606 2.453 2.453 0 0 0 2.198 1.38h11.71l-30.591 36.868 8.289-24.98a2.508 2.508 0 0 0-.334-2.242 2.45 2.45 0 0 0-1.994-1.033h-9.98l10.974-26.278c.32-.767.24-1.646-.216-2.34a2.447 2.447 0 0 0-2.046-1.11h-10.721l10.569-25.017h29.431l-10.778 15.84z" mask="url(#c)" opacity=".29" transform="rotate(-22 911.993 1160.724)"/>
        <path fill="#000" fill-rule="nonzero" d="M504.213 1336.052a2.439 2.439 0 0 0-2.162-1.328h-35.52a2.44 2.44 0 0 0-2.245 1.507l-12.596 29.956a2.516 2.516 0 0 0 .206 2.342 2.43 2.43 0 0 0 2.039 1.115h10.677l-10.911 26.252a2.517 2.517 0 0 0 .215 2.338 2.43 2.43 0 0 0 2.034 1.11h10.208l-11.263 34.108a2.5 2.5 0 0 0 1.12 2.956c.376.213.786.316 1.193.316.703 0 1.394-.308 1.873-.887l42.07-50.949c.609-.739.743-1.77.342-2.644a2.439 2.439 0 0 0-2.213-1.433h-11.966l16.684-22.392c.56-.751.652-1.76.239-2.603a2.436 2.436 0 0 0-2.186-1.377h-8.706l10.717-15.826c.515-.759.572-1.745.151-2.561zm-16.498 19.513a2.508 2.508 0 0 0-.152 2.564 2.454 2.454 0 0 0 2.174 1.328h8.487l-16.78 22.413a2.506 2.506 0 0 0-.24 2.606 2.453 2.453 0 0 0 2.198 1.38h11.71l-30.591 36.868 8.289-24.98a2.508 2.508 0 0 0-.334-2.242 2.45 2.45 0 0 0-1.994-1.033h-9.98l10.974-26.278c.32-.767.24-1.646-.216-2.34a2.447 2.447 0 0 0-2.046-1.11h-10.721l10.569-25.017h29.431l-10.778 15.84z" mask="url(#c)" opacity=".29" transform="rotate(4 477.993 1385.724)"/>
    </g>
</svg>
