<?xml version="1.0" encoding="utf-8"?>
<!-- Generator: Adobe Illustrator 16.0.0, SVG Export Plug-In . SVG Version: 6.00 Build 0)  -->
<!DOCTYPE svg PUBLIC "-//W3C//DTD SVG 1.1//EN" "http://www.w3.org/Graphics/SVG/1.1/DTD/svg11.dtd">
<svg version="1.1" id="Layer_1" xmlns="http://www.w3.org/2000/svg" xmlns:xlink="http://www.w3.org/1999/xlink" x="0px" y="0px"
	 width="171px" height="154px" viewBox="34.5 54.5 171 154" enable-background="new 34.5 54.5 171 154" xml:space="preserve">
<text transform="matrix(0.9816 0 0 1 47.7446 144.4229)" fill="#FFFFFF" font-family="'Gotham-Ultra'" font-size="32.0928">FASHI</text>
<text transform="matrix(0.9816 0 0 1 146.5039 144.4229)" fill="#F04A3D" font-family="'Gotham-Ultra'" font-size="32.0928">ON</text>
<text transform="matrix(1 0 0 1 47.4849 88.311)" fill="#808285" font-family="'CaviarDreams'" font-size="31.4379">cosmo</text>
<text transform="matrix(1 0 0 1 47.4849 88.311)" fill="none" stroke="#808285" stroke-width="0.5" stroke-miterlimit="10" font-family="'CaviarDreams'" font-size="31.4379">cosmo</text>
<text transform="matrix(1 0 0 1 47.4849 110.0762)" fill="#808285" font-family="'CaviarDreams'" font-size="29.0196">politan</text>
<text transform="matrix(1 0 0 1 47.4849 110.0762)" fill="none" stroke="#808285" stroke-width="0.5" stroke-miterlimit="10" font-family="'CaviarDreams'" font-size="29.0196">politan</text>
<polygon fill="#F04A3D" points="191.932,71.631 191.932,71.614 155.447,71.614 155.447,84.92 178.692,84.92 178.692,110.253 
	191.997,110.253 191.997,71.631 "/>
<polygon fill="#CCCCCC" points="62.299,175.209 62.299,156.067 48.994,156.067 48.994,188.449 49.011,188.449 49.011,188.514 
	79.345,188.514 79.345,175.209 "/>
<g>
	<path fill="#FFFFFF" d="M88.851,162.464h0.371c0.142,0,0.248,0.04,0.319,0.118c0.07,0.08,0.124,0.164,0.159,0.252l7.953,23.807
		c0.07,0.195,0.136,0.381,0.2,0.559c0.062,0.175,0.11,0.362,0.146,0.556c0.036-0.193,0.083-0.381,0.146-0.556
		c0.062-0.178,0.127-0.363,0.198-0.559l8.272-24.07c0.053-0.178,0.142-0.267,0.266-0.267h0.159c0.124,0,0.211,0.091,0.266,0.267
		l8.218,24.07c0.071,0.195,0.138,0.391,0.198,0.584c0.063,0.195,0.11,0.361,0.146,0.504c0.089-0.336,0.204-0.697,0.346-1.088
		l7.953-23.807c0.124-0.246,0.281-0.37,0.477-0.37h0.373l-8.909,25.98h-0.265c-0.16,0-0.266-0.089-0.319-0.267l-8.324-24.177
		c-0.106-0.284-0.185-0.53-0.239-0.741c-0.036,0.123-0.075,0.242-0.118,0.355c-0.045,0.116-0.084,0.242-0.12,0.385l-8.431,24.177
		c-0.054,0.179-0.142,0.267-0.266,0.267h-0.266L88.851,162.464z"/>
	<path fill="#FFFFFF" d="M137.153,162.038c1.359,0,2.632,0.245,3.817,0.73c1.184,0.485,2.214,1.204,3.088,2.159
		c0.877,0.956,1.561,2.127,2.057,3.515c0.493,1.388,0.742,2.983,0.742,4.784c0,0.088-0.031,0.156-0.094,0.199
		c-0.062,0.044-0.136,0.066-0.226,0.066h-20.042c-0.037,0.248-0.053,0.488-0.053,0.717s0,0.469,0,0.714
		c0,2.159,0.254,4.063,0.77,5.716c0.513,1.65,1.242,3.039,2.188,4.161s2.085,1.976,3.42,2.56c1.334,0.584,2.814,0.875,4.441,0.875
		c1.467,0,2.727-0.158,3.777-0.478c1.051-0.317,1.926-0.673,2.623-1.06c0.697-0.389,1.229-0.742,1.592-1.06
		c0.361-0.319,0.596-0.479,0.701-0.479c0.07,0,0.143,0.038,0.213,0.105l0.105,0.106c-0.3,0.37-0.746,0.758-1.339,1.151
		c-0.593,0.398-1.29,0.768-2.095,1.104c-0.803,0.334-1.683,0.609-2.638,0.822c-0.954,0.213-1.935,0.316-2.942,0.316
		c-1.785,0-3.385-0.312-4.799-0.939c-1.416-0.627-2.611-1.531-3.593-2.716c-0.981-1.184-1.737-2.634-2.267-4.348
		c-0.531-1.714-0.795-3.659-0.795-5.836c0-1.907,0.255-3.653,0.769-5.233c0.513-1.582,1.255-2.938,2.227-4.07
		c0.972-1.132,2.163-2.01,3.567-2.638C133.772,162.355,135.368,162.038,137.153,162.038z M137.153,162.57
		c-1.557,0-2.956,0.25-4.203,0.754c-1.245,0.504-2.317,1.211-3.22,2.121c-0.901,0.91-1.623,2.011-2.162,3.299
		c-0.537,1.293-0.887,2.715-1.046,4.27h19.751c0-1.678-0.23-3.167-0.689-4.467c-0.461-1.3-1.101-2.393-1.923-3.273
		c-0.821-0.883-1.789-1.557-2.901-2.014C139.646,162.799,138.443,162.57,137.153,162.57z"/>
	<path fill="#FFFFFF" d="M161.017,162.038c1.359,0,2.632,0.245,3.815,0.73c1.185,0.485,2.215,1.204,3.09,2.159
		c0.875,0.956,1.559,2.127,2.055,3.515c0.494,1.388,0.742,2.983,0.742,4.784c0,0.088-0.029,0.156-0.092,0.199
		c-0.064,0.044-0.137,0.066-0.228,0.066h-20.042c-0.036,0.248-0.052,0.488-0.052,0.717s0,0.469,0,0.714
		c0,2.159,0.253,4.063,0.77,5.716c0.514,1.65,1.241,3.039,2.186,4.161c0.946,1.122,2.087,1.976,3.42,2.56
		c1.335,0.584,2.816,0.875,4.44,0.875c1.469,0,2.727-0.158,3.777-0.478c1.053-0.317,1.928-0.673,2.626-1.06
		c0.697-0.389,1.228-0.742,1.591-1.06c0.359-0.319,0.595-0.479,0.701-0.479c0.07,0,0.142,0.038,0.211,0.105l0.105,0.106
		c-0.299,0.37-0.744,0.758-1.336,1.151c-0.595,0.398-1.292,0.768-2.096,1.104c-0.805,0.334-1.682,0.609-2.639,0.822
		c-0.953,0.213-1.936,0.316-2.941,0.316c-1.787,0-3.385-0.312-4.799-0.939s-2.611-1.531-3.592-2.716
		c-0.981-1.184-1.739-2.634-2.269-4.348c-0.53-1.714-0.796-3.659-0.796-5.836c0-1.907,0.256-3.653,0.769-5.233
		c0.515-1.582,1.257-2.938,2.228-4.07c0.973-1.132,2.161-2.01,3.568-2.638C157.633,162.354,159.23,162.038,161.017,162.038z
		 M161.017,162.57c-1.557,0-2.958,0.25-4.203,0.754s-2.319,1.211-3.222,2.121s-1.621,2.011-2.16,3.299
		c-0.54,1.293-0.89,2.715-1.047,4.27h19.748c0-1.678-0.229-3.167-0.688-4.467c-0.461-1.3-1.101-2.393-1.92-3.273
		c-0.823-0.883-1.792-1.557-2.903-2.014C163.507,162.799,162.305,162.57,161.017,162.57z"/>
	<path fill="#FFFFFF" d="M176.551,150.268v23.969h1.219c0.16,0,0.345-0.02,0.558-0.056c0.212-0.036,0.449-0.177,0.713-0.425
		l12.356-10.869c0.143-0.141,0.281-0.244,0.424-0.316c0.141-0.07,0.318-0.106,0.531-0.106h0.477l-13.149,11.504
		c-0.229,0.213-0.449,0.362-0.662,0.453c0.244,0.071,0.457,0.163,0.634,0.277c0.178,0.114,0.348,0.243,0.505,0.385l13.733,13.361
		h-0.477c-0.143,0-0.266-0.019-0.371-0.054c-0.106-0.035-0.232-0.123-0.371-0.264l-13.047-12.675
		c-0.138-0.142-0.277-0.263-0.408-0.357c-0.133-0.097-0.274-0.175-0.424-0.226c-0.151-0.051-0.319-0.094-0.505-0.119
		c-0.185-0.025-0.412-0.04-0.677-0.04h-1.059v13.731h-0.637v-38.176L176.551,150.268L176.551,150.268z"/>
</g>
</svg>
