<?xml version="1.0" encoding="utf-8"?>
<!-- Generator: Adobe Illustrator 16.0.0, SVG Export Plug-In . SVG Version: 6.00 Build 0)  -->
<!DOCTYPE svg PUBLIC "-//W3C//DTD SVG 1.1//EN" "http://www.w3.org/Graphics/SVG/1.1/DTD/svg11.dtd">
<svg version="1.1" id="Layer_1" xmlns="http://www.w3.org/2000/svg" xmlns:xlink="http://www.w3.org/1999/xlink" x="0px" y="0px"
	 width="250px" height="250px" viewBox="0 0 250 250" enable-background="new 0 0 250 250" xml:space="preserve">
<g enable-background="new    ">
	<path fill="#FFFFFF" d="M14.091,117.945h27.451v9.545H25.052v4.248H40.37v8.688H25.052v10.93H14.091V117.945z"/>
	<path fill="#FFFFFF" d="M51.801,117.706h10.868l13.819,33.649H64.59l-1.733-4.486H51.38l-1.687,4.486H37.982L51.801,117.706z
		 M60.14,138.945l-2.998-8.113l-2.998,8.113H60.14z"/>
	<path fill="#FFFFFF" d="M74.663,146.344l5.855-7.111c3.561,2.768,7.636,3.914,11.477,3.914c1.967,0,2.811-0.525,2.811-1.433v-0.095
		c0-0.955-1.03-1.48-4.544-2.196c-7.354-1.527-13.819-3.675-13.819-10.739v-0.096c0-6.348,4.872-11.264,13.913-11.264
		c6.324,0,11.009,1.527,14.803,4.582l-5.34,7.541c-3.092-2.291-6.792-3.293-9.837-3.293c-1.64,0-2.389,0.572-2.389,1.385v0.095
		c0,0.907,0.89,1.479,4.356,2.147c8.385,1.576,14.006,4.058,14.006,10.787v0.096c0,7.016-5.668,11.312-14.475,11.312
		C84.828,151.977,78.832,150.066,74.663,146.344z"/>
	<path fill="#FFFFFF" d="M108.485,117.945h10.961v11.79h10.025v-11.79h10.962v33.411h-10.962v-11.98h-10.025v11.98h-10.961V117.945z
		"/>
	<path fill="#FFFFFF" d="M144.275,117.945h10.961v33.411h-10.961V117.945z"/>
</g>
<g enable-background="new    ">
	<path fill="#F04A3D" d="M160.202,134.746v-0.096c0-9.689,7.823-17.421,17.942-17.421c10.117,0,17.848,7.637,17.848,17.326v0.096
		c0,9.689-7.824,17.421-17.941,17.421C167.932,152.071,160.202,144.435,160.202,134.746z M184.937,134.746v-0.096
		c0-3.962-2.671-7.541-6.886-7.541c-4.17,0-6.793,3.531-6.793,7.445v0.096c0,3.961,2.67,7.541,6.887,7.541
		C182.312,142.191,184.937,138.659,184.937,134.746z"/>
	<path fill="#F04A3D" d="M198.991,117.945h10.259l11.664,14.749v-14.749h10.868v33.411h-9.743l-12.18-15.416v15.416h-10.868V117.945
		z"/>
</g>
<g enable-background="new    ">
	<path fill="#808285" d="M34.475,62.525l2.169,0.776c-0.396,0.548-0.845,1.073-1.347,1.575c-2.451,2.45-5.41,3.676-8.88,3.676
		c-3.455,0-6.407-1.226-8.857-3.676s-3.675-5.41-3.675-8.88c0-3.454,1.225-6.406,3.675-8.856s5.402-3.676,8.857-3.676
		c3.47,0,6.429,1.226,8.88,3.676c0.502,0.502,0.951,1.02,1.347,1.552l-2.169,0.799c-0.228-0.273-0.472-0.548-0.73-0.821
		c-2.024-2.009-4.466-3.014-7.327-3.014c-2.846,0-5.281,1.009-7.305,3.024c-2.024,2.017-3.036,4.456-3.036,7.316
		c0,2.861,1.012,5.304,3.036,7.328c2.024,2.023,4.459,3.035,7.305,3.035c2.861,0,5.303-1.012,7.327-3.035
		C34.003,63.066,34.247,62.8,34.475,62.525z"/>
	<path fill="#808285" d="M53.285,43.465c3.47,0,6.426,1.226,8.868,3.676s3.664,5.409,3.664,8.879c0,3.455-1.222,6.407-3.664,8.857
		s-5.398,3.676-8.868,3.676c-3.455,0-6.407-1.226-8.857-3.676s-3.675-5.402-3.675-8.857c0-3.47,1.225-6.429,3.675-8.879
		S49.83,43.465,53.285,43.465z M45.957,48.692c-2.024,2.024-3.036,4.467-3.036,7.327c0,2.861,1.012,5.301,3.036,7.316
		c2.023,2.017,4.466,3.024,7.328,3.024c2.861,0,5.303-1.008,7.327-3.024c2.024-2.016,3.036-4.455,3.036-7.316
		c0-2.86-1.012-5.303-3.036-7.327c-2.024-2.023-4.466-3.036-7.327-3.036C50.423,45.656,47.98,46.669,45.957,48.692z"/>
	<path fill="#808285" d="M77.458,56.385c-1.75-0.943-2.96-1.749-3.629-2.419c-1.05-1.051-1.575-2.313-1.575-3.79
		c0-1.491,0.525-2.766,1.575-3.823c1.05-1.058,2.313-1.587,3.789-1.587c1.492,0,2.724,0.487,3.698,1.462
		c0.943,0.958,1.416,2.047,1.416,3.264v0.114l-1.781,0.708c-0.152-1.156-0.514-2.024-1.084-2.603
		c-0.57-0.578-1.32-0.867-2.249-0.867c-0.913,0-1.697,0.323-2.351,0.97c-0.654,0.647-0.981,1.435-0.981,2.362
		c0,0.913,0.327,1.697,0.981,2.352c0.38,0.381,1.187,0.959,2.42,1.735c1.948,1.065,3.333,2.009,4.154,2.83
		c1.293,1.31,1.94,2.869,1.94,4.68c0,1.856-0.647,3.436-1.94,4.736c-1.293,1.302-2.861,1.952-4.702,1.952
		c-1.842,0-3.409-0.65-4.703-1.952c-1.293-1.301-1.94-2.728-1.94-4.279l2.032-0.525c0,1.339,0.453,2.458,1.358,3.355
		c0.905,0.898,1.989,1.347,3.253,1.347c1.263,0,2.347-0.448,3.253-1.347c0.905-0.897,1.358-1.993,1.358-3.287
		c0-1.263-0.449-2.344-1.347-3.241C79.916,58.044,78.935,57.329,77.458,56.385z"/>
	<path fill="#808285" d="M89.603,45.497h2.054v0.524c1.278-1.232,2.808-1.849,4.588-1.849c1.841,0,3.409,0.646,4.703,1.94
		c0.35,0.35,0.654,0.73,0.913,1.141c0.258-0.396,0.57-0.775,0.936-1.141c1.293-1.294,2.861-1.94,4.703-1.94s3.409,0.646,4.703,1.94
		c1.232,1.248,1.879,2.747,1.94,4.497v17.303h-2.054V50.61h0.023c-0.061-1.188-0.51-2.199-1.347-3.036
		c-0.913-0.898-2.001-1.347-3.264-1.347s-2.348,0.448-3.253,1.347c-0.906,0.897-1.358,2.017-1.358,3.355v16.983h-2.054V50.61h0.023
		c-0.061-1.188-0.51-2.199-1.347-3.036c-0.913-0.898-2.001-1.347-3.264-1.347s-2.344,0.448-3.242,1.347
		c-0.792,0.775-1.24,1.728-1.347,2.854v17.485h-2.054V45.497z"/>
	<path fill="#808285" d="M132.153,43.465c3.47,0,6.426,1.226,8.868,3.676s3.664,5.409,3.664,8.879c0,3.455-1.222,6.407-3.664,8.857
		s-5.398,3.676-8.868,3.676c-3.455,0-6.407-1.226-8.857-3.676s-3.675-5.402-3.675-8.857c0-3.47,1.225-6.429,3.675-8.879
		S128.698,43.465,132.153,43.465z M124.826,48.692c-2.024,2.024-3.036,4.467-3.036,7.327c0,2.861,1.012,5.301,3.036,7.316
		c2.024,2.017,4.466,3.024,7.328,3.024c2.86,0,5.304-1.008,7.327-3.024c2.024-2.016,3.036-4.455,3.036-7.316
		c0-2.86-1.012-5.303-3.036-7.327c-2.023-2.023-4.467-3.036-7.327-3.036C129.292,45.656,126.85,46.669,124.826,48.692z"/>
</g>
<g enable-background="new    ">
	<path fill="none" stroke="#808285" stroke-width="0.5" stroke-miterlimit="10" d="M34.475,62.525l2.169,0.776
		c-0.396,0.548-0.845,1.073-1.347,1.575c-2.451,2.45-5.41,3.676-8.88,3.676c-3.455,0-6.407-1.226-8.857-3.676
		s-3.675-5.41-3.675-8.88c0-3.454,1.225-6.406,3.675-8.856s5.402-3.676,8.857-3.676c3.47,0,6.429,1.226,8.88,3.676
		c0.502,0.502,0.951,1.02,1.347,1.552l-2.169,0.799c-0.228-0.273-0.472-0.548-0.73-0.821c-2.024-2.009-4.466-3.014-7.327-3.014
		c-2.846,0-5.281,1.009-7.305,3.024c-2.024,2.017-3.036,4.456-3.036,7.316c0,2.861,1.012,5.304,3.036,7.328
		c2.024,2.023,4.459,3.035,7.305,3.035c2.861,0,5.303-1.012,7.327-3.035C34.003,63.066,34.247,62.8,34.475,62.525z"/>
	<path fill="none" stroke="#808285" stroke-width="0.5" stroke-miterlimit="10" d="M53.285,43.465c3.47,0,6.426,1.226,8.868,3.676
		s3.664,5.409,3.664,8.879c0,3.455-1.222,6.407-3.664,8.857s-5.398,3.676-8.868,3.676c-3.455,0-6.407-1.226-8.857-3.676
		s-3.675-5.402-3.675-8.857c0-3.47,1.225-6.429,3.675-8.879S49.83,43.465,53.285,43.465z M45.957,48.692
		c-2.024,2.024-3.036,4.467-3.036,7.327c0,2.861,1.012,5.301,3.036,7.316c2.023,2.017,4.466,3.024,7.328,3.024
		c2.861,0,5.303-1.008,7.327-3.024c2.024-2.016,3.036-4.455,3.036-7.316c0-2.86-1.012-5.303-3.036-7.327
		c-2.024-2.023-4.466-3.036-7.327-3.036C50.423,45.656,47.98,46.669,45.957,48.692z"/>
	<path fill="none" stroke="#808285" stroke-width="0.5" stroke-miterlimit="10" d="M77.458,56.385
		c-1.75-0.943-2.96-1.749-3.629-2.419c-1.05-1.051-1.575-2.313-1.575-3.79c0-1.491,0.525-2.766,1.575-3.823
		c1.05-1.058,2.313-1.587,3.789-1.587c1.492,0,2.724,0.487,3.698,1.462c0.943,0.958,1.416,2.047,1.416,3.264v0.114l-1.781,0.708
		c-0.152-1.156-0.514-2.024-1.084-2.603c-0.57-0.578-1.32-0.867-2.249-0.867c-0.913,0-1.697,0.323-2.351,0.97
		c-0.654,0.647-0.981,1.435-0.981,2.362c0,0.913,0.327,1.697,0.981,2.352c0.38,0.381,1.187,0.959,2.42,1.735
		c1.948,1.065,3.333,2.009,4.154,2.83c1.293,1.31,1.94,2.869,1.94,4.68c0,1.856-0.647,3.436-1.94,4.736
		c-1.293,1.302-2.861,1.952-4.702,1.952c-1.842,0-3.409-0.65-4.703-1.952c-1.293-1.301-1.94-2.728-1.94-4.279l2.032-0.525
		c0,1.339,0.453,2.458,1.358,3.355c0.905,0.898,1.989,1.347,3.253,1.347c1.263,0,2.347-0.448,3.253-1.347
		c0.905-0.897,1.358-1.993,1.358-3.287c0-1.263-0.449-2.344-1.347-3.241C79.916,58.044,78.935,57.329,77.458,56.385z"/>
	<path fill="none" stroke="#808285" stroke-width="0.5" stroke-miterlimit="10" d="M89.603,45.497h2.054v0.524
		c1.278-1.232,2.808-1.849,4.588-1.849c1.841,0,3.409,0.646,4.703,1.94c0.35,0.35,0.654,0.73,0.913,1.141
		c0.258-0.396,0.57-0.775,0.936-1.141c1.293-1.294,2.861-1.94,4.703-1.94s3.409,0.646,4.703,1.94
		c1.232,1.248,1.879,2.747,1.94,4.497v17.303h-2.054V50.61h0.023c-0.061-1.188-0.51-2.199-1.347-3.036
		c-0.913-0.898-2.001-1.347-3.264-1.347s-2.348,0.448-3.253,1.347c-0.906,0.897-1.358,2.017-1.358,3.355v16.983h-2.054V50.61h0.023
		c-0.061-1.188-0.51-2.199-1.347-3.036c-0.913-0.898-2.001-1.347-3.264-1.347s-2.344,0.448-3.242,1.347
		c-0.792,0.775-1.24,1.728-1.347,2.854v17.485h-2.054V45.497z"/>
	<path fill="none" stroke="#808285" stroke-width="0.5" stroke-miterlimit="10" d="M132.153,43.465c3.47,0,6.426,1.226,8.868,3.676
		s3.664,5.409,3.664,8.879c0,3.455-1.222,6.407-3.664,8.857s-5.398,3.676-8.868,3.676c-3.455,0-6.407-1.226-8.857-3.676
		s-3.675-5.402-3.675-8.857c0-3.47,1.225-6.429,3.675-8.879S128.698,43.465,132.153,43.465z M124.826,48.692
		c-2.024,2.024-3.036,4.467-3.036,7.327c0,2.861,1.012,5.301,3.036,7.316c2.024,2.017,4.466,3.024,7.328,3.024
		c2.86,0,5.304-1.008,7.327-3.024c2.024-2.016,3.036-4.455,3.036-7.316c0-2.86-1.012-5.303-3.036-7.327
		c-2.023-2.023-4.467-3.036-7.327-3.036C129.292,45.656,126.85,46.669,124.826,48.692z"/>
</g>
<g enable-background="new    ">
	<path fill="#808285" d="M14.991,79.587h1.896v2.908c0.351-0.478,0.751-0.941,1.201-1.391c2.261-2.248,4.987-3.372,8.176-3.372
		c3.203,0,5.932,1.128,8.186,3.383c2.255,2.254,3.382,4.983,3.382,8.186c0,3.189-1.127,5.914-3.382,8.176
		c-2.254,2.262-4.983,3.393-8.186,3.393c-3.189,0-5.915-1.131-8.176-3.393c-0.45-0.449-0.85-0.913-1.201-1.391v12.095h-1.896V79.587
		z M16.887,87.32v3.962c0.365,1.812,1.236,3.406,2.613,4.783c1.868,1.868,4.123,2.802,6.764,2.802c2.641,0,4.896-0.934,6.764-2.802
		s2.803-4.123,2.803-6.765c0-2.641-0.935-4.896-2.803-6.764s-4.123-2.803-6.764-2.803c-2.641,0-4.896,0.935-6.764,2.803
		C18.123,83.914,17.252,85.508,16.887,87.32z"/>
	<path fill="#808285" d="M53.404,77.712c3.203,0,5.932,1.131,8.186,3.393c2.255,2.262,3.382,4.994,3.382,8.196
		c0,3.189-1.127,5.914-3.382,8.176c-2.254,2.262-4.983,3.393-8.186,3.393c-3.189,0-5.915-1.131-8.176-3.393
		c-2.262-2.262-3.393-4.986-3.393-8.176c0-3.202,1.13-5.935,3.393-8.196C47.49,78.843,50.215,77.712,53.404,77.712z M46.64,82.537
		c-1.869,1.868-2.802,4.123-2.802,6.764c0,2.642,0.934,4.893,2.802,6.754c1.868,1.861,4.123,2.792,6.764,2.792
		c2.641,0,4.896-0.931,6.764-2.792s2.803-4.112,2.803-6.754c0-2.641-0.935-4.896-2.803-6.764s-4.123-2.803-6.764-2.803
		C50.763,79.734,48.508,80.669,46.64,82.537z"/>
	<path fill="#808285" d="M71.926,66.565v33.714h-1.896V66.565H71.926z"/>
	<path fill="#808285" d="M80.955,72.802c0.372,0.366,0.559,0.809,0.559,1.328c0,0.534-0.187,0.983-0.559,1.349
		s-0.818,0.548-1.338,0.548c-0.52,0-0.966-0.183-1.338-0.548c-0.373-0.365-0.559-0.814-0.559-1.349c0-0.52,0.186-0.962,0.559-1.328
		c0.372-0.364,0.818-0.548,1.338-0.548C80.136,72.254,80.583,72.438,80.955,72.802z M80.565,79.587v20.692h-1.896V79.587H80.565z"/>
	<path fill="#808285" d="M90.258,79.587v-8.808h1.896v8.808h4.214v1.896h-4.214v18.796h-1.896V81.483h-4.214v-1.896H90.258z"/>
	<path fill="#808285" d="M123.762,100.279h-1.896v-4.214c-0.366,0.491-0.766,0.962-1.201,1.411
		c-2.262,2.262-4.994,3.393-8.197,3.393c-3.189,0-5.914-1.131-8.176-3.393s-3.393-4.986-3.393-8.176
		c0-3.202,1.131-5.935,3.393-8.196s4.987-3.393,8.176-3.393c3.203,0,5.935,1.131,8.197,3.393c0.435,0.449,0.835,0.92,1.201,1.411
		v-2.929h1.896V100.279z M121.865,91.177v-3.751c-0.352-1.854-1.229-3.483-2.634-4.889c-1.869-1.868-4.124-2.803-6.764-2.803
		c-2.641,0-4.896,0.935-6.764,2.803s-2.802,4.123-2.802,6.764c0,2.642,0.934,4.893,2.802,6.754s4.123,2.792,6.764,2.792
		c2.641,0,4.896-0.935,6.764-2.803C120.636,94.64,121.514,93.017,121.865,91.177z"/>
	<path fill="#808285" d="M131.979,84.202v16.077h-1.896V79.587h1.896v1.328c1.728-1.714,3.737-2.571,6.026-2.571
		c2.445,0,4.432,0.766,5.963,2.297s2.318,3.463,2.361,5.795v13.844h-1.896V86.604c0-1.756-0.637-3.255-1.908-4.498
		s-2.777-1.865-4.52-1.865s-3.245,0.611-4.51,1.833C132.809,82.762,132.303,83.472,131.979,84.202z"/>
</g>
<g enable-background="new    ">
	<path fill="none" stroke="#808285" stroke-width="0.5" stroke-miterlimit="10" d="M14.991,79.587h1.896v2.908
		c0.351-0.478,0.751-0.941,1.201-1.391c2.261-2.248,4.987-3.372,8.176-3.372c3.203,0,5.932,1.128,8.186,3.383
		c2.255,2.254,3.382,4.983,3.382,8.186c0,3.189-1.127,5.914-3.382,8.176c-2.254,2.262-4.983,3.393-8.186,3.393
		c-3.189,0-5.915-1.131-8.176-3.393c-0.45-0.449-0.85-0.913-1.201-1.391v12.095h-1.896V79.587z M16.887,87.32v3.962
		c0.365,1.812,1.236,3.406,2.613,4.783c1.868,1.868,4.123,2.802,6.764,2.802c2.641,0,4.896-0.934,6.764-2.802
		s2.803-4.123,2.803-6.765c0-2.641-0.935-4.896-2.803-6.764s-4.123-2.803-6.764-2.803c-2.641,0-4.896,0.935-6.764,2.803
		C18.123,83.914,17.252,85.508,16.887,87.32z"/>
	<path fill="none" stroke="#808285" stroke-width="0.5" stroke-miterlimit="10" d="M53.404,77.712c3.203,0,5.932,1.131,8.186,3.393
		c2.255,2.262,3.382,4.994,3.382,8.196c0,3.189-1.127,5.914-3.382,8.176c-2.254,2.262-4.983,3.393-8.186,3.393
		c-3.189,0-5.915-1.131-8.176-3.393c-2.262-2.262-3.393-4.986-3.393-8.176c0-3.202,1.13-5.935,3.393-8.196
		C47.49,78.843,50.215,77.712,53.404,77.712z M46.64,82.537c-1.869,1.868-2.802,4.123-2.802,6.764c0,2.642,0.934,4.893,2.802,6.754
		c1.868,1.861,4.123,2.792,6.764,2.792c2.641,0,4.896-0.931,6.764-2.792s2.803-4.112,2.803-6.754c0-2.641-0.935-4.896-2.803-6.764
		s-4.123-2.803-6.764-2.803C50.763,79.734,48.508,80.669,46.64,82.537z"/>
	<path fill="none" stroke="#808285" stroke-width="0.5" stroke-miterlimit="10" d="M71.926,66.565v33.714h-1.896V66.565H71.926z"/>
	<path fill="none" stroke="#808285" stroke-width="0.5" stroke-miterlimit="10" d="M80.955,72.802
		c0.372,0.366,0.559,0.809,0.559,1.328c0,0.534-0.187,0.983-0.559,1.349s-0.818,0.548-1.338,0.548c-0.52,0-0.966-0.183-1.338-0.548
		c-0.373-0.365-0.559-0.814-0.559-1.349c0-0.52,0.186-0.962,0.559-1.328c0.372-0.364,0.818-0.548,1.338-0.548
		C80.136,72.254,80.583,72.438,80.955,72.802z M80.565,79.587v20.692h-1.896V79.587H80.565z"/>
	<path fill="none" stroke="#808285" stroke-width="0.5" stroke-miterlimit="10" d="M90.258,79.587v-8.808h1.896v8.808h4.214v1.896
		h-4.214v18.796h-1.896V81.483h-4.214v-1.896H90.258z"/>
	<path fill="none" stroke="#808285" stroke-width="0.5" stroke-miterlimit="10" d="M123.762,100.279h-1.896v-4.214
		c-0.366,0.491-0.766,0.962-1.201,1.411c-2.262,2.262-4.994,3.393-8.197,3.393c-3.189,0-5.914-1.131-8.176-3.393
		s-3.393-4.986-3.393-8.176c0-3.202,1.131-5.935,3.393-8.196s4.987-3.393,8.176-3.393c3.203,0,5.935,1.131,8.197,3.393
		c0.435,0.449,0.835,0.92,1.201,1.411v-2.929h1.896V100.279z M121.865,91.177v-3.751c-0.352-1.854-1.229-3.483-2.634-4.889
		c-1.869-1.868-4.124-2.803-6.764-2.803c-2.641,0-4.896,0.935-6.764,2.803s-2.802,4.123-2.802,6.764
		c0,2.642,0.934,4.893,2.802,6.754s4.123,2.792,6.764,2.792c2.641,0,4.896-0.935,6.764-2.803
		C120.636,94.64,121.514,93.017,121.865,91.177z"/>
	<path fill="none" stroke="#808285" stroke-width="0.5" stroke-miterlimit="10" d="M131.979,84.202v16.077h-1.896V79.587h1.896
		v1.328c1.728-1.714,3.737-2.571,6.026-2.571c2.445,0,4.432,0.766,5.963,2.297s2.318,3.463,2.361,5.795v13.844h-1.896V86.604
		c0-1.756-0.637-3.255-1.908-4.498s-2.777-1.865-4.52-1.865s-3.245,0.611-4.51,1.833C132.809,82.762,132.303,83.472,131.979,84.202z
		"/>
</g>
<polygon fill="#F04A3D" points="226.633,43.109 226.633,43.084 172.379,43.084 172.379,62.871 206.945,62.871 206.945,100.543 
	226.73,100.543 226.73,43.109 "/>
<polygon fill="#CCCCCC" points="33.861,197.137 33.861,168.672 14.074,168.672 14.074,216.826 14.1,216.826 14.1,216.922 
	59.209,216.922 59.209,197.137 "/>
<g>
	<path fill="#FFFFFF" d="M73.344,178.184h0.551c0.211,0,0.369,0.062,0.475,0.176c0.104,0.119,0.184,0.244,0.236,0.375l11.826,35.402
		c0.105,0.291,0.203,0.566,0.297,0.83c0.092,0.26,0.164,0.539,0.217,0.826c0.053-0.287,0.123-0.566,0.217-0.826
		c0.092-0.264,0.189-0.539,0.295-0.83l12.301-35.795c0.078-0.264,0.211-0.396,0.395-0.396h0.236c0.184,0,0.314,0.136,0.395,0.396
		l12.221,35.795c0.105,0.291,0.205,0.58,0.295,0.867c0.094,0.291,0.164,0.539,0.217,0.75c0.133-0.5,0.303-1.037,0.514-1.617
		l11.827-35.402c0.185-0.366,0.418-0.551,0.709-0.551h0.554l-13.248,38.635h-0.393c-0.238,0-0.396-0.133-0.475-0.396l-12.379-35.953
		c-0.158-0.422-0.275-0.788-0.355-1.102c-0.053,0.182-0.111,0.358-0.176,0.528c-0.066,0.172-0.125,0.359-0.178,0.57L87.381,216.42
		c-0.08,0.266-0.211,0.396-0.395,0.396H86.59L73.344,178.184z"/>
	<path fill="#FFFFFF" d="M145.174,177.551c2.021,0,3.914,0.363,5.676,1.086c1.762,0.721,3.293,1.791,4.594,3.211
		c1.304,1.422,2.32,3.162,3.06,5.228c0.731,2.062,1.104,4.436,1.104,7.114c0,0.129-0.047,0.23-0.141,0.295
		c-0.092,0.065-0.201,0.101-0.336,0.101h-29.805c-0.055,0.369-0.078,0.728-0.078,1.063c0,0.343,0,0.697,0,1.062
		c0,3.211,0.379,6.043,1.146,8.5c0.762,2.455,1.846,4.52,3.252,6.188c1.404,1.67,3.101,2.938,5.086,3.809
		c1.982,0.867,4.185,1.301,6.604,1.301c2.182,0,4.055-0.234,5.617-0.711c1.562-0.473,2.863-1,3.9-1.576s1.828-1.104,2.367-1.574
		c0.536-0.477,0.885-0.713,1.043-0.713c0.104,0,0.211,0.057,0.315,0.156l0.157,0.158c-0.446,0.551-1.11,1.127-1.991,1.713
		c-0.882,0.592-1.918,1.143-3.115,1.641c-1.194,0.498-2.502,0.906-3.922,1.224c-1.418,0.315-2.877,0.471-4.375,0.471
		c-2.656,0-5.033-0.465-7.138-1.397c-2.105-0.932-3.883-2.275-5.342-4.039c-1.459-1.76-2.584-3.916-3.371-6.465
		c-0.789-2.55-1.184-5.441-1.184-8.679c0-2.836,0.381-5.432,1.145-7.782c0.763-2.354,1.867-4.369,3.312-6.054
		c1.445-1.683,3.216-2.987,5.304-3.922S142.52,177.551,145.174,177.551z M145.174,178.342c-2.314,0-4.396,0.371-6.25,1.121
		c-1.852,0.75-3.447,1.801-4.789,3.154c-1.34,1.354-2.412,2.99-3.215,4.906c-0.799,1.922-1.318,4.037-1.555,6.35h29.371
		c0-2.496-0.342-4.711-1.025-6.643c-0.686-1.935-1.637-3.56-2.859-4.869c-1.222-1.312-2.66-2.314-4.313-2.994
		C148.881,178.682,147.092,178.342,145.174,178.342z"/>
	<path fill="#FFFFFF" d="M180.66,177.551c2.021,0,3.914,0.363,5.674,1.086c1.762,0.721,3.293,1.791,4.596,3.211
		c1.301,1.422,2.316,3.162,3.055,5.228c0.734,2.062,1.104,4.436,1.104,7.114c0,0.129-0.043,0.23-0.137,0.295
		c-0.097,0.065-0.203,0.101-0.339,0.101h-29.805c-0.053,0.369-0.076,0.728-0.076,1.063c0,0.343,0,0.697,0,1.062
		c0,3.211,0.377,6.043,1.146,8.5c0.765,2.455,1.847,4.52,3.25,6.188c1.406,1.67,3.104,2.938,5.086,3.809
		c1.983,0.867,4.188,1.301,6.604,1.301c2.184,0,4.055-0.234,5.617-0.711c1.563-0.473,2.864-1,3.903-1.576
		c1.037-0.576,1.826-1.104,2.365-1.574c0.535-0.477,0.885-0.713,1.043-0.713c0.104,0,0.211,0.057,0.313,0.156l0.156,0.158
		c-0.443,0.551-1.107,1.127-1.986,1.713c-0.885,0.592-1.922,1.143-3.116,1.641c-1.195,0.498-2.5,0.906-3.925,1.224
		c-1.418,0.315-2.877,0.471-4.373,0.471c-2.657,0-5.032-0.465-7.137-1.397c-2.104-0.932-3.883-2.275-5.342-4.039
		c-1.459-1.76-2.586-3.916-3.373-6.465c-0.789-2.55-1.184-5.441-1.184-8.679c0-2.836,0.381-5.432,1.143-7.782
		c0.766-2.354,1.869-4.369,3.312-6.054c1.447-1.683,3.214-2.987,5.306-3.922C175.629,178.02,178.004,177.551,180.66,177.551z
		 M180.66,178.342c-2.314,0-4.398,0.371-6.25,1.121s-3.449,1.801-4.791,3.154s-2.41,2.99-3.213,4.906
		c-0.803,1.922-1.322,4.037-1.557,6.35h29.366c0-2.496-0.34-4.711-1.022-6.643c-0.687-1.935-1.637-3.56-2.855-4.869
		c-1.225-1.312-2.664-2.314-4.316-2.994C184.363,178.682,182.576,178.342,180.66,178.342z"/>
	<path fill="#FFFFFF" d="M203.76,160.047v35.643h1.814c0.236,0,0.512-0.026,0.828-0.082c0.313-0.053,0.668-0.264,1.061-0.633
		l18.375-16.162c0.211-0.209,0.418-0.362,0.629-0.471c0.211-0.105,0.475-0.158,0.791-0.158h0.709l-19.555,17.107
		c-0.34,0.316-0.668,0.539-0.984,0.674c0.363,0.105,0.68,0.242,0.943,0.412c0.263,0.17,0.516,0.361,0.75,0.572l20.422,19.869h-0.709
		c-0.211,0-0.395-0.027-0.551-0.08c-0.158-0.053-0.346-0.182-0.553-0.393l-19.4-18.849c-0.205-0.211-0.412-0.392-0.607-0.531
		c-0.197-0.146-0.408-0.26-0.631-0.336c-0.225-0.073-0.475-0.139-0.75-0.178c-0.275-0.037-0.613-0.06-1.006-0.06h-1.576v20.42
		h-0.945v-56.771L203.76,160.047L203.76,160.047z"/>
</g>
</svg>
