<?xml version="1.0" encoding="utf-8"?>
<!-- Generator: Adobe Illustrator 16.0.0, SVG Export Plug-In . SVG Version: 6.00 Build 0)  -->
<!DOCTYPE svg PUBLIC "-//W3C//DTD SVG 1.1//EN" "http://www.w3.org/Graphics/SVG/1.1/DTD/svg11.dtd">
<svg version="1.1" id="Layer_1" xmlns="http://www.w3.org/2000/svg" xmlns:xlink="http://www.w3.org/1999/xlink" x="0px" y="0px"
	 width="2183.564px" height="860.557px" viewBox="0 0 2183.564 860.557" enable-background="new 0 0 2183.564 860.557"
	 xml:space="preserve">
<g>
	<path fill="#EC2224" d="M199.048,723.204v21.602c-14.383,7.836-31,11.766-49.836,11.766c-15.32,0-28.305-3.055-38.969-9.195
		c-10.664-6.156-19.086-14.625-25.305-25.445c-6.219-10.766-9.32-22.445-9.32-35c0-19.984,7.102-36.75,21.336-50.359
		c14.211-13.609,31.766-20.422,52.641-20.422c14.391,0,30.391,3.789,47.984,11.281v21.117c-16.023-9.156-31.695-13.742-47-13.742
		c-15.711,0-28.75,4.977-39.094,14.883c-10.391,9.883-15.57,22.312-15.57,37.242c0,15.039,5.117,27.383,15.312,37.062
		c10.203,9.688,23.25,14.523,39.156,14.523C167.009,738.517,183.212,733.431,199.048,723.204z"/>
	<path fill="#EC2224" d="M330.025,664.548c13.734,0,25.156,4.43,34.258,13.297c9.086,8.859,13.617,19.977,13.617,33.422
		c0,12.984-4.602,23.812-13.828,32.398c-9.211,8.633-20.844,12.906-34.828,12.906c-13.531,0-24.875-4.367-33.945-13.086
		c-9.102-8.711-13.648-19.633-13.648-32.734c0-13.203,4.609-24.211,13.789-33.023C304.642,668.954,316.15,664.548,330.025,664.548z
		 M329.056,680.642c-8.586,0-15.602,2.781-21.102,8.422c-5.5,5.617-8.25,12.797-8.25,21.5c0,8.633,2.82,15.703,8.438,21.148
		c5.633,5.445,12.844,8.203,21.703,8.203c8.742,0,15.938-2.766,21.516-8.289c5.609-5.555,8.406-12.625,8.406-21.258
		c0-8.57-2.938-15.688-8.727-21.305C345.189,683.423,337.876,680.642,329.056,680.642z"/>
	<path fill="#EC2224" d="M537.837,689.454v65.547h-17.961v-50.242c0-9.992-1.352-16.969-4.023-20.922
		c-2.695-3.969-7.359-5.938-14.039-5.938c-3.719,0-7.148,0.828-10.242,2.531c-3.125,1.695-6.672,4.711-10.648,9.023v65.547h-17.875
		V664.72h17.875v11.883c9.07-9.086,17.969-13.617,26.703-13.617c11.422,0,20.289,5.398,26.57,16.266
		c9.547-10.992,19.516-16.492,29.93-16.492c8.75,0,15.961,3.234,21.625,9.648c5.656,6.414,8.5,16.18,8.5,29.328v53.266h-17.859
		V701.54c0-7.523-1.547-13.289-4.625-17.281c-3.086-3.984-7.492-5.961-13.242-5.961
		C551.142,678.298,544.228,681.993,537.837,689.454z"/>
	<path fill="#EC2224" d="M758.869,689.454v65.547H740.9v-50.242c0-9.992-1.344-16.969-4-20.922
		c-2.719-3.969-7.383-5.938-14.062-5.938c-3.719,0-7.133,0.828-10.242,2.531c-3.109,1.695-6.672,4.711-10.641,9.023v65.547h-17.859
		V664.72h17.859v11.883c9.078-9.086,17.977-13.617,26.695-13.617c11.422,0,20.297,5.398,26.586,16.266
		c9.547-10.992,19.508-16.492,29.93-16.492c8.742,0,15.969,3.234,21.625,9.648c5.648,6.414,8.484,16.18,8.484,29.328v53.266h-17.867
		V701.54c0-7.523-1.539-13.289-4.602-17.281c-3.086-3.984-7.492-5.961-13.25-5.961C772.173,678.298,765.259,681.993,758.869,689.454
		z"/>
	<path fill="#EC2224" d="M961.486,755.001v-11.562c-3.82,4.141-8.148,7.375-13.016,9.688s-9.742,3.445-14.578,3.445
		c-5.688,0-10.938-1.398-15.742-4.273c-4.82-2.828-8.438-6.664-10.898-11.555c-2.445-4.891-3.688-12.977-3.688-24.305V664.72h17.891
		v51.469c0,9.461,1.352,16.094,4.039,19.844c2.742,3.758,7.492,5.617,14.281,5.617c8.508,0,15.719-4.141,21.711-12.445V664.72
		h17.828v90.281H961.486z"/>
	<path fill="#EC2224" d="M1088.423,664.72v11.5c7.961-8.828,17.031-13.234,27.172-13.234c5.609,0,10.852,1.43,15.695,4.352
		s8.539,6.898,11.023,11.961c2.539,5.102,3.812,13.125,3.812,24.109v51.594h-17.891v-51.414c0-9.195-1.391-15.797-4.211-19.75
		c-2.82-3.969-7.516-5.938-14.117-5.938c-8.445,0-15.602,4.203-21.484,12.641v64.461h-18.273V664.72H1088.423z"/>
	<path fill="#EC2224" d="M1246.384,626.767c2.914,0,5.445,1.016,7.539,3.031c2.102,2.031,3.133,4.523,3.133,7.453
		c0,2.859-1.031,5.359-3.133,7.469c-2.094,2.078-4.625,3.117-7.539,3.117c-2.742,0-5.195-1.039-7.297-3.164
		c-2.086-2.141-3.125-4.594-3.125-7.422c0-2.75,1.039-5.156,3.125-7.281C1241.189,627.829,1243.642,626.767,1246.384,626.767z
		 M1237.525,664.72h17.875v90.281h-17.875V664.72z"/>
	<path fill="#EC2224" d="M1415.009,733.915v17.664c-8.984,3.336-17.734,4.992-26.289,4.992c-14.133,0-25.414-4.195-33.82-12.555
		c-8.383-8.367-12.609-19.594-12.609-33.648c0-14.195,4.086-25.648,12.289-34.336c8.156-8.711,18.906-13.047,32.258-13.047
		c4.641,0,8.812,0.43,12.508,1.297c3.695,0.883,8.258,2.531,13.703,4.969v19.031c-9.031-5.758-17.414-8.633-25.109-8.633
		c-8.078,0-14.672,2.828-19.836,8.492c-5.195,5.68-7.742,12.875-7.742,21.625c0,9.234,2.773,16.57,8.383,21.992
		c5.57,5.438,13.125,8.156,22.617,8.156C1398.212,739.915,1406.087,737.907,1415.009,733.915z"/>
	<path fill="#EC2224" d="M1558.173,700.759v38.367c0,3.047,1.016,4.594,3.141,4.594c2.133,0,5.508-1.586,10.078-4.82v10.906
		c-4.047,2.617-7.312,4.414-9.766,5.367c-2.438,0.914-5.031,1.398-7.711,1.398c-7.648,0-12.172-3.023-13.523-9.023
		c-7.586,5.891-15.68,8.859-24.234,8.859c-6.273,0-11.531-2.109-15.688-6.25c-4.211-4.141-6.281-9.367-6.281-15.648
		c0-5.695,2.023-10.766,6.117-15.258c4.094-4.477,9.898-8.031,17.43-10.656l22.844-7.836v-4.797c0-10.875-5.43-16.312-16.281-16.312
		c-9.75,0-19.227,5.047-28.453,15.117v-19.516c6.945-8.195,16.891-12.266,29.922-12.266c9.734,0,17.57,2.523,23.453,7.625
		c1.961,1.664,3.727,3.844,5.305,6.547c1.578,2.711,2.562,5.43,2.977,8.156C1557.947,688.032,1558.173,693.173,1558.173,700.759z
		 M1540.58,737.157v-26.789l-11.961,4.594c-6.086,2.445-10.391,4.891-12.906,7.336c-2.516,2.43-3.773,5.492-3.773,9.164
		c0,3.742,1.211,6.781,3.586,9.125c2.391,2.359,5.461,3.531,9.273,3.531C1530.47,744.118,1535.759,741.782,1540.58,737.157z"/>
	<path fill="#EC2224" d="M1640.65,679.087l33.555-32.984v18.617h28.547v16.102h-28.547v44.172c0,10.352,4.289,15.477,12.859,15.477
		c6.383,0,13.172-2.102,20.312-6.367v16.688c-6.867,3.859-14.375,5.781-22.484,5.781c-8.188,0-14.977-2.375-20.391-7.164
		c-1.719-1.43-3.125-3.047-4.234-4.828c-1.102-1.812-2.039-4.164-2.789-7.07c-0.766-2.914-1.133-8.461-1.133-16.656v-40.031h-15.695
		V679.087z"/>
	<path fill="#EC2224" d="M1795.572,626.767c2.914,0,5.453,1.016,7.539,3.031c2.102,2.031,3.141,4.523,3.141,7.453
		c0,2.859-1.039,5.359-3.141,7.469c-2.086,2.078-4.625,3.117-7.539,3.117c-2.758,0-5.195-1.039-7.281-3.164
		c-2.102-2.141-3.148-4.594-3.148-7.422c0-2.75,1.047-5.156,3.148-7.281C1790.376,627.829,1792.814,626.767,1795.572,626.767z
		 M1786.712,664.72h17.883v90.281h-17.883V664.72z"/>
	<path fill="#EC2224" d="M1939.681,664.548c13.734,0,25.156,4.43,34.25,13.297c9.086,8.859,13.625,19.977,13.625,33.422
		c0,12.984-4.594,23.812-13.812,32.398c-9.242,8.633-20.844,12.906-34.844,12.906c-13.531,0-24.859-4.367-33.922-13.086
		c-9.125-8.711-13.672-19.633-13.672-32.734c0-13.203,4.609-24.211,13.781-33.023
		C1914.314,668.954,1925.814,664.548,1939.681,664.548z M1938.72,680.642c-8.586,0-15.609,2.781-21.109,8.422
		c-5.492,5.617-8.234,12.797-8.234,21.5c0,8.633,2.805,15.703,8.43,21.148s12.852,8.203,21.68,8.203
		c8.75,0,15.953-2.766,21.539-8.289c5.594-5.555,8.398-12.625,8.398-21.258c0-8.57-2.93-15.688-8.711-21.305
		C1954.845,683.423,1947.517,680.642,1938.72,680.642z"/>
	<path fill="#EC2224" d="M2091.384,664.72v11.5c7.93-8.828,17.016-13.234,27.148-13.234c5.641,0,10.859,1.43,15.703,4.352
		s8.523,6.898,11.047,11.961c2.516,5.102,3.789,13.125,3.789,24.109v51.594h-17.891v-51.414c0-9.195-1.391-15.797-4.188-19.75
		c-2.82-3.969-7.539-5.938-14.148-5.938c-8.43,0-15.586,4.203-21.461,12.641v64.461h-18.273V664.72H2091.384z"/>
</g>
<g>
	<path fill="#999999" d="M1026.916,309.118c7,4.211,14.953,11.609,23.797,22.062V84.798h37.977v442.375h-35.539v-31.242
		c-9.156,13.844-20.023,23.828-32.555,29.984c-12.492,6.195-26.859,9.25-43,9.25c-26.078,0-48.641-10.516-67.703-31.625
		c-19.133-21.047-28.609-49.094-28.609-84.086c0-32.812,8.68-61.219,26.055-85.195c17.422-24.039,42.281-36.039,74.609-36.039
		C999.853,298.22,1014.83,301.853,1026.916,309.118z M938.845,477.806c10.641,16.289,27.633,24.383,51.07,24.383
		c18.164,0,33.102-7.531,44.828-22.555c11.68-15.086,17.531-36.672,17.531-64.82c0-28.461-6.016-49.484-18.109-63.133
		c-12.07-13.664-26.938-20.5-44.719-20.5c-19.766,0-35.812,7.32-48.07,21.844c-12.312,14.578-18.445,35.992-18.445,64.328
		C922.931,441.423,928.244,461.563,938.845,477.806z"/>
	<path fill="#999999" d="M1285.462,306.595c15.539,7.469,27.406,17.156,35.547,29.109c7.805,11.297,13.047,24.547,15.68,39.664
		c2.32,10.367,3.484,26.875,3.484,49.602h-170.82c0.734,22.883,6.312,41.242,16.742,55.062
		c10.453,13.844,26.641,20.766,48.531,20.766c20.438,0,36.758-6.523,48.961-19.633c6.82-7.602,11.641-16.391,14.492-26.375h38.797
		c-1.031,8.242-4.414,17.453-10.18,27.617c-5.766,10.148-12.219,18.461-19.359,24.898c-11.883,11.211-26.586,18.742-44.148,22.688
		c-9.414,2.234-20.117,3.367-31.969,3.367c-29.062,0-53.711-10.203-73.898-30.555c-20.164-20.398-30.266-48.953-30.266-85.625
		c0-36.18,10.18-65.461,30.492-88c20.375-22.547,46.922-33.852,79.758-33.852C1253.884,295.329,1269.947,299.095,1285.462,306.595z
		 M1299.595,394.923c-1.578-16.414-5.273-29.5-11.07-39.305c-10.742-18.211-28.633-27.305-53.711-27.305
		c-18,0-33.039,6.289-45.211,18.805s-18.672,28.453-19.359,47.805H1299.595z"/>
	<path fill="#999999" d="M78.517,84.454h39.477v439.102H78.517V84.454z"/>
	<path fill="#999999" d="M177.525,218.603h40.102v42.859h-40.102V218.603z M177.525,303.267h40.102v223.906h-40.102V303.267z"/>
	<path fill="#999999" d="M666.798,391.032c9.094-1.102,15.109-4.719,18.172-10.906c1.805-3.367,2.648-8.219,2.648-14.531
		c0-12.945-4.773-22.32-14.328-28.141c-9.531-5.867-23.25-8.766-41.039-8.766c-20.57,0-35.133,5.352-43.758,16.031
		c-4.812,5.914-7.938,14.703-9.406,26.391h-36.844c0.742-27.789,10.141-47.141,28.18-58.047c18-10.898,38.906-16.32,62.695-16.32
		c27.586,0,50.031,5.07,67.25,15.148c17.078,10.062,25.625,25.781,25.625,47.016V488.54c0,3.93,0.828,7.086,2.539,9.508
		c1.664,2.344,5.195,3.539,10.617,3.539c1.734,0,3.727-0.094,5.945-0.32c2.172-0.203,4.508-0.508,6.992-0.953v27.93
		c-6.164,1.695-10.812,2.766-14.023,3.148c-3.219,0.445-7.648,0.664-13.164,0.664c-13.602,0-23.477-4.664-29.617-13.891
		c-3.188-4.891-5.492-11.812-6.773-20.781c-8.055,10.047-19.602,18.797-34.648,26.258c-15.062,7.422-31.672,11.117-49.773,11.117
		c-21.797,0-39.555-6.344-53.406-19c-13.82-12.648-20.711-28.484-20.711-47.508c0-20.844,6.836-36.984,20.398-48.492
		c13.617-11.422,31.422-18.523,53.5-21.164L666.798,391.032z M583.681,493.157c8.352,6.32,18.219,9.453,29.617,9.453
		c13.852,0,27.328-3.047,40.352-9.227c21.93-10.188,32.875-26.914,32.875-50.117v-30.43c-4.82,2.984-11.016,5.43-18.625,7.398
		c-7.578,1.969-15,3.375-22.305,4.211l-23.859,2.922c-14.281,1.852-25.023,4.695-32.211,8.633
		c-12.25,6.531-18.352,17.039-18.352,31.43C571.173,478.298,575.353,486.923,583.681,493.157z"/>
	<path fill="#999999" d="M273.353,304.665h39.453v224.703h-39.453V304.665z"/>
	<path fill="#999999" d="M357.619,305.235h39.492v224.703h-39.492V305.235z"/>
	<path fill="#999999" d="M439.423,304.056h39.484v224.711h-39.484V304.056z"/>
	<path fill="#999999" d="M1470.47,84.454h39.477v439.102h-39.477V84.454z"/>
	<path fill="#999999" d="M1569.455,218.603h40.117v42.859h-40.117V218.603z M1569.455,303.267h40.117v223.906h-40.117V303.267z"/>
	<path fill="#999999" d="M2058.72,391.032c9.102-1.102,15.172-4.719,18.211-10.906c1.805-3.367,2.648-8.219,2.648-14.531
		c0-12.945-4.781-22.32-14.344-28.141c-9.508-5.867-23.227-8.766-41.039-8.766c-20.539,0-35.133,5.352-43.75,16.031
		c-4.797,5.914-7.945,14.703-9.383,26.391h-36.883c0.75-27.789,10.133-47.141,28.172-58.047
		c18.016-10.898,38.938-16.32,62.734-16.32c27.578,0,50.016,5.07,67.219,15.148c17.125,10.062,25.648,25.781,25.648,47.016V488.54
		c0,3.93,0.797,7.086,2.555,9.508c1.656,2.344,5.203,3.539,10.625,3.539c1.703,0,3.664-0.094,5.891-0.32
		c2.219-0.203,4.547-0.508,7.031-0.953v27.93c-6.188,1.695-10.805,2.766-14.008,3.148c-3.25,0.445-7.664,0.664-13.203,0.664
		c-13.594,0-23.484-4.664-29.57-13.891c-3.25-4.891-5.516-11.812-6.805-20.781c-8.047,10.047-19.617,18.797-34.641,26.258
		c-15.102,7.422-31.672,11.117-49.781,11.117c-21.812,0-39.578-6.344-53.406-19c-13.797-12.648-20.711-28.484-20.711-47.508
		c0-20.844,6.789-36.984,20.406-48.492c13.578-11.422,31.406-18.523,53.484-21.164L2058.72,391.032z M1975.65,493.157
		c8.32,6.32,18.227,9.453,29.602,9.453c13.867,0,27.312-3.047,40.344-9.227c21.938-10.188,32.883-26.914,32.883-50.117v-30.43
		c-4.812,2.984-11.023,5.43-18.594,7.398c-7.586,1.969-15.023,3.375-22.336,4.211l-23.883,2.922
		c-14.273,1.852-25,4.695-32.195,8.633c-12.219,6.531-18.344,17.039-18.344,31.43
		C1963.126,478.298,1967.322,486.923,1975.65,493.157z"/>
	<path fill="#999999" d="M1665.314,304.665h39.445v224.703h-39.445V304.665z"/>
	<path fill="#999999" d="M1749.58,305.235h39.477v224.703h-39.477V305.235z"/>
	<path fill="#999999" d="M1831.392,304.056h39.445v224.711h-39.445V304.056z"/>
</g>
<g>
</g>
<g>
</g>
<g>
</g>
<g>
</g>
<g>
</g>
<g>
</g>
<g>
</g>
<g>
</g>
<g>
</g>
<g>
</g>
<g>
</g>
<g>
</g>
<g>
</g>
<g>
</g>
<g>
</g>
</svg>
