<?xml version="1.0" encoding="UTF-8"?>
<svg width="243px" height="95px" viewBox="0 0 243 95" version="1.1" xmlns="http://www.w3.org/2000/svg" xmlns:xlink="http://www.w3.org/1999/xlink">
    <!-- Generator: Sketch 52.2 (67145) - http://www.bohemiancoding.com/sketch -->
    <title>Sign Up Buttun</title>
    <desc>Created with Sketch.</desc>
    <defs>
        <filter x="-18.3%" y="-60.0%" width="136.6%" height="220.0%" filterUnits="objectBoundingBox" id="filter-1">
            <feOffset dx="0" dy="5" in="SourceAlpha" result="shadowOffsetOuter1"></feOffset>
            <feGaussianBlur stdDeviation="7.5" in="shadowOffsetOuter1" result="shadowBlurOuter1"></feGaussianBlur>
            <feColorMatrix values="0 0 0 0 0.392156863   0 0 0 0 0.431372549   0 0 0 0 0.474509804  0 0 0 0.3 0" type="matrix" in="shadowBlurOuter1" result="shadowMatrixOuter1"></feColorMatrix>
            <feMerge>
                <feMergeNode in="shadowMatrixOuter1"></feMergeNode>
                <feMergeNode in="SourceGraphic"></feMergeNode>
            </feMerge>
        </filter>
    </defs>
    <g id="Home" stroke="none" stroke-width="1" fill="none" fill-rule="evenodd">
        <g id="Friday-website" transform="translate(-395.000000, -655.000000)">
            <g id="Banner">
                <g id="Button/AppStore" transform="translate(410.000000, 665.000000)">
                    <g id="Sign-Up-Buttun" filter="url(#filter-1)">
                        <rect id="BG" stroke="#FFFFFF" stroke-width="2" x="1" y="1" width="211" height="63" rx="3"></rect>
                        <text id="12:12:12:12" font-family="CircularStd-Book, Circular Std" font-size="13" font-weight="300" line-spacing="21" fill="#FFFFFF">
                            <tspan x="72.92" y="25.4558824">Available on the</tspan>
                            <tspan x="166.507" y="25.4558824" font-size="12"></tspan>
                            <tspan x="72" y="38.2958824" font-size="20">App Store</tspan>
                        </text>
                        <g id="Icon" transform="translate(29.000000, 13.000000)" fill="#FFFFFF">
                            <path d="M1.34176301,12.2098355 C-1.34794083,17.032788 0.361953504,24.351884 3.33632679,28.7897117 C4.82100993,31.00841 6.32415642,33 8.38297684,33 C8.42178118,33 8.46068983,32.9992455 8.50053729,32.9976287 C9.46782927,32.9577473 10.1668289,32.6500139 10.8426711,32.3526282 C11.6014419,32.0184868 12.3861866,31.6730278 13.6170769,31.6730278 C14.7880916,31.6730278 15.535388,32.0072769 16.2580667,32.3304239 C16.970314,32.6488283 17.7039455,32.9782269 18.7879634,32.9572084 C21.1070441,32.9125843 22.5309129,30.7635168 23.7871512,28.8676421 C25.0980493,26.8881243 25.7556367,24.966165 25.9775099,24.2317009 L25.9864808,24.2024905 C26.0287275,24.0719598 25.9690606,23.9294647 25.8479535,23.8720139 C25.8446155,23.8703971 25.8323066,23.8651155 25.8288643,23.8636065 C25.4204799,23.6910387 21.838172,22.0488958 21.8005151,17.5731269 C21.7655704,13.9368071 24.4879241,12.0111831 25.0338969,11.6621671 L25.0593493,11.6457834 C25.1184946,11.6064409 25.1596981,11.544032 25.173676,11.4726766 C25.1876539,11.4014291 25.1730501,11.3272713 25.1334113,11.2673414 C23.2543217,8.42584683 20.3742471,7.99760701 19.2147068,7.94608458 C19.0464503,7.92873079 18.8727696,7.92 18.6983588,7.92 C17.3364517,7.92 16.0318123,8.45150026 14.983678,8.87855441 C14.2601649,9.17335327 13.6352273,9.4279474 13.2042071,9.4279474 C12.7198831,9.4279474 12.0913988,9.17022744 11.3636089,8.87187158 C10.3903711,8.4727344 9.28726393,8.02045797 8.11948288,8.02045797 C8.09163138,8.02045797 8.06419713,8.02078133 8.03718013,8.02132027 C5.32191967,8.06260289 2.75624368,9.66777463 1.34176301,12.2098355 Z" id="XMLID_229_"></path>
                            <path d="M19.2126788,0.000204942237 C17.6555308,0.0686813257 15.7876051,1.10361333 14.6711369,2.51559209 C13.7223069,3.70240941 12.7954072,5.68118491 13.0396038,7.67574623 C13.0549154,7.80053964 13.1489588,7.89685456 13.2652287,7.90656071 C13.370336,7.91541358 13.4776165,7.91989334 13.5845019,7.92 C15.1070752,7.92 16.7495735,7.01050137 17.8712772,5.54604538 C19.0518568,3.99967371 19.6488146,2.01513853 19.4682356,0.237525742 C19.4540106,0.098226432 19.3405066,-0.00523477047 19.2126788,0.000204942237 Z" id="XMLID_230_"></path>
                        </g>
                    </g>
                </g>
            </g>
        </g>
    </g>
</svg>