<svg xmlns="http://www.w3.org/2000/svg" width="243" height="95" viewBox="0 0 243 95">
    <defs>
        <filter id="a" width="136.6%" height="220%" x="-18.3%" y="-60%" filterUnits="objectBoundingBox">
            <feOffset dy="5" in="SourceAlpha" result="shadowOffsetOuter1"/>
            <feGaussianBlur in="shadowOffsetOuter1" result="shadowBlurOuter1" stdDeviation="7.5"/>
            <feColorMatrix in="shadowBlurOuter1" result="shadowMatrixOuter1" values="0 0 0 0 0.392156863 0 0 0 0 0.431372549 0 0 0 0 0.474509804 0 0 0 0.3 0"/>
            <feMerge>
                <feMergeNode in="shadowMatrixOuter1"/>
                <feMergeNode in="SourceGraphic"/>
            </feMerge>
        </filter>
    </defs>
    <g fill="none" fill-rule="evenodd" filter="url(#a)" transform="translate(15 10)">
        <rect width="211" height="63" x="1" y="1" stroke="#FFF" stroke-width="2" rx="3"/>
        <text fill="#FFF" font-family="CircularStd-Book, Circular Std" font-size="13" font-weight="300">
            <tspan x="72.92" y="25.456">Available on the</tspan>  <tspan x="72" y="38.296" font-size="20">App Store</tspan>
        </text>
        <g fill="#FFF">
            <path d="M30.342 25.21c-2.69 4.823-.98 12.142 1.994 16.58 1.485 2.218 2.988 4.21 5.047 4.21.039 0 .078 0 .118-.002.967-.04 1.666-.348 2.342-.645.758-.335 1.543-.68 2.774-.68 1.171 0 1.918.334 2.641.657.712.319 1.446.648 2.53.627 2.319-.044 3.743-2.193 5-4.09a18.4 18.4 0 0 0 2.19-4.635l.008-.03a.273.273 0 0 0-.138-.33l-.02-.008c-.408-.173-3.99-1.815-4.027-6.29-.035-3.637 2.687-5.563 3.233-5.912l.025-.016a.277.277 0 0 0 .074-.378c-1.879-2.842-4.759-3.27-5.918-3.322a5.053 5.053 0 0 0-.517-.026c-1.362 0-2.666.532-3.714.959-.724.294-1.349.549-1.78.549-.484 0-1.113-.258-1.84-.556-.974-.4-2.077-.852-3.245-.852l-.082.001c-2.715.042-5.28 1.647-6.695 4.189zM48.213 13c-1.557.069-3.425 1.104-4.542 2.516-.949 1.186-1.876 3.165-1.631 5.16.015.125.109.22.225.23.105.01.213.014.32.014 1.522 0 3.165-.91 4.286-2.374 1.18-1.546 1.778-3.53 1.597-5.308-.014-.14-.127-.243-.255-.238z"/>
        </g>
    </g>
</svg>
