<svg xmlns="http://www.w3.org/2000/svg"  viewBox="0 0 413 265">
    <g fill="none" fill-rule="evenodd">
        <path fill="transparent" d="M-71-564h1700v5910H-71z"/>
        <g transform="translate(100 100)">
            <rect width="213" height="65" fill="#FFF" rx="3"/>
            <text fill="#4D4D4D" font-family="CircularStd-Book, Circular Std" font-size="14" font-weight="300">
                <tspan x="69.92" y="26">Get it on</tspan> <tspan x="69" y="40.84" font-size="20">Google Play</tspan>
            </text>
        </g>
        <g fill="#32BBFF">
            <path d="M147.932 129.28c-3.133-1.952-8.162-5.089-15.963-9.956a1.718 1.718 0 0 0-1.654-.241l13.384 14.916 4.233-4.718z"/>
            <path d="M130.315 119.083a1.824 1.824 0 0 0-.284.136c-.578.348-1.002 1.017-1.002 1.864v25.831c0 .847.424 1.517 1.002 1.865.09.054.186.099.284.136l13.384-14.916-13.384-14.916z"/>
            <path d="M143.699 133.999l-13.384 14.916a1.7 1.7 0 0 0 1.654-.241c7.565-4.721 12.537-7.82 15.707-9.79l.26-.163L143.7 134z"/>
        </g>
        <path fill="#2C9FD9" d="M129 133.515v12.595c0 .826.424 1.479 1 1.818.092.053.187.096.285.133l13.37-14.546H129z"/>
        <path fill="#29CC5E" d="M132.684 118.36a1.735 1.735 0 0 0-1.96-.107l13.617 15.262 4.487-5.028c-3.17-1.987-8.255-5.176-16.144-10.127z"/>
        <path fill="#D93F21" d="M144.338 133.515l-13.614 15.26a1.723 1.723 0 0 0 1.96-.107c7.648-4.8 12.676-7.952 15.88-9.955l.264-.166-4.49-5.032z"/>
        <path fill="#FFD500" d="M154 133.513c0-.71-.328-1.428-.977-1.826 0 0-1.215-.741-4.939-3.02l-4.429 4.846 4.434 4.85c3.682-2.262 4.934-3.025 4.934-3.025.65-.397.977-1.115.977-1.825z"/>
        <path fill="#FA0" d="M153.023 135.34c.65-.398.977-1.115.977-1.825h-10.345l4.434 4.849c3.682-2.262 4.934-3.024 4.934-3.024z"/>
    </g>
</svg>
