<?xml version="1.0" encoding="UTF-8"?>
<svg width="450px" height="413px" viewBox="0 0 450 413" version="1.1" xmlns="http://www.w3.org/2000/svg" xmlns:xlink="http://www.w3.org/1999/xlink">
    <!-- Generator: Sketch 52.2 (67145) - http://www.bohemiancoding.com/sketch -->
    <title>Icon/Optimization Copy</title>
    <desc>Created with Sketch.</desc>
    <g id="Home" stroke="none" stroke-width="1" fill="none" fill-rule="evenodd">
        <g id="Friday-website" transform="translate(-1125.000000, -1282.000000)">
            <rect fill="#FFFFFF" x="0" y="0" width="1700" height="5454"></rect>
            <g id="What-We-Do" transform="translate(0.000000, 1193.000000)" fill="#3CD0B0">
                <g id="Block-3" transform="translate(1163.000000, 189.000000)">
                    <g id="Icon/Optimization-Copy" transform="translate(62.000000, 0.000000)">
                        <g id="flaticon1537477497-svg">
                            <path d="M178.991521,85.748528 C174.403051,81.0945767 166.96552,81.0945767 162.37705,85.748528 L128.876119,119.726006 C127.217952,119.327301 125.491157,119.110291 123.7139,119.110291 C111.383616,119.110291 101.351351,129.293912 101.351351,141.813466 C101.351351,154.330972 111.383111,164.516129 123.7139,164.516129 C136.0568,164.516129 146.097138,154.330972 146.097138,141.813466 C146.097138,140.010335 145.883181,138.258897 145.490086,136.577067 L178.991017,102.599588 C183.579487,97.9461489 183.579487,90.4014556 178.991521,85.748528 Z" id="Shape" fill-rule="nonzero"></path>
                            <path d="M213.419257,36.4182909 C164.670798,-12.1396735 85.3344959,-12.1396735 36.5611344,36.4197501 C-5.53499137,78.3727769 -12.0584187,144.547637 21.0489516,193.767554 C24.5430867,198.963471 31.6045992,200.350605 36.8204114,196.870611 C42.0357353,193.390129 43.4307526,186.356698 39.9356409,181.160781 C30.6334093,167.329808 25.156367,151.862679 23.3707253,136.123667 L34.0577204,136.123667 C40.3355426,136.123667 45.4253784,131.054693 45.4253784,124.80043 C45.4253784,118.547626 40.3355426,113.477193 34.0577204,113.477193 L23.3345925,113.477193 C25.3946479,94.6681988 32.666121,76.4083186 44.9219612,61.04965 L52.6573007,68.754762 C54.8770238,70.9662975 57.786199,72.0723084 60.6948859,72.0723084 C63.604061,72.0723084 66.5137244,70.9662975 68.732471,68.754762 C73.1719172,64.3336366 73.1719172,57.1635343 68.732471,52.7414361 L60.9644167,45.0032507 C76.6157595,32.4815925 95.1328205,25.2205385 114.109842,23.2137658 L114.109842,33.9071501 C114.109842,40.1614132 119.199677,45.2303867 125.4775,45.2303867 C131.755322,45.2303867 136.845158,40.1614132 136.845158,33.9071501 L136.845158,23.3173631 C155.489172,25.4627519 173.64637,32.6946236 189.030135,45.0076281 L181.265499,52.7419225 C176.827029,57.164507 176.827029,64.3331503 181.266964,68.7567075 C183.48571,70.9667839 186.395862,72.0727948 189.303572,72.0727948 C192.213724,72.0727948 195.122411,70.9667839 197.342134,68.7552484 L205.069661,61.0579183 C217.329896,76.4136687 224.602833,94.6716034 226.663377,113.478653 L215.940249,113.478653 C209.662915,113.478653 204.572591,118.549085 204.572591,124.801889 C204.572591,131.056152 209.662915,136.125126 215.940249,136.125126 L226.628221,136.125126 C224.842091,151.864138 219.363584,167.330295 210.058423,181.160781 C206.562334,186.355239 207.956863,193.389157 213.170722,196.870611 C215.114567,198.168252 217.313782,198.790323 219.48956,198.790323 C223.153129,198.790323 226.749803,197.028682 228.943647,193.770473 C262.064689,144.544719 255.535891,78.3698586 213.419257,36.4182909 Z" id="Shape" fill-rule="nonzero"></path>
                            <path d="M184.28934,191.935484 L79.2236733,191.935484 C72.786555,191.935484 67.5675676,196.539777 67.5675676,202.217742 C67.5675676,207.897032 72.786555,212.5 79.2236733,212.5 L184.28984,212.5 C190.72796,212.5 195.945946,207.897032 195.945946,202.217742 C195.945445,196.539777 190.727459,191.935484 184.28934,191.935484 Z" id="Shape" fill-rule="nonzero"></path>
                        </g>
                    </g>
                </g>
            </g>
        </g>
    </g>
</svg>