<svg xmlns="http://www.w3.org/2000/svg" width="450" height="413" viewBox="0 0 450 413">
    <g fill="none" fill-rule="evenodd">
        <path fill="#FFF" d="M-1125-1282H575v5910h-1700z"/>
        <g fill="#3CD0B0" fill-rule="nonzero">
            <path d="M278.992 185.749a11.63 11.63 0 0 0-16.615 0l-33.5 33.977a22.048 22.048 0 0 0-5.163-.616c-12.33 0-22.363 10.184-22.363 22.703 0 12.518 10.032 22.703 22.363 22.703 12.343 0 22.383-10.185 22.383-22.703 0-1.803-.214-3.554-.607-5.236l33.501-33.977c4.588-4.654 4.588-12.199 0-16.851z"/>
            <path d="M313.42 136.418c-48.75-48.558-128.086-48.558-176.859.002-42.096 41.953-48.62 108.128-15.512 157.348 3.494 5.195 10.556 6.583 15.771 3.103 5.216-3.48 6.61-10.514 3.116-15.71a100.946 100.946 0 0 1-16.565-45.037h10.687c6.278 0 11.367-5.07 11.367-11.324 0-6.252-5.09-11.323-11.367-11.323h-10.723c2.06-18.809 9.331-37.069 21.587-52.427l7.735 7.705a11.353 11.353 0 0 0 8.038 3.317 11.35 11.35 0 0 0 8.037-3.317 11.292 11.292 0 0 0 0-16.014l-7.768-7.738c15.652-12.521 34.169-19.782 53.146-21.79v10.694c0 6.254 5.09 11.323 11.368 11.323 6.277 0 11.367-5.069 11.367-11.323v-10.59c18.644 2.146 36.801 9.378 52.185 21.69l-7.765 7.735a11.294 11.294 0 0 0 .002 16.015 11.356 11.356 0 0 0 8.037 3.316c2.91 0 5.818-1.106 8.038-3.318l7.728-7.697c12.26 15.356 19.533 33.614 21.593 52.42H315.94c-6.277 0-11.367 5.071-11.367 11.324 0 6.254 5.09 11.323 11.367 11.323h10.688a100.917 100.917 0 0 1-16.57 45.036c-3.496 5.194-2.101 12.228 3.113 15.71a11.348 11.348 0 0 0 6.319 1.92c3.663 0 7.26-1.762 9.454-5.02 33.12-49.226 26.592-115.401-15.525-157.353z"/>
            <path d="M284.29 291.935H179.223c-6.437 0-11.656 4.605-11.656 10.283 0 5.679 5.219 10.282 11.656 10.282H284.29c6.438 0 11.656-4.603 11.656-10.282 0-5.678-5.219-10.283-11.657-10.283z"/>
        </g>
    </g>
</svg>
