<?xml version="1.0" encoding="iso-8859-1"?>
<!-- Generator: Adobe Illustrator 21.0.0, SVG Export Plug-In . SVG Version: 6.00 Build 0)  -->
<svg xmlns="http://www.w3.org/2000/svg" xmlns:xlink="http://www.w3.org/1999/xlink" version="1.1" id="Capa_1" x="0px" y="0px" viewBox="0 0 60 60" style="enable-background:new 0 0 60 60;" xml:space="preserve" width="512" height="512">
<g>
	<g>
		<polygon style="fill:#F5D0C7;" points="27.85,10.575 35,7 40,9 47.608,13.975 42.297,14.608 36.632,13.342 31.763,14.316     31.439,19.184 36.632,19.184 47.342,20.158 52.919,26 60,26 60,12 51,5 34,1 23,9   "/>
	</g>
	<g>
		<path style="fill:#FFD200;" d="M32.923,19.184c-0.655,4.927-5.18,8.391-10.107,7.736s-8.391-5.18-7.736-10.107    c0.655-4.927,5.18-8.391,10.107-7.736c3.06,0.407,5.697,2.353,6.989,5.156"/>
	</g>
	<g>
		<path style="fill:#F5D0C7;" d="M0,52.955h11.017L27.119,59H32.2L50,43.455l0,0c-1.945-1.982-5.051-2.232-7.288-0.586    l-11.356,8.358l-11.017-5.182l5.482,0.58l4.687-0.58v-4.318h-5.084l-8.475-0.863l-5.932,2.591H0V52.955z"/>
	</g>
	<g>
		<path style="fill:#8A0F00;" d="M28,16.223v-0.269c-0.13-1.583-1.414-2.824-3-2.9V12h-2v1.051c-1.586,0.076-2.87,1.317-3,2.9    c0.138,1.57,1.401,2.804,2.974,2.905l1.759,0.26C25.526,19.233,26,19.68,26,20.043c0,0.45-0.7,0.954-1.638,0.954h-0.724    C22.7,21,22,20.5,22,20.046v-0.269h-2v0.269c0.13,1.583,1.414,2.824,3,2.9v0.8h2v-0.8c1.586-0.076,2.87-1.317,3-2.9    c-0.138-1.57-1.401-2.804-2.974-2.905l-1.759-0.26C22.474,16.764,22,16.317,22,15.954C22,15.504,22.7,15,23.638,15h0.724    C25.3,15,26,15.5,26,15.954v0.269L28,16.223z"/>
	</g>
	<g>
		<polygon style="fill:#F5D0C7;" points="29,10 35,7 40,9 47.608,13.975 42.297,14.608 36.632,13.342 31.763,14.316 31.439,19.184     36.632,19.184 47.342,20.158 52.919,26 60,26 60,12 51,5 34,1   "/>
	</g>
</g>















</svg>
