<?xml version="1.0" encoding="iso-8859-1"?>
<!-- Generator: Adobe Illustrator 19.0.0, SVG Export Plug-In . SVG Version: 6.00 Build 0)  -->
<svg version="1.1" id="Capa_1" xmlns="http://www.w3.org/2000/svg" xmlns:xlink="http://www.w3.org/1999/xlink" x="0px" y="0px"
	 viewBox="0 0 512 512" style="enable-background:new 0 0 512 512;" xml:space="preserve">
<g>
	<path style="fill:#FFD173;" d="M273.946,422.175c14.884,0,26.947-12.063,26.947-26.947c0-14.884-12.063-26.947-26.947-26.947
		c14.884,0,26.947-12.063,26.947-26.947s-12.063-26.947-26.947-26.947h-44.912v107.789H273.946z M456.2,334.327
		c22.771,71.833-17.004,148.525-88.836,171.295c-13.303,4.222-27.181,6.369-41.14,6.378H185.739
		c-75.318-0.018-136.372-61.09-136.354-136.408c0.009-28.16,8.731-55.628,24.971-78.632l82.818-117.311v-35.93L103.28,0
		l62.877,44.912L211.069,0l44.912,44.912L300.894,0l44.912,44.912L408.683,0l-53.895,143.719v35.93l82.818,117.311
		C445.673,308.395,451.943,320.997,456.2,334.327z"/>
	<path style="fill:#FFD173;" d="M273.946,314.386c14.884,0,26.947,12.063,26.947,26.947s-12.063,26.947-26.947,26.947h-44.912
		v-53.895H273.946z"/>
	<path style="fill:#FFD173;" d="M273.946,368.281c14.884,0,26.947,12.063,26.947,26.947c0,14.884-12.063,26.947-26.947,26.947
		h-44.912v-53.895H273.946z"/>
</g>
<g>
	<rect x="184.122" y="134.737" style="fill:#FE7C26;" width="35.93" height="17.965"/>
	<rect x="238.016" y="134.737" style="fill:#FE7C26;" width="35.93" height="17.965"/>
	<rect x="291.911" y="134.737" style="fill:#FE7C26;" width="35.93" height="17.965"/>
	<rect x="184.122" y="170.667" style="fill:#FE7C26;" width="35.93" height="17.965"/>
	<rect x="238.016" y="170.667" style="fill:#FE7C26;" width="35.93" height="17.965"/>
	<rect x="291.911" y="170.667" style="fill:#FE7C26;" width="35.93" height="17.965"/>
	<path style="fill:#FE7C26;" d="M381.736,152.702v-17.965c14.884,0,26.947-12.063,26.947-26.947h17.965
		C426.621,132.581,406.527,152.675,381.736,152.702z"/>
	<path style="fill:#FE7C26;" d="M103.28,215.579H85.315c0.027-24.792,20.121-44.885,44.912-44.912v17.965
		C115.343,188.632,103.28,200.695,103.28,215.579z"/>
	<path style="fill:#FE7C26;" d="M297.462,368.281c0.611-0.539,1.293-0.97,1.877-1.554c14.004-13.95,14.058-36.612,0.108-50.625
		c-4.554-4.572-10.258-7.833-16.519-9.423v-19.24h-17.965v17.965h-17.965v-17.965h-17.965v17.965h-17.965v17.965h8.982v89.825
		h-8.982v17.965h17.965v17.965h17.965v-17.965h17.965v17.965h17.965v-19.24c19.088-4.797,30.675-24.172,25.869-43.26
		C307.002,379.482,303.04,373.077,297.462,368.281z M291.911,341.333c0,9.926-8.039,17.965-17.965,17.965h-35.93v-35.93h35.93
		C283.863,323.368,291.911,331.408,291.911,341.333z M286.638,407.92c-3.359,3.386-7.932,5.282-12.692,5.273h-35.93v-35.93h35.93
		c9.926,0.009,17.956,8.066,17.947,17.983C291.884,399.998,289.998,404.561,286.638,407.92z"/>
</g>
<g>
</g>
<g>
</g>
<g>
</g>
<g>
</g>
<g>
</g>
<g>
</g>
<g>
</g>
<g>
</g>
<g>
</g>
<g>
</g>
<g>
</g>
<g>
</g>
<g>
</g>
<g>
</g>
<g>
</g>
</svg>
