<svg xmlns="http://www.w3.org/2000/svg" viewBox="0 0 207.96 38.45"><defs><style>.cls-1{fill:#004f9e;}.cls-2{fill:#04a54a;}.cls-3{fill:#fff;}.cls-4{fill:#e20613;}</style></defs><title>Asset 180</title><g id="Layer_2" data-name="Layer 2"><g id="Layer_1-2" data-name="Layer 1"><rect class="cls-1" x="2.66" y="7.97" width="102.01" height="29.97"/><rect class="cls-2" x="104.28" y="7.97" width="99.95" height="29.97"/><polyline class="cls-3" points="9 37.95 9 7.9 20.48 7.9 20.48 12.52 13.4 12.52 13.4 19.93 19.93 19.93 19.93 24.55 13.4 24.55 13.4 33.33 20.72 33.33 20.72 37.95 9 37.95"/><path class="cls-3" d="M46.85,7.9V29.21c0,4.5-1.78,9.24-7.14,9.24-4.84,0-7.17-3.58-7.17-9.24V7.9h4.4V28.79c0,3.7,1.11,5.16,2.71,5.16,1.92,0,2.8-1.83,2.8-5.16V7.9h4.4"/><path class="cls-3" d="M63.81,38h-4.4V7.9h8.13c3,0,4.92,2.75,4.92,7.87,0,3.83-1,6.7-3.9,7.37v.08c1,.17,3.82.5,3.82,5.91,0,1.91.09,7.58.5,8.82H68.56a19.37,19.37,0,0,1-.47-5.83c0-3.58.23-6.62-3.15-6.62H63.81V38m0-17.07h2c1.75,0,2.24-2.5,2.24-4.41,0-2.87-.85-4-2.24-4h-2Z"/><path class="cls-3" d="M84.55,22.93c0-8,0-15.53,7.25-15.53S99.06,15,99.06,22.93s0,15.53-7.26,15.53-7.25-7.66-7.25-15.53m10.05,0c0-7.7-.32-11-2.8-11s-2.8,3.33-2.8,11,.32,11,2.8,11S94.61,30.63,94.61,22.93Z"/><path class="cls-3" d="M111.65,7.9h7.93c4,0,5.59,3.5,5.59,9,0,3.41-.7,8.82-5.86,8.82h-3.26V38h-4.4V7.9m4.4,13.19h2.45c1.31,0,2.22-2,2.22-4,0-2.46-.47-4.54-2.45-4.54h-2.21Z"/><path class="cls-3" d="M133.77,38,139.6,7.9h5.8L151.11,38h-4.63l-1.17-6.66h-6L138.11,38h-4.34m8.48-24.27h-.06l-2,13h4.2Z"/><path class="cls-3" d="M166.55,38h-4.4V7.9h8.13c3,0,4.92,2.75,4.92,7.87,0,3.83-1,6.7-3.9,7.37v.08c1,.17,3.82.5,3.82,5.91,0,1.91.09,7.58.5,8.82H171.3a19.4,19.4,0,0,1-.47-5.83c0-3.58.23-6.62-3.15-6.62h-1.14V38m0-17.07h2c1.75,0,2.24-2.5,2.24-4.41,0-2.87-.84-4-2.24-4h-2Z"/><polyline class="cls-3" points="196.85 7.9 201.69 7.9 195.8 21.39 201.69 37.95 196.74 37.95 191.69 22.55 191.63 22.55 191.63 37.95 187.24 37.95 187.24 7.9 191.63 7.9 191.63 20.76 191.69 20.76 196.85 7.9"/><path class="cls-4" d="M0,1.75c7,.45,13,1,18.67,1.5C29.27,4.22,38.43,5,51.53,5.08A239,239,0,0,0,77.34,3.41a236.11,236.11,0,0,1,25.81-1.66,238.42,238.42,0,0,1,26.12,1.66,244.26,244.26,0,0,0,25.91,1.67c13.42,0,22.8-.86,33.67-1.82,5.85-.52,11.9-1.06,19.11-1.51L207.85,0c-7.24.45-13.3,1-19.16,1.51-10.82,1-20.17,1.79-33.51,1.82a242.67,242.67,0,0,1-25.73-1.66A239.84,239.84,0,0,0,103.14,0a237.53,237.53,0,0,0-26,1.67A237.66,237.66,0,0,1,51.53,3.33c-13,0-22.14-.86-32.71-1.82C13.1,1,7.18.46.11,0L0,1.75"/></g></g></svg>