<svg xmlns="http://www.w3.org/2000/svg" width="28" height="28" viewBox="0 0 28 28">
    <defs>
        <clipPath id="clip-path">
            <path id="Rectangle_11249" d="M0 0H28V28H0z" class="cls-1"/>
        </clipPath>
        <style>
            .cls-1{fill:#f6ae42}
        </style>
    </defs>
    <g id="Mask_Group_66" clip-path="url(#clip-path)" transform="rotate(90 14 14)">
        <g id="down-arrow" transform="translate(0 5.731)">
            <g id="Group_66474">
                <path id="Path_68034" d="M27.552 1.382l-.917-.923a1.535 1.535 0 0 0-2.166 0L14.006 10.922 3.532.447a1.536 1.536 0 0 0-2.166 0l-.917.918a1.533 1.533 0 0 0 0 2.166l12.47 12.516a1.566 1.566 0 0 0 1.086.491 1.565 1.565 0 0 0 1.083-.491L27.552 3.565A1.547 1.547 0 0 0 28 2.471a1.532 1.532 0 0 0-.448-1.089z" class="cls-1"/>
            </g>
        </g>
    </g>
</svg>
