<svg xmlns="http://www.w3.org/2000/svg" width="24" height="24" viewBox="0 0 24 24">
    <defs>
        <style>
            .cls-2{fill:#fff}
        </style>
    </defs>
    <g id="Group_66726" transform="translate(-21566 -1775)">
        <path id="Rectangle_11904" fill="none" d="M0 0H24V24H0z" transform="translate(21566 1775)"/>
        <g id="key" transform="translate(21562.021 1775)">
            <g id="Group_66727" transform="translate(3.978)">
                <g id="Group_66726-2">
                    <path id="Path_68167" d="M19.493 0a8.117 8.117 0 0 0-7.586 10.99l-7.756 7.757a.591.591 0 0 0-.173.418v4.244a.591.591 0 0 0 .591.591h3.5a.591.591 0 0 0 .418-.173l1.176-1.177a.591.591 0 0 0 .173-.418v-1.447h1.445a.591.591 0 0 0 .591-.591v-.579h.579a.591.591 0 0 0 .591-.591v-1.273h1.272a.591.591 0 0 0 .418-.173l1.882-1.878A8.112 8.112 0 1 0 19.493 0zm0 15.041a6.877 6.877 0 0 1-2.782-.581.591.591 0 0 0-.65.118h-.005l-1.985 1.985h-1.618a.591.591 0 0 0-.591.591v1.272h-.579a.591.591 0 0 0-.591.591v.583H9.245a.591.591 0 0 0-.591.591v1.793l-.832.831H5.16v-.835l7.225-7.225a.532.532 0 0 0-.752-.755L5.16 20.478V19.41l7.861-7.861v-.005a.591.591 0 0 0 .119-.65 6.931 6.931 0 1 1 6.349 4.148z" class="cls-2" transform="translate(-3.978)"/>
                </g>
            </g>
            <g id="Group_66729" transform="translate(19.748 3.429)">
                <g id="Group_66728">
                    <path id="Path_68168" d="M342.615 73.144a2.214 2.214 0 1 0 2.214 2.214 2.217 2.217 0 0 0-2.214-2.214zm0 3.246a1.032 1.032 0 1 1 1.032-1.032 1.033 1.033 0 0 1-1.032 1.032z" class="cls-2" transform="translate(-340.401 -73.144)"/>
                </g>
            </g>
        </g>
    </g>
</svg>
