<svg xmlns="http://www.w3.org/2000/svg" id="clock" width="16" height="16" viewBox="0 0 16 16">
    <defs>
        <style>
            .cls-1{fill:#f6ae42}
        </style>
    </defs>
    <path id="Path_65243" d="M14.316 4.21a.667.667 0 0 0-.31.89 6.6 6.6 0 0 1 .66 2.9A6.667 6.667 0 1 1 8 1.333a6.586 6.586 0 0 1 4.139 1.438.667.667 0 1 0 .83-1.044A8 8 0 1 0 16 8a7.918 7.918 0 0 0-.793-3.48.666.666 0 0 0-.891-.31zm0 0" class="cls-1"/>
    <path id="Path_65244" d="M176.669 64a.67.67 0 0 0-.669.669v4.685a.67.67 0 0 0 .669.669h3.347a.669.669 0 1 0 0-1.339h-2.677v-4.015a.67.67 0 0 0-.67-.669zm0 0" class="cls-1" transform="translate(-168.679 -61.34)"/>
</svg>
