<svg xmlns="http://www.w3.org/2000/svg" id="prefix__google" width="20.093" height="20.093" viewBox="0 0 20.093 20.093">
    <path id="prefix__Path_45670" d="M4.453 144.984l-.7 2.611-2.556.054a10.064 10.064 0 0 1-.074-9.381l2.276.417 1 2.262a6 6 0 0 0 .056 4.037z" data-name="Path 45670" transform="translate(0 -132.842)" style="fill:#fbbb00"/>
    <path id="prefix__Path_45671" d="M271.278 208.176a10.043 10.043 0 0 1-3.581 9.711l-2.867-.146-.406-2.533A5.988 5.988 0 0 0 267 212.15h-5.372v-3.974h9.65z" data-name="Path 45671" transform="translate(-251.361 -200.006)" style="fill:#518ef8"/>
    <path id="prefix__Path_45672" d="M45.647 315.147a10.05 10.05 0 0 1-15.139-3.074l3.256-2.665a5.975 5.975 0 0 0 8.61 3.059z" data-name="Path 45672" transform="translate(-29.312 -297.267)" style="fill:#28b446"/>
    <path id="prefix__Path_45673" d="M43.96 2.313l-3.255 2.664A5.974 5.974 0 0 0 31.9 8.106l-3.275-2.68A10.048 10.048 0 0 1 43.96 2.313z" data-name="Path 45673" transform="translate(-27.501)" style="fill:#f14336"/>
</svg>
