<svg xmlns="http://www.w3.org/2000/svg" id="Group_66096" width="88.661" height="88.661" viewBox="0 0 88.661 88.661">
    <defs>
        <style>
            .cls-1{fill:#101519}
        </style>
    </defs>
    <g id="customer-review">
        <path id="Path_68008" d="M211 248.792a7.792 7.792 0 1 0 7.792-7.792 7.8 7.8 0 0 0-7.792 7.792zm0 0" class="cls-1" transform="translate(-174.462 -199.267)"/>
        <path id="Path_68009" d="M181.585 361A15.6 15.6 0 0 0 166 376.585v10.563h31.17v-10.563A15.6 15.6 0 0 0 181.585 361zm0 0" class="cls-1" transform="translate(-137.254 -298.487)"/>
        <path id="Path_68010" d="M61.585 278.792a7.792 7.792 0 1 0-7.792 7.792 7.8 7.8 0 0 0 7.792-7.792zm0 0" class="cls-1" transform="translate(-38.034 -224.072)"/>
        <path id="Path_68011" d="M391.585 278.792a7.792 7.792 0 1 0-7.792 7.792 7.8 7.8 0 0 0 7.792-7.792zm0 0" class="cls-1" transform="translate(-310.889 -224.072)"/>
        <path id="Path_68012" d="M13.161 0L9.209 9.316 0 10.615l6.642 6.309-1.528 9.224 8.046-4.205 8.046 4.205-1.527-9.224 6.469-6.309-8.939-1.3zm0 0" class="cls-1"/>
        <path id="Path_68013" d="M198.036 9.316L193.987 0l-3.952 9.316L181 10.615l6.469 6.309-1.527 9.224 8.046-4.205 8.046 4.205-1.527-9.224 6.469-6.309zm0 0" class="cls-1" transform="translate(-149.657)"/>
        <path id="Path_68014" d="M373.987 0l-3.952 9.316L361 10.615l6.469 6.309-1.527 9.224 8.046-4.205 8.046 4.205-1.527-9.224 6.642-6.309-9.112-1.3zm0 0" class="cls-1" transform="translate(-298.487)"/>
        <path id="Path_68015" d="M377.1 391a15.455 15.455 0 0 0-9.195 3.058 20.57 20.57 0 0 1 1.4 7.332v10.563h23.551v-5.368A15.733 15.733 0 0 0 377.1 391zm0 0" class="cls-1" transform="translate(-304.194 -323.292)"/>
        <path id="Path_68016" d="M0 406.585v5.368h23.551V401.39a20.571 20.571 0 0 1 1.4-7.332A15.455 15.455 0 0 0 15.758 391 15.733 15.733 0 0 0 0 406.585zm0 0" class="cls-1" transform="translate(0 -323.292)"/>
    </g>
    <path id="Rectangle_2092" fill="none" d="M0 0H88V88H0z" transform="translate(.38 .068)"/>
</svg>
