<svg xmlns="http://www.w3.org/2000/svg" id="placeholder" width="11.229" height="14" viewBox="0 0 11.229 14">
    <defs>
        <style>
            .cls-1{fill:#f6ae42}
        </style>
    </defs>
    <g id="Group_100">
        <path id="Path_192" d="M52.812 0A5.619 5.619 0 0 0 47.2 5.612a5.523 5.523 0 0 0 .1 1.054c0 .021.015.082.038.188a5.527 5.527 0 0 0 .376 1.106 15.731 15.731 0 0 0 4.852 5.952.4.4 0 0 0 .5 0 15.761 15.761 0 0 0 4.85-5.952 5.465 5.465 0 0 0 .376-1.106c.023-.106.035-.167.038-.188a5.771 5.771 0 0 0 .1-1.054A5.628 5.628 0 0 0 52.812 0zm4.731 6.527v.018c0 .006-.012.059-.026.126v.006a4.659 4.659 0 0 1-.326.957s0 .009-.006.012a14.681 14.681 0 0 1-4.37 5.447 14.681 14.681 0 0 1-4.37-5.447s0-.009-.006-.012a4.971 4.971 0 0 1-.326-.957v-.006c-.018-.068-.023-.112-.026-.126s0-.012 0-.021a4.819 4.819 0 1 1 9.462 0z" class="cls-1" transform="translate(-47.2)"/>
        <path id="Path_193" d="M120.563 71.9a3.563 3.563 0 1 0 3.563 3.563 3.569 3.569 0 0 0-3.563-3.563zm0 6.334a2.771 2.771 0 1 1 2.771-2.771 2.774 2.774 0 0 1-2.771 2.771z" class="cls-1" transform="translate(-114.951 -69.79)"/>
    </g>
</svg>
