<svg xmlns="http://www.w3.org/2000/svg" width="24" height="24" viewBox="0 0 24 24">
    <defs>
        <style>
            .cls-1{fill:#fff}
        </style>
    </defs>
    <g id="Group_66619" transform="translate(-22273 -2164)">
        <g id="XMLID_2_" transform="translate(22273 2167)">
            <path id="XMLID_4_" d="M13.73 110.455H1.091a1.091 1.091 0 1 1 0-2.182H13.73l-1.41-1.41a1.091 1.091 0 0 1 1.543-1.543l3.273 3.273c.025.025.049.052.072.079l.016.021c.017.021.033.042.048.065l.012.02c.015.023.03.047.043.072l.007.015c.014.027.027.054.039.082v.011c.012.029.023.059.032.09v.012c.009.03.017.06.023.091v.028c0 .026.009.051.012.078a1.076 1.076 0 0 1 0 .218c0 .027-.007.053-.012.079v.027c-.006.031-.014.062-.023.092v.011c-.009.031-.02.061-.032.09v.01c-.012.028-.025.055-.039.082l-.007.014c-.013.025-.028.049-.043.072l-.012.019c-.015.022-.032.044-.048.065l-.015.021c-.023.028-.047.054-.072.079l-3.273 3.272a1.091 1.091 0 0 1-1.543-1.543z" class="cls-1" transform="translate(6.546 -100.44)"/>
            <path id="XMLID_5_" d="M111.769 42.3a8.917 8.917 0 0 1 7.411 3.951 1.091 1.091 0 0 1-1.811 1.217 6.742 6.742 0 1 0-.009 7.524 1.091 1.091 0 0 1 1.808 1.221 8.924 8.924 0 1 1-7.4-13.914z" class="cls-1" transform="translate(-102.845 -42.299)"/>
        </g>
        <path id="Rectangle_11902" fill="none" d="M0 0H24V24H0z" transform="translate(22273 2164)"/>
    </g>
</svg>
