<svg xmlns="http://www.w3.org/2000/svg" width="24" height="24" viewBox="0 0 24 24">
    <path fill="none" d="M0 0H24V24H0z"/>
    <path fill="#fff" d="M23 2.777h-6.3v-.695A2.085 2.085 0 0 0 14.623 0H9.07a2.085 2.085 0 0 0-2.083 2.082v.694H.694A.7.7 0 0 0 0 3.471v15.27a2.085 2.085 0 0 0 2.082 2.082H21.61a2.085 2.085 0 0 0 2.082-2.082V3.483A.674.674 0 0 0 23 2.777zM8.376 2.082a.7.7 0 0 1 .694-.694h5.553a.7.7 0 0 1 .694.694v.694H8.376zm13.66 2.082l-2.156 6.467a.693.693 0 0 1-.658.475h-3.9v-.694a.694.694 0 0 0-.694-.694H9.07a.694.694 0 0 0-.694.694v.694h-3.9a.693.693 0 0 1-.658-.475L1.657 4.165zm-8.107 6.941v1.388H9.764v-1.387zm8.371 7.636a.7.7 0 0 1-.694.694H2.082a.7.7 0 0 1-.694-.694V7.748L2.5 11.07a2.079 2.079 0 0 0 1.975 1.424h3.9v.694a.694.694 0 0 0 .694.694h5.553a.694.694 0 0 0 .694-.694v-.694h3.9A2.079 2.079 0 0 0 21.2 11.07l1.1-3.322zm0 0" transform="translate(0 1.481)"/>
</svg>
