<svg xmlns="http://www.w3.org/2000/svg" width="24" height="24" viewBox="0 0 24 24">
    <path fill="none" d="M0 0H24V24H0z"/>
    <g>
        <g>
            <path fill="#fff" d="M23.378 59.727h-1.571v-.536a.462.462 0 0 0-.333-.462 13.017 13.017 0 0 0-3.332-.425 8.594 8.594 0 0 0-6.229 2.311A8.5 8.5 0 0 0 5.684 58.3a13.017 13.017 0 0 0-3.332.425.462.462 0 0 0-.333.462v.531H.462a.462.462 0 0 0-.462.466v14.76a.461.461 0 0 0 .689.4 16.292 16.292 0 0 1 11.118-.924h.111a.462.462 0 0 0 .111 0 16.017 16.017 0 0 1 11.118.924.462.462 0 0 0 .693-.4V60.189a.462.462 0 0 0-.462-.462zM.924 74.209V60.651h1.1v11.59a.462.462 0 0 0 .531.462 20.224 20.224 0 0 1 2.888-.231 11.987 11.987 0 0 1 3.946.6 16.988 16.988 0 0 0-8.465 1.137zm4.524-2.657a20.335 20.335 0 0 0-2.514.162V59.556a12.746 12.746 0 0 1 2.74-.305 7.545 7.545 0 0 1 5.767 2.264l.014 11.511a10.8 10.8 0 0 0-6.007-1.474zm6.932-10.037a7.613 7.613 0 0 1 5.767-2.264 12.8 12.8 0 0 1 2.74.305v12.158a20.328 20.328 0 0 0-2.5-.166 10.892 10.892 0 0 0-6.007 1.474zm10.532 12.694a16.992 16.992 0 0 0-8.489-1.141 12.016 12.016 0 0 1 3.965-.6 20.219 20.219 0 0 1 2.907.226.462.462 0 0 0 .531-.462V60.651h1.1z" transform="translate(0 3.428) translate(0 -58.303)"/>
        </g>
    </g>
</svg>
