<svg xmlns="http://www.w3.org/2000/svg" width="19" height="19" viewBox="0 0 19 19">
    <defs>
        <style>
            .cls-2{fill:#707070}
        </style>
    </defs>
    <g id="Group_66536" transform="translate(-21148 -1290)">
        <path id="Rectangle_11866" fill="none" d="M0 0H19V19H0z" transform="translate(21148 1290)"/>
        <g id="user-2" transform="translate(21149.328 1290)">
            <path id="Path_68156" d="M91.507 8.951a4.331 4.331 0 0 0 3.164-1.311 4.331 4.331 0 0 0 1.311-3.164 4.331 4.331 0 0 0-1.311-3.164 4.474 4.474 0 0 0-6.329 0 4.33 4.33 0 0 0-1.311 3.164 4.331 4.331 0 0 0 1.311 3.164 4.332 4.332 0 0 0 3.165 1.311zm-2.394-6.87a3.385 3.385 0 0 1 4.789 0 3.236 3.236 0 0 1 .992 2.394A3.235 3.235 0 0 1 93.9 6.87a3.385 3.385 0 0 1-4.789 0 3.235 3.235 0 0 1-.992-2.394 3.235 3.235 0 0 1 .993-2.395zm0 0" class="cls-2" transform="translate(-83.873)"/>
            <path id="Path_68157" d="M15.465 252.629a11.055 11.055 0 0 0-.151-1.174 9.251 9.251 0 0 0-.289-1.18 5.831 5.831 0 0 0-.485-1.1 4.151 4.151 0 0 0-.732-.954 3.227 3.227 0 0 0-1.051-.66 3.633 3.633 0 0 0-1.342-.243 1.362 1.362 0 0 0-.727.308c-.218.142-.473.307-.758.489a4.341 4.341 0 0 1-.98.432 3.807 3.807 0 0 1-2.4 0 4.328 4.328 0 0 1-.98-.432c-.282-.18-.537-.345-.758-.489a1.361 1.361 0 0 0-.727-.308 3.628 3.628 0 0 0-1.342.243 3.223 3.223 0 0 0-1.051.66 4.15 4.15 0 0 0-.732.953 5.842 5.842 0 0 0-.485 1.1 9.274 9.274 0 0 0-.289 1.18 10.98 10.98 0 0 0-.151 1.175c-.025.355-.037.724-.037 1.1a3.085 3.085 0 0 0 .916 2.334 3.3 3.3 0 0 0 2.361.861h8.947a3.3 3.3 0 0 0 2.361-.861 3.084 3.084 0 0 0 .917-2.334c0-.377-.01-.746-.035-1.1zm-1.63 2.643a2.221 2.221 0 0 1-1.611.561H3.278a2.221 2.221 0 0 1-1.611-.561 2.015 2.015 0 0 1-.578-1.546c0-.348.011-.692.034-1.022a9.9 9.9 0 0 1 .136-1.057 8.177 8.177 0 0 1 .254-1.041 4.755 4.755 0 0 1 .395-.9 3.077 3.077 0 0 1 .538-.7 2.14 2.14 0 0 1 .7-.435 2.505 2.505 0 0 1 .854-.165c.038.02.106.059.216.131.224.146.482.312.767.494a5.4 5.4 0 0 0 1.231.55 4.9 4.9 0 0 0 3.068 0 5.4 5.4 0 0 0 1.231-.55c.292-.187.543-.348.767-.494.11-.072.178-.11.216-.131a2.507 2.507 0 0 1 .858.165 2.143 2.143 0 0 1 .7.435 3.068 3.068 0 0 1 .538.7 4.739 4.739 0 0 1 .4.895 8.159 8.159 0 0 1 .254 1.041 9.985 9.985 0 0 1 .136 1.058c.023.329.035.672.035 1.022a2.015 2.015 0 0 1-.582 1.55zm0 0" class="cls-2" transform="translate(0 -238.341)"/>
        </g>
    </g>
</svg>
