<svg xmlns="http://www.w3.org/2000/svg" id="sent" width="80.958" height="83.612" viewBox="0 0 80.958 83.612">
    <defs>
        <style>
            .cls-1{fill:#fff}
        </style>
    </defs>
    <path id="Path_20444" d="M178.807 151.6a1.362 1.362 0 0 1-1.039-.479l-3.035-3.555a1.366 1.366 0 1 1 2.078-1.773l2.169 2.54 6.034-4.909a1.366 1.366 0 1 1 1.723 2.119l-7.068 5.75a1.356 1.356 0 0 1-.862.306zm0 0" class="cls-1" transform="translate(-140.358 -115.277)"/>
    <path id="Path_20445" d="M145.355 117.941a15.023 15.023 0 1 1 15.023-15.023 15.023 15.023 0 0 1-15.023 15.023zm0-27.314a12.291 12.291 0 1 0 12.291 12.291 12.292 12.292 0 0 0-12.291-12.292zm0 0" class="cls-1" transform="translate(-104.889 -70.824)"/>
    <path id="Path_20446" fill="#f6ae42" d="M78.835 31.276L66.056 23.43a1.355 1.355 0 0 0-.143-.076l-.2-.093v-3.314a1.358 1.358 0 0 0-.35-.91L48.636.487c-.021-.024-.044-.046-.067-.068A1.368 1.368 0 0 0 47.582 0a1.313 1.313 0 0 0-.154.009h-.024C47.358 0 47.313 0 47.267 0H23.613a7.56 7.56 0 0 0-7.571 7.532v15.832L2.925 31.272A5.278 5.278 0 0 0 .4 35.754V73.6a10.045 10.045 0 0 0 10.06 10.009H71.3A10.045 10.045 0 0 0 81.356 73.6V35.754a5.278 5.278 0 0 0-2.522-4.479zM77.4 33.6a2.542 2.542 0 0 1 1.217 2.158v2.068L65.712 45.67V26.42zM48.951 4.915l10.6 11.76h-5.77a4.826 4.826 0 0 1-4.833-4.809zM23.613 2.723h22.6v9.143a7.561 7.561 0 0 0 7.571 7.534h8.226l.965 1.07v26.864l-22.1 13.434L18.78 47.334V7.532a4.826 4.826 0 0 1 4.833-4.809zM4.349 33.6l11.694-7.051V45.67L3.136 37.823v-2.069A2.541 2.541 0 0 1 4.349 33.6zM71.3 80.889H10.459A7.312 7.312 0 0 1 3.136 73.6V41.015l13.332 8.106a1.367 1.367 0 0 0 .493.3l23.2 14.106a1.374 1.374 0 0 0 1.428 0l23.2-14.106a1.367 1.367 0 0 0 .493-.3l13.332-8.105V73.6a7.312 7.312 0 0 1-7.314 7.289zm0 0" transform="translate(-.398)"/>
    <path id="Path_20447" fill="#1877f2" d="M86.483 246.916H25.634a7.323 7.323 0 0 1-7.324-7.306v-26.4l-3.91-2.382v32.684a7.323 7.323 0 0 0 7.324 7.306h60.847a7.335 7.335 0 0 0 6.751-4.474 7.3 7.3 0 0 1-2.839.572zm0 0" opacity="0.1" transform="translate(-11.667 -169.937)"/>
</svg>
