<svg xmlns="http://www.w3.org/2000/svg" width="102.252" height="34.084" viewBox="0 0 102.252 34.084">
    <g>
        <path d="M380.927 228a8.927 8.927 0 1 0 8.927 8.927 8.927 8.927 0 0 0-8.927-8.927zm0 12.984a4.058 4.058 0 1 1 4.058-4.058 4.058 4.058 0 0 1-4.058 4.058z" transform="translate(-297.34 -211.769)"/>
        <path d="M76.927 228a8.927 8.927 0 1 0 8.927 8.927A8.927 8.927 0 0 0 76.927 228zm0 12.984a4.058 4.058 0 1 1 4.058-4.058 4.058 4.058 0 0 1-4.058 4.058z" transform="translate(-55.016 -211.769)"/>
        <path d="M105.928 168.7c-.258-.448-6.45-10.957-18.341-10.957-11.488 0-17.491-2.574-18.273-2.934-1.33-.869-10.667-6.8-17.435-6.8H32.4c-6.572 0-15.566 5.6-17.3 6.717l-9.439 3.146A2.435 2.435 0 0 0 4 160.173v12.984a2.435 2.435 0 0 0 1.957 2.387l9.43 1.887a11.361 11.361 0 1 1 20.357 1.407h42.01a11.361 11.361 0 1 1 19.666 0h6.4a2.435 2.435 0 0 0 2.435-2.435v-6.492a2.437 2.437 0 0 0-.325-1.216zm-54.048 3.65h-9.738a2.435 2.435 0 0 1 0-4.869h9.738a2.435 2.435 0 0 1 0 4.869zm9.738 0a2.435 2.435 0 1 1 2.435-2.435 2.435 2.435 0 0 1-2.435 2.431zm1.089-14.053a2.435 2.435 0 0 1-1.089.257H42.142a2.434 2.434 0 0 1-.77-.125c-.121-.04-9.455-3.121-15.461-3.121h-7.722c3.641-2.038 9.54-4.869 14.215-4.869H51.88c5.234 0 12.006 3.55 15.42 5.562zm8.649 14.053a2.435 2.435 0 1 1 2.435-2.435 2.435 2.435 0 0 1-2.434 2.431z" transform="translate(-4 -148)"/>
    </g>
</svg>
