<svg xmlns="http://www.w3.org/2000/svg" viewBox="0 0 319.28 232.54"><defs><style>.cls-1,.cls-2{fill:none;stroke:#272727;stroke-miterlimit:10;}.cls-1{stroke-width:0.7px;}.cls-2{stroke-width:0.5px;}.cls-3{fill:#272727;}</style></defs><title>Backend Build_ill</title><g id="Слой_2" data-name="Слой 2"><g id="Слой_1-2" data-name="Слой 1"><rect class="cls-1" x="113.73" y="0.35" width="92" height="22.83" rx="1.9" ry="1.9"/><circle class="cls-1" cx="125.12" cy="11.77" r="3.17"/><rect class="cls-1" x="113.73" y="28.35" width="92" height="22.83" rx="1.9" ry="1.9"/><circle class="cls-1" cx="125.12" cy="39.77" r="3.17"/><rect class="cls-1" x="113.73" y="56.35" width="92" height="22.83" rx="1.9" ry="1.9"/><rect class="cls-1" x="118.78" y="157.35" width="81.9" height="74.84" rx="1.9" ry="1.9"/><rect class="cls-1" x="0.35" y="157.35" width="40.95" height="74.84" rx="1.9" ry="1.9"/><circle class="cls-1" cx="125.12" cy="67.77" r="3.17"/><circle class="cls-1" cx="20.83" cy="227.1" r="1.5"/><circle class="cls-2" cx="123.88" cy="164.27" r="1.15"/><circle class="cls-2" cx="129.22" cy="164.27" r="1.15"/><circle class="cls-2" cx="134.56" cy="164.27" r="1.15"/><rect class="cls-3" x="118.78" y="170.71" width="81.9" height="0.71"/><rect class="cls-3" x="0.53" y="221.16" width="40.77" height="0.77"/><rect class="cls-1" x="277.98" y="157.11" width="40.95" height="74.84" rx="1.9" ry="1.9"/><rect class="cls-3" x="278.16" y="220.96" width="40.77" height="0.73"/><rect class="cls-2" x="293.93" y="225.58" width="9.24" height="2.56" rx="1.28" ry="1.28"/></g></g></svg>