<?xml version="1.0" encoding="UTF-8"?>
<svg width="1366px" height="700px" viewBox="0 0 1366 700" version="1.1" xmlns="http://www.w3.org/2000/svg" xmlns:xlink="http://www.w3.org/1999/xlink">
    <!-- Generator: Sketch 48.1 (47250) - http://www.bohemiancoding.com/sketch -->
    <title>backgr</title>
    <desc>Created with Sketch.</desc>
    <defs>
        <linearGradient x1="50%" y1="0%" x2="50%" y2="97.1759407%" id="linearGradient-1">
            <stop stop-color="#6128E0" offset="0%"></stop>
            <stop stop-color="#1C0F64" offset="100%"></stop>
        </linearGradient>
        <polygon id="path-2" points="6.67301593e-14 26 25 26 25 0 5.00476194e-14 0 0 26"></polygon>
        <polygon id="path-4" points="6.40609529e-14 24 24 24 24 0 4.80457147e-14 0 0 24"></polygon>
    </defs>
    <g id="b2c-changes" stroke="none" stroke-width="1" fill="none" fill-rule="evenodd">
        <g id="backgr">
            <rect id="Rectangle-10" fill="url(#linearGradient-1)" x="0" y="0" width="1366" height="700"></rect>
            <path d="M358.791432,364.207134 C357.249402,364.207134 356,365.456536 356,366.998566 C356,368.540595 357.249402,369.791432 358.791432,369.791432 L364.259539,369.791432 L360.393708,373.657263 C359.302094,374.747442 359.302094,376.516114 360.393708,377.606292 C360.938797,378.151382 361.653151,378.423927 362.367505,378.423927 C363.081859,378.423927 363.796213,378.151382 364.341302,377.606292 L368.208568,373.739026 L368.208568,379.208568 C368.208568,380.749163 369.457971,382 371,382 C372.542029,382 373.792866,380.749163 373.792866,379.208568 L373.792866,373.740461 L377.658698,377.606292 C378.203787,378.151382 378.918141,378.423927 379.632495,378.423927 C380.346849,378.423927 381.061203,378.151382 381.606292,377.606292 C382.696471,376.516114 382.696471,374.747442 381.606292,373.657263 L377.740461,369.791432 L383.208568,369.791432 C384.749163,369.791432 386,368.540595 386,366.998566 C386,365.456536 384.749163,364.207134 383.208568,364.207134 L377.740461,364.207134 L381.606292,360.341302 C382.696471,359.251124 382.696471,357.482452 381.606292,356.392273 C380.517548,355.303529 378.748876,355.302094 377.658698,356.392273 L373.792866,360.258105 L373.792866,354.791432 C373.792866,353.249402 372.542029,352 371,352 C369.457971,352 368.208568,353.249402 368.208568,354.791432 L368.208568,360.259539 L364.341302,356.392273 C363.251124,355.302094 361.483886,355.302094 360.393708,356.392273 C359.302094,357.482452 359.302094,359.251124 360.393708,360.341302 L364.259539,364.207134 L358.791432,364.207134" id="Fill-1-Copy-2" fill="#FFFFFF" opacity="0.189999998" style="mix-blend-mode: lighten;"></path>
            <path d="M871.791432,60.207134 C870.249402,60.207134 869,61.4565363 869,62.9985656 C869,64.5405948 870.249402,65.7914316 871.791432,65.7914316 L877.259539,65.7914316 L873.393708,69.6572631 C872.302094,70.7474419 872.302094,72.5161136 873.393708,73.6062924 C873.938797,74.1513818 874.653151,74.4239266 875.367505,74.4239266 C876.081859,74.4239266 876.796213,74.1513818 877.341302,73.6062924 L881.208568,69.7390265 L881.208568,75.2085684 C881.208568,76.7491632 882.457971,78 884,78 C885.542029,78 886.792866,76.7491632 886.792866,75.2085684 L886.792866,69.7404609 L890.658698,73.6062924 C891.203787,74.1513818 891.918141,74.4239266 892.632495,74.4239266 C893.346849,74.4239266 894.061203,74.1513818 894.606292,73.6062924 C895.696471,72.5161136 895.696471,70.7474419 894.606292,69.6572631 L890.740461,65.7914316 L896.208568,65.7914316 C897.749163,65.7914316 899,64.5405948 899,62.9985656 C899,61.4565363 897.749163,60.207134 896.208568,60.207134 L890.740461,60.207134 L894.606292,56.3413025 C895.696471,55.2511236 895.696471,53.4824519 894.606292,52.3922731 C893.517548,51.3035287 891.748876,51.3020943 890.658698,52.3922731 L886.792866,56.2581046 L886.792866,50.7914316 C886.792866,49.2494023 885.542029,48 884,48 C882.457971,48 881.208568,49.2494023 881.208568,50.7914316 L881.208568,56.2595391 L877.341302,52.3922731 C876.251124,51.3020943 874.483886,51.3020943 873.393708,52.3922731 C872.302094,53.4824519 872.302094,55.2511236 873.393708,56.3413025 L877.259539,60.207134 L871.791432,60.207134" id="Fill-1-Copy-4" fill="#FFFFFF" opacity="0.189999998" style="mix-blend-mode: lighten;"></path>
            <path d="M220.791432,96.207134 C219.249402,96.207134 218,97.4565363 218,98.9985656 C218,100.540595 219.249402,101.791432 220.791432,101.791432 L226.259539,101.791432 L222.393708,105.657263 C221.302094,106.747442 221.302094,108.516114 222.393708,109.606292 C222.938797,110.151382 223.653151,110.423927 224.367505,110.423927 C225.081859,110.423927 225.796213,110.151382 226.341302,109.606292 L230.208568,105.739026 L230.208568,111.208568 C230.208568,112.749163 231.457971,114 233,114 C234.542029,114 235.792866,112.749163 235.792866,111.208568 L235.792866,105.740461 L239.658698,109.606292 C240.203787,110.151382 240.918141,110.423927 241.632495,110.423927 C242.346849,110.423927 243.061203,110.151382 243.606292,109.606292 C244.696471,108.516114 244.696471,106.747442 243.606292,105.657263 L239.740461,101.791432 L245.208568,101.791432 C246.749163,101.791432 248,100.540595 248,98.9985656 C248,97.4565363 246.749163,96.207134 245.208568,96.207134 L239.740461,96.207134 L243.606292,92.3413025 C244.696471,91.2511236 244.696471,89.4824519 243.606292,88.3922731 C242.517548,87.3035287 240.748876,87.3020943 239.658698,88.3922731 L235.792866,92.2581046 L235.792866,86.7914316 C235.792866,85.2494023 234.542029,84 233,84 C231.457971,84 230.208568,85.2494023 230.208568,86.7914316 L230.208568,92.2595391 L226.341302,88.3922731 C225.251124,87.3020943 223.483886,87.3020943 222.393708,88.3922731 C221.302094,89.4824519 221.302094,91.2511236 222.393708,92.3413025 L226.259539,96.207134 L220.791432,96.207134" id="Fill-1-Copy-3" fill="#FFFFFF" opacity="0.189999998" style="mix-blend-mode: lighten;"></path>
            <path d="M29.5122105,424.424646 L27.403596,422.384733 L29.4423116,420.277251 C31.31793,418.338693 31.2655059,415.247952 29.3281436,413.373469 C27.3896162,411.498986 24.2989233,411.549081 22.4244699,413.487639 L20.3845892,415.596286 L18.2771397,413.556373 C16.3386124,411.681891 13.2479195,411.733151 11.3734661,413.671708 C9.49784765,415.610266 9.55027177,418.701008 11.4876341,420.57549 L13.5962486,422.615403 L11.557533,424.722886 C9.68191455,426.661443 9.73433867,429.752185 11.671701,431.626668 C13.6102284,433.501151 16.7009213,433.451056 18.5753747,431.511333 L20.6152554,429.40385 L22.7238698,431.443763 C24.6612322,433.317081 27.7519251,433.266986 29.6275435,431.328428 C31.5019969,429.38987 31.4495728,426.299129 29.5122105,424.424646" id="Fill-3" fill="#FFFFFF" opacity="0.189999998"></path>
            <path d="M684.51221,243.424646 L682.403596,241.384733 L684.442312,239.277251 C686.31793,237.338693 686.265506,234.247952 684.328144,232.373469 C682.389616,230.498986 679.298923,230.549081 677.42447,232.487639 L675.384589,234.596286 L673.27714,232.556373 C671.338612,230.681891 668.247919,230.733151 666.373466,232.671708 C664.497848,234.610266 664.550272,237.701008 666.487634,239.57549 L668.596249,241.615403 L666.557533,243.722886 C664.681915,245.661443 664.734339,248.752185 666.671701,250.626668 C668.610228,252.501151 671.700921,252.451056 673.575375,250.511333 L675.615255,248.40385 L677.72387,250.443763 C679.661232,252.317081 682.751925,252.266986 684.627544,250.328428 C686.501997,248.38987 686.449573,245.299129 684.51221,243.424646" id="Fill-3-Copy-4" fill="#FFFFFF" opacity="0.189999998"></path>
            <path d="M1353.80374,241.341144 L1350.69102,238.329844 L1353.70056,235.218799 C1356.46933,232.357118 1356.39194,227.794595 1353.53202,225.027501 C1350.67039,222.260408 1346.10793,222.334357 1343.34088,225.196038 L1340.32963,228.308803 L1337.21863,225.297504 C1334.357,222.53041 1329.79455,222.606079 1327.0275,225.46776 C1324.25873,228.32944 1324.33612,232.891964 1327.19603,235.659057 L1330.30875,238.670357 L1327.29922,241.781403 C1324.53045,244.643083 1324.60783,249.205606 1327.46775,251.9727 C1330.32938,254.739794 1334.89184,254.665844 1337.65889,251.802444 L1340.67014,248.691398 L1343.78286,251.702698 C1346.64277,254.468072 1351.20522,254.394122 1353.97399,251.532441 C1356.74104,248.670761 1356.66366,244.108238 1353.80374,241.341144" id="Fill-3-Copy-5" fill="#FFFFFF" opacity="0.189999998"></path>
            <path d="M138.803739,538.341144 L135.691023,535.329844 L138.700555,532.218799 C141.469325,529.357118 141.391937,524.794595 138.532021,522.027501 C135.670386,519.260408 131.107934,519.334357 128.340884,522.196038 L125.329632,525.308803 L122.218635,522.297504 C119.356999,519.53041 114.794548,519.606079 112.027498,522.46776 C109.258727,525.32944 109.336115,529.891964 112.196031,532.659057 L115.308748,535.670357 L112.299215,538.781403 C109.530445,541.643083 109.607833,546.205606 112.467749,548.9727 C115.329385,551.739794 119.891836,551.665844 122.658886,548.802444 L125.670139,545.691398 L128.782855,548.702698 C131.642771,551.468072 136.205223,551.394122 138.973993,548.532441 C141.741043,545.670761 141.663655,541.108238 138.803739,538.341144" id="Fill-3-Copy-3" fill="#FFFFFF" opacity="0.189999998"></path>
            <path d="M1002,440.498709 C1002,441.886535 1003.12446,443.012288 1004.51229,443.012288 L1009.43359,443.012288 L1005.95434,446.491537 C1004.97188,447.472698 1004.97188,449.064502 1005.95434,450.045663 C1006.44492,450.536244 1007.08784,450.781534 1007.73075,450.781534 C1008.37367,450.781534 1009.01659,450.536244 1009.50717,450.045663 L1012.98771,446.565124 L1012.98771,451.487712 C1012.98771,452.874247 1014.11217,454 1015.5,454 C1016.88783,454 1018.01358,452.874247 1018.01358,451.487712 L1018.01358,446.566415 L1021.49283,450.045663 C1021.98341,450.536244 1022.62633,450.781534 1023.26925,450.781534 C1023.91216,450.781534 1024.55508,450.536244 1025.04566,450.045663 C1026.02682,449.064502 1026.02682,447.472698 1025.04566,446.491537 L1021.56641,443.012288 L1026.48771,443.012288 C1027.87425,443.012288 1029,441.886535 1029,440.498709 C1029,439.110883 1027.87425,437.986421 1026.48771,437.986421 L1021.56641,437.986421 L1025.04566,434.507172 C1026.02682,433.526011 1026.02682,431.934207 1025.04566,430.953046 C1024.06579,429.973176 1022.47399,429.971885 1021.49283,430.953046 L1018.01358,434.432294 L1018.01358,429.512288 C1018.01358,428.124462 1016.88783,427 1015.5,427 C1014.11217,427 1012.98771,428.124462 1012.98771,429.512288 L1012.98771,434.433585 L1009.50717,430.953046 C1008.52601,429.971885 1006.9355,429.971885 1005.95434,430.953046 C1004.97188,431.934207 1004.97188,433.526011 1005.95434,434.507172 L1009.43359,437.986421 L1004.51229,437.986421 C1003.12446,437.986421 1002,439.110883 1002,440.498709 Z" id="Fill-1-Copy" fill="#FFFFFF" opacity="0.189999998" style="mix-blend-mode: lighten;"></path>
            <g id="Group-8-Copy-2" opacity="0.189999998" transform="translate(1298.000000, 449.000000)">
                <mask id="mask-3" fill="white">
                    <use xlink:href="#path-2"></use>
                </mask>
                <g id="Clip-7"></g>
                <path d="M12.5,5 C8.36414608,5 5,8.58842249 5,13 C5,17.4115775 8.36414608,21 12.5,21 C16.6358539,21 20,17.4115775 20,13 C20,8.58842249 16.6358539,5 12.5,5 M12.5,26 C5.60786063,26 0,20.1680988 0,12.9993896 C0,5.83190121 5.60786063,0 12.5,0 C19.3921394,0 25,5.83190121 25,12.9993896 C25,20.1680988 19.3921394,26 12.5,26" id="Fill-6" fill="#FFFFFF" mask="url(#mask-3)"></path>
            </g>
            <path d="M524,7.15384615 C518.706107,7.15384615 514.4,11.5703661 514.4,17 C514.4,22.4296339 518.706107,26.8461538 524,26.8461538 C529.293893,26.8461538 533.6,22.4296339 533.6,17 C533.6,11.5703661 529.293893,7.15384615 524,7.15384615 M524,33 C515.178062,33 508,25.8222754 508,16.9992487 C508,8.17772456 515.178062,1 524,1 C532.821938,1 540,8.17772456 540,16.9992487 C540,25.8222754 532.821938,33 524,33" id="Fill-6-Copy-2" fill="#FFFFFF" opacity="0.19"></path>
            <path d="M862,274.153846 C856.706107,274.153846 852.4,278.570366 852.4,284 C852.4,289.429634 856.706107,293.846154 862,293.846154 C867.293893,293.846154 871.6,289.429634 871.6,284 C871.6,278.570366 867.293893,274.153846 862,274.153846 M862,300 C853.178062,300 846,292.822275 846,283.999249 C846,275.177725 853.178062,268 862,268 C870.821938,268 878,275.177725 878,283.999249 C878,292.822275 870.821938,300 862,300" id="Fill-6-Copy-3" fill="#FFFFFF" opacity="0.19"></path>
            <g id="Group-8-Copy" opacity="0.189999998" transform="translate(43.000000, 153.000000)">
                <mask id="mask-5" fill="white">
                    <use xlink:href="#path-4"></use>
                </mask>
                <g id="Clip-7"></g>
                <path d="M12,5 C8.13986968,5 5,8.13986968 5,12 C5,15.8601303 8.13986968,19 12,19 C15.8601303,19 19,15.8601303 19,12 C19,8.13986968 15.8601303,5 12,5 M12,24 C5.38354621,24 0,18.6167066 0,11.9994365 C0,5.38329342 5.38354621,0 12,0 C18.6164538,0 24,5.38329342 24,11.9994365 C24,18.6167066 18.6164538,24 12,24" id="Fill-6" fill="#FFFFFF" mask="url(#mask-5)"></path>
            </g>
        </g>
    </g>
</svg>