<svg version="1.1" id="Слой_1" xmlns="http://www.w3.org/2000/svg" xmlns:xlink="http://www.w3.org/1999/xlink" x="0" y="0" viewBox="0 0 415 381" width="415" height="381" xml:space="preserve"><style type="text/css">.st0{fill:#28ce7c}.st1{fill:#fff}.st2,.st3{fill:none;stroke:#3cce7c;stroke-width:1.5;stroke-miterlimit:10}.st3{stroke:#fff}.st4{fill:#93e6bd}.st5{fill:#94d752}.st6{fill:#272727}.st10,.st11,.st7,.st8,.st9{fill:none;stroke-width:2;stroke-miterlimit:10}.st7{stroke-linecap:round;stroke:#fff}.st10,.st11,.st8,.st9{stroke:#3cce7c}.st10,.st11,.st9{stroke:#fff}.st10,.st11{stroke:#8d8d8d}.st11{stroke:#d9d9d9}.st12{fill:#3d5a98}.st13{fill:#1da1f2}.st14{fill:none}.st15{fill:#0065a1}.st16{fill:#495367}.st17,.st18{fill:none;stroke:#28ce7c;stroke-miterlimit:10}.st17{stroke-linecap:round;stroke-width:2}.st18{stroke-width:3}.st19{fill:#f26798}.st20{fill:#f1f2f2}.st21{fill:#d6417d}.st22{fill:none;stroke:#cacaca;stroke-miterlimit:10}.st23{fill:url(#SVGID_1_)}.st24{fill:url(#SVGID_3_)}.st25{clip-path:url(#SVGID_5_);fill:url(#SVGID_6_)}.st26{opacity:.35}.st27{opacity:.75}.st28{fill:#556178}.st29{fill:#17313b}.st30{fill:#ff3d2e}.st31{fill:none;stroke:#d9d9d9;stroke-linecap:round;stroke-linejoin:round;stroke-miterlimit:10}</style><path class="st0" d="M26.4 24.8l3.6 5.9c.7 1.2 2 1.9 3.3 1.9h5.3l-8.5-13.9 8.7-13.9h-5.4c-1.3 0-2.6.7-3.3 1.8l-3.7 6-.5-.9c-1.3-2.1-3.1-3.9-5.2-5.1-7-3.9-15.9-1.2-19.4 6.2-2.7 5.6-1.2 12.5 3.6 16.5 5 4.2 12.1 4.4 17.2.7L20 26.6c-.7-1.1-2-1.6-3.1-1.1-3.1 1.3-6.7.4-8.8-2.4-2.2-2.9-1.7-7.5 1-9.9 3.2-2.8 8-2.4 10.7.8.2.3.4.5.6.8l2.4 3.9 3.6 6.1z"/><path class="st1" d="M64.2 11.3v15.3h-3.5V25c-.6.7-2 2.1-4.6 2.1-4.7 0-7.4-4-7.4-8.1s2.6-8 7.4-8c1.1 0 3.1.2 4.6 2.2v-1.8l3.5-.1zM52.3 19c0 2.6 1.6 4.9 4.3 4.9s4.3-2.1 4.3-4.9c0-3.3-2.1-4.9-4.3-4.9-2.6 0-4.3 2.2-4.3 4.9zM72.1 13c1.5-1.7 3.4-2.1 4.6-2.1 4 0 7.4 3.1 7.4 8 0 5-3.8 8.1-7.4 8.1-.8 0-3.1-.3-4.7-2.2v9h-3.5V11.3H72l.1 1.7zm-.2 6c0 2.6 1.5 4.9 4.3 4.9 2.7 0 4.2-2.2 4.2-4.9 0-3.2-2.1-4.9-4.2-4.9-2.2 0-4.3 1.7-4.3 4.9zM91.3 13c1.5-1.7 3.4-2.1 4.6-2.1 4 0 7.4 3.1 7.4 8 0 5-3.8 8.1-7.4 8.1-.8 0-3.1-.3-4.7-2.2v9h-3.5V11.3h3.5l.1 1.7zm-.2 6c0 2.6 1.5 4.9 4.3 4.9 2.7 0 4.2-2.2 4.2-4.9 0-3.2-2.1-4.9-4.2-4.9-2.2 0-4.3 1.7-4.3 4.9zM110.5 1.2v25.4H107V1.2h3.5zM116.7 2.7c1.2 0 2.3 1 2.3 2.3 0 1.2-1 2.3-2.3 2.3-1.2 0-2.3-1-2.3-2.3 0-1.2 1-2.3 2.3-2.3zm1.8 8.6v15.3H115V11.3h3.5zM126.4 1.2v15.4l5-5.2h4.6l-6.5 6.4 7 8.9H132l-5.7-7.3v7.3h-3.5V1.2h3.6zM152 22.6c-.5.9-1.2 1.9-2 2.6-1.9 1.7-4.3 1.9-5.3 1.9-3.5 0-7.4-2.5-7.4-8 0-4.9 2.9-8.1 7.4-8.1 2.7 0 4.7 1.2 5.8 2.8.9 1.4 1.4 3.5 1.4 5.6v.6H141c.1 2.8 2.2 4.1 4.1 4.1 1 0 1.8-.3 2.4-.8.1-.1 1-.8 1.6-2.1l2.9 1.4zm-3.7-5.7c-.4-1.8-1.8-2.8-3.5-2.8s-3.1 1.1-3.6 2.8h7.1zM159.7 23.7l-6.8-12.4h4.3l4.5 8.6 4.3-8.6h4l-11.6 22.5h-4l5.3-10.1z"/><path class="st2" d="M190 48.2c-5.3 0-10.1 2.6-13 6.5 3 4 7.7 6.5 13 6.5s10.1-2.6 13-6.5c-2.9-3.9-7.7-6.5-13-6.5z"/><path class="st2" d="M193.8 48.6c.9.9 1.4 2.2 1.4 3.6 0 2.9-2.3 5.2-5.2 5.2s-5.2-2.3-5.2-5.2c0-1.4.5-2.6 1.4-3.6M179.9 51.3l-3.1-3.1M200.1 51.3l3.1-3.1M190.7 43.7v4.5M217 54.8c3 4 7.7 6.5 13 6.5s10.1-2.6 13-6.5M240.1 58.3l3.1 3M219.9 58.3l-3.1 3M229.3 65.9v-4.6M345.2 9c-4.8 0-9.3 1.6-12.9 4.4-.4.3-.6.8-.6 1.3v5.6c0 .5.2 1 .6 1.3 3.6 2.8 8 4.4 12.9 4.4 6.9 0 13.1-3.3 16.9-8.5-3.9-5.2-10-8.5-16.9-8.5z"/><path class="st2" d="M353.3 24.4c-1.5-1.9-2.5-4.3-2.5-6.9s.9-5 2.5-6.9"/><circle class="st2" cx="343.3" cy="17.4" r="3.9"/><path class="st2" d="M338.3 10.5c0-4.4-5-6.8-8.5-4.2l-6.1 4s6.4-.4 10.2 2.2M338.3 24.5c0 4.4-5 6.8-8.5 4.2l-6.1-4s6.4.4 10.2-2.2M296.9 17.5l27.9-3.4c2-.2 3.8 1.3 3.8 3.4 0 2-1.8 3.6-3.8 3.4l-27.9-3.4z"/><path class="st3" d="M345.2 44c-4.8 0-9.3 1.6-12.9 4.4-.4.3-.6.8-.6 1.3v5.6c0 .5.2 1 .6 1.3 3.6 2.8 8 4.4 12.9 4.4 6.9 0 13.1-3.3 16.9-8.5-3.9-5.2-10-8.5-16.9-8.5z"/><path class="st3" d="M353.3 59.4c-1.5-1.9-2.5-4.3-2.5-6.9 0-2.6.9-5 2.5-6.9"/><circle class="st3" cx="343.3" cy="52.4" r="3.9"/><path class="st3" d="M338.3 45.5c0-4.4-5-6.8-8.5-4.2l-6.1 4s6.4-.4 10.2 2.2M338.3 59.5c0 4.4-5 6.8-8.5 4.2l-6.1-4s6.4.4 10.2-2.2M296.9 52.5l27.9-3.4c2-.2 3.8 1.3 3.8 3.4 0 2-1.8 3.6-3.8 3.4l-27.9-3.4z"/><path class="st4" d="M213.6 10.3c-1.9 0-3.7.3-5.4.9-.8-3.2-4.8-4.8-7.6-2.6l-5.6 3.7s3.6-.2 6.8.8c.8.3 1.3 1.2.9 2-.3.7-.5 1.5-.5 2.4 0 .8.2 1.6.5 2.4s-.1 1.7-.9 2c-3.2 1-6.8.8-6.8.8l5.6 3.7c2.8 2.2 6.8.6 7.6-2.6 1.7.5 3.5.9 5.4.9 5.8 0 11-2.8 14.3-7.2-3.3-4.4-8.4-7.2-14.3-7.2zm2.6 10.7c-1.9 0-3.5-1.5-3.5-3.5 0-1.9 1.5-3.5 3.5-3.5s3.5 1.5 3.5 3.5c0 1.9-1.6 3.5-3.5 3.5z"/><path class="st4" d="M172.1 17.5l24.7-2.6c1.8-.2 3.4 1 3.4 2.6s-1.6 2.8-3.4 2.6l-24.7-2.6z"/><circle class="st4" cx="272.4" cy="17.5" r="3.5"/><path class="st4" d="M245.3 12.8c0-.3.2-.5.5-.5 4.3-.2 9.1-.6 13.7-1 4.9-.4 9.6-.8 12.7-.8 1.4 0 2.8.3 4 1 2.3 1.2 3.6 3.4 3.6 6 0 2.5-1.3 4.8-3.6 6-1.2.7-2.6 1-4 1-2.9 0-6.9-.4-11.6-.8-4.7-.4-9.9-.9-14.7-1-.3 0-.5-.3-.5-.5 0-.3.2-.5.5-.5 4.8.1 10.1.6 14.8 1 4.5.4 8.7.8 11.5.8 1.2 0 2.4-.3 3.5-.9 1.9-1 3.1-2.9 3.1-5.1s-1.1-4.1-3.1-5.1c-1.1-.6-2.3-.9-3.5-.9-3 0-7.7.4-12.6.8-4.7.4-9.5.8-13.8 1-.3 0-.5-.2-.5-.5z"/><path class="st4" d="M240.2 16.1c0-.3.2-.5.5-.5l17.1-.9c.3 0 .5.2.5.5s-.2.5-.5.5l-17.1.9c-.2 0-.5-.2-.5-.5zM240.2 18.9c0-.3.2-.5.5-.5l17.1.9c.3 0 .5.2.5.5s-.2.5-.5.5l-17.1-.9c-.3 0-.5-.2-.5-.5z"/><path class="st5" d="M390 0c-13.8 0-25 11.2-25 25s11.2 25 25 25 25-11.2 25-25-11.2-25-25-25zm18.6 28.9c-.3.6-.7 1.1-1.1 1.6s-.9.9-1.4 1.3c-.5.4-1.1.7-1.7 1-.7.3-1.3.5-2 .6-.2 0-.5.1-.7.1h-.8c-1.1 0-2.1-.2-3.1-.6-.7-.3-1.4-.6-2-1 0 0-.1 0-.1-.1-.1 0-.1 0-.1.1 0 .2-.1.3-.1.5-.4 1.6-.7 3.2-1 4.7-.2 1.1-.4 2.1-.7 3.1h-4.5c0-.2.1-.4.1-.6.2-.7.3-1.5.5-2.2.2-1.1.5-2.2.7-3.2.2-.8.3-1.6.5-2.4.2-1.1.4-2.2.7-3.3.1-.2 0-.4-.1-.6-.7-.8-1.2-1.7-1.8-2.7-.2-.4-.5-.9-.8-1.3 0-.1-.1-.1-.1-.2V24.5c0 .7-.1 1.4-.2 2.2-.3 1.3-.8 2.5-1.7 3.6-.7.8-1.5 1.5-2.5 2.1-.9.5-1.9.8-3 1-.5.1-1 .1-1.5.1-1 0-1.9-.3-2.8-.7-.8-.3-1.4-.8-2.1-1.3-.8-.7-1.5-1.6-2-2.6-.4-.8-.7-1.7-.9-2.6v-.9V14h4.4V24.9c0 .9.3 1.8.8 2.5s1.2 1.1 2 1.3c.4.1.7.2 1.1.2.8 0 1.6-.2 2.3-.8.3-.3.7-.6.9-.9.3-.4.5-.9.5-1.4 0-.2.1-.5.1-.7v-.9-10.1h4.5c.1.5.3 1 .4 1.5.2.7.5 1.3.8 2 .2.5.4 1 .7 1.5.4.8.8 1.5 1.2 2.3.2.5.5.9.8 1.4 0 .1.1.1.1.1 0 .1.1 0 .1 0 0-.1 0-.2.1-.2.4-1.1.9-2.2 1.6-3.1.3-.4.7-.7 1-1.1.4-.4.9-.7 1.4-1 .9-.5 1.9-.9 3-1.1.3 0 .6-.1.9-.1.9 0 1.7.1 2.5.3.8.2 1.6.6 2.3 1 .7.4 1.2.9 1.8 1.5.5.5.9 1.2 1.3 1.8.4.7.7 1.5.8 2.3.1.3.1.6.1.9v1c0 .8-.1 1.5-.4 2.2-.3.5-.5 1.1-.8 1.6z"/><path class="st5" d="M396.4 27.1s.2-7 5.2-6.5 4.6 7.5.7 8.2-5.9-1.7-5.9-1.7z"/><path class="st0" d="M26.4 59.8l3.6 5.9c.7 1.2 2 1.9 3.3 1.9h5.3l-8.5-13.9 8.7-13.9h-5.4c-1.3 0-2.6.7-3.3 1.8l-3.7 6-.5-.9c-1.3-2.1-3.1-3.9-5.2-5.1-7-3.9-15.9-1.2-19.4 6.2-2.7 5.6-1.2 12.5 3.6 16.5 5 4.2 12.1 4.4 17.2.7L20 61.6c-.7-1.1-2-1.6-3.1-1.1-3.1 1.3-6.7.4-8.8-2.4-2.2-2.9-1.7-7.5 1-9.9 3.2-2.8 8-2.4 10.7.8.2.3.4.5.6.8l2.4 3.9 3.6 6.1z"/><path class="st6" d="M64.2 46.3v15.3h-3.5V60c-.6.7-2 2.1-4.6 2.1-4.7 0-7.4-4-7.4-8.1s2.6-8 7.4-8c1.1 0 3.1.2 4.6 2.2v-1.8h3.5v-.1zM52.3 54c0 2.6 1.6 4.9 4.3 4.9s4.3-2.1 4.3-4.9c0-3.3-2.1-4.9-4.3-4.9-2.6 0-4.3 2.2-4.3 4.9zM72.1 48c1.5-1.7 3.4-2.1 4.6-2.1 4 0 7.4 3.1 7.4 8 0 5-3.8 8.1-7.4 8.1-.8 0-3.1-.3-4.7-2.2v9h-3.5V46.3H72l.1 1.7zm-.2 6c0 2.6 1.5 4.9 4.3 4.9 2.7 0 4.2-2.2 4.2-4.9 0-3.2-2.1-4.9-4.2-4.9-2.2 0-4.3 1.7-4.3 4.9zM91.3 48c1.5-1.7 3.4-2.1 4.6-2.1 4 0 7.4 3.1 7.4 8 0 5-3.8 8.1-7.4 8.1-.8 0-3.1-.3-4.7-2.2v9h-3.5V46.3h3.5l.1 1.7zm-.2 6c0 2.6 1.5 4.9 4.3 4.9 2.7 0 4.2-2.2 4.2-4.9 0-3.2-2.1-4.9-4.2-4.9-2.2 0-4.3 1.7-4.3 4.9zM110.5 36.2v25.4H107V36.2h3.5zM116.7 37.7c1.2 0 2.3 1 2.3 2.3 0 1.2-1 2.3-2.3 2.3-1.2 0-2.3-1-2.3-2.3 0-1.2 1-2.3 2.3-2.3zm1.8 8.6v15.3H115V46.3h3.5zM126.4 36.2v15.4l5-5.2h4.6l-6.5 6.4 7 8.9H132l-5.7-7.3v7.3h-3.5V36.2h3.6zM152 57.6c-.5.9-1.2 1.9-2 2.6-1.9 1.7-4.3 1.9-5.3 1.9-3.5 0-7.4-2.5-7.4-8 0-4.9 2.9-8.1 7.4-8.1 2.7 0 4.7 1.2 5.8 2.8.9 1.4 1.4 3.5 1.4 5.6v.6H141c.1 2.8 2.2 4.1 4.1 4.1 1 0 1.8-.3 2.4-.8.1-.1 1-.8 1.6-2.1l2.9 1.4zm-3.7-5.7c-.4-1.8-1.8-2.8-3.5-2.8s-3.1 1.1-3.6 2.8h7.1zM159.7 58.7l-6.8-12.4h4.3l4.5 8.6 4.3-8.6h4l-11.6 22.5h-4l5.3-10.1z"/><path class="st1" d="M182.3 131.5c0 .4.3.8.8.8s.8-.3.8-.8c0-8.6-4.4-15.7-10.2-16.5l-1.1-.2-1.1.2c-5.8.9-10.2 8-10.2 16.5 0 .4.3.8.8.8s.8-.3.8-.8c0-5.1 1.7-9.8 4.4-12.6l.4-.4v15.9c0 5.6-1.7 10.9-4.8 14.8-.3.3-.2.8.1 1.1s.8.2 1.1-.1c3.2-4 5-9.3 5.1-15v-.2h6.9v.3c-.1 5.3-1.9 10.3-4.8 14.1-.3.3-.2.8.1 1.1s.8.2 1.1-.1c3.3-4.2 5.2-9.8 5.2-15.7V118.9l.4.4c2.6 2.4 4.2 7.1 4.2 12.2zm-6.4 1.8H169v-15.9l.1-.1c2.2-1.2 4.5-1.2 6.6 0l.1.1.1 15.9zM172.5 104.7c-2.7 0-5 2.2-5 5 0 2.3 1.6 4.3 3.8 4.8l1.1.3 1.1-.3c2.3-.5 3.8-2.5 3.8-4.8.2-2.8-2.1-5-4.8-5zm0 8.4c-1.9 0-3.4-1.5-3.4-3.4s1.5-3.4 3.4-3.4 3.4 1.5 3.4 3.4-1.5 3.4-3.4 3.4zM99 166.1l-35.1-54 .3-.1c1.9-.5 3.8-1.2 5.5-2l.2-.1 2.9 2.9c.3.3.8.3 1.1 0 .3-.3.3-.8 0-1.1l-2.5-2.5.3-.2c1.9-1.2 3.6-2.5 5-4 .3-.3.3-.7 0-1-2.6-2.8-6.1-5-10-6.4l-.2-.1v-.8c0-4.9-4-8.9-8.9-8.9s-8.9 4-8.9 8.9v.8l-.2.1c-3.9 1.4-7.4 3.6-10 6.4-.3.3-.3.7 0 1 1.4 1.5 3.1 2.8 5 4l.3.2-2.5 2.5c-.3.3-.3.8 0 1.1.3.3.8.3 1.1 0l2.9-2.9.2.1c1.7.9 3.6 1.5 5.5 2l.3.1-.2.3L16 166.1c-.2.4-.1.8.2 1 .3.2.8.1 1-.2l35.4-54.5h.2c3.3.6 6 .6 9.3 0h.2l.1.1 35.3 54.4c.2.3.7.4 1 .2.4-.2.5-.6.3-1zM50.1 96.6c0-4.1 3.3-7.4 7.4-7.4s7.4 3.3 7.4 7.4v.4h-.3c-4.7-1.2-9.4-1.2-14.2 0h-.3v-.4zm7.4 14.7c-6.6 0-12.9-2.4-17.3-6.7l-.2-.2.2-.2c4.4-4.3 10.7-6.7 17.3-6.7s12.9 2.4 17.3 6.7l.2.2-.2.2c-4.4 4.3-10.7 6.7-17.3 6.7z"/><path class="st7" d="M234.7 77.6L250 92.9l15.3-15.3"/><path class="st8" d="M285.1 75.2v19.7M295.1 85.3l-10 10-10-10"/><g><path class="st9" d="M27.2 200H3.1M14.7 211.9L2.8 200l11.9-11.9"/></g><g><path class="st9" d="M32.8 200h24.1M45.3 188.1L57.2 200l-11.9 11.9"/></g><g><path class="st10" d="M87.2 200H63.1M74.7 211.9L62.8 200l11.9-11.9"/></g><g><path class="st10" d="M92.8 200h24.1M105.3 188.1l11.9 11.9-11.9 11.9"/></g><g><circle class="st11" cx="128.1" cy="200" r="2.8"/><circle class="st11" cx="141.9" cy="191.9" r="2.8"/><circle class="st11" cx="141.9" cy="208.1" r="2.8"/><path class="st11" d="M139.5 193.3l-9 5.4M130.5 201.3l9 5.4"/></g><path class="st12" d="M20.1 218.1c-9.7 0-17.5 7.8-17.5 17.5s7.8 17.5 17.5 17.5h.2v-12.3h-4.1V236h4.1v-3.5c0-4.1 2.5-6.3 6.2-6.3 1.7 0 3.3.1 3.7.2v4.3h-2.5c-2 0-2.4.9-2.4 2.3v3.1H30l-.6 4.8h-4.1v11.5c7.1-2.2 12.3-8.9 12.3-16.7 0-9.8-7.9-17.6-17.5-17.6z"/><path class="st13" d="M60 218.1c-9.7 0-17.5 7.8-17.5 17.5s7.8 17.5 17.5 17.5 17.5-7.8 17.5-17.5-7.8-17.5-17.5-17.5zm9.6 13.7v.6c0 5.9-4.5 12.8-12.8 12.8-2.4 0-4.8-.7-6.9-2 .4 0 .7.1 1.1.1 2 0 4-.7 5.6-1.9-1.9 0-3.6-1.3-4.2-3.1.7.1 1.4.1 2-.1-2.1-.4-3.6-2.3-3.6-4.4v-.1c.6.3 1.3.5 2 .6-2-1.3-2.6-3.9-1.4-6 2.3 2.8 5.6 4.5 9.2 4.7-.4-1.6.1-3.2 1.3-4.3 1.8-1.7 4.7-1.6 6.3.2 1-.2 2-.6 2.8-1.1-.3 1-1 1.9-2 2.5.9-.1 1.8-.3 2.6-.7-.3.8-1.1 1.6-2 2.2z"/><path class="st14" d="M60 218.1c9.7 0 17.5 7.8 17.5 17.5s-7.8 17.5-17.5 17.5-17.5-7.8-17.5-17.5 7.8-17.5 17.5-17.5z"/><path class="st15" d="M100 218.1c-9.7 0-17.5 7.8-17.5 17.5s7.8 17.5 17.5 17.5 17.5-7.8 17.5-17.5-7.8-17.5-17.5-17.5zm-5 25.7h-3.9v-12.6H95v12.6zm-1.9-14.3c-1.3 0-2.3-1-2.3-2.3 0-1.2 1-2.3 2.3-2.3 1.2 0 2.3 1 2.3 2.3-.1 1.3-1.1 2.3-2.3 2.3zm16.6 14.3h-3.9v-6.1c0-1.5 0-3.3-2-3.3s-2.3 1.6-2.3 3.2v6.2h-3.9v-12.6h3.7v1.7h.1c.5-1 1.8-2 3.7-2 4 0 4.7 2.6 4.7 6l-.1 6.9z"/><path class="st16" d="M175.3 199h-16.8l8.8-8.8-1.4-1.4-11.2 11.2 11.2 11.2 1.4-1.4-8.8-8.8h16.8z"/><path class="st0" d="M262.7 119.1l-12-12-.7-.7-.7.7-12 12c-.4.4-.4 1 0 1.4s1 .4 1.4 0l10.3-10.3v23c0 .6.5 1 1 1s1-.5 1-1v-23l10.3 10.3c.2.2.5.3.7.3s.5-.1.7-.3c.4-.4.4-1 0-1.4z"/><path class="st1" d="M302.8 119.1l-12-12-.7-.7-.7.7-12 12c-.4.4-.4 1 0 1.4s1 .4 1.4 0l10.3-10.3v23c0 .6.5 1 1 1s1-.5 1-1v-23l10.3 10.3c.2.2.5.3.7.3s.5-.1.7-.3c.4-.4.4-1 0-1.4z"/><path class="st17" d="M211.5 191.7l4.7 4.5 7.3-7.4"/><path class="st1" d="M5.7 307.3l-5.4-5.2c-.4-.3-.4-.9 0-1.2.4-.4.9-.4 1.2 0l4.2 4 6.8-6.9c.3-.3.9-.3 1.2 0 .3.4.4.9 0 1.2l-8 8.1zM28 304.5l-3.9-3.7c-.2-.2-.2-.5 0-.6.2-.2.5-.2.6 0l3.2 3.1 5.2-5.3c.2-.2.5-.2.6 0 .2.2.2.5 0 .6l-5.7 5.9z"/><path class="st17" d="M184.3 195.8l10.7 8.4 10.7-8.4"/><g><path class="st18" d="M330 103.2v24.1M341.9 115.7L330 127.6l-11.9-11.9M311.5 137.3h37"/></g><g><circle class="st19" cx="139.7" cy="235.6" r="17.5"/><path class="st20" d="M139.7 224.5c-6.1 0-11.1 5-11.1 11.1s5 11.1 11.1 11.1 11.1-5 11.1-11.1-5-11.1-11.1-11.1zm7.3 5.2c1.3 1.6 2 3.6 2.1 5.7-.4-.1-2.2-.4-4.3-.4-.7 0-1.4 0-2.1.1-.1-.1-.1-.3-.2-.4-.2-.4-.4-.9-.6-1.3 3.2-1.4 4.8-3.2 5.1-3.7zm-7.3-3.5c2.4 0 4.5.9 6.2 2.3-.3.4-1.7 2.1-4.9 3.3-1.5-2.7-3.1-4.9-3.5-5.4.7-.1 1.4-.2 2.2-.2zm-4.1.9c.3.4 1.9 2.7 3.4 5.4-4 1.1-7.6 1.1-8.5 1.1h-.1c.7-2.8 2.6-5.2 5.2-6.5zm-5.3 8.5v-.2h.2c1.2 0 5.2-.1 9.4-1.3.3.5.5 1 .7 1.5-.1 0-.2.1-.3.1-4.7 1.5-7.3 5.5-7.7 6.2-1.4-1.7-2.3-3.9-2.3-6.3zm9.4 9.4c-2.2 0-4.1-.7-5.7-2 .3-.5 2.2-4 7.4-5.8 1.3 3.4 1.8 6.2 2 7.1-1.2.4-2.4.7-3.7.7zm5.3-1.7c-.1-.7-.6-3.4-1.8-6.6.7-.1 1.3-.1 1.9-.1 2 0 3.5.4 3.9.5-.5 2.6-2 4.8-4 6.2z"/></g><g><path class="st21" d="M183.8 227.4h-10.4c-1.7 0-3 1.4-3 3v10.4c0 1.7 1.4 3 3 3h10.4c1.7 0 3-1.4 3-3v-10.4c0-1.6-1.3-3-3-3zm-5.2 13.7c-3 0-5.4-2.4-5.4-5.4s2.4-5.4 5.4-5.4 5.4 2.4 5.4 5.4c0 2.9-2.4 5.4-5.4 5.4zm5.6-9.8c-.7 0-1.3-.6-1.3-1.3s.6-1.3 1.3-1.3 1.3.6 1.3 1.3c0 .8-.6 1.3-1.3 1.3z"/><path class="st21" d="M178.6 232.5c-1.7 0-3.1 1.4-3.1 3.1 0 1.7 1.4 3.1 3.1 3.1 1.7 0 3.1-1.4 3.1-3.1 0-1.7-1.4-3.1-3.1-3.1z"/><path class="st21" d="M178.6 218.1c-9.7 0-17.5 7.8-17.5 17.5s7.8 17.5 17.5 17.5 17.5-7.8 17.5-17.5-7.9-17.5-17.5-17.5zm10.5 22.8c0 2.9-2.4 5.3-5.3 5.3h-10.4c-2.9 0-5.3-2.4-5.3-5.3v-10.4c0-2.9 2.4-5.3 5.3-5.3h10.4c2.9 0 5.3 2.4 5.3 5.3v10.4z"/></g><g><path class="st22" d="M270 198.7h-37.4M250.6 217.3L232 198.7l18.6-18.6"/></g><g><path class="st22" d="M278.5 198.7H316M298 217.3l18.5-18.6-18.5-18.6"/></g><linearGradient id="SVGID_1_" gradientUnits="userSpaceOnUse" x1="327.607" y1="78.3" x2="347.728" y2="78.3" gradientTransform="matrix(1 0 0 -1 0 277)"><stop offset="0" stop-color="#fff" stop-opacity="0"/><stop offset="1" stop-color="#fff"/></linearGradient><path class="st23" d="M341.4 191.9l-.8.7 5.6 5.6h-19.5v1h19.5l-5.6 5.6.8.7 6.8-6.8z"/><g><linearGradient id="SVGID_3_" gradientUnits="userSpaceOnUse" x1="233.6" y1="23.906" x2="407" y2="23.906" gradientTransform="matrix(1 0 0 -1 0 277)"><stop offset="0" stop-color="#fff"/><stop offset=".534" stop-color="#fff" stop-opacity=".572"/><stop offset=".623" stop-color="#fff" stop-opacity=".5"/><stop offset="1" stop-color="#fff" stop-opacity="0"/></linearGradient><path id="SVGID_2_" class="st24" d="M236.9 244.6c32.5-20.4 62.2-27.3 89.2-22.6 21.8 3.7 40.7 14.8 56.8 30.7 7.1 7 13.1 14.5 18.1 22 1.8 2.6 3.3 5.1 4.5 7.3.4.8.8 1.5 1.1 2 .2.4.3.6.4.7l-1.8.9c-.1-.1-.2-.3-.4-.7-.3-.6-.7-1.2-1.1-2-1.2-2.2-2.7-4.6-4.4-7.2-5-7.4-10.9-14.8-17.9-21.7-15.8-15.7-34.4-26.5-55.7-30.2-26.8-4.6-56.4 2.3-88.9 23l20.1 3.3-.3 2-21.9-3.5-1.1-.2.3-1.1 6.6-21.8 1.9.6-5.5 18.5z"/><g><defs><path id="SVGID_4_" d="M236.9 244.6c32.5-20.4 62.2-27.3 89.2-22.6 21.8 3.7 40.7 14.8 56.8 30.7 7.1 7 13.1 14.5 18.1 22 1.8 2.6 3.3 5.1 4.5 7.3.4.8.8 1.5 1.1 2 .2.4.3.6.4.7l-1.8.9c-.1-.1-.2-.3-.4-.7-.3-.6-.7-1.2-1.1-2-1.2-2.2-2.7-4.6-4.4-7.2-5-7.4-10.9-14.8-17.9-21.7-15.8-15.7-34.4-26.5-55.7-30.2-26.8-4.6-56.4 2.3-88.9 23l20.1 3.3-.3 2-21.9-3.5-1.1-.2.3-1.1 6.6-21.8 1.9.6-5.5 18.5z"/></defs><clipPath id="SVGID_5_"><use xlink:href="#SVGID_4_" overflow="visible"/></clipPath><linearGradient id="SVGID_6_" gradientUnits="userSpaceOnUse" x1="228.7" y1="23.95" x2="412.1" y2="23.95" gradientTransform="matrix(1 0 0 -1 0 277)"><stop offset="0" stop-color="#fff"/><stop offset=".534" stop-color="#fff" stop-opacity=".572"/><stop offset=".623" stop-color="#fff" stop-opacity=".5"/><stop offset="1" stop-color="#fff" stop-opacity="0"/></linearGradient><path class="st25" d="M228.7 215.5h183.4v75.1H228.7z"/></g></g><g class="st26"><path class="st6" d="M86.5 313.8l8.7 8.7-1.3 1.3-8.7-8.7z"/><path class="st6" d="M79.5 318.3c-5.7 0-10.3-4.6-10.3-10.2s4.6-10.3 10.3-10.3c5.7 0 10.3 4.6 10.3 10.3 0 5.6-4.7 10.2-10.3 10.2zm0-18.7c-4.6 0-8.5 3.8-8.5 8.5s3.8 8.5 8.5 8.5 8.5-3.8 8.5-8.5c-.1-4.7-3.9-8.5-8.5-8.5z"/></g><g class="st27"><path class="st6" d="M122.5 313.8l8.7 8.7-1.3 1.3-8.7-8.7z"/><path class="st6" d="M115.5 318.3c-5.7 0-10.3-4.6-10.3-10.2s4.6-10.3 10.3-10.3c5.7 0 10.3 4.6 10.3 10.3 0 5.6-4.7 10.2-10.3 10.2zm0-18.7c-4.6 0-8.5 3.8-8.5 8.5s3.8 8.5 8.5 8.5 8.5-3.8 8.5-8.5c-.1-4.7-3.9-8.5-8.5-8.5z"/></g><g class="st26"><path class="st6" d="M157.1 312.6l8 8-1.2 1.2-8-8z"/><path class="st6" d="M150.6 316.8c-5.3 0-9.5-4.2-9.5-9.4s4.2-9.5 9.5-9.5 9.5 4.2 9.5 9.5c0 5.1-4.3 9.4-9.5 9.4zm0-17.3c-4.2 0-7.8 3.5-7.8 7.8s3.5 7.8 7.8 7.8 7.8-3.5 7.8-7.8-3.5-7.8-7.8-7.8z"/></g><g class="st27"><path class="st6" d="M191.1 312.6l8 8-1.2 1.2-8-8z"/><path class="st6" d="M184.6 316.8c-5.3 0-9.5-4.2-9.5-9.4s4.2-9.5 9.5-9.5 9.5 4.2 9.5 9.5c0 5.1-4.3 9.4-9.5 9.4zm0-17.3c-4.2 0-7.8 3.5-7.8 7.8s3.5 7.8 7.8 7.8 7.8-3.5 7.8-7.8-3.5-7.8-7.8-7.8z"/></g><g><path class="st4" d="M219.5 166.1l-7.8-5.2c-.1 0-.1-.1-.2-.1h-5.8c-4-.5-8.4-4.5-8.4-4.6-.1-.2-.4-.2-.6-.1-.2.1-.2.4-.1.6 0 0 1.4 2.7.3 4.1-1.5.2-2.5 1.5-2.5 3l.1 6.6c0 1.2 1.2 2.2 2.4 2.4 1.1 1.4-.3 4.1-.3 4.1-.1.2 0 .4.1.5.2.1.4.1.5 0 0 0 4.4-4.1 8.4-4.6h5.8c.1 0 .2 0 .2-.1l7.7-5.2c.3-.2.4-.5.4-.8.2-.2.1-.5-.2-.6zm-10.9 4.1c-1.9 0-3.4-1.5-3.4-3.4s1.5-3.4 3.4-3.4 3.4 1.5 3.4 3.4-1.5 3.4-3.4 3.4zM188.7 171.9h-6.5l2.6-2.1c.2-.2.2-.6 0-.8-.1-.1-.1-.1-.2-.1l-17.6-2.1 17.7-2c.2-.1.3-.2.4-.4 0-.2 0-.4-.2-.5l-2.6-2.1h6.4c1.9 0 3.5 1.5 3.5 3.5v3.2c0 1.8-1.5 3.4-3.5 3.4.1 0 0 0 0 0z"/></g><g><path class="st4" d="M287 166.1l-7.8-5.2c-.1 0-.1-.1-.2-.1h-5.8c-4-.5-8.4-4.5-8.4-4.6-.1-.2-.4-.2-.6-.1-.2.1-.2.4-.1.6 0 0 1.4 2.7.3 4.1-1.5.2-2.5 1.5-2.5 3l.1 6.6c0 1.2 1.2 2.2 2.4 2.4 1.1 1.4-.3 4.1-.3 4.1-.1.2 0 .4.1.5.2.1.4.1.5 0 0 0 4.4-4.1 8.4-4.6h5.8c.1 0 .2 0 .2-.1l7.7-5.2c.3-.2.4-.5.4-.8.2-.2.1-.5-.2-.6zm-10.9 4.1c-1.9 0-3.4-1.5-3.4-3.4s1.5-3.4 3.4-3.4 3.4 1.5 3.4 3.4-1.5 3.4-3.4 3.4zM258.6 167.5h-28c-.4 0-.6-.3-.6-.6s.3-.6.6-.6h28c.4 0 .6.3.6.6s-.3.6-.6.6zM258.5 164.7l-13.2-1.2c-.4 0-.6-.3-.6-.7s.4-.6.7-.6l13.1 1.1c.4 0 .6.3.6.7s-.3.7-.6.7zM245.4 171.4c-.3 0-.6-.3-.6-.6 0-.4.2-.7.6-.7l13.1-1.1c.3 0 .7.2.7.6 0 .4-.2.7-.6.7l-13.2 1.1z"/></g><g><path class="st4" d="M333.1 159.2c-1.7 0-5.3 1-5.3 1l-4.7-3.4c-.3-.2-.6-.3-.9-.3h-.9v3.9c0 .3-.3.5-.6.4l-1.3-.5c-.3-.1-.6-.1-.9 0-.7.2-1.3.9-1.3 1.8v9.7c0 .8.5 1.5 1.3 1.8.3.1.6.1.9 0l1.3-.5c.3-.1.6.1.6.4v3.9h.9c.3 0 .6-.1.9-.3l4.7-3.4s3.6 1 5.3 1c4.2 0 11.1-3.3 14.1-7.7-3-4.9-10-7.8-14.1-7.8zm4.5 10.6c-2.3.4-4.4-1.6-3.9-3.9.2-1.3 1.3-2.4 2.6-2.6 2.3-.4 4.4 1.6 3.9 3.9-.3 1.3-1.3 2.4-2.6 2.6zM300.7 167.7c3.8 2.7 8.2 5.1 13.7 2.6.1-.1.1-.2 0-.3-2.2-.6-4.1-2.3-4.7-2.9-.2-.2-.2-.3 0-.4.5-.6 2.2-2.6 4.3-3.4.1 0 .1-.2 0-.3-5.8-1.8-9.8 1.1-13.4 4.2-.1.1 0 .4.1.5z"/></g><g><path class="st4" d="M365.9 167.7c3.8 2.7 8.2 5.1 13.7 2.6.1-.1.1-.2 0-.3-2.2-.6-4.1-2.3-4.7-2.9-.2-.2-.2-.3 0-.4.5-.6 2.2-2.6 4.3-3.4.1 0 .1-.2 0-.3-5.8-1.8-9.8 1.1-13.4 4.2-.1.1 0 .4.1.5zM398.2 159.2c-1.7 0-5.3 1-5.3 1l-4.7-3.4c-.3-.2-.6-.3-.9-.3h-.9v3.9c0 .3-.3.5-.6.4l-1.3-.5c-.3-.1-.6-.1-.9 0-.7.2-1.3.9-1.3 1.8v9.7c0 .8.5 1.5 1.3 1.8.3.1.6.1.9 0l1.3-.5c.3-.1.6.1.6.4v3.9h.9c.3 0 .6-.1.9-.3l4.7-3.4s3.6 1 5.3 1c4.2 0 11.1-3.3 14.1-7.7-2.9-4.9-9.9-7.8-14.1-7.8zm-1.4 9.6c-1.1 0-2-.9-2-2s.9-2 2-2 2 .9 2 2-.9 2-2 2zm6.7 0c-1.1 0-2-.9-2-2s.9-2 2-2 2 .9 2 2-.9 2-2 2z"/></g><g><path class="st28" d="M82.3 266.3v-2.7h-1.7v2.7c-1.5.3-2.6 1.7-2.6 3.4 0 1.6 1.1 2.9 2.6 3.4v11.4h1.7v-11.4c1.5-.3 2.6-1.7 2.6-3.4 0-1.6-1.1-2.9-2.6-3.4zm0 5c-.3.2-.5.3-.9.3-.3 0-.6-.1-.9-.3-.5-.3-.9-.9-.9-1.5s.3-1.2.9-1.5c.3-.2.5-.3.9-.3.3 0 .6.1.9.3.5.3.9.9.9 1.5s-.4 1.1-.9 1.5zM100.4 266.3v-2.7h-1.7v2.7c-1.5.3-2.6 1.7-2.6 3.4 0 1.6 1.1 2.9 2.6 3.4v11.4h1.7v-11.4c1.5-.3 2.6-1.7 2.6-3.4 0-1.6-1.1-2.9-2.6-3.4zm0 5c-.3.2-.5.3-.9.3s-.6-.1-.9-.3c-.5-.3-.9-.9-.9-1.5s.3-1.2.9-1.5c.3-.2.5-.3.9-.3s.6.1.9.3c.5.3.9.9.9 1.5s-.4 1.1-.9 1.5zM89.7 281.8v2.7h1.7v-2.7c1.5-.3 2.6-1.7 2.6-3.4 0-1.6-1.1-2.9-2.6-3.4v-11.4h-1.7V275c-1.5.3-2.6 1.7-2.6 3.4 0 1.6.9 3.1 2.6 3.4zm0-4.8c.3-.2.5-.3.9-.3s.6.1.9.3c.5.3.9.9.9 1.5s-.3 1.2-.9 1.5c-.3.2-.5.3-.9.3s-.6-.1-.9-.3c-.5-.3-.9-.9-.9-1.5 0-.7.4-1.2.9-1.5z"/></g><g><path class="st0" d="M117.3 266.3v-2.7h-1.7v2.7c-1.5.3-2.6 1.7-2.6 3.4 0 1.6 1.1 2.9 2.6 3.4v11.4h1.7v-11.4c1.5-.3 2.6-1.7 2.6-3.4 0-1.6-1.1-2.9-2.6-3.4zm0 5c-.3.2-.5.3-.9.3-.3 0-.6-.1-.9-.3-.5-.3-.9-.9-.9-1.5s.3-1.2.9-1.5c.3-.2.5-.3.9-.3.3 0 .6.1.9.3.5.3.9.9.9 1.5s-.4 1.1-.9 1.5zM135.4 266.3v-2.7h-1.7v2.7c-1.5.3-2.6 1.7-2.6 3.4 0 1.6 1.1 2.9 2.6 3.4v11.4h1.7v-11.4c1.5-.3 2.6-1.7 2.6-3.4 0-1.6-1.1-2.9-2.6-3.4zm0 5c-.3.2-.5.3-.9.3-.3 0-.6-.1-.9-.3-.5-.3-.9-.9-.9-1.5s.3-1.2.9-1.5c.3-.2.5-.3.9-.3.3 0 .6.1.9.3.5.3.9.9.9 1.5s-.4 1.1-.9 1.5zM124.7 281.8v2.7h1.7v-2.7c1.5-.3 2.6-1.7 2.6-3.4 0-1.6-1.1-2.9-2.6-3.4v-11.4h-1.7V275c-1.5.3-2.6 1.7-2.6 3.4 0 1.6.9 3.1 2.6 3.4zm0-4.8c.3-.2.5-.3.9-.3.3 0 .6.1.9.3.5.3.9.9.9 1.5s-.3 1.2-.9 1.5c-.3.2-.5.3-.9.3-.3 0-.6-.1-.9-.3-.5-.3-.9-.9-.9-1.5 0-.7.4-1.2.9-1.5z"/></g><g class="st26"><path class="st6" d="M5 266.9v-3.1H3v3.1c-1.7.4-3 2-3 3.9s1.3 3.4 3 3.9v13.1h2v-13.1c1.7-.4 3-2 3-3.9s-1.3-3.5-3-3.9zm0 5.6c-.3.2-.6.3-1 .3s-.7-.1-1-.3c-.6-.3-1-1-1-1.7s.4-1.4 1-1.7c.3-.2.6-.3 1-.3s.7.1 1 .3c.6.3 1 1 1 1.7s-.4 1.3-1 1.7zM26 266.9v-3.1h-2v3.1c-1.7.4-3 2-3 3.9s1.3 3.4 3 3.9v13.1h2v-13.1c1.7-.4 3-2 3-3.9s-1.3-3.5-3-3.9zm0 5.6c-.3.2-.6.3-1 .3s-.7-.1-1-.3c-.6-.3-1-1-1-1.7s.4-1.4 1-1.7c.3-.2.6-.3 1-.3s.7.1 1 .3c.6.3 1 1 1 1.7s-.4 1.3-1 1.7zM15.5 284.6v3.1h-2v-3.1c-1.7-.4-3-2-3-3.9s1.3-3.4 3-3.9v-13.1h2v13.1c1.7.4 3 2 3 3.9s-1.3 3.5-3 3.9zm0-5.6c-.3-.2-.6-.3-1-.3s-.7.1-1 .3c-.6.3-1 1-1 1.7s.4 1.4 1 1.7c.3.2.6.3 1 .3s.7-.1 1-.3c.6-.3 1-1 1-1.7s-.4-1.3-1-1.7z"/></g><g><path class="st0" d="M44 266.9v-3.1h-2v3.1c-1.7.4-3 2-3 3.9s1.3 3.4 3 3.9v13.1h2v-13.1c1.7-.4 3-2 3-3.9s-1.3-3.5-3-3.9zm0 5.6c-.3.2-.6.3-1 .3s-.7-.1-1-.3c-.6-.3-1-1-1-1.7s.4-1.4 1-1.7c.3-.2.6-.3 1-.3s.7.1 1 .3c.6.3 1 1 1 1.7s-.4 1.3-1 1.7zM65 266.9v-3.1h-2v3.1c-1.7.4-3 2-3 3.9s1.3 3.4 3 3.9v13.1h2v-13.1c1.7-.4 3-2 3-3.9s-1.3-3.5-3-3.9zm0 5.6c-.3.2-.6.3-1 .3s-.7-.1-1-.3c-.6-.3-1-1-1-1.7s.4-1.4 1-1.7c.3-.2.6-.3 1-.3s.7.1 1 .3c.6.3 1 1 1 1.7s-.4 1.3-1 1.7zM54.5 284.6v3.1h-2v-3.1c-1.7-.4-3-2-3-3.9s1.3-3.4 3-3.9v-13.1h2v13.1c1.7.4 3 2 3 3.9s-1.3 3.5-3 3.9zm0-5.6c-.3-.2-.6-.3-1-.3s-.7.1-1 .3c-.6.3-1 1-1 1.7s.4 1.4 1 1.7c.3.2.6.3 1 .3s.7-.1 1-.3c.6-.3 1-1 1-1.7s-.4-1.3-1-1.7z"/></g><g><path class="st29" d="M26.1 356.6c-1.8 1.6-4.2 2.5-6.7 2.5-5.6 0-9.8-4.1-9.8-9.8s4-9.7 9.8-9.7c2.5 0 4.8.8 6.7 2.4l1.2 1.1 5.5-5.5-1.4-1.3c-3.3-3-7.6-4.6-12-4.5-10.2 0-17.5 7.3-17.5 17.4s7.5 17.6 17.5 17.6c4.5.1 8.8-1.6 12.1-4.6l1.3-1.2-5.6-5.5-1.1 1.1z"/><circle class="st30" cx="19.2" cy="349.3" r="5.9"/></g><g><path class="st31" d="M72.5 347h15v10h-15zM74.2 355.1l-1.7 1.9M85.8 355l1.7 2"/><path class="st31" d="M87.4 347l-7.4 6-7.4-6"/></g><path class="st31" d="M105.2 346.3c-2.3-2.4-6.1-2.4-8.5 0-2.3 2.4-2.3 6.4 0 8.8l4.2 4.4 4.2-4.4c2.5-2.4 2.5-6.3.1-8.8zm-4.2 6.6c-1.2 0-2.2-1-2.2-2.2s1-2.2 2.2-2.2 2.2 1 2.2 2.2-1 2.2-2.2 2.2z"/><g><path class="st31" d="M125.9 354.4c-.1-.2-.5-.3-.7-.4s-.5-.3-.8-.4c-.3-.2-1.2-.7-1.5-.5-.2.2-.4.6-.6.8-.1.2-.4.5-.6.6-.2.1-.5-.2-.7-.2-.3-.1-.5-.3-.8-.4-.8-.5-1.5-1.1-2.1-1.7-.2-.3-.4-.5-.6-.8-.2-.3-.1-.5.1-.7.2-.3.7-.7.7-1.1 0-.2-.1-.4-.2-.6-.2-.6-.5-1.1-.7-1.7-.1-.3-.3-.5-.6-.5-.4 0-.7-.1-1.1.1-.4.3-.8.8-1 1.2-.6 1.4 0 2.8.9 3.9.5.6.9 1.2 1.5 1.8 1.1 1.1 2.4 2 4 2.5.8.3 1.8.7 2.7.6 1.1-.2 2.2-.7 2.4-1.8-.3-.1-.1-.5-.3-.7z"/></g></svg>