<svg xmlns="http://www.w3.org/2000/svg" viewBox="0 0 190.68 76.73"><defs><style>.cls-1{fill:#fff;}.cls-2{fill:#ffd600;}</style></defs><title>Logo_promo</title><g id="Слой_2" data-name="Слой 2"><g id="Capa_1" data-name="Capa 1"><path class="cls-1" d="M21.11,26.08A12.4,12.4,0,0,1,33.89,13.3c7,0,12.84,5,12.84,12.78A12.49,12.49,0,0,1,33.89,38.91,12.44,12.44,0,0,1,21.11,26.08Zm18.38,0a5.57,5.57,0,1,0-11.14,0,5.57,5.57,0,1,0,11.14,0Z"/><path class="cls-1" d="M85.07,13.3a13,13,0,0,1,10.72,5.23l-6,4.27a5.61,5.61,0,0,0-4.75-2.48,5.88,5.88,0,0,0-6.13,5.76A6,6,0,0,0,85.07,32a5.58,5.58,0,0,0,4.75-2.48l6,4.23A12.88,12.88,0,0,1,85.07,39C78,39,71.65,33.84,71.65,26.08S78,13.3,85.07,13.3Z"/><path class="cls-1" d="M133.4,34c-2.49,3.7-7.08,5-11.25,5a12.56,12.56,0,0,1-12.89-12.94c0-7.77,5.81-12.78,12.89-12.78s12.62,5.23,12.62,13c0,.63-.05,1.64-.11,2.27H116.6c.37,2.85,3.49,4.12,6.08,4.12a6.82,6.82,0,0,0,5.38-2.32Zm-6-10a5,5,0,0,0-5.18-4.23A5.39,5.39,0,0,0,116.71,24Z"/><path class="cls-1" d="M156,35.69c-1.58,2.38-5.28,3.28-7.18,3.28A12.59,12.59,0,0,1,136.2,26.13,12.58,12.58,0,0,1,148.77,13.3c1.58,0,5.28.52,7.18,3.27V13.82h7.29V38.49H156ZM150,32a5.86,5.86,0,1,0,0-11.72,6,6,0,0,0-6.18,5.86A6,6,0,0,0,150,32Z"/><path class="cls-1" d="M174.52,38.75h-7.34V14.09h7.34v3.59a8.23,8.23,0,0,1,7.13-4.12c5.54,0,9,3.43,9,10.46V38.75h-7.34V25.6c0-3.27-1.8-4.91-4.28-4.91s-4.54,1.27-4.54,5Z"/><path class="cls-1" d="M72.32,13.3H68.41a5.88,5.88,0,0,0-5.28,3.29l-.35.88-3.91,10-3.79-9.76-.48-1.24a5.89,5.89,0,0,0-5.21-3.14H45.47L46,14.41,50.48,25l4.6,10.71-6,14.79H57L67.49,25l4.37-10.56Z"/><path class="cls-1" d="M9.61,7.71V38.78c0,2.77-1.18,5.07-4.22,5.07a18.81,18.81,0,0,1-4.7-.59L0,50.31a31.36,31.36,0,0,0,5.39.91c8.81,0,12.07-5.72,12.07-12.44V1.84h-2A5.87,5.87,0,0,0,9.61,7.71Z"/><path class="cls-1" d="M98.71,5.88V38.49h7.42V0h-1.54A5.88,5.88,0,0,0,98.71,5.88Z"/><path class="cls-2" d="M89.06,69.1a1.18,1.18,0,0,0,0,2.36h2.31l-1.63,1.63a1.19,1.19,0,0,0,.83,2,1.2,1.2,0,0,0,.84-.35L93,73.13v2.31a1.18,1.18,0,0,0,2.36,0V73.13L97,74.76a1.18,1.18,0,1,0,1.67-1.67l-1.63-1.63h2.31a1.18,1.18,0,0,0,0-2.36H97.07l1.63-1.63A1.18,1.18,0,1,0,97,65.8L95.4,67.43V65.12a1.18,1.18,0,0,0-2.36,0v2.31L91.41,65.8a1.18,1.18,0,1,0-1.67,1.67l1.63,1.63H89.06"/><path class="cls-1" d="M76.12,71.28,75,70.22l1.06-1.1a2.54,2.54,0,0,0-3.65-3.53l-1.06,1.1-1.09-1.06a2.54,2.54,0,0,0-3.53,3.65l1.09,1.06-1.06,1.1A2.54,2.54,0,1,0,70.43,75l1.06-1.1,1.1,1.06a2.54,2.54,0,1,0,3.53-3.65Z"/><path class="cls-1" d="M118.25,76.73a6.45,6.45,0,1,1,6.46-6.45A6.46,6.46,0,0,1,118.25,76.73Zm0-10.45a4,4,0,1,0,4,4A4,4,0,0,0,118.25,66.28Z"/></g></g></svg>
