<?xml version="1.0" encoding="utf-8"?>
<!-- Generator: Adobe Illustrator 20.0.0, SVG Export Plug-In . SVG Version: 6.00 Build 0)  -->
<svg version="1.1" id="Слой_1" xmlns="http://www.w3.org/2000/svg" xmlns:xlink="http://www.w3.org/1999/xlink" x="0px" y="0px"
	 viewBox="0 0 23.2 8.5" width="138px" height="54px" style="enable-background:new 0 0 23.2 8.5;" xml:space="preserve">
<style type="text/css">
	.st0{opacity:9.000000e-02;fill:#FFFFFF;enable-background:new;}
</style>
<path class="st0" d="M0.4,3L0,2.6c0.3-0.3,0.7-0.3,1-0.3c0.2,0,0.4,0,0.6-0.2s0.2-0.3,0.2-0.6s0-0.6,0.3-1c0.3-0.3,0.7-0.3,1-0.3
	c0.2,0,0.4,0,0.6-0.2L4,0.4C3.7,0.7,3.3,0.7,3,0.7c-0.2,0-0.4,0-0.6,0.2C2.3,1.1,2.3,1.2,2.3,1.5s0,0.6-0.3,1C1.6,2.8,1.3,2.8,1,2.8
	S0.6,2.8,0.4,3z"/>
<path class="st0" d="M12,7.3l-0.4-0.4c0.3-0.3,0.7-0.3,1-0.3c0.2,0,0.4,0,0.6-0.2c0.2-0.2,0.2-0.3,0.2-0.6c0-0.3,0-0.6,0.3-1
	c0.3-0.3,0.7-0.3,1-0.3c0.2,0,0.4,0,0.6-0.2l0.4,0.4C15.3,5,14.9,5,14.7,5s-0.4,0-0.6,0.2c-0.2,0.2-0.2,0.3-0.2,0.6
	c0,0.3,0,0.6-0.3,1c-0.3,0.3-0.7,0.3-1,0.3C12.3,7.1,12.2,7.1,12,7.3z"/>
</svg>
