<svg xmlns="http://www.w3.org/2000/svg" width="471.738" height="210.919" viewBox="0 0 471.738 210.919">
    <defs>
        <style>
            .cls-1{fill:#0091d9}.cls-10,.cls-2{fill:#fff}.cls-3{fill:#5fb8cc}.cls-4{fill:#71b96c}.cls-5{fill:#00b05b}.cls-6{fill:#ec411b}.cls-7{fill:#ae0721}.cls-8{fill:#f77e0b}.cls-9{fill:#fe9d2b}.cls-10{font-size:29px;font-family:Gotham-Book,Gotham;letter-spacing:.025em}.cls-11{fill:none;stroke:#fff}
        </style>
    </defs>
    <g id="Group_61" data-name="Group 61" transform="translate(-116 -267)">
        <g id="IPG360Valuator_reverse" transform="translate(22.5 228.768)">
            <g id="Group_32" data-name="Group 32" transform="translate(93.5 151.091)">
                <path id="Path_65" d="M262.434 176.388h-9.966v-5.761h9.966v-9.86h5.916v9.86h9.964v5.761h-9.964v9.912h-5.916z" class="cls-1" data-name="Path 65" transform="translate(-112.332 -160.522)"/>
                <path id="Path_66" d="M93.5 160.984h2.105l9.947 23.377 9.983-23.377h2l-11.18 25.592h-1.67z" class="cls-2" data-name="Path 66" transform="translate(-93.5 -160.548)"/>
                <path id="Path_67" d="M135.7 160.778h1.815l11.835 25.593h-2.069l-3.232-7.116h-14.988l-3.231 7.116h-1.961zm7.551 16.772l-6.68-14.7-6.715 14.7z" class="cls-2" data-name="Path 67" transform="translate(-97.098 -160.523)"/>
                <path id="Path_68" d="M161.7 160.984h1.887v23.705h14.923v1.711H161.7z" class="cls-2" data-name="Path 68" transform="translate(-101.58 -160.548)"/>
                <path id="Path_69" d="M199.99 186.794a11.925 11.925 0 0 1-4.193-.709 9.035 9.035 0 0 1-3.3-2.1 9.483 9.483 0 0 1-2.161-3.431 13.418 13.418 0 0 1-.762-4.718v-14.852h1.887v14.665q0 4.538 2.268 6.988a8.208 8.208 0 0 0 6.336 2.452 9.957 9.957 0 0 0 3.485-.58 7.023 7.023 0 0 0 2.668-1.744 7.833 7.833 0 0 0 1.706-2.9 12.4 12.4 0 0 0 .6-4.029v-14.852h1.887v14.63a13.955 13.955 0 0 1-.763 4.809 9.7 9.7 0 0 1-2.141 3.5 8.984 8.984 0 0 1-3.285 2.143 11.823 11.823 0 0 1-4.232.728z" class="cls-2" data-name="Path 69" transform="translate(-104.881 -160.548)"/>
                <path id="Path_70" d="M231.841 160.778h1.815l11.835 25.593h-2.069l-3.232-7.116H225.2l-3.231 7.116h-1.961zm7.551 16.772l-6.68-14.7-6.712 14.7z" class="cls-2" data-name="Path 70" transform="translate(-108.487 -160.523)"/>
                <path id="Path_71" d="M300.166 186.772a12.351 12.351 0 0 1-9.258-3.939 12.764 12.764 0 0 1-2.578-4.156 13.74 13.74 0 0 1-.907-4.973v-.073a13.647 13.647 0 0 1 .926-4.992 13.205 13.205 0 0 1 2.6-4.192 12.328 12.328 0 0 1 4.029-2.888 13.391 13.391 0 0 1 10.491 0 12.46 12.46 0 0 1 4.029 2.868 12.776 12.776 0 0 1 2.578 4.157 13.754 13.754 0 0 1 .907 4.972.047.047 0 0 1 0 .074 13.639 13.639 0 0 1-.926 4.991 13.223 13.223 0 0 1-2.6 4.193 12.287 12.287 0 0 1-4.048 2.886 12.625 12.625 0 0 1-5.243 1.072zm.072-1.7a10.416 10.416 0 0 0 7.75-3.323 11.105 11.105 0 0 0 2.233-3.611 12.19 12.19 0 0 0 .8-4.429v-.073a12.085 12.085 0 0 0-.817-4.446 11.338 11.338 0 0 0-2.25-3.63 10.658 10.658 0 0 0-3.431-2.452 10.6 10.6 0 0 0-12.107 2.415 11.135 11.135 0 0 0-2.233 3.611 12.2 12.2 0 0 0-.8 4.428v.074a12.12 12.12 0 0 0 .817 4.448 11.345 11.345 0 0 0 2.251 3.629 10.621 10.621 0 0 0 3.431 2.45 10.4 10.4 0 0 0 4.356.904z" class="cls-2" data-name="Path 71" transform="translate(-116.473 -160.489)"/>
                <path id="Path_72" d="M324.861 160.984h10.672a12.01 12.01 0 0 1 4.175.671 8.133 8.133 0 0 1 2.977 1.834 6.54 6.54 0 0 1 1.416 2.124 6.658 6.658 0 0 1 .508 2.594v.073a6.894 6.894 0 0 1-.562 2.849 6.474 6.474 0 0 1-1.561 2.161 7.962 7.962 0 0 1-2.359 1.47 11.882 11.882 0 0 1-2.958.781l8.385 10.854h-2.4l-8.1-10.528h-8.313V186.4h-1.887zm10.454 13.178a10.415 10.415 0 0 0 2.959-.4 7.107 7.107 0 0 0 2.341-1.146 5.43 5.43 0 0 0 1.542-1.821 5.22 5.22 0 0 0 .563-2.459v-.073a4.9 4.9 0 0 0-1.906-4.077 8.553 8.553 0 0 0-5.391-1.493h-8.676v11.471z" class="cls-2" data-name="Path 72" transform="translate(-120.909 -160.548)"/>
            </g>
            <g id="Group_33" data-name="Group 33" transform="translate(93.794 81.162)">
                <path id="Path_73" d="M93.833 82.3h7.939v45.545h-7.939z" class="cls-2" data-name="Path 73" transform="translate(-93.833 -81.296)"/>
                <path id="Path_74" d="M116.713 82.3h17.958a22.682 22.682 0 0 1 7.191 1.073 15.321 15.321 0 0 1 5.465 3.091 13.653 13.653 0 0 1 3.449 4.816 15.652 15.652 0 0 1 1.2 6.246v.13a14.976 14.976 0 0 1-1.435 6.733 14 14 0 0 1-3.913 4.848 17.473 17.473 0 0 1-5.8 2.96 24.361 24.361 0 0 1-7.11 1.008h-9.065v14.64h-7.939zm17.275 23.682a10.65 10.65 0 0 0 7.214-2.286 7.415 7.415 0 0 0 2.645-5.879v-.13a7.228 7.228 0 0 0-2.677-6.107 11.488 11.488 0 0 0-7.182-2.058h-9.335v16.461z" class="cls-2" data-name="Path 74" transform="translate(-96.544 -81.296)"/>
                <path id="Path_75" d="M187.347 128.518a25.317 25.317 0 0 1-9.693-1.789 21.711 21.711 0 0 1-12.233-12.362 24.873 24.873 0 0 1-1.692-9.273v-.13a23.87 23.87 0 0 1 1.738-9.044 22.981 22.981 0 0 1 4.879-7.515 23.351 23.351 0 0 1 16.937-6.993 31.944 31.944 0 0 1 5.433.422 25.053 25.053 0 0 1 4.521 1.2 22.837 22.837 0 0 1 3.938 1.92 29.139 29.139 0 0 1 3.611 2.634l-5.075 6.052a28.8 28.8 0 0 0-2.668-2.017 16.5 16.5 0 0 0-2.863-1.529 17.783 17.783 0 0 0-3.285-.975 20.148 20.148 0 0 0-3.936-.359 13.2 13.2 0 0 0-5.823 1.306 15.213 15.213 0 0 0-4.685 3.487 16.263 16.263 0 0 0-3.122 5.117 16.974 16.974 0 0 0-1.138 6.194V105a18.721 18.721 0 0 0 1.1 6.519 14.562 14.562 0 0 0 8.017 8.541 15.58 15.58 0 0 0 6.328 1.239 18.924 18.924 0 0 0 6.068-.949 17.025 17.025 0 0 0 4.9-2.518v-8.572h-11.647v-6.96h19.389v19.129a34.035 34.035 0 0 1-3.741 2.732 28.2 28.2 0 0 1-4.424 2.277 27.9 27.9 0 0 1-5.108 1.529 28.833 28.833 0 0 1-5.726.551z" class="cls-2" data-name="Path 75" transform="translate(-102.113 -81.192)"/>
                <path id="Path_76" d="M251.633 109.665a11.913 11.913 0 0 0-3.579-3.967 17.911 17.911 0 0 0-5.2-2.465 27.376 27.376 0 0 0-5.788-1.05l15.185-17.418v-2.717h-28.945v3.628h23.619l-15.458 17.831.963 2.144h2.614a23.27 23.27 0 0 1 5.607.644 13.983 13.983 0 0 1 4.42 1.889 9.435 9.435 0 0 1 2.895 3.019 8 8 0 0 1 1.041 4.119v.13a9.065 9.065 0 0 1-.888 4.034 9.562 9.562 0 0 1-2.385 3.085 11.4 11.4 0 0 1-3.512 2.011 12.351 12.351 0 0 1-4.251.734 16.32 16.32 0 0 1-7.866-1.86 19.794 19.794 0 0 1-6.144-5.343l-.139-.178-2.94 2.426.129.168a22.22 22.22 0 0 0 7.031 5.98 20.329 20.329 0 0 0 9.865 2.3 17.314 17.314 0 0 0 5.7-.952 14.962 14.962 0 0 0 4.821-2.735 13.391 13.391 0 0 0 3.307-4.256 12.336 12.336 0 0 0 1.226-5.518v-.129a11.284 11.284 0 0 0-1.328-5.554z" class="cls-2" data-name="Path 76" transform="translate(-108.884 -81.267)"/>
                <path id="Path_77" d="M273.439 102.007h.13a7.743 7.743 0 0 1 3.155-1.463 15.464 15.464 0 0 1 3.677-.489 14.348 14.348 0 0 1 5.66 1.106 13.82 13.82 0 0 1 4.489 3.026 13.639 13.639 0 0 1 2.928 4.489 14.7 14.7 0 0 1 1.041 5.562A14.358 14.358 0 0 1 293.38 120a13.388 13.388 0 0 1-3.155 4.523 14.713 14.713 0 0 1-4.782 2.96 17.419 17.419 0 0 1-12.037 0 14.7 14.7 0 0 1-4.782-2.96 13.351 13.351 0 0 1-3.156-4.523 14.358 14.358 0 0 1-1.139-5.758 14.72 14.72 0 0 1 .391-3.449 17.8 17.8 0 0 1 1.039-3.09q.652-1.465 1.366-2.765t1.432-2.472l12.492-20.757H286zm5.986 1.431a10.548 10.548 0 0 0-4.23.846 10.967 10.967 0 0 0-3.416 2.309 10.828 10.828 0 0 0-2.309 3.449 10.576 10.576 0 0 0-.847 4.2 11.9 11.9 0 0 0 .781 4.392 9.734 9.734 0 0 0 5.629 5.629 12.736 12.736 0 0 0 8.783 0 9.734 9.734 0 0 0 5.629-5.629 11.9 11.9 0 0 0 .781-4.392 10.591 10.591 0 0 0-.846-4.2 10.68 10.68 0 0 0-5.758-5.758 10.622 10.622 0 0 0-4.198-.846z" class="cls-2" data-name="Path 77" transform="translate(-114.031 -81.226)"/>
                <path id="Path_78" d="M342.057 95.794a24.07 24.07 0 0 0-3.777-7.551 18.636 18.636 0 0 0-5.991-5.168 16.473 16.473 0 0 0-7.945-1.913 16.261 16.261 0 0 0-7.946 1.946 19.311 19.311 0 0 0-6.021 5.2 24.116 24.116 0 0 0-3.844 7.583 30.484 30.484 0 0 0-1.343 9.044v.13a30.825 30.825 0 0 0 1.311 9.012 24.137 24.137 0 0 0 3.777 7.551 18.579 18.579 0 0 0 5.991 5.168 16.47 16.47 0 0 0 7.944 1.913 16.262 16.262 0 0 0 7.947-1.946 19.324 19.324 0 0 0 6.023-5.2 24.2 24.2 0 0 0 3.841-7.584 30.418 30.418 0 0 0 1.345-9.045v-.129a30.8 30.8 0 0 0-1.312-9.011zm-17.713 29.416a11.969 11.969 0 0 1-6.263-1.693 15.934 15.934 0 0 1-4.812-4.525 21.842 21.842 0 0 1-3.061-6.475 27.114 27.114 0 0 1-1.063-7.584v-.129a27.132 27.132 0 0 1 1.063-7.584 21.891 21.891 0 0 1 3.028-6.442 15.509 15.509 0 0 1 4.748-4.459 12.476 12.476 0 0 1 12.494.032 16.118 16.118 0 0 1 4.813 4.494 21.289 21.289 0 0 1 3.058 6.471 27.342 27.342 0 0 1 1.066 7.616v.13a27.053 27.053 0 0 1-1.064 7.584 21.875 21.875 0 0 1-3.028 6.442 15.494 15.494 0 0 1-4.748 4.459 11.949 11.949 0 0 1-6.231 1.663z" class="cls-2" data-name="Path 78" transform="translate(-118.872 -81.162)"/>
            </g>
            <g id="Group_34" data-name="Group 34" transform="translate(93.507 138.166)">
                <path id="Rectangle_480" d="M0 0h54.148v3.386H0z" class="cls-1" data-name="Rectangle 480"/>
                <path id="Rectangle_481" d="M0 0h54.148v3.386H0z" class="cls-3" data-name="Rectangle 481" transform="translate(56.726)"/>
                <path id="Rectangle_482" d="M0 0h54.148v3.386H0z" class="cls-4" data-name="Rectangle 482" transform="translate(113.453)"/>
                <path id="Rectangle_483" d="M0 0h54.148v3.386H0z" class="cls-5" data-name="Rectangle 483" transform="translate(170.489)"/>
            </g>
        </g>
        <g id="Group_59" data-name="Group 59">
            <g id="Group_58" data-name="Group 58">
                <g id="Group_57" data-name="Group 57">
                    <g id="BrandValuator_reversed" transform="translate(379.5 346.442)">
                        <g id="Group_10" data-name="Group 10" transform="translate(90.277 117.676)">
                            <path id="Path_51" d="M257.7 185.469h-5.233v-3.025h5.233v-5.177h3.106v5.177h5.232v3.025h-5.232v5.2H257.7z" class="cls-6" data-name="Path 51" transform="translate(-178.883 -177.138)"/>
                            <path id="Path_52" d="M93.5 177.484h1.105l5.223 12.276 5.242-12.276h1.048l-5.871 13.438h-.877z" class="cls-2" data-name="Path 52" transform="translate(-93.5 -177.255)"/>
                            <path id="Path_53" d="M130.083 177.278h.953l6.215 13.439h-1.086l-1.7-3.736H126.6l-1.7 3.736h-1.03zm3.965 8.807l-3.508-7.72-3.526 7.72z" class="cls-2" data-name="Path 53" transform="translate(-109.811 -177.144)"/>
                            <path id="Path_54" d="M161.7 177.484h.991v12.448h7.834v.9H161.7z" class="cls-2" data-name="Path 54" transform="translate(-130.133 -177.255)"/>
                            <path id="Path_55" d="M195.042 191.037a6.262 6.262 0 0 1-2.2-.372 4.745 4.745 0 0 1-1.734-1.1 4.98 4.98 0 0 1-1.135-1.8 7.046 7.046 0 0 1-.4-2.477v-7.8h.991v7.7a5.206 5.206 0 0 0 1.191 3.669 4.31 4.31 0 0 0 3.327 1.287 5.229 5.229 0 0 0 1.83-.3 3.688 3.688 0 0 0 1.4-.916 4.114 4.114 0 0 0 .9-1.524 6.511 6.511 0 0 0 .315-2.116v-7.8h.991v7.682a7.328 7.328 0 0 1-.4 2.525 5.1 5.1 0 0 1-1.124 1.84 4.718 4.718 0 0 1-1.725 1.125 6.209 6.209 0 0 1-2.227.377z" class="cls-2" data-name="Path 55" transform="translate(-145.1 -177.255)"/>
                            <path id="Path_56" d="M226.22 177.278h.953l6.215 13.439H232.3l-1.7-3.736h-7.872l-1.7 3.736h-1.03zm3.965 8.807l-3.508-7.72-3.526 7.72z" class="cls-2" data-name="Path 56" transform="translate(-161.447 -177.144)"/>
                            <path id="Path_57" d="M294.114 190.79a6.485 6.485 0 0 1-4.861-2.068 6.7 6.7 0 0 1-1.354-2.183 7.216 7.216 0 0 1-.476-2.611v-.038a7.166 7.166 0 0 1 .486-2.621 6.933 6.933 0 0 1 1.363-2.2 6.474 6.474 0 0 1 2.116-1.516 7.032 7.032 0 0 1 5.509 0 6.543 6.543 0 0 1 2.116 1.506 6.708 6.708 0 0 1 1.354 2.183 7.223 7.223 0 0 1 .476 2.611.025.025 0 0 1 0 .039 7.161 7.161 0 0 1-.486 2.621 6.944 6.944 0 0 1-1.363 2.2 6.452 6.452 0 0 1-2.126 1.516 6.63 6.63 0 0 1-2.754.561zm.038-.9a5.47 5.47 0 0 0 4.069-1.745 5.833 5.833 0 0 0 1.172-1.9 6.4 6.4 0 0 0 .419-2.326v-.038a6.347 6.347 0 0 0-.429-2.335 5.954 5.954 0 0 0-1.181-1.906 5.6 5.6 0 0 0-1.8-1.287 5.569 5.569 0 0 0-6.357 1.268 5.847 5.847 0 0 0-1.172 1.9 6.406 6.406 0 0 0-.419 2.325v.039a6.363 6.363 0 0 0 .429 2.336 5.956 5.956 0 0 0 1.182 1.906 5.578 5.578 0 0 0 1.8 1.286 5.464 5.464 0 0 0 2.287.482z" class="cls-2" data-name="Path 57" transform="translate(-197.657 -176.989)"/>
                            <path id="Path_58" d="M324.861 177.484h5.6a6.306 6.306 0 0 1 2.192.352 4.271 4.271 0 0 1 1.563.963 3.435 3.435 0 0 1 .743 1.115 3.5 3.5 0 0 1 .267 1.362v.038a3.62 3.62 0 0 1-.3 1.5 3.4 3.4 0 0 1-.82 1.135 4.18 4.18 0 0 1-1.239.772 6.24 6.24 0 0 1-1.553.41l4.4 5.7h-1.258l-4.251-5.528h-4.365v5.528h-.991zm5.489 6.92a5.47 5.47 0 0 0 1.554-.211 3.732 3.732 0 0 0 1.229-.6 2.851 2.851 0 0 0 .81-.956 2.741 2.741 0 0 0 .3-1.291v-.038a2.574 2.574 0 0 0-1-2.141 4.491 4.491 0 0 0-2.831-.784h-4.556v6.017z" class="cls-2" data-name="Path 58" transform="translate(-217.765 -177.255)"/>
                        </g>
                        <g id="Group_11" data-name="Group 11" transform="translate(90.281 110.889)">
                            <path id="Rectangle_475" d="M0 0h28.433v1.778H0z" class="cls-7" data-name="Rectangle 475"/>
                            <path id="Rectangle_476" d="M0 0h28.433v1.778H0z" class="cls-6" data-name="Rectangle 476" transform="translate(29.787)"/>
                            <path id="Rectangle_477" d="M0 0h28.433v1.778H0z" class="cls-8" data-name="Rectangle 477" transform="translate(59.574)"/>
                            <path id="Rectangle_478" d="M0 0h28.433v1.778H0z" class="cls-9" data-name="Rectangle 478" transform="translate(89.524)"/>
                        </g>
                        <text id="BRAND" class="cls-10" transform="translate(87.5 103.391)">
                            <tspan x="0" y="0">BRAND</tspan>
                        </text>
                        <g id="Group_12" data-name="Group 12" transform="translate(90.333 66.558)">
                            <path id="Path_59" d="M93.621 67.119h2.061V78.94h-2.061z" class="cls-6" data-name="Path 59" transform="translate(-93.621 -66.859)"/>
                            <path id="Path_60" d="M104.931 67.119h4.661a5.886 5.886 0 0 1 1.866.278 3.983 3.983 0 0 1 1.418.8 3.552 3.552 0 0 1 .9 1.25 4.064 4.064 0 0 1 .312 1.622v.031a3.889 3.889 0 0 1-.373 1.747 3.637 3.637 0 0 1-1.016 1.259 4.541 4.541 0 0 1-1.506.768 6.332 6.332 0 0 1-1.846.262h-2.353v3.8h-2.06zm4.484 6.147a2.763 2.763 0 0 0 1.872-.593 1.924 1.924 0 0 0 .687-1.526v-.034a1.877 1.877 0 0 0-.695-1.585 2.984 2.984 0 0 0-1.864-.534h-2.423v4.273z" class="cls-6" data-name="Path 60" transform="translate(-99.696 -66.859)"/>
                            <path id="Path_61" d="M134.3 78.907a6.572 6.572 0 0 1-2.516-.464 5.637 5.637 0 0 1-3.175-3.208 6.468 6.468 0 0 1-.439-2.407v-.034a6.2 6.2 0 0 1 .451-2.347 5.963 5.963 0 0 1 1.266-1.95 6.062 6.062 0 0 1 4.4-1.815 8.292 8.292 0 0 1 1.41.11 6.483 6.483 0 0 1 1.173.312 5.9 5.9 0 0 1 1.022.5 7.49 7.49 0 0 1 .937.683l-1.317 1.571a7.464 7.464 0 0 0-.693-.523 4.267 4.267 0 0 0-.743-.4 4.639 4.639 0 0 0-.853-.253 5.25 5.25 0 0 0-1.022-.093 3.427 3.427 0 0 0-1.512.339 3.946 3.946 0 0 0-1.216.905 4.206 4.206 0 0 0-.81 1.328 4.4 4.4 0 0 0-.3 1.608v.031a4.866 4.866 0 0 0 .286 1.692 3.783 3.783 0 0 0 2.081 2.217 4.04 4.04 0 0 0 1.642.322 4.91 4.91 0 0 0 1.575-.247 4.417 4.417 0 0 0 1.272-.653v-2.222H134.2V72.1h5.032v4.965a8.783 8.783 0 0 1-.971.709 7.274 7.274 0 0 1-2.474.988 7.47 7.47 0 0 1-1.487.145z" class="cls-6" data-name="Path 61" transform="translate(-112.177 -66.624)"/>
                            <path id="Path_62" d="M164.4 74.163a3.091 3.091 0 0 0-.929-1.03 4.652 4.652 0 0 0-1.35-.64 7.136 7.136 0 0 0-1.5-.273l3.942-4.521V67h-7.512v.942h6.131l-4.012 4.628.25.557h.679a6.024 6.024 0 0 1 1.455.167 3.611 3.611 0 0 1 1.147.49 2.44 2.44 0 0 1 .751.784 2.077 2.077 0 0 1 .27 1.069v.034a2.351 2.351 0 0 1-.231 1.047 2.475 2.475 0 0 1-.619.8 2.956 2.956 0 0 1-.911.522 3.2 3.2 0 0 1-1.1.191 4.236 4.236 0 0 1-2.041-.483 5.13 5.13 0 0 1-1.6-1.387l-.036-.046-.763.63.033.044a5.774 5.774 0 0 0 1.825 1.553 5.281 5.281 0 0 0 2.561.6 4.5 4.5 0 0 0 1.48-.247 3.883 3.883 0 0 0 1.251-.71 3.474 3.474 0 0 0 .858-1.1 3.2 3.2 0 0 0 .318-1.432v-.033a2.927 2.927 0 0 0-.347-1.457z" class="cls-6" data-name="Path 62" transform="translate(-127.351 -66.793)"/>
                            <path id="Path_63" d="M180.259 72.1h.034a2.01 2.01 0 0 1 .819-.38 4 4 0 0 1 .954-.127 3.722 3.722 0 0 1 1.469.287 3.59 3.59 0 0 1 1.165.786 3.527 3.527 0 0 1 .76 1.165 3.81 3.81 0 0 1 .27 1.444 3.728 3.728 0 0 1-.3 1.494 3.472 3.472 0 0 1-.819 1.174 3.823 3.823 0 0 1-1.241.768 4.524 4.524 0 0 1-3.124 0 3.82 3.82 0 0 1-1.241-.768 3.465 3.465 0 0 1-.819-1.174 3.721 3.721 0 0 1-.3-1.494 3.831 3.831 0 0 1 .1-.9 4.57 4.57 0 0 1 .27-.8q.169-.38.355-.718t.372-.642l3.243-5.388h1.283zm1.553.371a2.74 2.74 0 0 0-1.1.219 2.852 2.852 0 0 0-.887.6 2.809 2.809 0 0 0-.6.9 2.743 2.743 0 0 0-.22 1.089 3.085 3.085 0 0 0 .2 1.14 2.525 2.525 0 0 0 1.461 1.461 3.306 3.306 0 0 0 2.28 0 2.525 2.525 0 0 0 1.461-1.461 3.094 3.094 0 0 0 .2-1.14 2.752 2.752 0 0 0-.219-1.089 2.775 2.775 0 0 0-1.495-1.495 2.759 2.759 0 0 0-1.08-.228z" class="cls-6" data-name="Path 63" transform="translate(-138.885 -66.702)"/>
                            <path id="Path_64" d="M207.661 70.356a6.245 6.245 0 0 0-.98-1.96 4.837 4.837 0 0 0-1.555-1.341 4.273 4.273 0 0 0-2.062-.5 4.22 4.22 0 0 0-2.062.505 5.011 5.011 0 0 0-1.563 1.349 6.252 6.252 0 0 0-1 1.968 7.9 7.9 0 0 0-.349 2.347v.034a8 8 0 0 0 .34 2.339 6.271 6.271 0 0 0 .98 1.96 4.825 4.825 0 0 0 1.555 1.341 4.273 4.273 0 0 0 2.062.5 4.221 4.221 0 0 0 2.063-.505 5.018 5.018 0 0 0 1.563-1.349 6.279 6.279 0 0 0 1-1.969 7.9 7.9 0 0 0 .347-2.347v-.033a7.985 7.985 0 0 0-.339-2.339zm-4.6 7.635a3.1 3.1 0 0 1-1.626-.439 4.137 4.137 0 0 1-1.249-1.174 5.671 5.671 0 0 1-.794-1.68 7.043 7.043 0 0 1-.276-1.969v-.033a7.039 7.039 0 0 1 .276-1.968 5.689 5.689 0 0 1 .786-1.672 4.026 4.026 0 0 1 1.232-1.157 3.238 3.238 0 0 1 3.243.008 4.184 4.184 0 0 1 1.25 1.166 5.528 5.528 0 0 1 .793 1.68 7.093 7.093 0 0 1 .277 1.977v.034a7.021 7.021 0 0 1-.276 1.969 5.684 5.684 0 0 1-.786 1.672 4.019 4.019 0 0 1-1.232 1.157 3.1 3.1 0 0 1-1.615.429z" class="cls-6" data-name="Path 64" transform="translate(-149.734 -66.558)"/>
                        </g>
                    </g>
                    <g id="Group_39" data-name="Group 39" transform="translate(377.416 189.567)">
                        <g id="Group_35" data-name="Group 35" transform="translate(93.705 118.63)">
                            <path id="Path_79" d="M257.666 179.343h-4.958v-2.866h4.958v-4.906h2.943v4.906h4.957v2.866h-4.957v4.93h-2.943z" class="cls-1" data-name="Path 79" transform="translate(-182.986 -171.449)"/>
                            <path id="Path_80" d="M93.859 171.788h1.048l4.949 11.631 4.966-11.631h.993l-5.562 12.733h-.831z" class="cls-2" data-name="Path 80" transform="translate(-93.859 -171.571)"/>
                            <path id="Path_81" d="M130.094 171.582h.9l5.888 12.733h-1.029l-1.608-3.54h-7.459l-1.608 3.54h-.975zm3.757 8.345l-3.323-7.315-3.341 7.315z" class="cls-2" data-name="Path 81" transform="translate(-110.886 -171.456)"/>
                            <path id="Path_82" d="M162.011 171.788h.939v11.794h7.423v.848h-8.362z" class="cls-2" data-name="Path 82" transform="translate(-132.098 -171.571)"/>
                            <path id="Path_83" d="M195.042 184.629a5.94 5.94 0 0 1-2.087-.352 4.5 4.5 0 0 1-1.643-1.047 4.719 4.719 0 0 1-1.075-1.707 6.67 6.67 0 0 1-.379-2.347v-7.387h.939v7.3a4.935 4.935 0 0 0 1.128 3.477 4.084 4.084 0 0 0 3.152 1.22 4.947 4.947 0 0 0 1.733-.289 3.489 3.489 0 0 0 1.328-.868 3.888 3.888 0 0 0 .849-1.444 6.166 6.166 0 0 0 .3-2v-7.387h.939v7.279a6.95 6.95 0 0 1-.379 2.393 4.828 4.828 0 0 1-1.066 1.743 4.464 4.464 0 0 1-1.634 1.067 5.88 5.88 0 0 1-2.105.349z" class="cls-2" data-name="Path 83" transform="translate(-147.722 -171.571)"/>
                            <path id="Path_84" d="M226.158 171.582h.9l5.888 12.733h-1.026l-1.608-3.54h-7.459l-1.607 3.54h-.976zm3.757 8.345l-3.323-7.315-3.341 7.315z" class="cls-2" data-name="Path 84" transform="translate(-164.786 -171.456)"/>
                            <path id="Path_85" d="M293.975 184.37a6.145 6.145 0 0 1-4.606-1.96 6.347 6.347 0 0 1-1.282-2.068 6.833 6.833 0 0 1-.451-2.474v-.036a6.8 6.8 0 0 1 .46-2.484 6.569 6.569 0 0 1 1.291-2.085 6.129 6.129 0 0 1 2-1.437 6.663 6.663 0 0 1 5.22 0 6.2 6.2 0 0 1 2 1.427 6.362 6.362 0 0 1 1.283 2.068 6.843 6.843 0 0 1 .452 2.474.023.023 0 0 1 0 .036 6.784 6.784 0 0 1-.461 2.484 6.588 6.588 0 0 1-1.281 2.085 6.12 6.12 0 0 1-2.014 1.436 6.276 6.276 0 0 1-2.611.534zm.036-.848a5.184 5.184 0 0 0 3.856-1.654 5.524 5.524 0 0 0 1.111-1.8 6.067 6.067 0 0 0 .4-2.2v-.036a6.009 6.009 0 0 0-.406-2.212 5.628 5.628 0 0 0-1.119-1.806 5.312 5.312 0 0 0-1.707-1.22 5.278 5.278 0 0 0-6.024 1.2 5.548 5.548 0 0 0-1.111 1.8 6.076 6.076 0 0 0-.4 2.2v.036a6.032 6.032 0 0 0 .406 2.213 5.649 5.649 0 0 0 1.12 1.806 5.292 5.292 0 0 0 1.706 1.219 5.181 5.181 0 0 0 2.168.454z" class="cls-2" data-name="Path 85" transform="translate(-202.584 -171.294)"/>
                            <path id="Path_86" d="M325.045 171.788h5.31a5.971 5.971 0 0 1 2.077.334 4.056 4.056 0 0 1 1.481.913 3.252 3.252 0 0 1 .7 1.056 3.312 3.312 0 0 1 .253 1.291v.036a3.429 3.429 0 0 1-.28 1.418 3.21 3.21 0 0 1-.777 1.074 3.95 3.95 0 0 1-1.174.731 5.9 5.9 0 0 1-1.472.389l4.172 5.4h-1.192l-4.027-5.238h-4.136v5.238h-.939zm5.2 6.557a5.188 5.188 0 0 0 1.472-.2 3.539 3.539 0 0 0 1.165-.57 2.71 2.71 0 0 0 .767-.906 2.6 2.6 0 0 0 .28-1.223v-.036a2.438 2.438 0 0 0-.948-2.028 4.256 4.256 0 0 0-2.682-.743h-4.317v5.707z" class="cls-2" data-name="Path 86" transform="translate(-223.574 -171.571)"/>
                        </g>
                        <g id="Group_36" data-name="Group 36" transform="translate(93.709 112.199)">
                            <path id="Rectangle_484" d="M0 0h26.94v1.685H0z" class="cls-1" data-name="Rectangle 484"/>
                            <path id="Rectangle_485" d="M0 0h26.94v1.685H0z" class="cls-3" data-name="Rectangle 485" transform="translate(28.223)"/>
                            <path id="Rectangle_486" d="M0 0h26.94v1.685H0z" class="cls-4" data-name="Rectangle 486" transform="translate(56.446)"/>
                            <path id="Rectangle_487" d="M0 0h26.94v1.685H0z" class="cls-5" data-name="Rectangle 487" transform="translate(84.823)"/>
                        </g>
                        <g id="Group_37" data-name="Group 37" transform="translate(93.584 92.476)">
                            <path id="Path_87" d="M93.584 112.237h5.56a6.535 6.535 0 0 1 2.187.341 4.645 4.645 0 0 1 1.633.962 4.216 4.216 0 0 1 1.03 1.487 4.951 4.951 0 0 1 .359 1.915v.039a4.767 4.767 0 0 1-.428 2.08 4.245 4.245 0 0 1-1.176 1.5 5.107 5.107 0 0 1-1.75.9 7.415 7.415 0 0 1-2.148.3h-2.273v4.082h-2.994zm5.365 6.862a2.434 2.434 0 0 0 1.75-.593 1.946 1.946 0 0 0 .622-1.467V117a1.857 1.857 0 0 0-.651-1.536 2.757 2.757 0 0 0-1.778-.525h-2.314v4.16z" class="cls-2" data-name="Path 87" transform="translate(-93.584 -112.004)"/>
                            <path id="Path_88" d="M124.277 112.237h6.22a5.368 5.368 0 0 1 3.966 1.38 4.2 4.2 0 0 1 1.166 3.11v.039a4.267 4.267 0 0 1-.806 2.692 4.673 4.673 0 0 1-2.109 1.526l3.324 4.86h-3.5l-2.916-4.354h-2.352v4.354h-2.994zm6.026 6.61a2.488 2.488 0 0 0 1.7-.525 1.777 1.777 0 0 0 .593-1.4v-.039a1.737 1.737 0 0 0-.622-1.458 2.749 2.749 0 0 0-1.73-.486h-2.974v3.908z" class="cls-2" data-name="Path 88" transform="translate(-110.805 -112.004)"/>
                            <path id="Path_89" d="M163.244 125.78a7.42 7.42 0 0 1-2.9-.554 7.191 7.191 0 0 1-2.284-1.5 6.688 6.688 0 0 1-1.5-2.216 6.975 6.975 0 0 1-.535-2.731v-.039a6.872 6.872 0 0 1 .544-2.731 6.964 6.964 0 0 1 3.8-3.752 7.876 7.876 0 0 1 5.8 0 7.212 7.212 0 0 1 2.284 1.5 6.7 6.7 0 0 1 1.5 2.217 6.974 6.974 0 0 1 .535 2.731v.039a6.878 6.878 0 0 1-.545 2.731 6.96 6.96 0 0 1-3.8 3.752 7.5 7.5 0 0 1-2.899.553zm.039-2.761a4.091 4.091 0 0 0 1.653-.33 3.774 3.774 0 0 0 1.293-.914 4.316 4.316 0 0 0 .836-1.351 4.464 4.464 0 0 0 .3-1.643v-.039a4.539 4.539 0 0 0-.3-1.653 4.08 4.08 0 0 0-2.167-2.284 4 4 0 0 0-1.653-.34 4.071 4.071 0 0 0-1.662.331 3.808 3.808 0 0 0-1.283.914 4.309 4.309 0 0 0-.836 1.351 4.457 4.457 0 0 0-.3 1.643v.039a4.532 4.532 0 0 0 .3 1.653 4.1 4.1 0 0 0 2.158 2.284 3.965 3.965 0 0 0 1.661.34z" class="cls-2" data-name="Path 89" transform="translate(-128.622 -111.706)"/>
                            <path id="Path_90" d="M196.158 112.237h5.56a6.533 6.533 0 0 1 2.187.341 4.641 4.641 0 0 1 1.633.962 4.2 4.2 0 0 1 1.03 1.487 4.943 4.943 0 0 1 .359 1.915v.039a4.774 4.774 0 0 1-.428 2.08 4.247 4.247 0 0 1-1.176 1.5 5.1 5.1 0 0 1-1.749.9 7.417 7.417 0 0 1-2.148.3h-2.274v4.082h-2.994zm5.365 6.862a2.433 2.433 0 0 0 1.75-.593 1.946 1.946 0 0 0 .622-1.467V117a1.857 1.857 0 0 0-.651-1.536 2.757 2.757 0 0 0-1.778-.525h-2.313v4.16z" class="cls-2" data-name="Path 90" transform="translate(-151.137 -112.004)"/>
                            <path id="Path_91" d="M226.851 112.237H237.1v2.663h-7.29v2.76h6.415v2.663h-6.415v2.857h7.387v2.663h-10.346z" class="cls-2" data-name="Path 91" transform="translate(-168.358 -112.004)"/>
                            <path id="Path_92" d="M257.633 112.237h6.22a5.368 5.368 0 0 1 3.966 1.38 4.2 4.2 0 0 1 1.166 3.11v.039a4.269 4.269 0 0 1-.806 2.692 4.676 4.676 0 0 1-2.109 1.526l3.324 4.86h-3.5l-2.916-4.354h-2.352v4.354h-2.993zm6.026 6.61a2.488 2.488 0 0 0 1.7-.525 1.779 1.779 0 0 0 .593-1.4v-.039a1.737 1.737 0 0 0-.622-1.458 2.747 2.747 0 0 0-1.73-.486h-2.975v3.908z" class="cls-2" data-name="Path 92" transform="translate(-185.629 -112.004)"/>
                            <path id="Path_93" d="M292.687 115h-4.14v-2.761h11.274V115h-4.14v10.847h-2.994z" class="cls-2" data-name="Path 93" transform="translate(-202.974 -112.004)"/>
                            <path id="Path_94" d="M322.608 120.479l-5.229-8.242h3.5l3.246 5.463 3.3-5.463h3.4l-5.229 8.184v5.424h-2.994z" class="cls-2" data-name="Path 94" transform="translate(-219.152 -112.004)"/>
                        </g>
                        <g id="Group_38" data-name="Group 38" transform="translate(93.758 77.433)">
                            <path id="Path_95" d="M93.981 77.994h1.952v11.2h-1.952z" class="cls-1" data-name="Path 95" transform="translate(-93.981 -77.748)"/>
                            <path id="Path_96" d="M105.282 77.994h4.418a5.585 5.585 0 0 1 1.768.264 3.765 3.765 0 0 1 1.344.76 3.353 3.353 0 0 1 .848 1.184 3.844 3.844 0 0 1 .3 1.536v.032a3.682 3.682 0 0 1-.353 1.656 3.441 3.441 0 0 1-.962 1.192 4.288 4.288 0 0 1-1.427.728 5.994 5.994 0 0 1-1.748.248h-2.229v3.6h-1.952zm4.248 5.824a2.62 2.62 0 0 0 1.774-.562 1.823 1.823 0 0 0 .65-1.446v-.032a1.778 1.778 0 0 0-.658-1.5 2.828 2.828 0 0 0-1.766-.506h-2.3v4.048z" class="cls-1" data-name="Path 96" transform="translate(-100.322 -77.748)"/>
                            <path id="Path_97" d="M134.311 89.141a6.226 6.226 0 0 1-2.384-.44 5.385 5.385 0 0 1-1.832-1.216 5.447 5.447 0 0 1-1.176-1.824 6.122 6.122 0 0 1-.416-2.28v-.032a5.865 5.865 0 0 1 .428-2.224 5.653 5.653 0 0 1 1.2-1.848 5.745 5.745 0 0 1 4.165-1.72 7.86 7.86 0 0 1 1.336.1 6.181 6.181 0 0 1 1.112.3 5.651 5.651 0 0 1 .968.473 7.168 7.168 0 0 1 .888.647l-1.248 1.488a7.07 7.07 0 0 0-.656-.5 4.052 4.052 0 0 0-.7-.376 4.382 4.382 0 0 0-.808-.24 4.964 4.964 0 0 0-.968-.088 3.25 3.25 0 0 0-1.432.321 3.743 3.743 0 0 0-1.152.858 4 4 0 0 0-.768 1.258 4.167 4.167 0 0 0-.28 1.523v.032a4.6 4.6 0 0 0 .271 1.6 3.581 3.581 0 0 0 1.971 2.1 3.825 3.825 0 0 0 1.556.305 4.663 4.663 0 0 0 1.492-.233 4.2 4.2 0 0 0 1.2-.619V84.4h-2.864v-1.707h4.768v4.7a8.37 8.37 0 0 1-.92.672 6.886 6.886 0 0 1-2.344.936 7.109 7.109 0 0 1-1.407.14z" class="cls-1" data-name="Path 97" transform="translate(-113.351 -77.503)"/>
                            <path id="Path_98" d="M164.294 84.662a2.933 2.933 0 0 0-.88-.975 4.4 4.4 0 0 0-1.28-.606 6.752 6.752 0 0 0-1.423-.259l3.734-4.283v-.668h-7.117v.892h5.808l-3.8 4.385.237.527h.643a5.719 5.719 0 0 1 1.379.158 3.431 3.431 0 0 1 1.087.464 2.321 2.321 0 0 1 .712.743 1.97 1.97 0 0 1 .256 1.013v.032a2.231 2.231 0 0 1-.218.992 2.346 2.346 0 0 1-.587.759 2.793 2.793 0 0 1-.863.495 3.04 3.04 0 0 1-1.046.18 4.011 4.011 0 0 1-1.936-.457 4.866 4.866 0 0 1-1.511-1.314l-.034-.044-.723.6.032.041a5.465 5.465 0 0 0 1.729 1.471 5 5 0 0 0 2.426.567 4.26 4.26 0 0 0 1.4-.234 3.674 3.674 0 0 0 1.186-.673 3.29 3.29 0 0 0 .813-1.046 3.032 3.032 0 0 0 .3-1.357v-.035a2.779 2.779 0 0 0-.324-1.368z" class="cls-1" data-name="Path 98" transform="translate(-129.19 -77.679)"/>
                            <path id="Path_99" d="M180.431 82.694h.032a1.907 1.907 0 0 1 .776-.36 3.806 3.806 0 0 1 .9-.12 3.53 3.53 0 0 1 1.392.272 3.394 3.394 0 0 1 1.1.744 3.347 3.347 0 0 1 .72 1.1 3.617 3.617 0 0 1 .256 1.368 3.533 3.533 0 0 1-.28 1.416 3.294 3.294 0 0 1-.776 1.112 3.623 3.623 0 0 1-1.176.728 4.285 4.285 0 0 1-2.96 0 3.619 3.619 0 0 1-1.176-.728 3.287 3.287 0 0 1-.776-1.112 3.533 3.533 0 0 1-.28-1.416 3.629 3.629 0 0 1 .1-.848 4.38 4.38 0 0 1 .256-.76q.16-.36.336-.68t.352-.608l3.072-5.1h1.216zm1.472.352a2.6 2.6 0 0 0-1.04.208 2.651 2.651 0 0 0-1.408 1.416 2.607 2.607 0 0 0-.208 1.032 2.93 2.93 0 0 0 .192 1.08 2.395 2.395 0 0 0 1.384 1.384 3.136 3.136 0 0 0 2.16 0 2.395 2.395 0 0 0 1.384-1.384 2.93 2.93 0 0 0 .192-1.08 2.607 2.607 0 0 0-.208-1.032 2.63 2.63 0 0 0-1.416-1.416 2.614 2.614 0 0 0-1.035-.208z" class="cls-1" data-name="Path 99" transform="translate(-141.23 -77.584)"/>
                            <path id="Path_100" d="M207.439 81.031a5.916 5.916 0 0 0-.929-1.857 4.574 4.574 0 0 0-1.473-1.271 4.051 4.051 0 0 0-1.954-.471 4 4 0 0 0-1.954.479 4.749 4.749 0 0 0-1.48 1.279 5.927 5.927 0 0 0-.945 1.865 7.5 7.5 0 0 0-.331 2.224v.032a7.579 7.579 0 0 0 .322 2.216 5.946 5.946 0 0 0 .929 1.857 4.571 4.571 0 0 0 1.473 1.271 4.048 4.048 0 0 0 1.954.471 4 4 0 0 0 1.954-.479 4.745 4.745 0 0 0 1.481-1.279 5.948 5.948 0 0 0 .945-1.865 7.481 7.481 0 0 0 .331-2.224v-.032a7.577 7.577 0 0 0-.323-2.216zm-4.356 7.234a2.943 2.943 0 0 1-1.541-.416 3.923 3.923 0 0 1-1.183-1.113 5.37 5.37 0 0 1-.753-1.592 6.661 6.661 0 0 1-.261-1.865v-.032a6.669 6.669 0 0 1 .261-1.865 5.376 5.376 0 0 1 .745-1.584 3.811 3.811 0 0 1 1.168-1.1 3.066 3.066 0 0 1 3.072.008 3.954 3.954 0 0 1 1.184 1.105 5.223 5.223 0 0 1 .752 1.592 6.712 6.712 0 0 1 .262 1.873v.032a6.646 6.646 0 0 1-.262 1.865 5.383 5.383 0 0 1-.744 1.584 3.817 3.817 0 0 1-1.168 1.1 2.939 2.939 0 0 1-1.532.408z" class="cls-1" data-name="Path 100" transform="translate(-152.554 -77.433)"/>
                        </g>
                    </g>
                </g>
                <g id="Group_56" data-name="Group 56">
                    <path id="Path_101" d="M-1052.16 356.137h-43.363V507.4h43.363" class="cls-11" data-name="Path 101" transform="translate(1502 -62)"/>
                    <path id="Line_1" d="M49 0H0" class="cls-11" data-name="Line 1" transform="translate(357.5 369.5)"/>
                </g>
            </g>
        </g>
    </g>
</svg>
