<svg xmlns="http://www.w3.org/2000/svg" width="126.142" height="53.99" viewBox="0 0 126.142 53.99">
    <defs>
        <style>
            .cls-1{fill:#0091d9}.cls-2{fill:#424548}.cls-3{fill:#5fb8cc}.cls-4{fill:#71b96c}.cls-5{fill:#00b05b}
        </style>
    </defs>
    <g id="IPG360Valuator" transform="translate(-93.5 -81.162)">
        <g id="Group_7" data-name="Group 7" transform="translate(93.5 120.403)">
            <path id="Path_37" d="M258.06 169.533h-5.592V166.3h5.592v-5.533h3.32v5.533h5.591v3.233h-5.591v5.561h-3.32z" class="cls-1" data-name="Path 37" transform="translate(-173.831 -160.629)"/>
            <path id="Path_38" d="M93.5 160.984h1.181l5.582 13.118 5.6-13.118h1.12l-6.274 14.361h-.937z" class="cls-2" data-name="Path 38" transform="translate(-93.5 -160.739)"/>
            <path id="Path_39" d="M130.51 160.778h1.019l6.641 14.361h-1.161l-1.813-3.993h-8.413l-1.813 3.993h-1.1zm4.237 9.412L131 161.939l-3.768 8.25z" class="cls-2" data-name="Path 39" transform="translate(-108.846 -160.635)"/>
            <path id="Path_40" d="M161.7 160.984h1.059v13.3h8.372v.957H161.7z" class="cls-2" data-name="Path 40" transform="translate(-127.965 -160.739)"/>
            <path id="Path_41" d="M195.418 175.468a6.691 6.691 0 0 1-2.353-.4 5.07 5.07 0 0 1-1.854-1.181 5.321 5.321 0 0 1-1.211-1.923 7.53 7.53 0 0 1-.427-2.647v-8.332h1.059v8.229a5.564 5.564 0 0 0 1.273 3.921 4.606 4.606 0 0 0 3.555 1.376 5.588 5.588 0 0 0 1.955-.326 3.941 3.941 0 0 0 1.5-.978 4.4 4.4 0 0 0 .957-1.629 6.957 6.957 0 0 0 .336-2.261v-8.332h1.059v8.21a7.831 7.831 0 0 1-.428 2.7 5.444 5.444 0 0 1-1.2 1.966 5.041 5.041 0 0 1-1.844 1.2 6.634 6.634 0 0 1-2.377.407z" class="cls-2" data-name="Path 41" transform="translate(-142.047 -160.739)"/>
            <path id="Path_42" d="M226.647 160.778h1.019l6.641 14.361h-1.161l-1.813-3.993h-8.413l-1.813 3.993h-1.1zm4.237 9.412l-3.749-8.25-3.768 8.25z" class="cls-2" data-name="Path 42" transform="translate(-157.427 -160.635)"/>
            <path id="Path_43" d="M294.573 175.238a6.931 6.931 0 0 1-5.2-2.21 7.163 7.163 0 0 1-1.446-2.332 7.71 7.71 0 0 1-.509-2.79v-.041a7.658 7.658 0 0 1 .519-2.8 7.411 7.411 0 0 1 1.456-2.352 6.918 6.918 0 0 1 2.261-1.621 7.514 7.514 0 0 1 5.887 0 6.992 6.992 0 0 1 2.261 1.61 7.169 7.169 0 0 1 1.447 2.333 7.719 7.719 0 0 1 .509 2.79.027.027 0 0 1 0 .042 7.654 7.654 0 0 1-.519 2.8 7.421 7.421 0 0 1-1.456 2.353 6.9 6.9 0 0 1-2.272 1.62 7.085 7.085 0 0 1-2.938.598zm.041-.957a5.845 5.845 0 0 0 4.349-1.865 6.232 6.232 0 0 0 1.253-2.026 6.841 6.841 0 0 0 .448-2.485v-.041a6.782 6.782 0 0 0-.459-2.5 6.361 6.361 0 0 0-1.262-2.037 5.981 5.981 0 0 0-1.925-1.376 5.951 5.951 0 0 0-6.794 1.355 6.25 6.25 0 0 0-1.253 2.026 6.846 6.846 0 0 0-.448 2.485v.042a6.8 6.8 0 0 0 .459 2.5 6.366 6.366 0 0 0 1.263 2.037 5.96 5.96 0 0 0 1.925 1.375 5.839 5.839 0 0 0 2.444.51z" class="cls-2" data-name="Path 43" transform="translate(-191.495 -160.489)"/>
            <path id="Path_44" d="M324.861 160.984h5.988a6.739 6.739 0 0 1 2.343.376 4.564 4.564 0 0 1 1.671 1.029 3.67 3.67 0 0 1 .794 1.192 3.736 3.736 0 0 1 .285 1.456v.041a3.869 3.869 0 0 1-.316 1.6 3.633 3.633 0 0 1-.876 1.212 4.467 4.467 0 0 1-1.324.825 6.667 6.667 0 0 1-1.66.438l4.705 6.091h-1.344l-4.543-5.908h-4.664v5.908h-1.059zm5.866 7.395a5.844 5.844 0 0 0 1.661-.226 3.988 3.988 0 0 0 1.314-.643 3.047 3.047 0 0 0 .865-1.022 2.929 2.929 0 0 0 .316-1.38v-.041a2.75 2.75 0 0 0-1.069-2.288 4.8 4.8 0 0 0-3.025-.838h-4.869v6.437z" class="cls-2" data-name="Path 44" transform="translate(-210.413 -160.739)"/>
        </g>
        <g id="Group_8" data-name="Group 8" transform="translate(93.665 81.162)">
            <path id="Path_45" d="M93.833 82.3h4.455v25.558h-4.455z" class="cls-2" data-name="Path 45" transform="translate(-93.833 -81.736)"/>
            <path id="Path_46" d="M116.713 82.3h10.077a12.728 12.728 0 0 1 4.035.6 8.6 8.6 0 0 1 3.067 1.734 7.662 7.662 0 0 1 1.935 2.7 8.783 8.783 0 0 1 .675 3.5v.073a8.4 8.4 0 0 1-.805 3.778 7.856 7.856 0 0 1-2.2 2.721 9.805 9.805 0 0 1-3.256 1.661 13.67 13.67 0 0 1-3.99.566h-5.087v8.215h-4.455zm9.694 13.289a5.976 5.976 0 0 0 4.048-1.283 4.161 4.161 0 0 0 1.485-3.3v-.073a4.056 4.056 0 0 0-1.5-3.427 6.446 6.446 0 0 0-4.03-1.155h-5.239v9.237z" class="cls-2" data-name="Path 46" transform="translate(-105.395 -81.736)"/>
            <path id="Path_47" d="M176.982 107.845a14.207 14.207 0 0 1-5.439-1 12.183 12.183 0 0 1-6.865-6.937 13.958 13.958 0 0 1-.949-5.2v-.073a13.4 13.4 0 0 1 .975-5.075 12.9 12.9 0 0 1 2.738-4.217 13.1 13.1 0 0 1 9.5-3.924 17.925 17.925 0 0 1 3.049.237 14.059 14.059 0 0 1 2.537.675 12.816 12.816 0 0 1 2.21 1.077 16.353 16.353 0 0 1 2.026 1.478l-2.848 3.4a16.156 16.156 0 0 0-1.5-1.132 9.259 9.259 0 0 0-1.607-.858 9.978 9.978 0 0 0-1.844-.547 11.306 11.306 0 0 0-2.209-.2 7.409 7.409 0 0 0-3.268.733 8.536 8.536 0 0 0-2.629 1.957 9.126 9.126 0 0 0-1.752 2.872 9.525 9.525 0 0 0-.639 3.476v.073a10.505 10.505 0 0 0 .619 3.658 8.171 8.171 0 0 0 4.5 4.793 8.743 8.743 0 0 0 3.551.7 10.619 10.619 0 0 0 3.405-.533 9.554 9.554 0 0 0 2.749-1.413v-4.826h-6.535v-3.907h10.88v10.734a19.1 19.1 0 0 1-2.1 1.533 15.822 15.822 0 0 1-2.483 1.278 15.658 15.658 0 0 1-2.866.858 16.18 16.18 0 0 1-3.206.31z" class="cls-2" data-name="Path 47" transform="translate(-129.153 -81.288)"/>
            <path id="Path_48" d="M238.138 97.545a6.685 6.685 0 0 0-2.008-2.226 10.05 10.05 0 0 0-2.92-1.383 15.361 15.361 0 0 0-3.248-.589l8.521-9.774v-1.525h-16.24v2.036H235.5l-8.674 10.006.54 1.2h1.467a13.058 13.058 0 0 1 3.147.361 7.846 7.846 0 0 1 2.48 1.06 5.294 5.294 0 0 1 1.625 1.694 4.492 4.492 0 0 1 .584 2.311v.073a5.087 5.087 0 0 1-.5 2.264 5.366 5.366 0 0 1-1.339 1.731 6.4 6.4 0 0 1-1.971 1.128 6.931 6.931 0 0 1-2.385.412 9.158 9.158 0 0 1-4.414-1.044 11.107 11.107 0 0 1-3.448-3l-.078-.1-1.65 1.361.072.094A12.469 12.469 0 0 0 224.9 107a11.407 11.407 0 0 0 5.536 1.293 9.715 9.715 0 0 0 3.2-.534 8.4 8.4 0 0 0 2.705-1.534 7.514 7.514 0 0 0 1.856-2.388 6.922 6.922 0 0 0 .688-3.1v-.072a6.332 6.332 0 0 0-.747-3.12z" class="cls-2" data-name="Path 48" transform="translate(-158.034 -81.61)"/>
            <path id="Path_49" d="M269.441 93.1h.073a4.345 4.345 0 0 1 1.77-.821 8.678 8.678 0 0 1 2.064-.279 8.052 8.052 0 0 1 3.176.621 7.755 7.755 0 0 1 2.519 1.7 7.654 7.654 0 0 1 1.643 2.519 8.251 8.251 0 0 1 .584 3.121 8.057 8.057 0 0 1-.639 3.231 7.513 7.513 0 0 1-1.77 2.538 8.256 8.256 0 0 1-2.684 1.661 9.775 9.775 0 0 1-6.755 0 8.25 8.25 0 0 1-2.684-1.661 7.492 7.492 0 0 1-1.77-2.538 8.056 8.056 0 0 1-.639-3.231 8.261 8.261 0 0 1 .22-1.935 9.987 9.987 0 0 1 .583-1.734q.366-.822.767-1.552t.8-1.387l7.01-11.648h2.775zm3.359.8a5.919 5.919 0 0 0-2.373.475 6.154 6.154 0 0 0-1.917 1.3 6.077 6.077 0 0 0-1.3 1.936 5.935 5.935 0 0 0-.475 2.355 6.678 6.678 0 0 0 .438 2.464 5.462 5.462 0 0 0 3.159 3.158 7.147 7.147 0 0 0 4.928 0 5.462 5.462 0 0 0 3.159-3.158 6.678 6.678 0 0 0 .438-2.464 5.943 5.943 0 0 0-.475-2.355 5.993 5.993 0 0 0-3.231-3.231 5.96 5.96 0 0 0-2.351-.48z" class="cls-2" data-name="Path 49" transform="translate(-179.989 -81.437)"/>
            <path id="Path_50" d="M325.878 89.373a13.506 13.506 0 0 0-2.12-4.237 10.457 10.457 0 0 0-3.362-2.9 9.244 9.244 0 0 0-4.458-1.073 9.125 9.125 0 0 0-4.459 1.092 10.836 10.836 0 0 0-3.379 2.918 13.533 13.533 0 0 0-2.157 4.255 17.107 17.107 0 0 0-.754 5.075v.073a17.3 17.3 0 0 0 .736 5.057 13.543 13.543 0 0 0 2.12 4.237 10.425 10.425 0 0 0 3.362 2.9 9.242 9.242 0 0 0 4.458 1.073 9.126 9.126 0 0 0 4.459-1.092 10.844 10.844 0 0 0 3.38-2.918 13.58 13.58 0 0 0 2.155-4.256 17.069 17.069 0 0 0 .755-5.075v-.072a17.282 17.282 0 0 0-.736-5.057zm-9.94 16.507a6.717 6.717 0 0 1-3.515-.95 8.941 8.941 0 0 1-2.7-2.539 12.256 12.256 0 0 1-1.717-3.633 15.214 15.214 0 0 1-.6-4.256v-.072a15.224 15.224 0 0 1 .6-4.256 12.284 12.284 0 0 1 1.7-3.615 8.7 8.7 0 0 1 2.664-2.5 7 7 0 0 1 7.011.018 9.045 9.045 0 0 1 2.7 2.522 11.946 11.946 0 0 1 1.716 3.631 15.344 15.344 0 0 1 .6 4.274v.073a15.181 15.181 0 0 1-.6 4.256 12.276 12.276 0 0 1-1.7 3.615 8.7 8.7 0 0 1-2.664 2.5 6.705 6.705 0 0 1-3.495.932z" class="cls-2" data-name="Path 50" transform="translate(-200.637 -81.162)"/>
        </g>
        <g id="Group_9" data-name="Group 9" transform="translate(93.504 113.15)">
            <path id="Rectangle_470" d="M0 0h30.385v1.9H0z" class="cls-1" data-name="Rectangle 470"/>
            <path id="Rectangle_471" d="M0 0h30.385v1.9H0z" class="cls-3" data-name="Rectangle 471" transform="translate(31.832)"/>
            <path id="Rectangle_472" d="M0 0h30.385v1.9H0z" class="cls-4" data-name="Rectangle 472" transform="translate(63.664)"/>
            <path id="Rectangle_473" d="M0 0h30.385v1.9H0z" class="cls-5" data-name="Rectangle 473" transform="translate(95.67)"/>
        </g>
    </g>
</svg>
