<svg xmlns="http://www.w3.org/2000/svg" viewBox="0 0 45.63 54.08"><defs><style>.cls-1{fill:none;stroke:#fff;stroke-miterlimit:10;stroke-width:1.42px;}</style></defs><title>Asset 113</title><g id="Layer_2" data-name="Layer 2"><g id="Layer_1-2" data-name="Layer 1"><circle class="cls-1" cx="17.24" cy="4.98" r="4.28"/><path class="cls-1" d="M23.51,24.06V18.58A4,4,0,0,0,21.16,15a9.62,9.62,0,0,0-7.82,0h0A4,4,0,0,0,11,18.59v8.09a1.64,1.64,0,0,0,1.64,1.64.94.94,0,0,1,.93.86l.32,4.53"/><path class="cls-1" d="M36.83,20.77H34a3.69,3.69,0,0,0-2.61,1.08L11,42.19a3.69,3.69,0,0,1-2.61,1.08H5.76A5.05,5.05,0,0,0,.71,48.32h0a5.05,5.05,0,0,0,5.05,5.05h7.33a3,3,0,0,0,2.12-.88L35.95,31.76a3,3,0,0,1,2.12-.88h1.8a5.05,5.05,0,0,0,5.05-5.05h0a5.05,5.05,0,0,0-5.05-5.05Z"/></g></g></svg>