<svg xmlns="http://www.w3.org/2000/svg" viewBox="0 0 43.41 43.41"><defs><style>.cls-1{fill:#000e1c;}.cls-2{fill:#fff;}</style></defs><title>Asset 126</title><g id="Layer_2" data-name="Layer 2"><g id="Layer_1-2" data-name="Layer 1"><circle class="cls-1" cx="21.7" cy="21.7" r="21.7"/><path class="cls-2" d="M33.88,11.72H27.32l-6.55,6.53c0-1.78,0-4.47,0-4.49a1.54,1.54,0,1,0-3.07,0s0,5.46,0,7.61L13,26.12H9.8a3.88,3.88,0,1,0,0,7.75h6.67l14.33-14.4h3.07a3.88,3.88,0,1,0,0-7.75Zm0,6.09H30.05L15.72,32.21H9.81a2.22,2.22,0,0,1,0-4.43h3.93L28.08,13.66h5.8a2.08,2.08,0,1,1,0,4.15Z"/><circle class="cls-2" cx="19.24" cy="10.05" r="1.66"/></g></g></svg>