<svg xmlns="http://www.w3.org/2000/svg" viewBox="0 0 36.26 48.38"><defs><style>.cls-1{fill:none;stroke:#fff;stroke-miterlimit:10;stroke-width:1.42px;}</style></defs><title>Asset 147</title><g id="Layer_2" data-name="Layer 2"><g id="Layer_1-2" data-name="Layer 1"><path class="cls-1" d="M3.58,4.83H.71v4a7.78,7.78,0,0,0,.89,3.61l2.58,4.93"/><path class="cls-1" d="M32.68,4.83h2.88v4a7.78,7.78,0,0,1-.89,3.61l-2.58,4.93"/><path class="cls-1" d="M25.25,47.88,22.08,44.7a7.94,7.94,0,0,1-2.32-5.61V35a15.76,15.76,0,0,1,1.43-6.56l7.72-16.87a7.61,7.61,0,0,0,.69-3.16V.71h-23V8.38a7.61,7.61,0,0,0,.69,3.16L15,28.42A15.76,15.76,0,0,1,16.42,35v4.11a7.94,7.94,0,0,1-2.32,5.61l-3.18,3.18"/></g></g></svg>