<svg xmlns="http://www.w3.org/2000/svg" xmlns:xlink="http://www.w3.org/1999/xlink" viewBox="0 0 43.41 43.41"><defs><style>.cls-1{fill:url(#linear-gradient);}.cls-2{fill:#fff;}</style><linearGradient id="linear-gradient" y1="21.7" x2="43.41" y2="21.7" gradientUnits="userSpaceOnUse"><stop offset="0" stop-color="#0ab950"/><stop offset="1" stop-color="#00cdbe"/></linearGradient></defs><title>Asset 118</title><g id="Layer_2" data-name="Layer 2"><g id="Layer_1-2" data-name="Layer 1"><circle class="cls-1" cx="21.7" cy="21.7" r="21.7"/><circle class="cls-2" cx="21.75" cy="13.19" r="3.28"/><path class="cls-2" d="M20.87,30.74l-1.56-1.57L21,27.48l-2.81-2.83L15.86,27a1.88,1.88,0,0,0,0,2.66L19,32.81h0a1.39,1.39,0,1,0,1.84-2.07Z"/><path class="cls-2" d="M25.22,24.65l-2.81,2.83,1.7,1.69-1.56,1.57A1.39,1.39,0,1,0,24.4,32.8h0l3.18-3.15a1.88,1.88,0,0,0,0-2.66Z"/><path class="cls-2" d="M30.66,22.81,26,18.08c-.76-.76-1.06-1-1.9-1H19.31c-.83,0-1.14.22-1.9,1L12.72,22.8a1.28,1.28,0,0,0,1.81,1.82l2.78-2.83c.39-.39.73-.18.73.22v1h7.17V22c0-.4.41-.61.8-.22l2.84,2.83a1.28,1.28,0,0,0,1.81-1.81Z"/></g></g></svg>