<svg xmlns="http://www.w3.org/2000/svg" viewBox="0 0 25.88 24.33"><defs><style>.cls-1{fill:#1781ff;}</style></defs><title>Asset 158</title><g id="Layer_2" data-name="Layer 2"><g id="Layer_1-2" data-name="Layer 1"><path class="cls-1" d="M0,18.64a7.38,7.38,0,0,0,4.72-2.88,10.54,10.54,0,0,0,.92-1.44c.62-1.2.38-1.82-.86-2.32a5.8,5.8,0,0,1-1.35-.58c-.27-.21-.37-.65-.54-1A3.48,3.48,0,0,1,4,9.89a11.46,11.46,0,0,1,2,.18c0-.71.07-1.42.13-2.12A14.59,14.59,0,0,1,6.59,4C7.7,1.2,10.09,0,13,0s5.39,1.17,6.45,4a15.79,15.79,0,0,1,.46,4.83C20,10.36,20,10.43,21.5,10a2,2,0,0,1,1.19,0c.7.28.81.84.18,1.3a8.59,8.59,0,0,1-1.65.76c-1.13.48-1.38,1.05-.82,2.16a7.64,7.64,0,0,0,4.73,4.2c.25.07.49.18.76.27-.05,1-.81,1.06-1.42,1.25-1,.31-2.25.24-2.42,1.76,0,.12-.67.32-1,.25A5.35,5.35,0,0,0,16.46,23c-2.4,1.74-4.43,1.74-6.83,0A5.2,5.2,0,0,0,5,22c-.58.15-1.09.06-1.17-.68s-.55-1-1.22-1.11A3.15,3.15,0,0,1,0,18.64Z"/></g></g></svg>