<svg xmlns="http://www.w3.org/2000/svg" xmlns:xlink="http://www.w3.org/1999/xlink" viewBox="0 0 45.14 56.88"><defs><style>.cls-1{fill:url(#linear-gradient);}.cls-2{fill:url(#linear-gradient-2);}.cls-3{fill:url(#linear-gradient-3);}.cls-4{fill:url(#linear-gradient-4);}.cls-5{fill:url(#linear-gradient-5);}.cls-6{fill:url(#linear-gradient-6);}.cls-7{fill:url(#linear-gradient-7);}.cls-8{fill:url(#linear-gradient-8);}</style><linearGradient id="linear-gradient" y1="26.1" x2="45.14" y2="26.1" gradientUnits="userSpaceOnUse"><stop offset="0" stop-color="#0ab950"/><stop offset="1" stop-color="#00cdbe"/></linearGradient><linearGradient id="linear-gradient-2" x1="0.97" y1="16.2" x2="44.17" y2="16.2" xlink:href="#linear-gradient"/><linearGradient id="linear-gradient-3" x1="0.41" y1="30.57" x2="44.72" y2="30.57" xlink:href="#linear-gradient"/><linearGradient id="linear-gradient-4" x1="11.5" y1="3.36" x2="33.67" y2="3.36" xlink:href="#linear-gradient"/><linearGradient id="linear-gradient-5" x1="1.13" y1="38.52" x2="9.77" y2="38.52" xlink:href="#linear-gradient"/><linearGradient id="linear-gradient-6" x1="34.79" y1="38.52" x2="43.43" y2="38.52" xlink:href="#linear-gradient"/><linearGradient id="linear-gradient-7" x1="8.51" y1="53.91" x2="18.41" y2="53.91" xlink:href="#linear-gradient"/><linearGradient id="linear-gradient-8" x1="25.61" y1="53.91" x2="35.51" y2="53.91" xlink:href="#linear-gradient"/></defs><title>Asset 108</title><g id="Layer_2" data-name="Layer 2"><g id="Layer_1-2" data-name="Layer 1"><path class="cls-1" d="M33.26,52.2H11.88A11.89,11.89,0,0,1,0,40.32V11.88A11.89,11.89,0,0,1,11.88,0H33.26A11.89,11.89,0,0,1,45.14,11.88V40.32A11.89,11.89,0,0,1,33.26,52.2Zm-21.38-50a9.73,9.73,0,0,0-9.72,9.72V40.32A9.73,9.73,0,0,0,11.88,50H33.26A9.73,9.73,0,0,0,43,40.32V11.88a9.73,9.73,0,0,0-9.72-9.72Z"/><rect class="cls-2" x="0.97" y="15.12" width="43.2" height="2.16"/><path class="cls-3" d="M22.83,34.8A28.92,28.92,0,0,1,12.7,32.95L.41,28.37l.75-2,12.29,4.58a26.49,26.49,0,0,0,18.61,0L44,26.6l.74,2L32.81,33A28.9,28.9,0,0,1,22.83,34.8Z"/><polygon class="cls-4" points="30.91 6.23 14.46 6.23 11.5 1.67 13.31 0.49 15.63 4.07 29.69 4.07 31.82 0.53 33.67 1.64 30.91 6.23"/><path class="cls-5" d="M9.77,42.48H1.13V40.32H7.48a4.69,4.69,0,0,0-4.55-3.6H1.49V34.56H2.93A6.85,6.85,0,0,1,9.77,41.4Z"/><path class="cls-6" d="M43.43,42.48H34.79V41.4a6.85,6.85,0,0,1,6.84-6.84h1.44v2.16H41.63a4.69,4.69,0,0,0-4.55,3.6h6.35Z"/><path class="cls-7" d="M14.81,56.88h-2.7a3.6,3.6,0,0,1-3.6-3.6V50.94h2.16v2.34a1.44,1.44,0,0,0,1.44,1.44h2.7a1.44,1.44,0,0,0,1.44-1.44V50.94h2.16v2.34A3.6,3.6,0,0,1,14.81,56.88Z"/><path class="cls-8" d="M31.91,56.88h-2.7a3.6,3.6,0,0,1-3.6-3.6V50.94h2.16v2.34a1.44,1.44,0,0,0,1.44,1.44h2.7a1.44,1.44,0,0,0,1.44-1.44V50.94h2.16v2.34A3.6,3.6,0,0,1,31.91,56.88Z"/></g></g></svg>