<svg xmlns="http://www.w3.org/2000/svg" viewBox="0 0 41.69 45.76"><defs><style>.cls-1{fill:none;stroke:#fff;stroke-miterlimit:10;stroke-width:1.84px;}</style></defs><title>Asset 176</title><g id="Layer_2" data-name="Layer 2"><g id="Layer_1-2" data-name="Layer 1"><rect class="cls-1" x="0.92" y="5" width="39.84" height="39.84" rx="3.08" ry="3.08"/><line class="cls-1" x1="0.71" y1="12.68" x2="40.98" y2="12.68"/><line class="cls-1" x1="4.48" y1="0.92" x2="11.81" y2="0.92"/><line class="cls-1" x1="28.31" y1="0.92" x2="35.65" y2="0.92"/><polyline class="cls-1" points="12.14 18.45 5.48 18.45 5.48 24.85 12.14 24.85"/><polyline class="cls-1" points="12.14 31.57 5.48 31.57 5.48 37.98 12.14 37.98"/><polyline class="cls-1" points="24.02 18.45 17.35 18.45 17.35 24.85 24.02 24.85"/><polyline class="cls-1" points="24.02 31.57 17.35 31.57 17.35 37.98 24.02 37.98"/><polyline class="cls-1" points="35.4 18.45 28.73 18.45 28.73 24.85 35.4 24.85"/><polyline class="cls-1" points="35.4 31.57 28.73 31.57 28.73 37.98 35.4 37.98"/></g></g></svg>