<svg xmlns="http://www.w3.org/2000/svg" xmlns:xlink="http://www.w3.org/1999/xlink" viewBox="0 0 56.27 44.24"><defs><style>.cls-1{fill:url(#linear-gradient);}.cls-2{fill:url(#linear-gradient-2);}.cls-3{fill:url(#linear-gradient-3);}.cls-4{fill:url(#linear-gradient-4);}.cls-5{fill:url(#linear-gradient-5);}.cls-6{fill:url(#linear-gradient-6);}.cls-7{fill:url(#linear-gradient-7);}.cls-8{fill:url(#linear-gradient-8);}.cls-9{fill:url(#linear-gradient-9);}</style><linearGradient id="linear-gradient" x1="1.82" y1="19.54" x2="54.92" y2="19.54" gradientUnits="userSpaceOnUse"><stop offset="0" stop-color="#0ab950"/><stop offset="1" stop-color="#00cdbe"/></linearGradient><linearGradient id="linear-gradient-2" x1="4.76" y1="16.66" x2="51.73" y2="16.66" xlink:href="#linear-gradient"/><linearGradient id="linear-gradient-3" x1="8.06" y1="27.89" x2="17.92" y2="27.89" xlink:href="#linear-gradient"/><linearGradient id="linear-gradient-4" x1="39.66" y1="27.89" x2="49.53" y2="27.89" xlink:href="#linear-gradient"/><linearGradient id="linear-gradient-5" x1="21.33" y1="25.23" x2="36.19" y2="25.23" xlink:href="#linear-gradient"/><linearGradient id="linear-gradient-6" x1="6.93" y1="41.96" x2="18.93" y2="41.96" xlink:href="#linear-gradient"/><linearGradient id="linear-gradient-7" x1="38.66" y1="41.96" x2="50.66" y2="41.96" xlink:href="#linear-gradient"/><linearGradient id="linear-gradient-8" x1="51.33" y1="12.02" x2="56.27" y2="12.02" xlink:href="#linear-gradient"/><linearGradient id="linear-gradient-9" x1="0" y1="12.02" x2="4.93" y2="12.02" xlink:href="#linear-gradient"/></defs><title>Asset 172</title><g id="Layer_2" data-name="Layer 2"><g id="Layer_1-2" data-name="Layer 1"><path class="cls-1" d="M5.21,39.09a3.3,3.3,0,0,1-3.3-3.27L1.82,23.75a11.89,11.89,0,0,1,1.05-5L8.07,7.2A12,12,0,0,1,18.88.14L37.09,0h.1A11.88,11.88,0,0,1,47.86,6.57l5.68,11.24a12,12,0,0,1,1.28,5.3l.1,12.29a3.3,3.3,0,0,1-3.27,3.32l-46.41.36ZM37.11,1.84,18.9,2A10.14,10.14,0,0,0,9.75,8L4.55,19.51a10.07,10.07,0,0,0-.89,4.23L3.76,35.8a1.44,1.44,0,0,0,.43,1,1.41,1.41,0,0,0,1,.42l46.41-.36a1.45,1.45,0,0,0,1.44-1.47L53,23.13a10.19,10.19,0,0,0-1.08-4.48L46.22,7.4a10,10,0,0,0-9.11-5.56Z"/><path class="cls-2" d="M12.92,18.82a14.3,14.3,0,0,1-6.33-1.49l-1.83-.91.82-1.65,1.83.91A12.33,12.33,0,0,0,13,17l30.68-.24a12.41,12.41,0,0,0,5.92-1.56l1.21-.68.9,1.61-1.21.68a14.26,14.26,0,0,1-6.81,1.8L13,18.82Z"/><path class="cls-3" d="M13,32.83a4.93,4.93,0,1,1,4.93-4.93A4.94,4.94,0,0,1,13,32.83Zm0-8a3.09,3.09,0,1,0,3.09,3.09A3.09,3.09,0,0,0,13,24.8Z"/><path class="cls-4" d="M44.59,32.83a4.93,4.93,0,1,1,4.93-4.93A4.94,4.94,0,0,1,44.59,32.83Zm0-8a3.09,3.09,0,1,0,3.09,3.09A3.09,3.09,0,0,0,44.59,24.8Z"/><rect class="cls-5" x="21.33" y="24.31" width="14.86" height="1.84"/><path class="cls-6" d="M16.44,44.24h-7a2.49,2.49,0,0,1-2.49-2.49V39.68H8.77v2.07a.65.65,0,0,0,.65.65h7a.65.65,0,0,0,.65-.65V39.68h1.84v2.07A2.49,2.49,0,0,1,16.44,44.24Z"/><path class="cls-7" d="M48.17,44.24h-7a2.49,2.49,0,0,1-2.49-2.49V39.68H40.5v2.07a.65.65,0,0,0,.65.65h7a.65.65,0,0,0,.65-.65V39.68h1.84v2.07A2.49,2.49,0,0,1,48.17,44.24Z"/><path class="cls-8" d="M53.2,14.88l-1-1.57,1.91-1.18A.61.61,0,0,0,53.82,11H51.33V9.16h2.48a2.45,2.45,0,0,1,1.29,4.54Z"/><path class="cls-9" d="M3.07,14.88,1.16,13.7A2.45,2.45,0,0,1,2.45,9.16H4.93V11H2.45a.61.61,0,0,0-.32,1.13L4,13.31Z"/></g></g></svg>