<svg xmlns="http://www.w3.org/2000/svg" xmlns:xlink="http://www.w3.org/1999/xlink" viewBox="0 0 51.34 38.84"><defs><style>.cls-1{fill:url(#linear-gradient);}.cls-2{fill:url(#linear-gradient-2);}.cls-3{fill:url(#linear-gradient-3);}.cls-4{fill:url(#linear-gradient-4);}.cls-5{fill:url(#linear-gradient-5);}.cls-6{fill:url(#linear-gradient-6);}.cls-7{fill:url(#linear-gradient-7);}</style><linearGradient id="linear-gradient" x1="22.93" y1="33.14" x2="35.5" y2="33.14" gradientUnits="userSpaceOnUse"><stop offset="0" stop-color="#0ab950"/><stop offset="1" stop-color="#00cdbe"/></linearGradient><linearGradient id="linear-gradient-2" x1="0" y1="25.24" x2="41.56" y2="25.24" xlink:href="#linear-gradient"/><linearGradient id="linear-gradient-3" x1="4.89" y1="20.31" x2="16.02" y2="20.31" xlink:href="#linear-gradient"/><linearGradient id="linear-gradient-4" x1="6.8" y1="13.76" x2="51.34" y2="13.76" xlink:href="#linear-gradient"/><linearGradient id="linear-gradient-5" x1="7.33" y1="12.76" x2="9.22" y2="12.76" gradientTransform="translate(2.5 -1.31) rotate(10.65)" xlink:href="#linear-gradient"/><linearGradient id="linear-gradient-6" x1="28.9" y1="7.96" x2="48.23" y2="7.96" gradientTransform="translate(1.82 -6.19) rotate(9.39)" xlink:href="#linear-gradient"/><linearGradient id="linear-gradient-7" x1="43.31" y1="11.94" x2="48.7" y2="11.94" xlink:href="#linear-gradient"/></defs><title>Asset 170</title><g id="Layer_2" data-name="Layer 2"><g id="Layer_1-2" data-name="Layer 1"><rect class="cls-1" x="22.93" y="32.22" width="12.56" height="1.84"/><g id="_Group_" data-name="&lt;Group&gt;"><path class="cls-2" d="M37.09,38.84H4.47A4.36,4.36,0,0,1,0,34.6V15.88a4.37,4.37,0,0,1,4.47-4.24H37.09a4.62,4.62,0,0,1,2.4.66,4.16,4.16,0,0,1,2.07,3.58V34.6A4.36,4.36,0,0,1,37.09,38.84ZM4.47,13.48a2.53,2.53,0,0,0-2.63,2.4V34.6A2.52,2.52,0,0,0,4.47,37H37.09a2.52,2.52,0,0,0,2.63-2.4V15.88a2.33,2.33,0,0,0-1.18-2,2.78,2.78,0,0,0-1.45-.4Z"/><path class="cls-3" d="M13.86,24.49H7.05a2.13,2.13,0,0,1-2.17-2.08V18.22a2.13,2.13,0,0,1,2.17-2.08h6.8a2.2,2.2,0,0,1,.86.17A2.07,2.07,0,0,1,16,18.22v4.19A2.13,2.13,0,0,1,13.86,24.49ZM7.05,18a.3.3,0,0,0-.32.24v4.19a.3.3,0,0,0,.32.24h6.8a.3.3,0,0,0,.32-.24V18.22A.25.25,0,0,0,14,18h0a.37.37,0,0,0-.14,0Z"/><path class="cls-4" d="M43.61,27.52l-.3-1.82,4-.67A2.62,2.62,0,0,0,49.09,24a2.21,2.21,0,0,0,.37-1.69L46,3.84a2.62,2.62,0,0,0-3.06-2L10.81,7.18A2.47,2.47,0,0,0,8.64,9.54H6.8a4.31,4.31,0,0,1,3.71-4.17L42.63.06a4.47,4.47,0,0,1,5.17,3.43l3.48,18.44A4,4,0,0,1,50.6,25a4.51,4.51,0,0,1-3,1.83Z"/><rect class="cls-5" x="7.35" y="12.55" width="1.84" height="0.41" transform="translate(-2.22 1.75) rotate(-10.65)"/><rect class="cls-6" x="28.92" y="7.04" width="19.29" height="1.84" transform="translate(-0.78 6.4) rotate(-9.39)"/><polygon class="cls-7" points="43.61 13.26 43.31 11.45 48.39 10.61 48.7 12.43 43.61 13.26"/></g></g></g></svg>