<svg xmlns="http://www.w3.org/2000/svg" xmlns:xlink="http://www.w3.org/1999/xlink" viewBox="0 0 57.66 32.01"><defs><style>.cls-1{fill:url(#linear-gradient);}.cls-2{fill:url(#linear-gradient-2);}.cls-3{fill:url(#linear-gradient-3);}.cls-4{fill:url(#linear-gradient-4);}.cls-5{fill:url(#linear-gradient-5);}.cls-6{fill:url(#linear-gradient-6);}</style><linearGradient id="linear-gradient" x1="40.64" y1="16.67" x2="57.66" y2="16.67" gradientUnits="userSpaceOnUse"><stop offset="0" stop-color="#0ab950"/><stop offset="1" stop-color="#00cdbe"/></linearGradient><linearGradient id="linear-gradient-2" x1="48.23" y1="15.43" x2="52.79" y2="15.43" xlink:href="#linear-gradient"/><linearGradient id="linear-gradient-3" x1="0" y1="16.01" x2="50.3" y2="16.01" xlink:href="#linear-gradient"/><linearGradient id="linear-gradient-4" x1="6.39" y1="9.41" x2="22.23" y2="9.41" xlink:href="#linear-gradient"/><linearGradient id="linear-gradient-5" x1="6.39" y1="14.87" x2="22.23" y2="14.87" xlink:href="#linear-gradient"/><linearGradient id="linear-gradient-6" x1="6.39" y1="24.87" x2="38.26" y2="24.87" xlink:href="#linear-gradient"/></defs><title>Asset 169</title><g id="Layer_2" data-name="Layer 2"><g id="Layer_1-2" data-name="Layer 1"><path class="cls-1" d="M49.15,25.18a8.51,8.51,0,1,1,8.51-8.51A8.52,8.52,0,0,1,49.15,25.18Zm0-15.18a6.67,6.67,0,1,0,6.67,6.67A6.68,6.68,0,0,0,49.15,10Z"/><polygon class="cls-2" points="52.79 18.13 48.23 18.13 48.23 12.72 50.07 12.72 50.07 16.29 52.79 16.29 52.79 18.13"/><path class="cls-3" d="M45.8,32H4.5A4.51,4.51,0,0,1,0,27.51V4.5A4.51,4.51,0,0,1,4.5,0H45.42a4.51,4.51,0,0,1,4.5,4.5V6.39H48.08V4.5a2.66,2.66,0,0,0-2.66-2.66H4.5A2.67,2.67,0,0,0,1.84,4.5v23A2.67,2.67,0,0,0,4.5,30.17H45.8a2.66,2.66,0,0,0,2.66-2.66V26.38H50.3v1.13A4.51,4.51,0,0,1,45.8,32Z"/><rect class="cls-4" x="6.39" y="8.49" width="15.84" height="1.84"/><rect class="cls-5" x="6.39" y="13.95" width="15.84" height="1.84"/><rect class="cls-6" x="6.39" y="23.95" width="31.87" height="1.84"/></g></g></svg>