<svg xmlns="http://www.w3.org/2000/svg" viewBox="0 0 51.34 38.84"><defs><style>.cls-1{fill:#fff;}</style></defs><title>Asset 167</title><g id="Layer_2" data-name="Layer 2"><g id="Layer_1-2" data-name="Layer 1"><rect class="cls-1" x="22.93" y="32.22" width="12.56" height="1.84"/><g id="_Group_" data-name="&lt;Group&gt;"><path class="cls-1" d="M37.09,38.84H4.47A4.36,4.36,0,0,1,0,34.6V15.88a4.37,4.37,0,0,1,4.47-4.24H37.09a4.62,4.62,0,0,1,2.4.66,4.16,4.16,0,0,1,2.07,3.58V34.6A4.36,4.36,0,0,1,37.09,38.84ZM4.47,13.48a2.53,2.53,0,0,0-2.63,2.4V34.6A2.52,2.52,0,0,0,4.47,37H37.09a2.52,2.52,0,0,0,2.63-2.4V15.88a2.33,2.33,0,0,0-1.18-2,2.78,2.78,0,0,0-1.45-.4Z"/><path class="cls-1" d="M13.86,24.49H7.05a2.13,2.13,0,0,1-2.17-2.08V18.22a2.13,2.13,0,0,1,2.17-2.08h6.8a2.2,2.2,0,0,1,.86.17A2.07,2.07,0,0,1,16,18.22v4.19A2.13,2.13,0,0,1,13.86,24.49ZM7.05,18a.3.3,0,0,0-.32.24v4.19a.3.3,0,0,0,.32.24h6.8a.3.3,0,0,0,.32-.24V18.22A.25.25,0,0,0,14,18h0a.37.37,0,0,0-.14,0Z"/><path class="cls-1" d="M43.61,27.52l-.3-1.82,4-.67A2.62,2.62,0,0,0,49.09,24a2.21,2.21,0,0,0,.37-1.69L46,3.84a2.62,2.62,0,0,0-3.06-2L10.81,7.18A2.47,2.47,0,0,0,8.64,9.54H6.8a4.31,4.31,0,0,1,3.71-4.17L42.63.06a4.47,4.47,0,0,1,5.17,3.43l3.48,18.44A4,4,0,0,1,50.6,25a4.51,4.51,0,0,1-3,1.83Z"/><rect class="cls-1" x="7.35" y="12.55" width="1.84" height="0.41" transform="translate(-2.22 1.75) rotate(-10.65)"/><rect class="cls-1" x="28.92" y="7.04" width="19.29" height="1.84" transform="translate(-0.78 6.4) rotate(-9.39)"/><polygon class="cls-1" points="43.61 13.26 43.31 11.45 48.39 10.61 48.7 12.43 43.61 13.26"/></g></g></g></svg>