<svg xmlns="http://www.w3.org/2000/svg" viewBox="0 0 57.66 32.01"><defs><style>.cls-1{fill:#fff;}</style></defs><title>Asset 165</title><g id="Layer_2" data-name="Layer 2"><g id="Layer_1-2" data-name="Layer 1"><path class="cls-1" d="M49.15,25.18a8.51,8.51,0,1,1,8.51-8.51A8.52,8.52,0,0,1,49.15,25.18Zm0-15.18a6.67,6.67,0,1,0,6.67,6.67A6.68,6.68,0,0,0,49.15,10Z"/><polygon class="cls-1" points="52.79 18.13 48.23 18.13 48.23 12.72 50.07 12.72 50.07 16.29 52.79 16.29 52.79 18.13"/><path class="cls-1" d="M45.8,32H4.5A4.51,4.51,0,0,1,0,27.51V4.5A4.51,4.51,0,0,1,4.5,0H45.42a4.51,4.51,0,0,1,4.5,4.5V6.39H48.08V4.5a2.66,2.66,0,0,0-2.66-2.66H4.5A2.67,2.67,0,0,0,1.84,4.5v23A2.67,2.67,0,0,0,4.5,30.17H45.8a2.66,2.66,0,0,0,2.66-2.66V26.38H50.3v1.13A4.51,4.51,0,0,1,45.8,32Z"/><rect class="cls-1" x="6.39" y="8.49" width="15.84" height="1.84"/><rect class="cls-1" x="6.39" y="13.95" width="15.84" height="1.84"/><rect class="cls-1" x="6.39" y="23.95" width="31.87" height="1.84"/></g></g></svg>