<svg xmlns="http://www.w3.org/2000/svg" xmlns:xlink="http://www.w3.org/1999/xlink" viewBox="0 0 48 43.84"><defs><style>.cls-1{fill:url(#linear-gradient);}.cls-2{fill:url(#linear-gradient-2);}.cls-3{fill:url(#linear-gradient-3);}.cls-4{fill:url(#linear-gradient-4);}.cls-5{fill:url(#linear-gradient-5);}.cls-6{fill:url(#linear-gradient-6);}</style><linearGradient id="linear-gradient" x1="10.08" y1="18.78" x2="48" y2="18.78" gradientUnits="userSpaceOnUse"><stop offset="0" stop-color="#0ab950"/><stop offset="1" stop-color="#00cdbe"/></linearGradient><linearGradient id="linear-gradient-2" x1="16.37" y1="38.94" x2="26.17" y2="38.94" xlink:href="#linear-gradient"/><linearGradient id="linear-gradient-3" x1="31.86" y1="38.94" x2="41.66" y2="38.94" xlink:href="#linear-gradient"/><linearGradient id="linear-gradient-4" x1="0" y1="5.51" x2="11.95" y2="5.51" xlink:href="#linear-gradient"/><linearGradient id="linear-gradient-5" x1="19.36" y1="14.74" x2="39.04" y2="14.74" xlink:href="#linear-gradient"/><linearGradient id="linear-gradient-6" x1="20.65" y1="21.68" x2="37.75" y2="21.68" xlink:href="#linear-gradient"/></defs><title>Asset 168</title><g id="Layer_2" data-name="Layer 2"><g id="Layer_1-2" data-name="Layer 1"><path class="cls-1" d="M40.06,31.42H18A4.54,4.54,0,0,1,13.42,28L10.15,11A3.79,3.79,0,0,1,11,7.83a4.83,4.83,0,0,1,3.76-1.7H43.33a4.83,4.83,0,0,1,3.76,1.7A3.79,3.79,0,0,1,47.93,11L44.66,28A4.54,4.54,0,0,1,40.06,31.42ZM14.75,8a3,3,0,0,0-2.34,1A2,2,0,0,0,12,10.65l3.27,17a2.74,2.74,0,0,0,2.79,2h22a2.74,2.74,0,0,0,2.79-2l3.27-17A2,2,0,0,0,45.67,9a3,3,0,0,0-2.34-1Z"/><path class="cls-2" d="M21.27,43.84a4.9,4.9,0,1,1,4.9-4.9A4.91,4.91,0,0,1,21.27,43.84Zm0-8a3.06,3.06,0,1,0,3.06,3.06A3.06,3.06,0,0,0,21.27,35.88Z"/><path class="cls-3" d="M36.76,43.84a4.9,4.9,0,1,1,4.9-4.9A4.91,4.91,0,0,1,36.76,43.84Zm0-8a3.06,3.06,0,1,0,3.06,3.06A3.06,3.06,0,0,0,36.76,35.88Z"/><polygon class="cls-4" points="10.15 11.02 8.18 1.84 0 1.84 0 0 9.67 0 11.95 10.64 10.15 11.02"/><rect class="cls-5" x="19.36" y="13.82" width="19.68" height="1.84"/><rect class="cls-6" x="20.65" y="20.76" width="17.1" height="1.84"/></g></g></svg>