<svg xmlns="http://www.w3.org/2000/svg" xmlns:xlink="http://www.w3.org/1999/xlink" viewBox="0 0 45.38 49.84"><defs><style>.cls-1{fill:url(#linear-gradient);}.cls-2{fill:url(#linear-gradient-2);}.cls-3{fill:url(#linear-gradient-3);}.cls-4{fill:url(#linear-gradient-4);}.cls-5{fill:url(#linear-gradient-5);}.cls-6{fill:url(#linear-gradient-6);}.cls-7{fill:url(#linear-gradient-7);}</style><linearGradient id="linear-gradient" x1="8.94" y1="5.49" x2="29.77" y2="5.49" gradientUnits="userSpaceOnUse"><stop offset="0" stop-color="#0ab950"/><stop offset="1" stop-color="#00cdbe"/></linearGradient><linearGradient id="linear-gradient-2" x1="6.82" y1="17.28" x2="12.97" y2="17.28" xlink:href="#linear-gradient"/><linearGradient id="linear-gradient-3" x1="25.34" y1="17.28" x2="31.49" y2="17.28" xlink:href="#linear-gradient"/><linearGradient id="linear-gradient-4" x1="28.64" y1="41.47" x2="45.38" y2="41.47" xlink:href="#linear-gradient"/><linearGradient id="linear-gradient-5" x1="0" y1="26.78" x2="37.5" y2="26.78" xlink:href="#linear-gradient"/><linearGradient id="linear-gradient-6" x1="32.78" y1="41.52" x2="38.78" y2="41.52" xlink:href="#linear-gradient"/><linearGradient id="linear-gradient-7" x1="37.79" y1="42.47" x2="37.79" y2="42.47" xlink:href="#linear-gradient"/></defs><title>Asset 171</title><g id="Layer_2" data-name="Layer 2"><g id="Layer_1-2" data-name="Layer 1"><path class="cls-1" d="M29.77,11H27.93v-.56a8.58,8.58,0,0,0-17.16,0v.24H8.94v-.24a10.42,10.42,0,1,1,20.84,0Z"/><path class="cls-2" d="M9.9,20.36A3.08,3.08,0,1,1,13,17.28,3.08,3.08,0,0,1,9.9,20.36Zm0-4.31a1.23,1.23,0,1,0,1.23,1.23A1.24,1.24,0,0,0,9.9,16.05Z"/><path class="cls-3" d="M28.41,20.36a3.08,3.08,0,1,1,3.08-3.08A3.08,3.08,0,0,1,28.41,20.36Zm0-4.31a1.23,1.23,0,1,0,1.23,1.23A1.24,1.24,0,0,0,28.41,16.05Z"/><g id="_Group_" data-name="&lt;Group&gt;"><path class="cls-4" d="M37,49.84a8.35,8.35,0,0,1-8.25-6.94h0a8.54,8.54,0,0,1-.12-1.43A8.37,8.37,0,1,1,37,49.84Zm-6.43-7.25a6.54,6.54,0,1,0-.1-1.12A6.71,6.71,0,0,0,30.58,42.59Z"/><polygon class="cls-5" points="26.58 43.67 0 43.67 2.7 9.9 36.02 9.9 37.5 30.23 35.66 30.36 34.3 11.74 4.4 11.74 2 41.83 26.58 41.83 26.58 43.67"/></g><path class="cls-6" d="M37.86,46.1a.92.92,0,0,1-.92-.92v-2H32.78l3.66-5.78a.92.92,0,0,1,1.56,1l-1.87,2.95h2.65v3.89A.92.92,0,0,1,37.86,46.1Z"/><path class="cls-7" d="M37.79,42.47"/></g></g></svg>