<svg xmlns="http://www.w3.org/2000/svg" viewBox="0 0 45.38 49.84"><defs><style>.cls-1,.cls-2{fill:none;stroke:#fff;stroke-miterlimit:10;stroke-width:1.84px;}.cls-2{stroke-linecap:round;}</style></defs><title>Asset 166</title><g id="Layer_2" data-name="Layer 2"><g id="Layer_1-2" data-name="Layer 1"><path class="cls-1" d="M9.86,10.66v-.24a9.5,9.5,0,0,1,9.5-9.5h0a9.5,9.5,0,0,1,9.5,9.5V11"/><circle class="cls-1" cx="9.9" cy="17.28" r="2.16"/><circle class="cls-1" cx="28.41" cy="17.28" r="2.16"/><g id="_Group_" data-name="&lt;Group&gt;"><path class="cls-1" d="M29.67,42.75a7.66,7.66,0,0,1-.11-1.28A7.45,7.45,0,0,1,37,34h0a7.45,7.45,0,1,1-7.34,8.73Z"/><polyline class="cls-1" points="26.58 42.75 1 42.75 3.55 10.82 35.16 10.82 36.58 30.3"/></g><polyline class="cls-2" points="37.22 37.85 34.45 42.21 37.86 42.21 37.86 45.18"/><path class="cls-2" d="M37.79,42.47"/></g></g></svg>