<svg xmlns="http://www.w3.org/2000/svg" xmlns:xlink="http://www.w3.org/1999/xlink" viewBox="0 0 48.36 48.36"><defs><style>.cls-1{fill:url(#linear-gradient);}.cls-2{fill:url(#linear-gradient-2);}.cls-3{fill:url(#linear-gradient-3);}.cls-4{fill:url(#linear-gradient-4);}.cls-5{fill:url(#linear-gradient-5);}</style><linearGradient id="linear-gradient" x1="4.62" y1="24.18" x2="43.74" y2="24.18" gradientUnits="userSpaceOnUse"><stop offset="0" stop-color="#0ab950"/><stop offset="1" stop-color="#00cdbe"/></linearGradient><linearGradient id="linear-gradient-2" x1="0" y1="24.18" x2="48.36" y2="24.18" xlink:href="#linear-gradient"/><linearGradient id="linear-gradient-3" x1="23.1" y1="14.79" x2="25.26" y2="14.79" xlink:href="#linear-gradient"/><linearGradient id="linear-gradient-4" x1="25.4" y1="29.28" x2="33.17" y2="29.28" gradientTransform="translate(29.28 -12.13) rotate(45)" xlink:href="#linear-gradient"/><linearGradient id="linear-gradient-5" x1="20.45" y1="24.69" x2="28.19" y2="24.69" xlink:href="#linear-gradient"/></defs><title>Asset 107</title><g id="Layer_2" data-name="Layer 2"><g id="Layer_1-2" data-name="Layer 1"><path class="cls-1" d="M24.18,43.74A19.56,19.56,0,1,1,43.74,24.18,19.58,19.58,0,0,1,24.18,43.74Zm0-37a17.4,17.4,0,1,0,17.4,17.4A17.42,17.42,0,0,0,24.18,6.78Z"/><path class="cls-2" d="M24.18,48.36A24.18,24.18,0,1,1,48.36,24.18,24.21,24.21,0,0,1,24.18,48.36Zm0-46.2a22,22,0,1,0,22,22A22,22,0,0,0,24.18,2.16Z"/><rect class="cls-3" x="23.1" y="8.4" width="2.16" height="12.78"/><rect class="cls-4" x="28.2" y="24.87" width="2.16" height="8.83" transform="translate(-12.13 29.28) rotate(-45)"/><path class="cls-5" d="M24.32,28.56a3.87,3.87,0,1,1,3.87-3.87A3.87,3.87,0,0,1,24.32,28.56Zm0-5.58A1.71,1.71,0,1,0,26,24.69,1.71,1.71,0,0,0,24.32,23Z"/></g></g></svg>