<svg xmlns="http://www.w3.org/2000/svg" viewBox="0 0 207.96 37.94"><defs><style>.cls-1{fill:#fff;}</style></defs><title>Asset 161</title><g id="Layer_2" data-name="Layer 2"><g id="Layer_1-2" data-name="Layer 1"><path class="cls-1" d="M39.65,34c1.92,0,2.8-1.83,2.8-5.16V8H36.94V28.79C36.94,32.5,38.05,34,39.65,34Z"/><rect class="cls-1" x="2.66" y="7.97" width="6.34" height="29.97"/><path class="cls-1" d="M68.09,32.12c0-3.58.23-6.62-3.15-6.62H63.81V37.94h4.75A19.43,19.43,0,0,1,68.09,32.12Z"/><path class="cls-1" d="M91.81,11.89c-2.48,0-2.8,3.33-2.8,11s.32,11,2.8,11,2.8-3.33,2.8-11S94.28,11.89,91.81,11.89Z"/><path class="cls-1" d="M84.55,22.93c0-6.68,0-13.07,4.32-15H68.3c2.56.44,4.16,3.13,4.16,7.8,0,3.83-1,6.7-3.9,7.37v.08c1,.17,3.82.5,3.82,5.91,0,1.91.09,7.55.49,8.81H89C84.57,36.13,84.55,29.61,84.55,22.93Z"/><path class="cls-1" d="M32.54,29.21V8H20.48v4.55H13.4v7.41h6.53v4.62H13.4v8.78h7.31v4.61H36.9C34,36.77,32.54,33.63,32.54,29.21Z"/><path class="cls-1" d="M94.75,8c4.3,1.88,4.32,8.28,4.32,15s0,13.2-4.47,15h9.69V8Z"/><path class="cls-1" d="M46.85,8V29.21c0,3.62-1.16,7.39-4.4,8.73h17V8Z"/><path class="cls-1" d="M65.76,12.52h-2v8.37h2c1.75,0,2.24-2.5,2.24-4.41C68,13.6,67.16,12.52,65.76,12.52Z"/><path class="cls-1" d="M120.71,17.06c0-2.46-.47-4.54-2.45-4.54h-2.21v8.57h2.45C119.81,21.09,120.71,19.05,120.71,17.06Z"/><polygon class="cls-1" points="142.19 13.69 140.18 26.67 144.38 26.67 142.25 13.69 142.19 13.69"/><polygon class="cls-1" points="195.8 21.39 201.68 37.94 204.23 37.94 204.23 7.97 201.66 7.97 195.8 21.39"/><path class="cls-1" d="M120.48,8c3.36.5,4.7,3.86,4.7,8.92,0,3.41-.7,8.82-5.86,8.82h-3.26V37.94h17.72l5.81-30Z"/><polygon class="cls-1" points="145.41 7.97 151.1 37.94 162.15 37.94 162.15 7.97 145.41 7.97"/><polygon class="cls-1" points="139.31 31.29 138.12 37.94 146.47 37.94 145.31 31.29 139.31 31.29"/><path class="cls-1" d="M170.83,32.12c0-3.58.23-6.62-3.15-6.62h-1.14V37.94h4.75A19.46,19.46,0,0,1,170.83,32.12Z"/><polygon class="cls-1" points="104.68 7.97 104.28 7.97 104.28 37.94 104.68 37.94 111.65 37.94 111.65 7.97 104.68 7.97"/><polygon class="cls-1" points="191.63 22.55 191.63 37.94 196.73 37.94 191.69 22.55 191.63 22.55"/><path class="cls-1" d="M171,8c2.55.44,4.16,3.13,4.16,7.8,0,3.83-1,6.7-3.9,7.37v.08c1,.17,3.82.5,3.82,5.91,0,1.91.09,7.55.49,8.81h11.63V8Z"/><path class="cls-1" d="M168.5,12.52h-2v8.37h2c1.75,0,2.24-2.5,2.24-4.41C170.74,13.6,169.9,12.52,168.5,12.52Z"/><polygon class="cls-1" points="191.69 20.76 196.82 7.97 191.63 7.97 191.63 20.76 191.69 20.76"/><path class="cls-1" d="M51.53,5.08A239,239,0,0,0,77.34,3.41a236.12,236.12,0,0,1,25.81-1.66,238.41,238.41,0,0,1,26.12,1.66,244.29,244.29,0,0,0,25.91,1.67c13.42,0,22.8-.86,33.67-1.82,5.85-.52,11.9-1.06,19.11-1.51L207.85,0c-7.24.45-13.3,1-19.16,1.51-10.82,1-20.17,1.79-33.51,1.82a242.7,242.7,0,0,1-25.73-1.66A239.86,239.86,0,0,0,103.14,0a237.55,237.55,0,0,0-26,1.67A237.66,237.66,0,0,1,51.53,3.33c-13,0-22.14-.86-32.71-1.82C13.1,1,7.18.46.11,0L0,1.75c7,.45,13,1,18.67,1.5C29.27,4.22,38.43,5,51.53,5.08Z"/></g></g></svg>