<svg xmlns="http://www.w3.org/2000/svg" viewBox="0 0 112.11 74.75"><defs><style>.cls-1{fill:#fff;}</style></defs><title>Asset 162</title><g id="Layer_2" data-name="Layer 2"><g id="Layer_1-2" data-name="Layer 1"><path class="cls-1" d="M3.62,3.5H5.36V4.65H3.62V7H5.81V8.17H2.35V.09H5.81V1.25H3.62Z"/><path class="cls-1" d="M12.42.09V6.32c0,.58.25.78.66.78s.66-.21.66-.78V.09h1.2V6.24c0,1.29-.65,2-1.89,2s-1.89-.74-1.89-2V.09Z"/><path class="cls-1" d="M23.07,8.17a2.48,2.48,0,0,1-.12-1V5.91c0-.75-.25-1-.83-1h-.44V8.17H20.42V.09h1.92C23.65.09,24.22.7,24.22,2v.63a1.61,1.61,0,0,1-.83,1.64c.63.27.84.88.84,1.72V7.19a2.38,2.38,0,0,0,.14,1ZM21.69,1.25V3.73h.5c.47,0,.76-.21.76-.85v-.8c0-.58-.2-.83-.65-.83Z"/><path class="cls-1" d="M29.57,2a1.93,1.93,0,1,1,3.85,0v4.2a1.93,1.93,0,1,1-3.85,0Zm1.27,4.28c0,.58.25.8.66.8s.66-.22.66-.8V2c0-.58-.25-.8-.66-.8s-.66.22-.66.8Z"/><path class="cls-1" d="M42.62,2.09v1c0,1.29-.62,2-1.89,2h-.6v3H38.86V.09h1.87C42,.09,42.62.8,42.62,2.09Zm-2.49-.84V4h.6c.4,0,.62-.18.62-.76V2c0-.58-.22-.76-.62-.76Z"/><path class="cls-1" d="M51.78,8.17H50.5L50.28,6.7H48.72L48.5,8.17H47.34L48.63.09h1.86Zm-2.9-2.56H50.1l-.61-4.08Z"/><path class="cls-1" d="M59.63,8.17a2.48,2.48,0,0,1-.12-1V5.91c0-.75-.25-1-.83-1h-.44V8.17H57V.09H58.9C60.21.09,60.78.7,60.78,2v.63a1.61,1.61,0,0,1-.83,1.64c.63.27.84.88.84,1.72V7.19a2.38,2.38,0,0,0,.14,1ZM58.25,1.25V3.73h.5c.47,0,.76-.21.76-.85v-.8c0-.58-.2-.83-.65-.83Z"/><path class="cls-1" d="M67.89,4.95l-.39.74V8.17H66.23V.09H67.5V3.61L69.16.09h1.27l-1.77,3.6,1.77,4.48h-1.3Z"/><path class="cls-1" d="M75.44,2a1.93,1.93,0,1,1,3.85,0v4.2a1.93,1.93,0,1,1-3.85,0Zm1.27,4.28c0,.58.25.8.66.8s.66-.22.66-.8V2c0-.58-.25-.8-.66-.8s-.66.22-.66.8Z"/><path class="cls-1" d="M86.63,6.68l1-6.59h1.17L87.52,8.17H85.63L84.38.09h1.28Z"/><path class="cls-1" d="M48.12,54V53.8A.21.21,0,0,1,48,54Z"/><path class="cls-1" d="M71.74,29.07a2.2,2.2,0,0,0-.41.37s0,.17.11.37A5.8,5.8,0,0,0,71.74,29.07Z"/><path class="cls-1" d="M72.11,28.56a.52.52,0,0,0-.37.52.73.73,0,0,0,.18-.26A.72.72,0,0,1,72.11,28.56Z"/><path class="cls-1" d="M72.55,31.29l.15-.15-.07-.07-.15.15A.07.07,0,0,1,72.55,31.29Z"/><path class="cls-1" d="M69.82,33.8a.42.42,0,0,0,.3-.15.21.21,0,0,0,.07-.15.57.57,0,0,1,.07-.22c-.15-.1-.32,0-.52.15S69.62,33.8,69.82,33.8Z"/><path class="cls-1" d="M111.3,36.68a3,3,0,0,0-1.77.52A26.3,26.3,0,0,0,106,39.63L104.36,41a2.36,2.36,0,0,1-.37.3,1.33,1.33,0,0,0-.37.37,3,3,0,0,1-.7.85l-.85.7a2,2,0,0,0,.07-.59q.37-1,.63-2t.63-2a15.28,15.28,0,0,0,.59-4.06,4.21,4.21,0,0,0-.07-.81,1.34,1.34,0,0,1-1-.22,6.31,6.31,0,0,1-.78-.66.5.5,0,0,0-.37-.15l-1.22-.33a2.55,2.55,0,0,0-1.29,0,1.14,1.14,0,0,1-.81,0,1.84,1.84,0,0,0-1.07-.11,2.83,2.83,0,0,0-1,.48l-.52.22v-.07c-.15.15-.3.28-.44.41s-.3.26-.44.41L92.63,36.9l-.08.1-.07,0q-.52.37-1,.7t-1,.7l-1.29.7q-.63.33-1.44.7a2,2,0,0,0,.15-.74V36.6a5.25,5.25,0,0,0-.59-2.36A5.56,5.56,0,0,0,86.5,33a3.34,3.34,0,0,0-1.25-.92l-.89-.3a2.8,2.8,0,0,0-.89-.15q-.66-.07-1.29-.18A3.38,3.38,0,0,1,81,31c-.2.1-.27.15-.22.15s-.07,0-.07,0,0,0-.07,0a19.5,19.5,0,0,0-5.39,6.72,4.64,4.64,0,0,0-.44,2.29c0,.3,0,.59,0,.89s0,.36,0,.54c-.8.9-1.57,1.82-2.31,2.78q-1.88,2.44-3.58,5-.89,1.33-1.66,2.66t-1.59,2.58a2.17,2.17,0,0,1-.74,1,2.52,2.52,0,0,1-.37-.74l-.15-1a3.14,3.14,0,0,0-.3-1V52.7a4.91,4.91,0,0,0,0-1,1.79,1.79,0,0,1,.26-1,4.79,4.79,0,0,0,.26-.63,1.35,1.35,0,0,0,0-.7,1.42,1.42,0,0,1,0-.55,4,4,0,0,0,0-.55,2.18,2.18,0,0,1,.11-1.07,4.64,4.64,0,0,1,.48-.92,3.09,3.09,0,0,0,.59-1.4,7.82,7.82,0,0,1,.3-1.48A8.24,8.24,0,0,0,66.5,42l-.07-.44a5.31,5.31,0,0,1,.26-1.4,4.57,4.57,0,0,1,.77-1.55.6.6,0,0,0,.15-.44,8.24,8.24,0,0,1,.63-1.7q.4-.81.77-1.62a.67.67,0,0,0-.07-.3.31.31,0,0,1,0-.3q.15-.44.33-.89a3.33,3.33,0,0,1,.48-.81A5,5,0,0,0,70,32a.53.53,0,0,1,.52-.3,3.88,3.88,0,0,0,.37-.59,3.89,3.89,0,0,1,.37-.59c.3-.34.58-.7.85-1.07L73,28.34a6.76,6.76,0,0,0,.52-.74,2.49,2.49,0,0,1,.59-.66,2.88,2.88,0,0,0,.48-.44L75,26a3.18,3.18,0,0,0,.48-.85,5.43,5.43,0,0,1,.41-.85,27.81,27.81,0,0,0,1.85-3.62,3.56,3.56,0,0,0,.07-2.36,3.87,3.87,0,0,0-.37-.7,3.78,3.78,0,0,1-.37-.7,2.49,2.49,0,0,0-2.21-1.4.58.58,0,0,1-.37-.07q-.22-.37-.44-.3a.91.91,0,0,1-.52,0,2.61,2.61,0,0,0-1.48.22,2.32,2.32,0,0,0-.89,1.11,4.1,4.1,0,0,0-.37.81q-.15.44-.3.81-.22.59-.41,1.14a8.9,8.9,0,0,1-.48,1.14q-.81,1.77-1.55,3.76-.66,1.7-1.4,3.4t-1.55,3.4c-.1.2-.18.38-.26.55a.81.81,0,0,0,0,.63.34.34,0,0,1-.07.37,2.76,2.76,0,0,0-.48,1.11,1.94,1.94,0,0,1-.55,1c-.25.1-.3.22-.15.37a.92.92,0,0,1-.11.7c-.12.17-.26.38-.41.63a2.9,2.9,0,0,0-.24.45,2.18,2.18,0,0,0-.42.21q-.81.52-1.62,1.07a14.54,14.54,0,0,0-1.55,1.22q-.44.44-.92.85t-1,.78a1.1,1.1,0,0,1-.52.3.85.85,0,0,1,0-.55l.26-.63a7.56,7.56,0,0,0,.37-3.76A1.63,1.63,0,0,0,57,35.16a2.23,2.23,0,0,0-1-.33l-.07-.07a6.32,6.32,0,0,0-3,.41,11.32,11.32,0,0,0-2.62,1.51c-.25.25-.48.49-.7.74a2.59,2.59,0,0,1-.77.59l-.15.15v-.07s.06-.07,0-.07,0,0,0-.07A4.24,4.24,0,0,1,49,36.68q.26-.59.48-1.18l.89-2.29A12.5,12.5,0,0,0,51,31.44a12.41,12.41,0,0,1,.59-1.77q.52-1.55,1.07-3.06t1.14-3.06a2,2,0,0,0-.15-1.85L53,21.43a1.21,1.21,0,0,1-.44-.26,2.29,2.29,0,0,0-1.77.48,4.25,4.25,0,0,0-1,1.37l-.22.3a20.19,20.19,0,0,1-1.48,2.58q-.59,1-1.11,1.92a13,13,0,0,0-.89,2.07,3.14,3.14,0,0,1-.44,1q-.37.89-.81,1.77t-.81,1.77q-1,2.36-1.77,4.72l-1.62,4.72q-.15.59-.3,1.11t-.3,1.11q-.37,1.48-.66,3t-.59,3.06a6.49,6.49,0,0,0-.18,1.11,3.55,3.55,0,0,0,.11,1.11,1.12,1.12,0,0,1,.15,1.25,5.22,5.22,0,0,0,.89.7,3.86,3.86,0,0,0,1,.48,1.32,1.32,0,0,0,1-.11,1.68,1.68,0,0,1,1.14-.11l-.52,1a14.75,14.75,0,0,0-1.55,3.76,12.7,12.7,0,0,0-.15,2.66l1.44.3,1.44.3A2.46,2.46,0,0,0,45.83,64a10.05,10.05,0,0,0,1.77-1.77,19.08,19.08,0,0,0,1.29-2.07L50,58l1.77-3.54q.22-.44.41-.89l.41-1L53,51.51l.41-1.11q.29-.74.59-1.44a14.41,14.41,0,0,0,.52-1.44,5.84,5.84,0,0,1,.89-1.48q1-1,2-2t2.18-2a17.58,17.58,0,0,0,1.92-1.92l.11-.13q-.15.44-.33.87a33.93,33.93,0,0,0-1.22,3.8q-.48,1.88-1,3.8a6.49,6.49,0,0,0-.18,1.18,2.52,2.52,0,0,1-.41,1.18v.22a4.25,4.25,0,0,1,.07,1.37c0,.47-.1.92-.15,1.37a2,2,0,0,0,0,.41,3.29,3.29,0,0,0,.11.41,1.19,1.19,0,0,0,.07.37.69.69,0,0,1,0,.44,1.28,1.28,0,0,0,.15,1.18,1.86,1.86,0,0,1,.18.55,1.78,1.78,0,0,0,.18.55l1.33,3.1a1.06,1.06,0,0,0,.74.66,6.91,6.91,0,0,0,1.25.48q.66.19,1.33.33a1.27,1.27,0,0,0,.52-.07l1.22-.48,1.29-.55a1.4,1.4,0,0,0,.11-.41.69.69,0,0,1,.18-.41,2.94,2.94,0,0,0,.3-1.33,4.14,4.14,0,0,1,0-1.66A8.64,8.64,0,0,1,68,55.8q.15-.37.3-.77a5.42,5.42,0,0,0,.22-.77,8.5,8.5,0,0,1,.81-2.07,17.17,17.17,0,0,1,1.29-2.07A15,15,0,0,0,72,48a.42.42,0,0,0,.15-.3,16.48,16.48,0,0,0,1.33-1.77,17.37,17.37,0,0,1,1.11-1.55l.52-.61.07.1c.1.15.2.28.3.41s.2.26.3.41l-.3.44a8,8,0,0,0-1,1.73q-.37.92-.74,1.81a6.65,6.65,0,0,0,0,4.58,3.81,3.81,0,0,0,1.92,2.36q1.77,1.11,3.47-.66a.8.8,0,0,1,.22-.59l.52-.44a15.46,15.46,0,0,1,1.07-1.37q.55-.63,1.14-1.22a18.58,18.58,0,0,0,1.73-2A8.51,8.51,0,0,0,85,47a1.72,1.72,0,0,1,.3-.44,9.37,9.37,0,0,0,1-1.62q.37-.81.74-1.7a1.89,1.89,0,0,1,.81-1q1-.66,2.07-1.29c.27-.17.56-.32.85-.47a34.71,34.71,0,0,0-1.51,3.32q-.66,1.7-1.26,3.47a4,4,0,0,0-.22,1.25,1.28,1.28,0,0,1-.22,1.18.79.79,0,0,0-.18.89q.18.52.33.89a1.32,1.32,0,0,0,0,.81c.07.25.16.49.26.74a3.09,3.09,0,0,0,1.44,1,6,6,0,0,0,1.66.22,2,2,0,0,0,1.18-.44,3.8,3.8,0,0,1,.63-.63,3.75,3.75,0,0,0,.63-.63,1.38,1.38,0,0,0-.07.44.5.5,0,0,1-.15.37q-.37.44-.66.85a6.53,6.53,0,0,1-.66.77,1.92,1.92,0,0,1-.37.41,1.89,1.89,0,0,0-.37.41Q90.34,56.9,89.53,58A18.74,18.74,0,0,0,88,60.52L87.31,62q-.37.74-.74,1.55a39.56,39.56,0,0,0-1.7,3.91,23.42,23.42,0,0,0-1.11,4.13,1.56,1.56,0,0,0-.07.59c0,.25.09.48.11.7a2.74,2.74,0,0,0,.18.7l.33.33a2.6,2.6,0,0,0,.41.33,1.15,1.15,0,0,0,.44.18,1.12,1.12,0,0,1,.44.18A2.58,2.58,0,0,0,88.27,74l1-.7a6.75,6.75,0,0,0,.92-.77,20.55,20.55,0,0,0,1.62-1.66,9.68,9.68,0,0,0,1.33-2q.44-1,.92-2.1t1-2.1a11.66,11.66,0,0,0,.63-1.51,11.44,11.44,0,0,1,.63-1.51,5.77,5.77,0,0,0,.55-1.4,3.67,3.67,0,0,1,.63-1.33,1.81,1.81,0,0,1,.26-1,3.51,3.51,0,0,0,.41-.92,11.66,11.66,0,0,1,.37-1.4q.22-.66.44-1.4l.74-2.66.74-2.66a3.4,3.4,0,0,1,.44-1L103,45.61q.59-.59,1.25-1.14t1.26-1.14l.89-.89a7.69,7.69,0,0,1,1-.81l1.07-.77q.55-.4,1.14-.77l.92-.74q.48-.37.92-.74a1.75,1.75,0,0,0,.74-1.4Q112,36.83,111.3,36.68Zm-39.56-7.6a.52.52,0,0,1,.37-.52.72.72,0,0,0-.18.26.73.73,0,0,1-.18.26,5.8,5.8,0,0,1-.3.74c-.1-.2-.14-.32-.11-.37A2.2,2.2,0,0,1,71.74,29.07ZM47.89,54.91a6.69,6.69,0,0,0-.37.89Q47.3,56.39,47,57t-.55,1.18a8.36,8.36,0,0,1-1,1.7,6.31,6.31,0,0,1-1.4,1.4q-.3.3-.59-.07a3.24,3.24,0,0,1,.52-1.77l1.29-2a13,13,0,0,1,1.44-1.88,3.85,3.85,0,0,0,.59-.74A3.88,3.88,0,0,1,48,54,1.12,1.12,0,0,1,47.89,54.91Zm.22-1H48a.21.21,0,0,0,.07-.15Zm5.54-15.58q-.15.52-.3,1-.52,1.48-1,2.88t-.92,2.88a.3.3,0,0,0-.07.22A3.54,3.54,0,0,1,50.7,47a9.43,9.43,0,0,1-1.18,1.25,43.86,43.86,0,0,0-5.39,6.5,4.26,4.26,0,0,1-.33.55,2.22,2.22,0,0,1-.48.48.64.64,0,0,1-.07-.29,7.51,7.51,0,0,0,.66-1.62l.44-1.62q.37-1.25.85-2.55t.92-2.55q.44-1.11,1-2.18t1.14-2.18A6.43,6.43,0,0,1,49,41.7q.41-.52.78-1a1.9,1.9,0,0,1,.37-.41,1.91,1.91,0,0,0,.37-.41,4.73,4.73,0,0,1,1.44-1.51q.85-.55,1.88-1.14A4.32,4.32,0,0,1,53.65,38.38ZM81.41,47.2q-.59.85-1.29,1.73t-1.4,1.66a8.21,8.21,0,0,1-1.22,1.14.15.15,0,0,1,0-.11.15.15,0,0,0,0-.11l.78-2.58a12,12,0,0,1,1.14-2.51,3.83,3.83,0,0,1,.85-.18,2.73,2.73,0,0,0,.78-.18,6.41,6.41,0,0,0,1.25-.37Q82,46.35,81.41,47.2Zm4.21-7.79-.44,1.26a1.58,1.58,0,0,1-1,1.18l-1.44.7-1.44.7V43.1l.74-.89a1.5,1.5,0,0,0-.44-2.36,8.76,8.76,0,0,0-.81-.44h-.37a1.81,1.81,0,0,0-1.77,1.11,2,2,0,0,1-.37.52,2,2,0,0,0-.37.52A7.82,7.82,0,0,1,79,38a11.5,11.5,0,0,1,1.55-2.36,7.23,7.23,0,0,1,2-1.48.9.9,0,0,0,.37.22.94.94,0,0,1,.37.22q.59.44,1.14.92t1.14.92A1.62,1.62,0,0,1,86,37.64,5,5,0,0,1,85.61,39.41Zm9.71,16.28q-.19.63-.41,1.29-.37,1-.74,2.14t-.81,2.21q-1,2.51-2,4.58a6.45,6.45,0,0,1-.74,1.14q-.44.55-.89,1.07L89,69a5.26,5.26,0,0,0-.66,1,2.07,2.07,0,0,1-1.11,1,.67.67,0,0,1-.3-.81l.66-1.92q.37-1,.7-2a9.37,9.37,0,0,1,.92-2l1-1.62q.52-.81,1.11-1.62a4.12,4.12,0,0,1,.33-.55,3,3,0,0,0,.33-.63q.29-.59.55-1.22a8.11,8.11,0,0,1,.63-1.22q.44-.81.92-1.62a6.26,6.26,0,0,1,1.22-1.48A2.56,2.56,0,0,1,95.32,55.69Zm-.18-5.13a1,1,0,0,1,.44-.66A1.56,1.56,0,0,1,95.14,50.56Zm2.44-3.29a1.24,1.24,0,0,1-.15.55,1.18,1.18,0,0,1-.37.66,4.88,4.88,0,0,0-.63.59,4.59,4.59,0,0,0-.48.66.43.43,0,0,1-.3.07,11.34,11.34,0,0,1,.89-1.7,6.42,6.42,0,0,1,1.18-1.48A1.74,1.74,0,0,0,97.57,47.27Zm2-9.15a3.41,3.41,0,0,1-1.25,1.73,1.29,1.29,0,0,0,.07.48.29.29,0,0,1-.07.33q-.52.66-1,1.37a6,6,0,0,1-1.11,1.29,2,2,0,0,0-.37.52q-1,1.18-2,2.36t-2,2.44l-.37.37c-.2,0-.25-.17-.15-.37a7.62,7.62,0,0,1,.59-2.1q.44-1,.81-2a5.22,5.22,0,0,0,.37-.74,11.12,11.12,0,0,1,1-2.21l1.18-2.07q.59-1,1.25-1.88T98,35.79l.44-.52a.63.63,0,0,1,1,0l.59.66A13.79,13.79,0,0,1,99.57,38.12Z"/><path class="cls-1" d="M43.78,27.4a21.93,21.93,0,0,0-3-3.62,22.54,22.54,0,0,0-5-3.66A23,23,0,0,0,30,18a23.28,23.28,0,0,0-5.18-.58h-1l-.84,0a11.52,11.52,0,0,0-1.5.19,3.82,3.82,0,0,0-1.22.42.63.63,0,0,0-.33.52.44.44,0,0,0,0,.06,2.42,2.42,0,0,0-.74.55,1.6,1.6,0,0,0-.43.81l-.15-.06-.39-.13A.44.44,0,0,0,18,19.3a1,1,0,0,0-.43-.08,3,3,0,0,0-.68.1,8.36,8.36,0,0,0-1,.33,24.26,24.26,0,0,0-5.54,3.05,32.35,32.35,0,0,0-4.83,4.37A22.31,22.31,0,0,0,2.15,31.9a19.94,19.94,0,0,0-1.93,5.7A17.36,17.36,0,0,0,0,40.44c0,.44,0,.87,0,1.28s0,.82,0,1.22A21.28,21.28,0,0,0,1,49.32a23.34,23.34,0,0,0,2.58,5.61c.13.21.28.5.43.81s.21.43.32.64a3.58,3.58,0,0,0,1,1.3A9.49,9.49,0,0,1,6.5,58.91l.81.88.17-.15.08-.05-.22.25.1.16-.21.29,0,.09L6.94,61c-.08.22-.15.42-.19.59l.32.09v0l-.3.09,0,.12,0,.13-.19.32A6.25,6.25,0,0,0,6,63.53c-.21.56-.4,1.14-.62,1.83l-.08.28,0,.17,0,.08,0,.19c0,.08,0,.17,0,.25A3.24,3.24,0,0,0,6,68.62l.07.08.15.15.21.18.12.09.21.14a3.22,3.22,0,0,0,1.67.47h.21a3.21,3.21,0,0,0,.49-.07l.24-.06.11,0c1.2-.42,2.39-.83,3.75-1.17l3.58-.93L18.63,67l1-.29.34.06.33.05c.44.07.88.12,1.31.16.58.05,1.17.08,1.75.08l.79,0a20.9,20.9,0,0,0,2.38-.26l.64-.11a8.64,8.64,0,0,1,.87-.13,6.12,6.12,0,0,0,1.56-.32l.6-.19c.29-.1.57-.19.82-.25a18.8,18.8,0,0,0,5.5-2.42c.35-.22.72-.48,1.14-.79a.33.33,0,0,0,.13-.24c0-.52.09-1,.16-1.48a3,3,0,0,1,.06-.3c.11-.44.25-.89.4-1.32a.33.33,0,0,0-.14-.38l-.11-.07-.25-.18-.13-.1a.33.33,0,0,0-.4,0,21.31,21.31,0,0,1-3.77,2.58,20.62,20.62,0,0,1-6.95,2.26l-.47.06c-.91.12-1.76.24-2.62.3-.37,0-.74,0-1.11,0a10.68,10.68,0,0,1-1.91-.16l-1-.19h-.16l-.52.16-2.44.76c-.8.25-1.86.56-2.91.83a15.74,15.74,0,0,1-1.61.28,13.43,13.43,0,0,0-1.84.35c-.46.14-1,.3-1.53.5a19.78,19.78,0,0,1,1-2.95q.39-.86.77-1.75l.05-.12.41-1,.45-1.17a.57.57,0,0,0,0-.1.52.52,0,0,0,0-.15.33.33,0,0,0-.1-.18l-.74-.66c-.25-.22-.5-.45-.74-.68l-.17-.17-.37-.39-.48-.53A23.67,23.67,0,0,1,7,54.13,21.39,21.39,0,0,1,4.36,49,19.51,19.51,0,0,1,3.3,43.37a17.45,17.45,0,0,1,.16-3.07l.06,0a.32.32,0,0,0,.13,0A.33.33,0,0,0,3.84,40a3.23,3.23,0,0,1,.05-.37,1.88,1.88,0,0,0-.06-1.21l.08,0a.33.33,0,0,0,.15-.22,1,1,0,0,0,0-.57.33.33,0,0,0,0-.07h0a1.78,1.78,0,0,0,.37-.9c0-.15,0-.31.06-.48a4.22,4.22,0,0,1,.13-.79A9,9,0,0,1,5.25,34c.24-.47.51-.93.75-1.32a30,30,0,0,1,2.47-3.52,24.07,24.07,0,0,1,3-3l.37-.32c.46-.4.94-.81,1.44-1.18a6.75,6.75,0,0,1,1.92-1,6.87,6.87,0,0,0,.91-.45l1.53-.83a6,6,0,0,0,1.75-1.21l0,0h0a1,1,0,0,0,.42.07H20a.45.45,0,0,0,0,.27.33.33,0,0,0,.31.22h.06a19,19,0,0,1,3.69-.36h.47A19.12,19.12,0,0,1,29,22a19.46,19.46,0,0,1,8.27,4.62l.21.2a7.41,7.41,0,0,0,1,.87A11.21,11.21,0,0,1,40,28.72a5.27,5.27,0,0,1,.83.9.33.33,0,0,0,0,.1c.09.25.31.7.57.7h0l.1,0a5.69,5.69,0,0,1,.29.54l.3-.13-.3.13a.33.33,0,0,0,.29.19h0a.33.33,0,0,0,.29-.19c.2-.41.39-.82.57-1.24a3,3,0,0,1,.23-.44l.07-.11,0-.07,0-.13c.14-.41.29-.83.47-1.25A.33.33,0,0,0,43.78,27.4Z"/></g></g></svg>