<svg xmlns="http://www.w3.org/2000/svg" viewBox="0 0 22.3 22.28"><defs><style>.cls-1{fill:#191933;}</style></defs><title>Asset 133</title><g id="Layer_2" data-name="Layer 2"><g id="Layer_1-2" data-name="Layer 1"><path class="cls-1" d="M18,0H4.31A4.31,4.31,0,0,0,0,4.3V18a4.31,4.31,0,0,0,4.31,4.31H18A4.31,4.31,0,0,0,22.3,18V4.3A4.31,4.31,0,0,0,18,0Zm1.24,2.57h.49V6.34H15.95V2.58ZM8,8.85a3.91,3.91,0,1,1-.74,2.29A3.92,3.92,0,0,1,8,8.85ZM20.12,18A2.14,2.14,0,0,1,18,20.11H4.31A2.14,2.14,0,0,1,2.17,18V8.85H5.5a6.1,6.1,0,1,0,11.3,0h3.33Z"/></g></g></svg>