<svg xmlns="http://www.w3.org/2000/svg" viewBox="0 0 21.7 21.69"><defs><style>.cls-1{fill:#1781ff;}</style></defs><title>Asset 160</title><g id="Layer_2" data-name="Layer 2"><g id="Layer_1-2" data-name="Layer 1"><path class="cls-1" d="M17.51,0H4.19A4.2,4.2,0,0,0,0,4.19v13.3a4.2,4.2,0,0,0,4.19,4.19H17.51a4.2,4.2,0,0,0,4.2-4.19V4.19A4.2,4.2,0,0,0,17.51,0Zm1.2,2.5h.48V6.17H15.52V2.51Zm-11,6.12A3.81,3.81,0,1,1,7,10.84,3.81,3.81,0,0,1,7.75,8.62Zm11.83,8.88a2.08,2.08,0,0,1-2.08,2.08H4.19a2.08,2.08,0,0,1-2.08-2.08V8.62H5.35a5.93,5.93,0,1,0,11,0h3.24Z"/></g></g></svg>