<svg xmlns="http://www.w3.org/2000/svg" viewBox="0 0 15.39 26.25"><defs><style>.cls-1{fill:#191933;}</style></defs><title>Asset 134</title><g id="Layer_2" data-name="Layer 2"><g id="Layer_1-2" data-name="Layer 1"><path class="cls-1" d="M11.26,0H4.13A4.13,4.13,0,0,0,0,4.13v18a4.13,4.13,0,0,0,4.13,4.13h7.13a4.13,4.13,0,0,0,4.13-4.13v-18A4.13,4.13,0,0,0,11.26,0ZM7.69,24.67a1.36,1.36,0,1,1,1.36-1.36A1.36,1.36,0,0,1,7.69,24.67Zm5.37-4.41H2.32V4A1.53,1.53,0,0,1,3.85,2.49h7.69A1.53,1.53,0,0,1,13.07,4Z"/></g></g></svg>