<svg xmlns="http://www.w3.org/2000/svg" viewBox="0 0 21.26 27.66"><defs><style>.cls-1{fill:#04a54a;}</style></defs><title>Asset 136</title><g id="Layer_2" data-name="Layer 2"><g id="Layer_1-2" data-name="Layer 1"><path class="cls-1" d="M10.63,27.66l-.48-.37C9.73,27,0,19.38,0,10.63a10.63,10.63,0,0,1,21.26,0c0,8.75-9.73,16.34-10.15,16.66Zm0-26.08a9.06,9.06,0,0,0-9.05,9.05c0,6.93,7.12,13.39,9.05,15,1.94-1.63,9.05-8.1,9.05-15A9.06,9.06,0,0,0,10.63,1.57Z"/><path class="cls-1" d="M10.81,15.4a4.8,4.8,0,1,1,4.8-4.8A4.8,4.8,0,0,1,10.81,15.4Zm0-8A3.22,3.22,0,1,0,14,10.6,3.22,3.22,0,0,0,10.81,7.38Z"/></g></g></svg>