<svg xmlns="http://www.w3.org/2000/svg" xmlns:xlink="http://www.w3.org/1999/xlink" viewBox="0 0 66.15 46.76"><defs><style>.cls-1{fill:url(#linear-gradient);}.cls-2{fill:url(#linear-gradient-2);}.cls-3{fill:url(#linear-gradient-3);}</style><linearGradient id="linear-gradient" x1="17.99" y1="18.96" x2="47.13" y2="18.96" gradientUnits="userSpaceOnUse"><stop offset="0" stop-color="#0ab950"/><stop offset="1" stop-color="#00cdbe"/></linearGradient><linearGradient id="linear-gradient-2" x1="26.23" y1="14.54" x2="39.38" y2="14.54" xlink:href="#linear-gradient"/><linearGradient id="linear-gradient-3" x1="0" y1="35.52" x2="66.15" y2="35.52" xlink:href="#linear-gradient"/></defs><title>Asset 109</title><g id="Layer_2" data-name="Layer 2"><g id="Layer_1-2" data-name="Layer 1"><path class="cls-1" d="M32.56,37.93l-.66-.51C31.33,37,18,26.57,18,14.57a14.57,14.57,0,0,1,29.15,0c0,12-13.35,22.41-13.92,22.85Zm0-35.77A12.43,12.43,0,0,0,20.15,14.57c0,9.51,9.76,18.36,12.41,20.6C35.21,32.93,45,24.07,45,14.57A12.43,12.43,0,0,0,32.56,2.16Z"/><path class="cls-2" d="M32.81,21.11a6.58,6.58,0,1,1,6.58-6.58A6.58,6.58,0,0,1,32.81,21.11Zm0-11a4.42,4.42,0,1,0,4.42,4.42A4.42,4.42,0,0,0,32.81,10.12Z"/><path class="cls-3" d="M62.56,46.76h-59a3.58,3.58,0,0,1-2.53-6.11L17.43,24.28,19,25.81,2.58,42.18a1.42,1.42,0,0,0,1,2.42h59a1.42,1.42,0,0,0,1-2.42L47.19,25.81l1.53-1.53L65.09,40.65a3.58,3.58,0,0,1-2.53,6.11Z"/></g></g></svg>