<svg xmlns="http://www.w3.org/2000/svg" viewBox="0 0 19.24 25.03"><defs><style>.cls-1{fill:#000e1c;}</style></defs><title>Asset 139</title><g id="Layer_2" data-name="Layer 2"><g id="Layer_1-2" data-name="Layer 1"><path class="cls-1" d="M9.62,0A9.63,9.63,0,0,0,0,9.62C0,17.54,8.81,24.41,9.18,24.7l.43.33.43-.33c.38-.29,9.18-7.16,9.18-15.08A9.63,9.63,0,0,0,9.62,0Zm0,23.21C7.87,21.74,1.42,15.89,1.42,9.62a8.19,8.19,0,0,1,16.39,0C17.81,15.88,11.37,21.74,9.62,23.21Z"/><path class="cls-1" d="M9.78,5.25a4.34,4.34,0,1,0,4.34,4.34A4.35,4.35,0,0,0,9.78,5.25Zm0,7.26A2.92,2.92,0,1,1,12.7,9.59,2.92,2.92,0,0,1,9.78,12.51Z"/></g></g></svg>