<svg xmlns="http://www.w3.org/2000/svg" xmlns:xlink="http://www.w3.org/1999/xlink" viewBox="0 0 34.51 49.2"><defs><style>.cls-1{fill:url(#linear-gradient);}.cls-2{fill:url(#linear-gradient-2);}.cls-3{fill:url(#linear-gradient-3);}</style><linearGradient id="linear-gradient" y1="21.22" x2="34.51" y2="21.22" gradientUnits="userSpaceOnUse"><stop offset="0" stop-color="#0ab950"/><stop offset="1" stop-color="#00cdbe"/></linearGradient><linearGradient id="linear-gradient-2" x1="9.42" y1="16.75" x2="25.09" y2="16.75" xlink:href="#linear-gradient"/><linearGradient id="linear-gradient-3" x1="0.4" y1="46.03" x2="34.02" y2="46.03" xlink:href="#linear-gradient"/></defs><title>Asset 178</title><g id="Layer_2" data-name="Layer 2"><g id="Layer_1-2" data-name="Layer 1"><path class="cls-1" d="M17.17,42.43a.81.81,0,0,1-.27-.06v0C16.48,42.1,15.48,41,11,36,8.38,33.11,5,29.28,3.71,27.75A16.76,16.76,0,0,1,0,17.25H0V17a17.26,17.26,0,0,1,34.5,0h0v.3a17.3,17.3,0,0,1-3.9,10.63c-1.35,1.65-5.12,5.87-7.25,8.23C18.44,41.58,17.67,42.43,17.17,42.43ZM1.84,17.11a14.76,14.76,0,0,0,3.29,9.47c2,2.46,9.74,11,12.08,13.55,2.3-2.51,9.94-11,12-13.43a15.46,15.46,0,0,0,3.48-9.61,15.41,15.41,0,0,0-30.82,0Z"/><path class="cls-2" d="M17.25,24.59a7.84,7.84,0,1,1,7.84-7.84A7.85,7.85,0,0,1,17.25,24.59Zm0-13.83a6,6,0,1,0,6,6A6,6,0,0,0,17.25,10.76Z"/><path class="cls-3" d="M17.22,49.2a8.45,8.45,0,0,1-6-2.49,6.67,6.67,0,0,0-9.49-.06L.4,45.34a8.51,8.51,0,0,1,12,0,6.68,6.68,0,0,0,4.78,2h0a6.63,6.63,0,0,0,4.72-2,8.51,8.51,0,0,1,12.07,0l-1.31,1.3a6.67,6.67,0,0,0-9.46,0,8.45,8.45,0,0,1-6,2.51Z"/></g></g></svg>