<svg xmlns="http://www.w3.org/2000/svg" viewBox="0 0 43.41 43.41"><defs><style>.cls-1{fill:#000e1c;}.cls-2{fill:#fff;}.cls-3{fill:none;}</style></defs><title>Asset 127</title><g id="Layer_2" data-name="Layer 2"><g id="Layer_1-2" data-name="Layer 1"><circle class="cls-1" cx="21.7" cy="21.7" r="21.7"/><path class="cls-2" d="M15.69,35.41A3,3,0,0,1,14.21,35a4.68,4.68,0,0,1-2.09-5.12A2.76,2.76,0,0,1,13.68,28a2.44,2.44,0,0,1,.93-.18A3.92,3.92,0,0,1,18,30.46c.81,2,.2,4.13-1.36,4.77A2.47,2.47,0,0,1,15.69,35.41Z"/><path class="cls-2" d="M21.79,35.41a22.65,22.65,0,0,1-2.38-.1A5.2,5.2,0,0,0,20,34a6.37,6.37,0,0,0-.26-4.23A6.58,6.58,0,0,0,18,27.24a4.14,4.14,0,0,1,7.55,0,6.58,6.58,0,0,0-1.77,2.49A6.37,6.37,0,0,0,23.54,34a5.2,5.2,0,0,0,.62,1.35A22.65,22.65,0,0,1,21.79,35.41Z"/><path class="cls-2" d="M16.35,26.23a4.79,4.79,0,0,0-1.66-.33l.2-1-3.66.52H11a1.35,1.35,0,0,1-.42-2.63l5-1.67A10.69,10.69,0,0,0,21,22.92,6,6,0,0,0,16.35,26.23Zm10.86,0a6,6,0,0,0-4.66-3.31A10.69,10.69,0,0,0,28,21.15l5,1.67a1.35,1.35,0,0,1-.42,2.63h-.19l-3.67-.52.2,1A4.79,4.79,0,0,0,27.22,26.23Z"/><path class="cls-2" d="M27.88,35.41a2.47,2.47,0,0,1-.94-.18,2.75,2.75,0,0,1-1.55-1.83,4.44,4.44,0,0,1,.19-2.94A3.92,3.92,0,0,1,29,27.82a2.44,2.44,0,0,1,.93.18,2.76,2.76,0,0,1,1.57,1.87A4.68,4.68,0,0,1,29.37,35,3,3,0,0,1,27.88,35.41Z"/><path class="cls-3" d="M20.89,11.76a1.43,1.43,0,1,0-1.63,1.41,5.46,5.46,0,0,1,1.22-.42A1.42,1.42,0,0,0,20.89,11.76Z"/><path class="cls-3" d="M24.11,10.33a1.43,1.43,0,0,0-1.43,1.43,1.42,1.42,0,0,0,.38,1,5.51,5.51,0,0,1,1.33.45,1.43,1.43,0,0,0-.27-2.83Z"/><path class="cls-2" d="M28.52,6.69a3,3,0,0,0-2.71,1.73l-.2.42-.43-.16a10.05,10.05,0,0,0-6.8,0L18,8.83l-.2-.42a3,3,0,1,0-3.9,4l.4.17-.12.42a5.72,5.72,0,0,0-.21,1.55c0,3.69,3.38,6.47,7.86,6.47s7.86-2.78,7.86-6.47A5.73,5.73,0,0,0,29.43,13l-.12-.42.4-.17a3,3,0,0,0-1.19-5.72ZM18,11.76a1.43,1.43,0,1,1,2.45,1,5.46,5.46,0,0,0-1.22.42A1.43,1.43,0,0,1,18,11.76Zm3.8,5.07a1.86,1.86,0,0,1-2-1.58,1.86,1.86,0,0,1,2-1.58,1.86,1.86,0,0,1,2,1.58A1.86,1.86,0,0,1,21.83,16.82Zm2.55-3.67a5.51,5.51,0,0,0-1.33-.45,1.42,1.42,0,0,1-.38-1,1.43,1.43,0,1,1,1.7,1.4Z"/></g></g></svg>