<svg xmlns="http://www.w3.org/2000/svg" viewBox="0 0 43.41 43.41"><defs><style>.cls-1{fill:#000e1c;}.cls-2{fill:#fff;}</style></defs><title>Asset 123</title><g id="Layer_2" data-name="Layer 2"><g id="Layer_1-2" data-name="Layer 1"><circle class="cls-1" cx="21.7" cy="21.7" r="21.7"/><path class="cls-2" d="M21.77,21.14,19,13.75a2,2,0,0,0-2.13-1.26H13a2,2,0,0,0-2.13,1.26L8.11,21.14a.93.93,0,0,0,1.75.64l2.09-5.64c.23-.66.91-.28.68.31S8.94,26.52,8.94,26.52h3.35v7.65a1.06,1.06,0,0,0,2.12,0V26.52h1.06v7.65a1.06,1.06,0,0,0,2.12,0V26.52h3.35s-3.49-9.59-3.67-10.06.44-.95.68-.28L20,21.8a.93.93,0,0,0,.87.6.94.94,0,0,0,.87-1.26Z"/><circle class="cls-2" cx="14.94" cy="9.63" r="2.31"/><circle class="cls-2" cx="28.82" cy="9.74" r="2.29"/><path class="cls-2" d="M34.24,14.63a2.72,2.72,0,0,0-2.77-2.13h-5.3a2.72,2.72,0,0,0-2.77,2.13c0,.05,0,7.63,0,7.63a.93.93,0,0,0,1.85,0V15.59c.26-.45.79-.36.79.11V34a1.06,1.06,0,0,0,2.12,0V24a.66.66,0,0,1,1.32,0V34a1.06,1.06,0,0,0,2.12,0V15.7c0-.47.53-.56.79-.11v6.66a.93.93,0,0,0,1.85,0S34.25,14.68,34.24,14.63Z"/></g></g></svg>