<svg xmlns="http://www.w3.org/2000/svg" viewBox="0 0 51.81 51.25"><defs><style>.cls-1{fill:none;stroke:#fff;stroke-miterlimit:10;stroke-width:1.42px;}</style></defs><title>Asset 149</title><g id="Layer_2" data-name="Layer 2"><g id="Layer_1-2" data-name="Layer 1"><path class="cls-1" d="M0,20.22H5.74a4,4,0,0,1,4,4V43.62a6.92,6.92,0,0,0,6.92,6.92H35.47a6.92,6.92,0,0,0,6.92-6.92V24.19a4,4,0,0,1,4-4h5.45"/><path class="cls-1" d="M7.59,13.56c0,2.18,8.15,4.09,18.31,4.09s18.31-1.91,18.31-4.09c0-4.84-8.2-8.76-18.31-8.76S7.59,8.72,7.59,13.56Z"/><path class="cls-1" d="M24,4.94V2.53A1.83,1.83,0,0,1,25.83.71H26a1.83,1.83,0,0,1,1.83,1.83V4.8"/></g></g></svg>