<svg xmlns="http://www.w3.org/2000/svg" xmlns:xlink="http://www.w3.org/1999/xlink" viewBox="0 0 63.36 47.16"><defs><style>.cls-1{fill:url(#linear-gradient);}.cls-2{fill:url(#linear-gradient-2);}.cls-3{fill:url(#linear-gradient-3);}.cls-4{fill:url(#linear-gradient-4);}.cls-5{fill:url(#linear-gradient-5);}.cls-6{fill:url(#linear-gradient-6);}.cls-7{fill:url(#linear-gradient-7);}</style><linearGradient id="linear-gradient" x1="12.96" y1="14.04" x2="50.4" y2="14.04" gradientUnits="userSpaceOnUse"><stop offset="0" stop-color="#0ab950"/><stop offset="1" stop-color="#00cdbe"/></linearGradient><linearGradient id="linear-gradient-2" x1="0" y1="23.58" x2="63.36" y2="23.58" xlink:href="#linear-gradient"/><linearGradient id="linear-gradient-3" x1="44.82" y1="20.16" x2="46.98" y2="20.16" xlink:href="#linear-gradient"/><linearGradient id="linear-gradient-4" x1="16.38" y1="19.8" x2="18.54" y2="19.8" xlink:href="#linear-gradient"/><linearGradient id="linear-gradient-5" x1="38.94" y1="29.88" x2="41.1" y2="29.88" xlink:href="#linear-gradient"/><linearGradient id="linear-gradient-6" x1="33.66" y1="30.36" x2="35.82" y2="30.36" xlink:href="#linear-gradient"/><linearGradient id="linear-gradient-7" x1="21.18" y1="32.28" x2="30.06" y2="32.28" xlink:href="#linear-gradient"/></defs><title>Asset 110</title><g id="Layer_2" data-name="Layer 2"><g id="Layer_1-2" data-name="Layer 1"><rect class="cls-1" x="12.96" y="12.96" width="37.44" height="2.16"/><g id="_Group_" data-name="&lt;Group&gt;"><path class="cls-2" d="M47,47.16H16.38V27.36H6.27A6.28,6.28,0,0,1,0,21.09V6.87A6.88,6.88,0,0,1,6.88,0H56.49a6.88,6.88,0,0,1,6.87,6.87v13.8a6.7,6.7,0,0,1-6.69,6.69H47ZM18.54,45H44.82V25.2H56.67a4.53,4.53,0,0,0,4.53-4.53V6.87a4.71,4.71,0,0,0-4.71-4.71H6.88A4.72,4.72,0,0,0,2.16,6.87V21.09A4.12,4.12,0,0,0,6.27,25.2H18.54Z"/><rect class="cls-3" x="44.82" y="14.04" width="2.16" height="12.24"/><rect class="cls-4" x="16.38" y="13.32" width="2.16" height="12.96"/></g><rect class="cls-5" x="38.94" y="14.04" width="2.16" height="31.68"/><rect class="cls-6" x="33.66" y="14.52" width="2.16" height="31.68"/><path class="cls-7" d="M30.06,39.12H21.18V25.44h8.88ZM23.34,37H27.9V27.6H23.34Z"/></g></g></svg>