<svg xmlns="http://www.w3.org/2000/svg" xmlns:xlink="http://www.w3.org/1999/xlink" viewBox="0 0 43.41 43.41"><defs><style>.cls-1{fill:#fff;}.cls-2{fill:url(#linear-gradient);}</style><linearGradient id="linear-gradient" x1="10.54" y1="21.54" x2="32.12" y2="21.54" gradientUnits="userSpaceOnUse"><stop offset="0" stop-color="#0ab950"/><stop offset="1" stop-color="#00cdbe"/></linearGradient></defs><title>Asset 154</title><g id="Layer_2" data-name="Layer 2"><g id="Layer_1-2" data-name="Layer 1"><circle class="cls-1" cx="21.7" cy="21.7" r="21.7"/><path class="cls-2" d="M10.54,16.88a3.65,3.65,0,0,1,1.12-2.78,4.21,4.21,0,0,1,3-1.06,4.22,4.22,0,0,1,3,1.05,3.74,3.74,0,0,1,1.11,2.85v.92a3.63,3.63,0,0,1-1.11,2.77,4.19,4.19,0,0,1-3,1,4.31,4.31,0,0,1-3-1,3.66,3.66,0,0,1-1.14-2.85Zm2.77,1a1.54,1.54,0,0,0,.37,1.07,1.3,1.3,0,0,0,1,.41q1.34,0,1.34-1.7v-.76a1.63,1.63,0,0,0-.36-1.08,1.25,1.25,0,0,0-1-.42,1.27,1.27,0,0,0-1,.41,1.62,1.62,0,0,0-.37,1.12ZM17.41,30l-2.19-1.1,9.91-15.87,2.19,1.1Zm6.44-4.89A3.61,3.61,0,0,1,25,22.37a4.25,4.25,0,0,1,3-1,4.29,4.29,0,0,1,3,1,3.72,3.72,0,0,1,1.12,2.88v.89A3.64,3.64,0,0,1,31,28.91a4.21,4.21,0,0,1-3,1,4.31,4.31,0,0,1-3-1,3.66,3.66,0,0,1-1.14-2.85Zm2.76,1a1.51,1.51,0,0,0,.41,1,1.29,1.29,0,0,0,1,.45,1.17,1.17,0,0,0,1.34-1.17V25.15A1.56,1.56,0,0,0,29,24.07a1.44,1.44,0,0,0-2,0,1.54,1.54,0,0,0-.4,1Z"/></g></g></svg>