<svg xmlns="http://www.w3.org/2000/svg" xmlns:xlink="http://www.w3.org/1999/xlink" viewBox="0 0 99.72 38.39"><defs><style>.cls-1{fill:#fff;}.cls-2{clip-path:url(#clip-path);}</style><clipPath id="clip-path"><path class="cls-1" d="M8.75,9.43a16.53,16.53,0,0,0,4.05,8L0,17.31c4.06,3.46,6,6.89,6.54,10.31a16.55,16.55,0,0,0,8.88-1.38L11.34,38.38c4.54-2.79,8.4-3.55,11.82-3a16.57,16.57,0,0,0,1.43-8.88L34.88,34.1c-1.25-5.18-.78-9.09.77-12.18a16.55,16.55,0,0,0-8-4.11l10.43-7.41C32.77,10,29.2,8.33,26.73,5.9a16.52,16.52,0,0,0-6.37,6.34l1.7,5.42a18.91,18.91,0,0,1,5.59.15L23,21.09a18.86,18.86,0,0,1,1.58,5.37L20,23.08a18.94,18.94,0,0,1-4.62,3.17l1.81-5.38a19.08,19.08,0,0,1-4.44-3.42l5.68.06a18.89,18.89,0,0,1,1.88-5.27L16.53,0c-2,4.93-4.71,7.81-7.78,9.41"/></clipPath></defs><title>Asset 163</title><g id="Layer_2" data-name="Layer 2"><g id="Layer_1-2" data-name="Layer 1"><path class="cls-1" d="M70,19.16c0-3.37,1.45-5.93,3.46-5.93,1.4,0,2.61,1.59,2.61,3.46a1.9,1.9,0,0,1-.75,1.73,18,18,0,0,1-2.2,1.17l-3,1.21A13.53,13.53,0,0,1,70,19.16m27.71.7c-.89-.75-1.87-1.17-5.14-2.15,0,0-2.94-.93-3.41-1.21a1.9,1.9,0,0,1-.89-1.63c0-1.31,1.17-2.19,2.85-2.19a4.47,4.47,0,0,1,3.55,2.05C95.43,15.84,95.57,16,96,16s1.12-.51,1.78-1.26a2.34,2.34,0,0,0,.7-1.35c0-1.36-3.55-2.76-7.1-2.76-4.58,0-7.75,2.52-7.75,6.17a5.6,5.6,0,0,0,1.12,3.36c.84,1,2,1.54,4.39,2.19h0c5.32,1.4,6.58,2.24,6.58,4.15S94,29.71,91.83,29.71c-1.87,0-3.78-.88-6.21-3-.84-.7-1.21-.93-1.59-.93a1,1,0,0,0-.93,1,3.53,3.53,0,0,0,.09.68A12.63,12.63,0,0,1,77.85,29a7.17,7.17,0,0,1-5-2,7.66,7.66,0,0,1-2.24-3.88L78.36,20c2.1-.89,2.94-1.92,2.94-3.69,0-3.08-3.22-5.7-7-5.7-5.37,0-9.86,4.81-9.86,10.56a11.53,11.53,0,0,0,1.74,6.16l-.75.38a13.91,13.91,0,0,1-4.39,1.68,7.5,7.5,0,0,0,2.2-5.19,5.88,5.88,0,0,0-2-4.34c-.89-.75-1.87-1.17-5.14-2.15,0,0-2.94-.93-3.41-1.21a1.9,1.9,0,0,1-.89-1.63c0-1.31,1.17-2.19,2.85-2.19a4.47,4.47,0,0,1,3.55,2.05C59,15.84,59.13,16,59.55,16s1.12-.51,1.77-1.26a2.34,2.34,0,0,0,.7-1.35c0-1.36-3.55-2.76-7.1-2.76-4.58,0-7.75,2.52-7.75,6.17a5.6,5.6,0,0,0,1.12,3.36c.84,1,2,1.54,4.39,2.19,5.33,1.4,6.59,2.24,6.59,4.16s-1.73,3.22-3.88,3.22c-1.87,0-3.78-.89-6.21-3-.84-.7-1.21-.93-1.59-.93a1,1,0,0,0-.93,1,8.43,8.43,0,0,0,1,3.18c.84,1.4,3.83,2.29,7.61,2.29a20.19,20.19,0,0,0,8.5-1.73A9.2,9.2,0,0,0,67,28.43a10.24,10.24,0,0,0,8,3.81,14.32,14.32,0,0,0,7.71-2.38,10.21,10.21,0,0,0,1-.71,5.76,5.76,0,0,0,.4.81c.84,1.4,3.83,2.29,7.61,2.29,3.06,0,8-1.71,8-8h0a5.88,5.88,0,0,0-2-4.34"/><path class="cls-1" d="M8.75,9.43a16.53,16.53,0,0,0,4.05,8L0,17.31c4.06,3.46,6,6.89,6.54,10.31a16.55,16.55,0,0,0,8.88-1.38L11.34,38.38c4.54-2.79,8.4-3.55,11.82-3a16.57,16.57,0,0,0,1.43-8.88L34.88,34.1c-1.25-5.18-.78-9.09.77-12.18a16.55,16.55,0,0,0-8-4.11l10.43-7.41C32.77,10,29.2,8.33,26.73,5.9a16.52,16.52,0,0,0-6.37,6.34l1.7,5.42a18.91,18.91,0,0,1,5.59.15L23,21.09a18.86,18.86,0,0,1,1.58,5.37L20,23.08a18.94,18.94,0,0,1-4.62,3.17l1.81-5.38a19.08,19.08,0,0,1-4.44-3.42l5.68.06a18.89,18.89,0,0,1,1.88-5.27L16.53,0c-2,4.93-4.71,7.81-7.78,9.41"/><g class="cls-2"><rect class="cls-1" width="38.11" height="38.39"/></g><path class="cls-1" d="M8.75,9.43a16.53,16.53,0,0,0,4.05,8L0,17.31c4.06,3.46,6,6.89,6.54,10.31a16.55,16.55,0,0,0,8.88-1.38L11.34,38.38c4.54-2.79,8.4-3.55,11.82-3a16.57,16.57,0,0,0,1.43-8.88L34.88,34.1c-1.25-5.18-.78-9.09.77-12.18a16.55,16.55,0,0,0-8-4.11l10.43-7.41C32.77,10,29.2,8.33,26.73,5.9a16.52,16.52,0,0,0-6.37,6.34l1.7,5.42a18.91,18.91,0,0,1,5.59.15L23,21.09a18.86,18.86,0,0,1,1.58,5.37L20,23.08a18.94,18.94,0,0,1-4.62,3.17l1.81-5.38a19.08,19.08,0,0,1-4.44-3.42l5.68.06a18.89,18.89,0,0,1,1.88-5.27L16.53,0c-2,4.93-4.71,7.81-7.78,9.41"/></g></g></svg>