<svg xmlns="http://www.w3.org/2000/svg" viewBox="0 0 49.86 50.39"><defs><style>.cls-1{fill:none;stroke:#fff;stroke-linejoin:round;stroke-width:1.42px;}</style></defs><title>Asset 146</title><g id="Layer_2" data-name="Layer 2"><g id="Layer_1-2" data-name="Layer 1"><path class="cls-1" d="M46.73,4.5l-2.38,7a1.08,1.08,0,0,0,.16,1l4.43,5.93a1.08,1.08,0,0,1-.88,1.73l-7.4-.09a1.08,1.08,0,0,0-.9.46l-4.27,6a1.08,1.08,0,0,1-1.91-.3l-2.2-7.07a1.08,1.08,0,0,0-.71-.71l-7.07-2.2a1.08,1.08,0,0,1-.3-1.91l6-4.27a1.08,1.08,0,0,0,.46-.9L29.7,1.8A1.08,1.08,0,0,1,31.43.93l5.93,4.43a1.08,1.08,0,0,0,1,.16l7-2.38A1.08,1.08,0,0,1,46.73,4.5Z"/><path class="cls-1" d="M27.61,20.48,1.18,46.9a1.62,1.62,0,0,0,0,2.3h0a1.62,1.62,0,0,0,2.3,0L29.73,23"/></g></g></svg>