<svg xmlns="http://www.w3.org/2000/svg" viewBox="0 0 43.5 45.58"><defs><style>.cls-1{fill:none;stroke:#000e1c;stroke-miterlimit:10;stroke-width:1.42px;}</style></defs><title>Asset 114</title><g id="Layer_2" data-name="Layer 2"><g id="Layer_1-2" data-name="Layer 1"><circle class="cls-1" cx="20.59" cy="4.98" r="4.28"/><line class="cls-1" y1="44.88" x2="43.5" y2="44.88"/><path class="cls-1" d="M16.69,15h0a4,4,0,0,0-2.35,3.61v8.1A1.64,1.64,0,0,0,16,28.32h0a.93.93,0,0,1,.92.86l.7,10a1.09,1.09,0,0,0,1.08,1h3.83a1.09,1.09,0,0,0,1.08-1l.7-10a.93.93,0,0,1,.92-.86h0a1.64,1.64,0,0,0,1.64-1.64v-8.1A4,4,0,0,0,24.51,15h0A9.64,9.64,0,0,0,16.69,15Z"/></g></g></svg>