<svg xmlns="http://www.w3.org/2000/svg" viewBox="0 0 52 49.5"><defs><style>.cls-1{fill:none;stroke:#fff;stroke-miterlimit:10;stroke-width:1.42px;}</style></defs><title>Asset 150</title><g id="Layer_2" data-name="Layer 2"><g id="Layer_1-2" data-name="Layer 1"><path class="cls-1" d="M45.21,3.87l-13.76-.7a.73.73,0,0,0-.53.19L.94,31.06a.73.73,0,0,0,0,1L16.12,48.56a.73.73,0,0,0,1,0l30-27.69a.73.73,0,0,0,.23-.52l.25-14A2.52,2.52,0,0,0,45.21,3.87Z"/><circle class="cls-1" cx="37.74" cy="13.32" r="3.48" transform="translate(0.98 29.14) rotate(-42.73)"/><line class="cls-1" x1="22.43" y1="19.63" x2="21.79" y2="35.88"/><line class="cls-1" x1="46.97" y1="4.72" x2="51.52" y2="0.52"/></g></g></svg>