<svg xmlns="http://www.w3.org/2000/svg" xmlns:xlink="http://www.w3.org/1999/xlink" viewBox="0 0 52.35 52.35"><defs><style>.cls-1{fill:url(#linear-gradient);}.cls-2{fill:url(#linear-gradient-2);}.cls-3{fill:url(#linear-gradient-3);}.cls-4{fill:url(#linear-gradient-5);}</style><linearGradient id="linear-gradient" y1="26.18" x2="52.35" y2="26.18" gradientUnits="userSpaceOnUse"><stop offset="0" stop-color="#0ab950"/><stop offset="1" stop-color="#00cdbe"/></linearGradient><linearGradient id="linear-gradient-2" x1="32.54" y1="14.89" x2="42.38" y2="14.89" xlink:href="#linear-gradient"/><linearGradient id="linear-gradient-3" x1="12.87" y1="33.09" x2="25.65" y2="33.09" gradientTransform="translate(29.04 -3.93) rotate(45)" xlink:href="#linear-gradient"/><linearGradient id="linear-gradient-5" x1="17.56" y1="28.4" x2="30.34" y2="28.4" gradientTransform="translate(27.1 -8.62) rotate(45)" xlink:href="#linear-gradient"/></defs><title>Asset 174</title><g id="Layer_2" data-name="Layer 2"><g id="Layer_1-2" data-name="Layer 1"><path class="cls-1" d="M21,52.35l-21-21L24.69,6.66,34.32.86a6,6,0,0,1,7.31.89l9,9A6,6,0,0,1,51.49,18l-5.94,9.81Zm-18.43-21L21,49.75,44.17,26.62l5.75-9.54A4.13,4.13,0,0,0,49.3,12l-9-9a4.13,4.13,0,0,0-5.06-.62L25.74,8.18Z"/><path class="cls-2" d="M37.46,19.82a4.92,4.92,0,1,1,3.48-1.44A4.91,4.91,0,0,1,37.46,19.82Zm0-8a3.08,3.08,0,0,0-2.18,5.26,3.16,3.16,0,0,0,4.36,0,3.08,3.08,0,0,0-2.18-5.26Z"/><rect class="cls-3" x="18.34" y="24.97" width="1.84" height="16.24" transform="translate(-17.76 23.31) rotate(-45)"/><rect class="cls-3" x="18.34" y="24.97" width="1.84" height="16.24" transform="translate(-17.76 23.31) rotate(-45)"/><rect class="cls-4" x="23.03" y="20.28" width="1.84" height="16.24" transform="translate(-13.07 25.25) rotate(-45)"/></g></g></svg>