<svg xmlns="http://www.w3.org/2000/svg" viewBox="0 0 30.8 26.22"><defs><style>.cls-1{fill:#04a54a;}</style></defs><title>Asset 137</title><g id="Layer_2" data-name="Layer 2"><g id="Layer_1-2" data-name="Layer 1"><path class="cls-1" d="M15.4,22.21a6.05,6.05,0,1,1,6.05-6.05A6.06,6.06,0,0,1,15.4,22.21Zm0-10.69A4.64,4.64,0,1,0,20,16.16,4.65,4.65,0,0,0,15.4,11.51Zm13.2.15-.24,0-5.31-.78a1.72,1.72,0,0,1-1.45-2c.07-.5.16-.93.24-1.3A2.88,2.88,0,0,0,22,6.33c-.23-.34-1.74-.62-2.31-.73a30.45,30.45,0,0,0-4.24-.45,30.28,30.28,0,0,0-4.27.45c-.57.11-2.08.4-2.31.73A2.82,2.82,0,0,0,9,7.59c.08.4.17.82.24,1.32a1.72,1.72,0,0,1-1.45,2l-5.3.78-.23,0A1.75,1.75,0,0,1,.5,10.19L0,7.1a4.81,4.81,0,0,1,0-.49C.08,2.42,8,.25,15.37,0c7.4.25,15.35,2.41,15.42,6.57a4.77,4.77,0,0,1,0,.53l-.46,3.09a1.74,1.74,0,0,1-1.68,1.47h0ZM15.4,1.41C7.6,1.68,1.46,4,1.41,6.6c0,.07,0,.18,0,.3L1.9,10a.32.32,0,0,0,.31.27l5.34-.79a.31.31,0,0,0,.26-.36c-.07-.47-.15-.88-.23-1.24a3,3,0,0,1,.09-2.33c.47-.7,1.45-1,3.22-1.33a31.76,31.76,0,0,1,4.43-.47h.12a31.2,31.2,0,0,1,4.49.47c1.77.33,2.75.63,3.22,1.33a2.94,2.94,0,0,1,.09,2.32c-.07.37-.16.77-.23,1.24a.31.31,0,0,0,.26.36l5.31.78A.32.32,0,0,0,28.9,10l.46-3.09c0-.12,0-.23,0-.35C29.34,4,23.07,1.67,15.4,1.41Z"/><path class="cls-1" d="M15.4,22a5.89,5.89,0,1,1,5.89-5.89A5.89,5.89,0,0,1,15.4,22Zm0-10.69a4.81,4.81,0,1,0,4.81,4.81A4.81,4.81,0,0,0,15.4,11.35Zm13.2.15h0l-.19,0-5.3-.78a1.56,1.56,0,0,1-1.31-1.77c.07-.51.16-.93.24-1.31.14-.68.24-1.17.1-1.38a5.23,5.23,0,0,0-2.42-.8A30.66,30.66,0,0,0,15.42,5h0a30.67,30.67,0,0,0-4.27.45,5.23,5.23,0,0,0-2.42.8c-.14.21,0,.7.1,1.38.08.38.16.8.24,1.31A1.56,1.56,0,0,1,7.72,10.7l-5.3.78-.2,0A1.57,1.57,0,0,1,.67,10.17L.21,7.08a4.65,4.65,0,0,1,0-.47C.24,2.52,8.1.41,15.38.16h0c7.28.25,15.14,2.36,15.22,6.41a4.55,4.55,0,0,1,0,.51h0l-.46,3.09a1.57,1.57,0,0,1-1.52,1.33ZM15.4,1.24C7.51,1.52,1.29,3.86,1.24,6.59c0,.09,0,.21,0,.33L1.73,10a.48.48,0,0,0,.47.41h.06l5.3-.78A.48.48,0,0,0,8,9.09c-.07-.48-.15-.89-.23-1.25-.19-.94-.33-1.61.06-2.2s1.39-.93,3.11-1.26a31.58,31.58,0,0,1,4.4-.47h.12a31.38,31.38,0,0,1,4.45.47c1.72.33,2.67.61,3.11,1.26s.25,1.26.06,2.2c-.07.36-.16.77-.23,1.25a.48.48,0,0,0,.4.54l5.3.78h.05a.48.48,0,0,0,.47-.41l.46-3.09a3.61,3.61,0,0,0,0-.36C29.5,3.86,23.29,1.52,15.4,1.24Z"/><path class="cls-1" d="M6.64,26.22A3.73,3.73,0,0,1,3.15,22.3V20c0-1,1-4,2.25-7.55l.05-.16,1.33.46L6.73,13A58.47,58.47,0,0,0,4.56,20V22.3a2.33,2.33,0,0,0,2.09,2.51H24.15a2.33,2.33,0,0,0,2.09-2.51V20a59,59,0,0,0-2-7l-.09-.26,1.34-.44.09.26c1.23,3.78,2.11,6.52,2.11,7.43V22.3a3.73,3.73,0,0,1-3.49,3.91Z"/><path class="cls-1" d="M24.15,26.05H6.64A3.56,3.56,0,0,1,3.32,22.3V20c0-.93,1-3.94,2.24-7.5l1,.35A56.22,56.22,0,0,0,4.39,20V22.3A2.49,2.49,0,0,0,6.64,25H24.15A2.49,2.49,0,0,0,26.4,22.3V20a56.81,56.81,0,0,0-2-7l0-.11,1-.33,0,.11c1.23,3.76,2.1,6.5,2.1,7.38V22.3A3.56,3.56,0,0,1,24.15,26.05Z"/></g></g></svg>