<svg xmlns="http://www.w3.org/2000/svg" viewBox="0 0 28.28 24.07"><defs><style>.cls-1{fill:none;}.cls-2{fill:#000e1c;}</style></defs><title>Asset 140</title><g id="Layer_2" data-name="Layer 2"><g id="Layer_1-2" data-name="Layer 1"><path class="cls-1" d="M14.14,1.29C7,1.54,1.34,3.63,1.29,6.06c0,.06,0,.17,0,.28l.42,2.83A.29.29,0,0,0,2,9.42l4.9-.72a.29.29,0,0,0,.24-.33C7.1,7.93,7,7.56,7,7.23A2.71,2.71,0,0,1,7,5.1c.43-.64,1.33-.91,3-1.22a29.24,29.24,0,0,1,4.07-.43h.11a28.67,28.67,0,0,1,4.12.43c1.62.31,2.52.58,3,1.22a2.7,2.7,0,0,1,.08,2.13c-.07.34-.14.71-.21,1.14a.29.29,0,0,0,.24.33l4.87.72a.29.29,0,0,0,.31-.24L27,6.34A3.2,3.2,0,0,0,27,6C26.94,3.66,21.18,1.54,14.14,1.29Z"/><circle class="cls-1" cx="14.14" cy="14.84" r="4.26"/><path class="cls-2" d="M19.7,14.84a5.56,5.56,0,1,0-5.56,5.56A5.56,5.56,0,0,0,19.7,14.84Zm-9.82,0a4.26,4.26,0,1,1,4.26,4.26A4.27,4.27,0,0,1,9.88,14.84Z"/><path class="cls-2" d="M14.12,0C7.37.23.07,2.23,0,6.07a4.43,4.43,0,0,0,0,.45L.46,9.36A1.61,1.61,0,0,0,2,10.71l.21,0L7.11,10A1.58,1.58,0,0,0,8.44,8.18C8.38,7.72,8.3,7.34,8.22,7a2.59,2.59,0,0,1-.11-1.15c.21-.31,1.6-.57,2.12-.67a27.83,27.83,0,0,1,3.92-.41A28,28,0,0,1,18,5.14c.52.1,1.91.36,2.12.67A2.65,2.65,0,0,1,20.05,7c-.07.34-.15.73-.22,1.2A1.58,1.58,0,0,0,21.17,10l4.87.72.22,0h0a1.59,1.59,0,0,0,1.55-1.35l.42-2.84a4.37,4.37,0,0,0,0-.49C28.21,2.22,20.91.23,14.12,0ZM27,6.34l-.42,2.84a.29.29,0,0,1-.31.24l-4.87-.72a.29.29,0,0,1-.24-.33c.06-.43.14-.8.21-1.14a2.7,2.7,0,0,0-.08-2.13c-.43-.64-1.33-.91-3-1.22a28.67,28.67,0,0,0-4.12-.43h-.11A29.24,29.24,0,0,0,10,3.87c-1.62.31-2.52.58-3,1.22A2.71,2.71,0,0,0,7,7.23c.07.33.14.7.21,1.14a.29.29,0,0,1-.24.33L2,9.42a.29.29,0,0,1-.28-.25L1.32,6.34c0-.11,0-.22,0-.28C1.34,3.63,7,1.54,14.14,1.29,21.18,1.54,26.94,3.66,27,6A3.2,3.2,0,0,1,27,6.34Z"/><path class="cls-2" d="M23.37,11.34l-1.23.4.08.24a54.14,54.14,0,0,1,1.87,6.42v2.07a2.14,2.14,0,0,1-1.91,2.3H6.1a2.14,2.14,0,0,1-1.91-2.3V18.41a53.73,53.73,0,0,1,2-6.51l0-.14L5,11.33l0,.14c-1.13,3.28-2.07,6.06-2.07,6.93v2.07A3.42,3.42,0,0,0,6.1,24.07H22.18a3.42,3.42,0,0,0,3.21-3.59V18.41a41.23,41.23,0,0,0-1.93-6.82Z"/></g></g></svg>