<svg xmlns="http://www.w3.org/2000/svg" xmlns:xlink="http://www.w3.org/1999/xlink" viewBox="0 0 61.02 51.85"><defs><style>.cls-1{fill:url(#linear-gradient);}.cls-2{fill:url(#linear-gradient-2);}.cls-3{fill:url(#linear-gradient-3);}.cls-4{fill:url(#linear-gradient-4);}</style><linearGradient id="linear-gradient" y1="21.91" x2="61.02" y2="21.91" gradientUnits="userSpaceOnUse"><stop offset="0" stop-color="#0ab950"/><stop offset="1" stop-color="#00cdbe"/></linearGradient><linearGradient id="linear-gradient-2" x1="6.31" y1="38.33" x2="54.71" y2="38.33" xlink:href="#linear-gradient"/><linearGradient id="linear-gradient-3" x1="44.5" y1="16.67" x2="59.22" y2="16.67" gradientTransform="translate(60.65 -37.09) rotate(81.47)" xlink:href="#linear-gradient"/><linearGradient id="linear-gradient-4" x1="1.54" y1="16.31" x2="16.08" y2="16.31" gradientTransform="translate(2.42 -1.09) rotate(8.2)" xlink:href="#linear-gradient"/></defs><title>Asset 106</title><g id="Layer_2" data-name="Layer 2"><g id="Layer_1-2" data-name="Layer 1"><path class="cls-1" d="M30.51,43.82A11.79,11.79,0,1,1,42.3,32,11.8,11.8,0,0,1,30.51,43.82Zm0-21.42A9.63,9.63,0,1,0,40.14,32,9.64,9.64,0,0,0,30.51,22.4Zm0,15.93a6.16,6.16,0,1,1,6.16-6.16A6.17,6.17,0,0,1,30.51,38.33Zm0-10.17a4,4,0,1,0,4,4A4,4,0,0,0,30.51,28.16ZM56.94,22.7h-.06l-.37,0L45.89,21.1a3.12,3.12,0,0,1-2.63-3.54c.15-1,.32-1.87.48-2.62.28-1.36.48-2.34.19-2.76-.47-.69-2.71-1.2-4.84-1.61a61.41,61.41,0,0,0-8.54-.9h-.08a61.42,61.42,0,0,0-8.54.9c-2.13.4-4.37.91-4.84,1.61-.28.42-.08,1.4.19,2.76.15.75.33,1.61.48,2.62a3.12,3.12,0,0,1-2.63,3.54L4.51,22.67l-.41,0A3.15,3.15,0,0,1,1,20L.09,13.85A9.31,9.31,0,0,1,0,12.9C.15,4.73,15.9.5,30.47,0h.07C45.12.5,60.87,4.73,61,12.84a9.12,9.12,0,0,1-.09,1h0L60,20A3.14,3.14,0,0,1,57,22.7ZM30.51,2.16C14.71,2.71,2.26,7.41,2.16,12.88c0,.17,0,.41.07.66l.91,6.19a1,1,0,0,0,.94.82H4.2L14.82,19a1,1,0,0,0,.81-1.09c-.14-1-.31-1.78-.46-2.51-.38-1.87-.66-3.23.13-4.4s2.78-1.87,6.23-2.52a63.24,63.24,0,0,1,8.82-.94h.23a62.85,62.85,0,0,1,8.91.94c3.45.65,5.36,1.22,6.23,2.52s.51,2.52.13,4.4c-.15.73-.31,1.55-.46,2.51A1,1,0,0,0,46.2,19l10.62,1.57h.11a1,1,0,0,0,.95-.82l.91-6.19a7.22,7.22,0,0,0,.07-.73C58.76,7.41,46.31,2.71,30.51,2.16Z"/><path class="cls-2" d="M48,51.85H13c-3.68,0-6.67-3.37-6.67-7.51V39.82c0-1.85,2-7.9,4.49-15l2,.7c-1.53,4.43-4.37,12.67-4.37,14.31v4.52c0,2.95,2,5.35,4.51,5.35H48c2.49,0,4.51-2.4,4.51-5.35V39.82c0-1.57-2.46-9.12-4.09-14.11l-.07-.21,2.05-.67.07.21c2.46,7.54,4.2,13,4.2,14.78v4.52C54.71,48.48,51.72,51.85,48,51.85Z"/><rect class="cls-3" x="50.78" y="9.39" width="2.16" height="14.56" transform="translate(27.68 65.48) rotate(-81.47)"/><rect class="cls-4" x="1.62" y="15.23" width="14.37" height="2.16" transform="translate(-2.24 1.42) rotate(-8.2)"/></g></g></svg>