<svg xmlns="http://www.w3.org/2000/svg" viewBox="0 0 24.15 24.15"><defs><style>.cls-1{fill:none;}.cls-2{fill:#04a54a;}</style></defs><title>Asset 135</title><g id="Layer_2" data-name="Layer 2"><g id="Layer_1-2" data-name="Layer 1"><path class="cls-1" d="M12.08,1.51A10.57,10.57,0,1,0,22.64,12.08,10.58,10.58,0,0,0,12.08,1.51Zm3.29,14.93-3.83-3.83.53-.53h-.75V4h1.51v7.76l3.61,3.61Z"/><path class="cls-2" d="M12.08,0A12.08,12.08,0,1,0,24.15,12.08,12.09,12.09,0,0,0,12.08,0Zm0,22.64A10.57,10.57,0,1,1,22.64,12.08,10.58,10.58,0,0,1,12.08,22.64Z"/><polygon class="cls-2" points="12.83 4 11.32 4 11.32 12.08 12.08 12.08 11.54 12.61 15.37 16.44 16.44 15.37 12.83 11.76 12.83 4"/></g></g></svg>