<svg xmlns="http://www.w3.org/2000/svg" viewBox="0 0 23.63 23.63"><defs><style>.cls-1{fill:none;}.cls-2{fill:#000e1c;}</style></defs><title>Asset 138</title><g id="Layer_2" data-name="Layer 2"><g id="Layer_1-2" data-name="Layer 1"><path class="cls-1" d="M11.82,1.48A10.34,10.34,0,1,0,22.16,11.82,10.35,10.35,0,0,0,11.82,1.48ZM15,16.08,11.3,12.34l.52-.52h-.74V3.92h1.48v7.59L16.08,15Z"/><path class="cls-2" d="M11.82,0A11.82,11.82,0,1,0,23.63,11.82,11.83,11.83,0,0,0,11.82,0Zm0,22.16A10.34,10.34,0,1,1,22.16,11.82,10.35,10.35,0,0,1,11.82,22.16Z"/><polygon class="cls-2" points="12.56 4.92 11.08 4.92 11.08 12.82 11.82 12.82 11.29 13.34 15.04 17.08 16.08 16.04 12.56 12.51 12.56 4.92"/></g></g></svg>