<svg xmlns="http://www.w3.org/2000/svg" viewBox="0 0 49.87 44.04"><defs><style>.cls-1{fill:#fff;}</style></defs><title>Asset 148</title><g id="Layer_2" data-name="Layer 2"><g id="Layer_1-2" data-name="Layer 1"><g id="_Group_" data-name="&lt;Group&gt;"><path class="cls-1" d="M44.6,44a.74.74,0,0,1-.37-.1L29.1,35.2H16.25a6.07,6.07,0,0,1-4.83-2.52.74.74,0,0,1,.22-1.09l8.56-4.94a.74.74,0,0,1,.37-.1h13c2.66,0,4.83-2.49,4.83-5.55V7.91a.74.74,0,0,1,.74-.74h4.37c3.48,0,6.31,3.15,6.31,7v14c0,3.88-2.83,7-6.31,7h-1.5L45.29,43a.74.74,0,0,1-.68,1ZM13.16,32.42a4.45,4.45,0,0,0,3.09,1.3h13a.74.74,0,0,1,.37.1l13.42,7.76-2.82-6.83a.74.74,0,0,1,.68-1h2.61c2.66,0,4.83-2.49,4.83-5.55v-14c0-3.06-2.17-5.55-4.83-5.55H39.93V21c0,3.88-2.83,7-6.31,7H20.77Z"/><path class="cls-1" d="M5.26,36.87a.74.74,0,0,1-.68-1L7.81,28H6.31C2.83,28,0,24.87,0,21V7C0,3.15,2.83,0,6.31,0H33.62c3.48,0,6.31,3.15,6.31,7V21c0,3.88-2.83,7-6.31,7H20.77L5.63,36.77A.74.74,0,0,1,5.26,36.87Zm1-35.39C3.65,1.48,1.48,4,1.48,7V21c0,3.06,2.17,5.55,4.83,5.55H8.91a.74.74,0,0,1,.68,1L6.78,34.4l4.86-2.81h0l8.56-4.94a.74.74,0,0,1,.37-.1h13c2.66,0,4.83-2.49,4.83-5.55V7c0-3.06-2.17-5.55-4.83-5.55Z"/></g></g></g></svg>