<svg xmlns="http://www.w3.org/2000/svg" viewBox="0 0 43.41 43.41"><defs><style>.cls-1{fill:#000e1c;}.cls-2{fill:#fff;}</style></defs><title>Asset 124</title><g id="Layer_2" data-name="Layer 2"><g id="Layer_1-2" data-name="Layer 1"><circle class="cls-1" cx="21.7" cy="21.7" r="21.7"/><circle class="cls-2" cx="19.23" cy="9.58" r="2.26"/><path class="cls-2" d="M36,27.54a1,1,0,0,0-1.57-.77l-1.3.78-3.9-5.89h0a1.65,1.65,0,0,0-1.45-.89l-6.51,0V19.08h5.11a.94.94,0,0,0,.95-.92.89.89,0,0,0-.89-.92H21.32s0-2.56,0-2.61a2.09,2.09,0,1,0-4.18,0s0,7.31,0,7.39a2.09,2.09,0,0,0,2.07,2.09l8.42,0,4.27,6.51,3.69-2.22h0A1,1,0,0,0,36,27.54Z"/><path class="cls-2" d="M27.48,26.42a7.08,7.08,0,1,1-11.59-6.33V18A8.75,8.75,0,1,0,28.76,28.29Z"/></g></g></svg>