<svg xmlns="http://www.w3.org/2000/svg" viewBox="0 0 26.51 18.64"><defs><style>.cls-1{fill:#1781ff;}</style></defs><title>Asset 157</title><g id="Layer_2" data-name="Layer 2"><g id="Layer_1-2" data-name="Layer 1"><path class="cls-1" d="M13,18.64c-2.32-.06-4.9-.11-7.47-.2a16.93,16.93,0,0,1-2.38-.26A3.09,3.09,0,0,1,.63,16a10.5,10.5,0,0,1-.48-2.59A50,50,0,0,1,0,7.51C.07,6.32.18,5.14.3,4A5.3,5.3,0,0,1,.86,2.08,3.06,3.06,0,0,1,3.3.37C4.25.24,5.21.19,6.18.15,9.39,0,12.61,0,15.83,0c1.77,0,3.55.09,5.32.16a19.06,19.06,0,0,1,2,.18A3.23,3.23,0,0,1,25.9,2.66a10.4,10.4,0,0,1,.46,2.52,53.29,53.29,0,0,1,.13,5.88,23.6,23.6,0,0,1-.34,4,7.05,7.05,0,0,1-.42,1.34,3,3,0,0,1-2.19,1.82,8.38,8.38,0,0,1-1.53.2q-2.11.11-4.23.16C16.27,18.59,14.75,18.61,13,18.64ZM10.51,9h0q0,1.64,0,3.27c0,.09,0,.19,0,.28s.08.18.21.11l.22-.11,5.75-3,.68-.36A2.55,2.55,0,0,0,17.59,9a1.71,1.71,0,0,0-.24-.18L10.87,5.47c-.35-.18-.36-.18-.36.21Q10.5,7.33,10.51,9Z"/></g></g></svg>